<?xml version="1.0" encoding="utf-8"?>
<!-- Generator: Adobe Illustrator 25.0.1, SVG Export Plug-In . SVG Version: 6.00 Build 0)  -->
<svg version="1.1" id="Layer_1" xmlns="http://www.w3.org/2000/svg" xmlns:xlink="http://www.w3.org/1999/xlink" x="0px" y="0px"
	 viewBox="0 0 40 40" style="enable-background:new 0 0 40 40;" xml:space="preserve">
<style type="text/css">
	.st0{fill:none;}
	.st1{fill:#272635;}
</style>
<rect class="st0" width="40" height="40"/>
<path class="st1" d="M20,29.1c-0.2,0-0.5-0.1-0.7-0.3c-0.7-0.6-1.5-1.2-2.3-1.6V28c0,0.6-0.4,1-1,1s-1-0.4-1-1v-1.6
	c-0.6-0.2-1.3-0.3-1.9-0.4c-0.4,0-0.8-0.4-0.9-0.8C12.1,24.5,12,23.7,12,23c0-1.4,0.2-2.7,0.6-4l-2.1-1.2C10.2,17.7,10,17.4,10,17
	s0.2-0.7,0.5-0.9l9-5c0.3-0.2,0.7-0.2,1,0l9,5c0.3,0.2,0.5,0.5,0.5,0.9s-0.2,0.7-0.5,0.9L27.4,19c0.4,1.3,0.6,2.6,0.6,4
	c0,0.7-0.1,1.5-0.2,2.2c-0.1,0.4-0.4,0.8-0.9,0.8c-2.3,0.2-4.5,1.2-6.3,2.7C20.5,29,20.2,29.1,20,29.1z M17,25c1.1,0.4,2.1,1,3,1.8
	c1.7-1.4,3.8-2.2,5.9-2.6c0-0.4,0.1-0.8,0.1-1.2c0-1-0.1-2-0.4-3l-5.1,2.8c-0.3,0.2-0.7,0.2-1,0L17,21.5V25z M14.1,24.2
	c0.3,0,0.6,0.1,0.9,0.2v-3.8v-0.1L14.4,20c-0.3,1-0.4,2-0.4,3C14,23.4,14,23.8,14.1,24.2z M18.7,20.1l1.3,0.7l5.7-3.2l0,0l1.3-0.7
	l-7-3.8L13.1,17l1.3,0.7l0,0l2.3,1.3l2.9-1.6c0.5-0.3,1.1-0.1,1.4,0.4s0.1,1.1-0.4,1.4L18.7,20.1z"/>
</svg>
