<?xml version="1.0" encoding="utf-8"?>
<!-- Generator: Adobe Illustrator 25.0.1, SVG Export Plug-In . SVG Version: 6.00 Build 0)  -->
<svg version="1.1" id="Layer_1" xmlns="http://www.w3.org/2000/svg" xmlns:xlink="http://www.w3.org/1999/xlink" x="0px" y="0px"
	 viewBox="0 0 40 40" style="enable-background:new 0 0 40 40;" xml:space="preserve">
<style type="text/css">
	.st0{fill:none;}
	.st1{fill:#272635;}
</style>
<rect class="st0" width="40" height="40"/>
<g>
	<path class="st1" d="M15,21.2V12c0-0.6-0.4-1-1-1s-1,0.4-1,1v9.2c-1.2,0.4-2,1.5-2,2.8s0.8,2.4,2,2.8V28c0,0.6,0.4,1,1,1s1-0.4,1-1
		v-1.2c1.2-0.4,2-1.5,2-2.8S16.2,21.6,15,21.2z M14,25L14,25c-0.6,0-1-0.4-1-1s0.4-1,1-1s1,0.4,1,1C15,24.5,14.6,25,14,25z"/>
	<path class="st1" d="M29,24c0-1.3-0.8-2.4-2-2.8V12c0-0.6-0.4-1-1-1s-1,0.4-1,1v9.2c-1.2,0.4-2,1.5-2,2.8s0.8,2.4,2,2.8V28
		c0,0.6,0.4,1,1,1s1-0.4,1-1v-1.2C28.2,26.4,29,25.3,29,24z M26,25c-0.6,0-1-0.4-1-1s0.4-1,1-1s1,0.4,1,1S26.6,25,26,25z"/>
	<path class="st1" d="M23,16c0-1.3-0.8-2.4-2-2.8V12c0-0.6-0.4-1-1-1s-1,0.4-1,1v1.2c-1.2,0.4-2,1.5-2,2.8s0.8,2.4,2,2.8V28
		c0,0.6,0.4,1,1,1s1-0.4,1-1v-9.2C22.2,18.4,23,17.3,23,16z M20,17c-0.6,0-1-0.4-1-1s0.4-1,1-1s1,0.4,1,1S20.6,17,20,17z"/>
</g>
</svg>
