<?xml version="1.0" encoding="utf-8"?>
<!-- Generator: Adobe Illustrator 25.0.1, SVG Export Plug-In . SVG Version: 6.00 Build 0)  -->
<svg version="1.1" id="Layer_1" xmlns="http://www.w3.org/2000/svg" xmlns:xlink="http://www.w3.org/1999/xlink" x="0px" y="0px"
	 viewBox="0 0 40 40" style="enable-background:new 0 0 40 40;" xml:space="preserve">
<style type="text/css">
	.st0{fill:none;}
	.st1{fill:#272635;}
</style>
<rect class="st0" width="40" height="40"/>
<path class="st1" d="M20,29c-0.3,0-0.5-0.1-0.7-0.3L15.6,25H13c-1.7,0-3-1.3-3-3v-8c0-1.7,1.3-3,3-3h14c1.7,0,3,1.3,3,3v8
	c0,1.7-1.3,3-3,3h-2.6l-3.7,3.7C20.5,28.9,20.3,29,20,29z M13,13c-0.6,0-1,0.4-1,1v8c0,0.6,0.4,1,1,1h3c0.3,0,0.5,0.1,0.7,0.3
	l3.3,3.3l3.3-3.3c0.2-0.2,0.4-0.3,0.7-0.3h3c0.6,0,1-0.4,1-1v-8c0-0.6-0.4-1-1-1H13z M19,21h-4c-0.6,0-1-0.4-1-1s0.4-1,1-1h4
	c0.6,0,1,0.4,1,1S19.6,21,19,21z M25,17H15c-0.6,0-1-0.4-1-1s0.4-1,1-1h10c0.6,0,1,0.4,1,1S25.6,17,25,17z"/>
</svg>
