<?xml version="1.0" encoding="utf-8"?>
<!-- Generator: Adobe Illustrator 25.0.1, SVG Export Plug-In . SVG Version: 6.00 Build 0)  -->
<svg version="1.1" id="Layer_1" xmlns="http://www.w3.org/2000/svg" xmlns:xlink="http://www.w3.org/1999/xlink" x="0px" y="0px"
	 viewBox="0 0 40 40" style="enable-background:new 0 0 40 40;" xml:space="preserve">
<style type="text/css">
	.st0{fill:none;}
	.st1{fill:#272635;}
</style>
<rect class="st0" width="40" height="40"/>
<path class="st1" d="M28,29h-4c-0.6,0-1-0.4-1-1s0.4-1,1-1h1.6l-3.3-3.3c-0.4-0.4-0.4-1,0-1.4s1-0.4,1.4,0l3.3,3.3V24
	c0-0.6,0.4-1,1-1s1,0.4,1,1v4l0,0l0,0c0,0.1,0,0.3-0.1,0.4c0,0.1-0.1,0.2-0.2,0.3s-0.2,0.2-0.3,0.2C28.3,29,28.1,29,28,29L28,29
	L28,29z M16,29h-4l0,0l0,0c-0.1,0-0.3,0-0.4-0.1c-0.1,0-0.2-0.1-0.3-0.2s-0.2-0.2-0.2-0.3c0-0.1-0.1-0.2-0.1-0.4l0,0l0,0v-4
	c0-0.6,0.4-1,1-1s1,0.4,1,1v1.6l3.3-3.3c0.4-0.4,1-0.4,1.4,0s0.4,1,0,1.4L14.4,27H16c0.6,0,1,0.4,1,1S16.6,29,16,29z M23,18
	c-0.3,0-0.5-0.1-0.7-0.3c-0.4-0.4-0.4-1,0-1.4l3.3-3.3H24c-0.6,0-1-0.4-1-1s0.4-1,1-1h4l0,0l0,0c0.1,0,0.3,0,0.4,0.1
	c0.1,0,0.2,0.1,0.3,0.2s0.2,0.2,0.2,0.3S29,11.8,29,12l0,0l0,0v4c0,0.6-0.4,1-1,1s-1-0.4-1-1v-1.6l-3.3,3.3C23.5,17.9,23.3,18,23,18
	z M17,18c-0.3,0-0.5-0.1-0.7-0.3L13,14.4V16c0,0.6-0.4,1-1,1s-1-0.4-1-1v-4l0,0l0,0c0-0.1,0-0.3,0.1-0.4c0-0.1,0.1-0.2,0.2-0.3
	s0.2-0.2,0.3-0.2S11.8,11,12,11l0,0l0,0h4c0.6,0,1,0.4,1,1s-0.4,1-1,1h-1.6l3.3,3.3c0.4,0.4,0.4,1,0,1.4C17.5,17.9,17.3,18,17,18z"
	/>
</svg>
