<?xml version="1.0" encoding="utf-8"?>
<!-- Generator: Adobe Illustrator 25.0.1, SVG Export Plug-In . SVG Version: 6.00 Build 0)  -->
<svg version="1.1" id="Layer_1" xmlns="http://www.w3.org/2000/svg" xmlns:xlink="http://www.w3.org/1999/xlink" x="0px" y="0px"
	 viewBox="0 0 40 40" style="enable-background:new 0 0 40 40;" xml:space="preserve">
<style type="text/css">
	.st0{fill:none;}
	.st1{fill:#272635;}
</style>
<rect class="st0" width="40" height="40"/>
<path class="st1" d="M27,28h-8.2c-0.8,0-1.6-0.3-2.1-0.9l-6.4-6.4c-0.4-0.4-0.4-1,0-1.4l6.4-6.4c0.6-0.6,1.3-0.9,2.1-0.9H27
	c1.7,0,3,1.3,3,3v10C30,26.7,28.7,28,27,28z M12.4,20l5.7,5.7c0.2,0.2,0.4,0.3,0.7,0.3H27c0.6,0,1-0.4,1-1V15c0-0.6-0.4-1-1-1h-8.2
	c-0.3,0-0.5,0.1-0.7,0.3L12.4,20z M24,23c-0.3,0-0.5-0.1-0.7-0.3L22,21.4l-1.3,1.3c-0.4,0.4-1,0.4-1.4,0s-0.4-1,0-1.4l1.3-1.3
	l-1.3-1.3c-0.4-0.4-0.4-1,0-1.4s1-0.4,1.4,0l1.3,1.3l1.3-1.3c0.4-0.4,1-0.4,1.4,0s0.4,1,0,1.4L23.4,20l1.3,1.3c0.4,0.4,0.4,1,0,1.4
	C24.5,22.9,24.3,23,24,23z"/>
</svg>
