<?xml version="1.0" encoding="utf-8"?>
<!-- Generator: Adobe Illustrator 24.3.0, SVG Export Plug-In . SVG Version: 6.00 Build 0)  -->
<svg version="1.1" id="Layer_1" xmlns:xodm="http://www.corel.com/coreldraw/odm/2003"
	 xmlns="http://www.w3.org/2000/svg" xmlns:xlink="http://www.w3.org/1999/xlink" x="0px" y="0px" viewBox="0 0 40 40"
	 style="enable-background:new 0 0 40 40;" xml:space="preserve">
<style type="text/css">
	.st0{fill:none;}
	.st1{fill:#272635;}
</style>
<rect class="st0" width="40" height="40"/>
<path class="st1" d="M20,30c-2.2,0-4-1.8-4-4h-4c-0.4,0-0.8-0.2-0.9-0.6C11,25,11,24.6,11.3,24.3l1.4-1.4c0.2-0.2,0.3-0.5,0.3-0.7
	V19c0-0.3,0-0.5,0-0.7l0,0c0-0.5,0.5-0.9,1-0.9c0.6,0,1,0.4,1,1v0.1v0.9v2.9c0,0.7-0.2,1.3-0.6,1.8h6.4c0.6,0,1,0.4,1,1s-0.4,1-1,1
	H18c0,1.1,0.9,2,2,2c0.8,0,1.5-0.5,1.8-1.2l0,0c0.2-0.3,0.5-0.6,0.9-0.6c0.6,0,1,0.4,1,1c0,0.2-0.1,0.4-0.2,0.6
	C22.9,29.2,21.6,30,20,30z M10.3,11.7L10.3,11.7c-0.4-0.4-0.4-1,0-1.4s1-0.4,1.4,0l3.6,3.6c0.5-0.5,1.1-0.9,1.7-1.2
	c0.2-1.5,1.5-2.7,3-2.7s2.8,1.2,3,2.7c2.4,1.1,4,3.6,4,6.3v3.2c0,0.3,0.1,0.5,0.3,0.7l1.4,1.4c0.3,0.3,0.4,0.7,0.2,1.1
	C28.8,25.8,28.4,26,28,26h-0.6l2.3,2.3c0.4,0.4,0.4,1,0,1.4s-1,0.4-1.4,0L24.6,26l-2-2l-7.1-7.1L14,15.4l0,0L10.3,11.7z M16.7,15.2
	l8.8,8.8h0.2c-0.4-0.5-0.6-1.2-0.6-1.8V19c0-2.1-1.3-4-3.3-4.7c-0.4-0.1-0.7-0.5-0.7-0.9V13c0-0.6-0.4-1-1-1s-1,0.4-1,1v0.3
	c0,0.4-0.3,0.8-0.7,0.9C17.7,14.4,17.1,14.8,16.7,15.2z"/>
<g id="Layer_x0020_1_0">
</g>
</svg>
