<?xml version="1.0" encoding="utf-8"?>
<!-- Generator: Adobe Illustrator 25.0.1, SVG Export Plug-In . SVG Version: 6.00 Build 0)  -->
<svg version="1.1" id="Layer_1" xmlns="http://www.w3.org/2000/svg" xmlns:xlink="http://www.w3.org/1999/xlink" x="0px" y="0px"
	 viewBox="0 0 40 40" style="enable-background:new 0 0 40 40;" xml:space="preserve">
<style type="text/css">
	.st0{fill:none;}
	.st1{fill:#272635;}
</style>
<rect class="st0" width="40" height="40"/>
<path class="st1" d="M27,30H13c-1.7,0-3-1.3-3-3V15c0-1.7,1.3-3,3-3h2v-1c0-0.6,0.4-1,1-1s1,0.4,1,1v1h6v-1c0-0.6,0.4-1,1-1
	s1,0.4,1,1v1h2c1.7,0,3,1.3,3,3v12C30,28.7,28.7,30,27,30z M13,14c-0.6,0-1,0.4-1,1v12c0,0.6,0.4,1,1,1h14c0.6,0,1-0.4,1-1V15
	c0-0.6-0.4-1-1-1h-2v1c0,0.6-0.4,1-1,1s-1-0.4-1-1v-1h-6v1c0,0.6-0.4,1-1,1s-1-0.4-1-1v-1H13z M25,20H15c-0.6,0-1-0.4-1-1s0.4-1,1-1
	h10c0.6,0,1,0.4,1,1S25.6,20,25,20z"/>
</svg>
