<?xml version="1.0" encoding="utf-8"?>
<!-- Generator: Adobe Illustrator 25.0.1, SVG Export Plug-In . SVG Version: 6.00 Build 0)  -->
<svg version="1.1" id="Layer_1" xmlns="http://www.w3.org/2000/svg" xmlns:xlink="http://www.w3.org/1999/xlink" x="0px" y="0px"
	 viewBox="0 0 40 40" style="enable-background:new 0 0 40 40;" xml:space="preserve">
<style type="text/css">
	.st0{fill:none;}
	.st1{fill:#272635;}
</style>
<rect class="st0" width="40" height="40"/>
<path class="st1" d="M26,29H14c-1.7,0-3-1.3-3-3V14c0-1.7,1.3-3,3-3h12c1.7,0,3,1.3,3,3v12C29,27.7,27.7,29,26,29z M14,13
	c-0.6,0-1,0.4-1,1v12c0,0.6,0.4,1,1,1h12c0.6,0,1-0.4,1-1V14c0-0.6-0.4-1-1-1H14z M24,25c-0.6,0-1-0.4-1-1v-8c0-0.6,0.4-1,1-1
	s1,0.4,1,1v8C25,24.6,24.6,25,24,25z M20,25c-0.6,0-1-0.4-1-1v-5c0-0.6,0.4-1,1-1s1,0.4,1,1v5C21,24.6,20.6,25,20,25z M16,25
	c-0.6,0-1-0.4-1-1v-2c0-0.6,0.4-1,1-1s1,0.4,1,1v2C17,24.6,16.6,25,16,25z"/>
</svg>
