<?xml version="1.0" encoding="utf-8"?>
<!-- Generator: Adobe Illustrator 25.0.1, SVG Export Plug-In . SVG Version: 6.00 Build 0)  -->
<svg version="1.1" id="Layer_1" xmlns="http://www.w3.org/2000/svg" xmlns:xlink="http://www.w3.org/1999/xlink" x="0px" y="0px"
	 viewBox="0 0 40 40" style="enable-background:new 0 0 40 40;" xml:space="preserve">
<style type="text/css">
	.st0{fill:none;}
	.st1{fill:#272635;}
</style>
<rect class="st0" width="40" height="40"/>
<g>
	<path class="st1" d="M29.7,20.3C29.5,20.1,29.3,20,29,20h-9v-9c0-0.3-0.1-0.6-0.3-0.7c-0.2-0.1-0.5-0.3-0.8-0.3
		c-5.1,0.6-8.9,4.9-8.9,10c0,5.5,4.5,10,10,10c5.1,0,9.4-3.8,9.9-8.9C30,20.8,29.9,20.5,29.7,20.3z M20,28c-4.4,0-8-3.6-8-8
		c0-3.7,2.5-6.9,6-7.7V21c0,0.6,0.4,1,1,1h8.7C26.9,25.5,23.7,28,20,28z"/>
	<path class="st1" d="M23,18h5.5c0.3,0,0.6-0.2,0.8-0.4c0.2-0.2,0.2-0.6,0.1-0.9c-1-2.9-3.2-5.1-6.1-6.1c-0.3-0.1-0.6-0.1-0.9,0.1
		c-0.2,0.2-0.4,0.5-0.4,0.8V17C22,17.5,22.5,18,23,18z M24,13c1.2,0.7,2.2,1.7,2.9,2.9H24V13z"/>
</g>
</svg>
