<?xml version="1.0" encoding="utf-8"?>
<!-- Generator: Adobe Illustrator 25.0.1, SVG Export Plug-In . SVG Version: 6.00 Build 0)  -->
<svg version="1.1" id="Layer_1" xmlns="http://www.w3.org/2000/svg" xmlns:xlink="http://www.w3.org/1999/xlink" x="0px" y="0px"
	 viewBox="0 0 40 40" style="enable-background:new 0 0 40 40;" xml:space="preserve">
<style type="text/css">
	.st0{fill:none;}
	.st1{fill:#272635;}
</style>
<rect class="st0" width="40" height="40"/>
<g>
	<path class="st1" d="M20,27c-1.3,0-2.7-0.3-3.8-0.9C16.1,26,15.9,26,15.8,26c-0.1,0-0.1,0-0.2,0l-3,0.6l0.8-2
		c0.1-0.3,0.1-0.7-0.1-0.9C12.4,22.6,12,21.3,12,20c0-3.9,3.6-7,8-7s8,3.1,8,7c0.7,0.1,1.4,0.3,2,0.6c0-0.2,0-0.4,0-0.6
		c0-5-4.5-9-10-9s-10,4-10,9c0,1.6,0.4,3.1,1.3,4.4l-1.2,3.2c-0.1,0.3-0.1,0.7,0.2,1c0.1,0.3,0.4,0.4,0.7,0.4c0.1,0,0.1,0,0.2,0
		l4.4-0.9C17,28.7,18.5,29,20,29c0.7,0,1.4-0.1,2.1-0.2c-0.3-0.6-0.5-1.2-0.6-1.9C21,27,20.5,27,20,27z"/>
	<path class="st1" d="M30.3,25h-2v-2c0-0.6-0.4-1-1-1s-1,0.4-1,1v2h-2c-0.6,0-1,0.4-1,1s0.4,1,1,1h2v2c0,0.6,0.4,1,1,1s1-0.4,1-1v-2
		h2c0.6,0,1-0.4,1-1S30.9,25,30.3,25z"/>
</g>
</svg>
