<?xml version="1.0" encoding="utf-8"?>
<!-- Generator: Adobe Illustrator 25.0.1, SVG Export Plug-In . SVG Version: 6.00 Build 0)  -->
<svg version="1.1" id="Layer_1" xmlns="http://www.w3.org/2000/svg" xmlns:xlink="http://www.w3.org/1999/xlink" x="0px" y="0px"
	 viewBox="0 0 40 40" style="enable-background:new 0 0 40 40;" xml:space="preserve">
<style type="text/css">
	.st0{fill:none;}
	.st1{fill:#272635;}
</style>
<rect class="st0" width="40" height="40"/>
<g>
	<path class="st1" d="M26,11H14c-1.7,0-3,1.3-3,3v12c0,1.7,1.3,3,3,3h12c1.7,0,3-1.3,3-3V14C29,12.3,27.7,11,26,11z M27,15.5V20v2
		v3.7V26c0,0.6-0.4,1-1,1H14c-0.6,0-1-0.4-1-1v-0.3V22v-2v-4.5V14c0-0.6,0.4-1,1-1h12c0.6,0,1,0.4,1,1V15.5z"/>
	<path class="st1" d="M24.3,16.1l-6.2,6.3l-2.4-2.3c-0.4-0.4-1-0.4-1.4,0c-0.4,0.4-0.4,1,0,1.4l3.1,3c0.2,0.2,0.4,0.3,0.7,0.3
		c0.2,0,0.5-0.1,0.7-0.3l6.9-7c0.4-0.4,0.4-1,0-1.4C25.3,15.7,24.7,15.7,24.3,16.1z"/>
</g>
</svg>
