<?xml version="1.0" encoding="utf-8"?>
<!-- Generator: Adobe Illustrator 25.0.1, SVG Export Plug-In . SVG Version: 6.00 Build 0)  -->
<svg version="1.1" id="Layer_1" xmlns="http://www.w3.org/2000/svg" xmlns:xlink="http://www.w3.org/1999/xlink" x="0px" y="0px"
	 viewBox="0 0 40 40" style="enable-background:new 0 0 40 40;" xml:space="preserve">
<style type="text/css">
	.st0{fill:none;}
	.st1{fill:#272635;}
</style>
<rect class="st0" width="40" height="40"/>
<path class="st1" d="M20,30c-3,0-5.7-1.3-7.6-3.5c0,0-0.1-0.1-0.1-0.2C10.9,24.6,10,22.4,10,20c0-5.5,4.5-10,10-10s10,4.5,10,10
	c0,2.4-0.9,4.6-2.3,6.4c0,0.1-0.1,0.1-0.1,0.2C25.7,28.7,23,30,20,30z M14.8,26.1C16.2,27.3,18,28,20,28s3.8-0.7,5.2-1.9
	C21.9,24.7,18.1,24.7,14.8,26.1z M20,12c-4.4,0-8,3.6-8,8c0,1.7,0.5,3.2,1.4,4.5c4.1-2,9.1-2,13.2,0c0.9-1.3,1.4-2.8,1.4-4.5
	C28,15.6,24.4,12,20,12z M20,22c-2.2,0-4-1.8-4-4s1.8-4,4-4s4,1.8,4,4S22.2,22,20,22z M20,16c-1.1,0-2,0.9-2,2s0.9,2,2,2s2-0.9,2-2
	S21.1,16,20,16z"/>
</svg>
