<?xml version="1.0" encoding="utf-8"?>
<!-- Generator: Adobe Illustrator 25.0.1, SVG Export Plug-In . SVG Version: 6.00 Build 0)  -->
<svg version="1.1" id="Layer_1" xmlns="http://www.w3.org/2000/svg" xmlns:xlink="http://www.w3.org/1999/xlink" x="0px" y="0px"
	 viewBox="0 0 40 40" style="enable-background:new 0 0 40 40;" xml:space="preserve">
<style type="text/css">
	.st0{fill:none;}
	.st1{fill:#272635;}
</style>
<rect class="st0" width="40" height="40"/>
<path class="st1" d="M30,20c0,5.5-4.5,10-10,10s-10-4.5-10-10s4.5-10,10-10S30,14.5,30,20z M12,20c0,4.4,3.6,8,8,8s8-3.6,8-8
	s-3.6-8-8-8S12,15.6,12,20z M25,20L25,20L25,20c0,0.1,0,0.3-0.1,0.4c0,0.1-0.1,0.2-0.2,0.3l-3,3c-0.4,0.4-1,0.4-1.4,0s-0.4-1,0-1.4
	l1.3-1.3H16c-0.6,0-1-0.4-1-1s0.4-1,1-1h5.6l-1.3-1.3c-0.4-0.4-0.4-1,0-1.4s1-0.4,1.4,0l3,3c0.1,0.1,0.2,0.2,0.2,0.3
	C25,19.7,25,19.9,25,20L25,20L25,20z"/>
</svg>
