<?xml version="1.0" encoding="utf-8"?>
<!-- Generator: Adobe Illustrator 25.0.1, SVG Export Plug-In . SVG Version: 6.00 Build 0)  -->
<svg version="1.1" id="Layer_1" xmlns="http://www.w3.org/2000/svg" xmlns:xlink="http://www.w3.org/1999/xlink" x="0px" y="0px"
	 viewBox="0 0 40 40" style="enable-background:new 0 0 40 40;" xml:space="preserve">
<style type="text/css">
	.st0{fill:none;}
	.st1{fill:#272635;}
</style>
<rect class="st0" width="40" height="40"/>
<path class="st1" d="M10,20c0-5.5,4.5-10,10-10s10,4.5,10,10s-4.5,10-10,10S10,25.5,10,20z M28,20c0-4.4-3.6-8-8-8s-8,3.6-8,8
	s3.6,8,8,8S28,24.4,28,20z M15,20L15,20L15,20c0-0.1,0-0.3,0.1-0.4c0-0.1,0.1-0.2,0.2-0.3l3-3c0.4-0.4,1-0.4,1.4,0s0.4,1,0,1.4
	L18.4,19H24c0.6,0,1,0.4,1,1s-0.4,1-1,1h-5.6l1.3,1.3c0.4,0.4,0.4,1,0,1.4s-1,0.4-1.4,0l-3-3c-0.1-0.1-0.2-0.2-0.2-0.3
	C15,20.3,15,20.1,15,20L15,20L15,20z"/>
</svg>
