<?xml version="1.0" encoding="utf-8"?>
<!-- Generator: Adobe Illustrator 25.0.1, SVG Export Plug-In . SVG Version: 6.00 Build 0)  -->
<svg version="1.1" id="Layer_1" xmlns="http://www.w3.org/2000/svg" xmlns:xlink="http://www.w3.org/1999/xlink" x="0px" y="0px"
	 viewBox="0 0 40 40" style="enable-background:new 0 0 40 40;" xml:space="preserve">
<style type="text/css">
	.st0{fill:none;}
	.st1{fill:#272635;}
</style>
<rect class="st0" width="40" height="40"/>
<path class="st1" d="M20,30c-5.5,0-10-4.5-10-10s4.5-10,10-10s10,4.5,10,10S25.5,30,20,30z M20,12c-4.4,0-8,3.6-8,8s3.6,8,8,8
	s8-3.6,8-8S24.4,12,20,12z M22,23c-0.3,0-0.5-0.1-0.7-0.3L20,21.4l-1.3,1.3c-0.4,0.4-1,0.4-1.4,0s-0.4-1,0-1.4l1.3-1.3l-1.3-1.3
	c-0.4-0.4-0.4-1,0-1.4s1-0.4,1.4,0l1.3,1.3l1.3-1.3c0.4-0.4,1-0.4,1.4,0s0.4,1,0,1.4L21.4,20l1.3,1.3c0.4,0.4,0.4,1,0,1.4
	C22.5,22.9,22.3,23,22,23z"/>
</svg>
