<?xml version="1.0" encoding="utf-8"?>
<!-- Generator: Adobe Illustrator 25.0.1, SVG Export Plug-In . SVG Version: 6.00 Build 0)  -->
<svg version="1.1" id="Layer_1" xmlns="http://www.w3.org/2000/svg" xmlns:xlink="http://www.w3.org/1999/xlink" x="0px" y="0px"
	 viewBox="0 0 40 40" style="enable-background:new 0 0 40 40;" xml:space="preserve">
<style type="text/css">
	.st0{fill:none;}
	.st1{fill:#272635;}
</style>
<rect class="st0" width="40" height="40"/>
<path class="st1" d="M20,30c-5.5,0-10-4.5-10-10s4.5-10,10-10s10,4.5,10,10S25.5,30,20,30z M20,12c-4.4,0-8,3.6-8,8s3.6,8,8,8
	s8-3.6,8-8S24.4,12,20,12z M22,24c-0.6,0-1-0.4-1-1v-6c0-0.6,0.4-1,1-1s1,0.4,1,1v6C23,23.6,22.6,24,22,24z M18,24c-0.6,0-1-0.4-1-1
	v-6c0-0.6,0.4-1,1-1s1,0.4,1,1v6C19,23.6,18.6,24,18,24z"/>
</svg>
