<?xml version="1.0" encoding="utf-8"?>
<!-- Generator: Adobe Illustrator 25.0.1, SVG Export Plug-In . SVG Version: 6.00 Build 0)  -->
<svg version="1.1" id="Layer_1" xmlns="http://www.w3.org/2000/svg" xmlns:xlink="http://www.w3.org/1999/xlink" x="0px" y="0px"
	 viewBox="0 0 40 40" style="enable-background:new 0 0 40 40;" xml:space="preserve">
<style type="text/css">
	.st0{fill:none;}
	.st1{fill:#272635;}
</style>
<rect class="st0" width="40" height="40"/>
<g>
	<path class="st1" d="M23.3,18.3l-3.2-2.1c-0.6-0.4-1.4-0.4-2.1-0.1s-1.1,1-1.1,1.8v4.3c0,0.7,0.4,1.4,1.1,1.8
		c0.3,0.2,0.6,0.2,0.9,0.2c0.4,0,0.8-0.1,1.1-0.3l3.2-2.1c0.6-0.4,0.9-1,0.9-1.7S23.9,18.7,23.3,18.3z M19,22.1v-4.3l3.2,2.1
		L19,22.1z"/>
	<path class="st1" d="M20,10c-5.5,0-10,4.5-10,10s4.5,10,10,10s10-4.5,10-10S25.5,10,20,10z M20,28c-4.4,0-8-3.6-8-8s3.6-8,8-8
		s8,3.6,8,8S24.4,28,20,28z"/>
</g>
</svg>
