<?xml version="1.0" encoding="utf-8"?>
<!-- Generator: Adobe Illustrator 25.0.1, SVG Export Plug-In . SVG Version: 6.00 Build 0)  -->
<svg version="1.1" id="Layer_1" xmlns="http://www.w3.org/2000/svg" xmlns:xlink="http://www.w3.org/1999/xlink" x="0px" y="0px"
	 viewBox="0 0 40 40" style="enable-background:new 0 0 40 40;" xml:space="preserve">
<style type="text/css">
	.st0{fill:none;}
	.st1{fill:#272635;}
</style>
<rect class="st0" width="40" height="40"/>
<path class="st1" d="M20,30c-5.5,0-10-4.5-10-10s4.5-10,10-10s10,4.5,10,10S25.5,30,20,30z M20,12c-4.4,0-8,3.6-8,8s3.6,8,8,8
	s8-3.6,8-8S24.4,12,20,12z M16,25c-0.3,0-0.5-0.1-0.7-0.3c-0.4-0.4-0.4-1,0-1.4l2.3-2.3c-0.4-0.6-0.6-1.3-0.6-2c0-2.2,1.8-4,4-4
	s4,1.8,4,4s-1.8,4-4,4c-0.7,0-1.4-0.2-2-0.6l-2.3,2.3C16.5,24.9,16.3,25,16,25z M21,17c-1.1,0-2,0.9-2,2c0,0.5,0.2,1,0.6,1.4l0,0
	C20,20.8,20.5,21,21,21c1.1,0,2-0.9,2-2S22.1,17,21,17z"/>
</svg>
