<?xml version="1.0" encoding="utf-8"?>
<!-- Generator: Adobe Illustrator 25.0.1, SVG Export Plug-In . SVG Version: 6.00 Build 0)  -->
<svg version="1.1" id="Layer_1" xmlns="http://www.w3.org/2000/svg" xmlns:xlink="http://www.w3.org/1999/xlink" x="0px" y="0px"
	 viewBox="0 0 40 40" style="enable-background:new 0 0 40 40;" xml:space="preserve">
<style type="text/css">
	.st0{fill:none;}
	.st1{fill:#272635;}
</style>
<rect class="st0" width="40" height="40"/>
<g>
	<path class="st1" d="M20,10c-5.5,0-10,4.5-10,10s4.5,10,10,10s10-4.5,10-10S25.5,10,20,10z M20,28c-4.4,0-8-3.6-8-8s3.6-8,8-8
		s8,3.6,8,8S24.4,28,20,28z"/>
	<path class="st1" d="M22,16h-4c-1.1,0-2,0.9-2,2v4c0,1.1,0.9,2,2,2h4c1.1,0,2-0.9,2-2v-4C24,16.9,23.1,16,22,16z M22,22h-4v-4h4V22
		z"/>
</g>
</svg>
