<?xml version="1.0" encoding="utf-8"?>
<!-- Generator: Adobe Illustrator 25.0.1, SVG Export Plug-In . SVG Version: 6.00 Build 0)  -->
<svg version="1.1" id="Layer_1" xmlns="http://www.w3.org/2000/svg" xmlns:xlink="http://www.w3.org/1999/xlink" x="0px" y="0px"
	 viewBox="0 0 40 40" style="enable-background:new 0 0 40 40;" xml:space="preserve">
<style type="text/css">
	.st0{fill:none;}
	.st1{fill:#272635;}
</style>
<rect class="st0" width="40" height="40"/>
<path class="st1" d="M20,10c5.5,0,10,4.5,10,10s-4.5,10-10,10s-10-4.5-10-10S14.5,10,20,10z M20,28c4.4,0,8-3.6,8-8s-3.6-8-8-8
	s-8,3.6-8,8S15.6,28,20,28z M20,15L20,15L20,15c0.1,0,0.3,0,0.4,0.1c0.1,0,0.2,0.1,0.3,0.2l3,3c0.4,0.4,0.4,1,0,1.4s-1,0.4-1.4,0
	L21,18.4V24c0,0.6-0.4,1-1,1s-1-0.4-1-1v-5.6l-1.3,1.3c-0.4,0.4-1,0.4-1.4,0s-0.4-1,0-1.4l3-3c0.1-0.1,0.2-0.2,0.3-0.2
	C19.7,15,19.9,15,20,15L20,15L20,15z"/>
</svg>
