<?xml version="1.0" encoding="utf-8"?>
<!-- Generator: Adobe Illustrator 25.0.1, SVG Export Plug-In . SVG Version: 6.00 Build 0)  -->
<svg version="1.1" id="Layer_1" xmlns="http://www.w3.org/2000/svg" xmlns:xlink="http://www.w3.org/1999/xlink" x="0px" y="0px"
	 viewBox="0 0 40 40" style="enable-background:new 0 0 40 40;" xml:space="preserve">
<style type="text/css">
	.st0{fill:none;}
	.st1{fill:#272635;}
</style>
<rect class="st0" width="40" height="40"/>
<path class="st1" d="M25,30H15c-1.7,0-3-1.3-3-3V15c0-1.7,1.3-3,3-3h1.2c0.4-1.2,1.5-2,2.8-2h2c1.3,0,2.4,0.8,2.8,2H25
	c1.7,0,3,1.3,3,3v12C28,28.7,26.7,30,25,30z M15,14c-0.6,0-1,0.4-1,1v12c0,0.6,0.4,1,1,1h10c0.6,0,1-0.4,1-1V15c0-0.6-0.4-1-1-1
	h-1.2c-0.4,1.2-1.5,2-2.8,2h-2c-1.3,0-2.4-0.8-2.8-2H15z M18,13c0,0.6,0.4,1,1,1h2c0.6,0,1-0.4,1-1s-0.4-1-1-1h-2
	C18.4,12,18,12.4,18,13z M19,25c-0.3,0-0.5-0.1-0.7-0.3l-2-2c-0.4-0.4-0.4-1,0-1.4s1-0.4,1.4,0l1.3,1.3l3.3-3.3c0.4-0.4,1-0.4,1.4,0
	s0.4,1,0,1.4l-4,4C19.5,24.9,19.3,25,19,25z"/>
</svg>
