<?xml version="1.0" encoding="utf-8"?>
<!-- Generator: Adobe Illustrator 25.0.1, SVG Export Plug-In . SVG Version: 6.00 Build 0)  -->
<svg version="1.1" id="Layer_1" xmlns="http://www.w3.org/2000/svg" xmlns:xlink="http://www.w3.org/1999/xlink" x="0px" y="0px"
	 viewBox="0 0 40 40" style="enable-background:new 0 0 40 40;" xml:space="preserve">
<style type="text/css">
	.st0{fill:none;}
	.st1{fill:#272635;}
</style>
<rect class="st0" width="40" height="40"/>
<path class="st1" d="M20,31c-0.6,0-1-0.4-1-1v-9.6l-1.3,1.3c-0.4,0.4-1,0.4-1.4,0s-0.4-1,0-1.4l3-3c0.1-0.1,0.2-0.2,0.3-0.2
	c0.1,0,0.2-0.1,0.4-0.1l0,0l0,0l0,0c0.1,0,0.3,0,0.4,0.1c0.1,0,0.2,0.1,0.3,0.2l3,3c0.4,0.4,0.4,1,0,1.4s-1,0.4-1.4,0L21,20.4V30
	C21,30.6,20.6,31,20,31z M15,25c-2.8,0-5-2.2-5-5c0-2,1.2-3.8,3-4.6c0-0.1,0-0.3,0-0.4c0-3.3,2.7-6,6-6c2.6,0,4.8,1.7,5.7,4
	c3,0.3,5.3,2.9,5.3,6c0,2.8-2,5.3-4.8,5.9c-0.5,0.1-1.1-0.2-1.2-0.8c-0.1-0.5,0.2-1.1,0.8-1.2c1.9-0.4,3.2-2,3.2-3.9
	c0-2.2-1.8-4-4-4c-0.5,0-1-0.3-1.1-0.8c-0.4-1.9-2-3.2-3.9-3.2c-2.2,0-4,1.8-4,4c0,0.3,0,0.6,0.1,0.9c0.1,0.5-0.2,1.1-0.8,1.2
	C13,17.4,12,18.6,12,20c0,1.7,1.3,3,3,3c0.6,0,1,0.4,1,1S15.6,25,15,25z"/>
</svg>
