<?xml version="1.0" encoding="utf-8"?>
<!-- Generator: Adobe Illustrator 25.0.1, SVG Export Plug-In . SVG Version: 6.00 Build 0)  -->
<svg version="1.1" id="Layer_1" xmlns="http://www.w3.org/2000/svg" xmlns:xlink="http://www.w3.org/1999/xlink" x="0px" y="0px"
	 viewBox="0 0 40 40" style="enable-background:new 0 0 40 40;" xml:space="preserve">
<style type="text/css">
	.st0{fill:none;}
	.st1{fill:#272635;}
</style>
<rect class="st0" width="40" height="40"/>
<g>
	<path class="st1" d="M27.9,17.3c-0.2,0-0.4-0.2-0.5-0.4c-0.1-0.3-0.1-0.5,0-0.7c0.7-1.1,0.5-2.4-0.4-3.3c-0.9-0.9-2.2-1.1-3.3-0.4
		c-0.2,0.2-0.5,0.2-0.7,0.1c-0.2-0.1-0.3-0.3-0.4-0.5C22.3,10.8,21.3,10,20,10s-2.3,0.8-2.7,2.2c0,0.2-0.2,0.4-0.4,0.5
		c-0.3,0-0.5,0-0.7-0.1c-1.1-0.7-2.4-0.5-3.3,0.4c-0.9,0.9-1.1,2.2-0.4,3.3c0.2,0.2,0.2,0.5,0.1,0.7c-0.1,0.2-0.3,0.3-0.5,0.4
		C10.8,17.7,10,18.7,10,20s0.8,2.3,2.2,2.6c0.2,0,0.5,0.1,0.5,0.4s0,0.5-0.1,0.7c-0.7,1-0.5,2.4,0.4,3.3s2.2,1.1,3.3,0.4
		c0.2-0.1,0.5-0.1,0.7,0c0.2,0.1,0.3,0.3,0.4,0.5c0.3,1.3,1.3,2.1,2.6,2.1s2.3-0.8,2.6-2.2c0-0.2,0.2-0.4,0.4-0.5
		c0.3-0.1,0.5-0.1,0.7,0c1.1,0.7,2.4,0.5,3.3-0.4c0.9-0.9,1.1-2.2,0.4-3.3c-0.1-0.2-0.1-0.5,0-0.7c0.1-0.2,0.3-0.3,0.5-0.4
		c1.3-0.3,2.1-1.3,2.1-2.6C30,18.7,29.1,17.6,27.9,17.3z M27.5,20.6c-0.9,0.2-1.6,0.8-1.9,1.6c-0.3,0.9-0.3,1.7,0.2,2.5
		c0.3,0.5,0,0.8-0.1,0.9c-0.1,0.1-0.5,0.4-0.9,0.1c-0.8-0.5-1.7-0.5-2.5-0.2c-0.8,0.4-1.4,1-1.6,1.9C20.6,28,20.1,28,20,28
		s-0.6,0-0.8-0.5c-0.2-0.9-0.8-1.6-1.6-1.9c-0.3-0.1-0.6-0.2-1-0.2c-0.4,0-0.9,0.1-1.3,0.4c-0.5,0.3-0.8,0-0.9-0.1
		c-0.1-0.1-0.4-0.4-0.1-0.9c0.5-0.8,0.6-1.7,0.2-2.5s-1-1.4-1.9-1.6C12,20.6,12,20.1,12,20s0-0.6,0.5-0.6c0.9-0.2,1.6-0.7,1.9-1.6
		c0.3-0.9,0.3-1.7-0.2-2.5c-0.3-0.5,0-0.8,0.1-0.9c0.1-0.1,0.4-0.4,0.9-0.1c0.8,0.5,1.7,0.5,2.5,0.2c0.8-0.4,1.4-1,1.6-1.9
		C19.4,12,19.9,12,20,12s0.6,0,0.6,0.5c0.2,0.9,0.7,1.6,1.6,1.9c0.9,0.3,1.7,0.3,2.5-0.2c0.5-0.3,0.8,0,0.9,0.1
		c0.1,0.1,0.4,0.4,0.1,0.9c-0.5,0.8-0.5,1.7-0.2,2.5c0.4,0.8,1,1.4,1.9,1.6C28,19.4,28,19.9,28,20S28,20.6,27.5,20.6z"/>
	<path class="st1" d="M20,16c-2.2,0-4,1.8-4,4s1.8,4,4,4s4-1.8,4-4S22.2,16,20,16z M20,22c-1.1,0-2-0.9-2-2s0.9-2,2-2s2,0.9,2,2
		S21.1,22,20,22z"/>
</g>
</svg>
