<?xml version="1.0" encoding="utf-8"?>
<!-- Generator: Adobe Illustrator 25.0.1, SVG Export Plug-In . SVG Version: 6.00 Build 0)  -->
<svg version="1.1" id="Layer_1" xmlns="http://www.w3.org/2000/svg" xmlns:xlink="http://www.w3.org/1999/xlink" x="0px" y="0px"
	 viewBox="0 0 40 40" style="enable-background:new 0 0 40 40;" xml:space="preserve">
<style type="text/css">
	.st0{fill:none;}
	.st1{fill:#272635;}
</style>
<rect class="st0" width="40" height="40"/>
<path class="st1" d="M26,28H14c-2.2,0-4-1.8-4-4v-8c0-2.2,1.8-4,4-4h12c2.2,0,4,1.8,4,4v8C30,26.2,28.2,28,26,28z M12,19v5
	c0,1.1,0.9,2,2,2h12c1.1,0,2-0.9,2-2v-5H12z M12,17h16v-1c0-1.1-0.9-2-2-2H14c-1.1,0-2,0.9-2,2V17z M21,24h-1c-0.6,0-1-0.4-1-1
	s0.4-1,1-1h1c0.6,0,1,0.4,1,1S21.6,24,21,24z M16,24h-1c-0.6,0-1-0.4-1-1s0.4-1,1-1h1c0.6,0,1,0.4,1,1S16.6,24,16,24z"/>
</svg>
