<?xml version="1.0" encoding="utf-8"?>
<!-- Generator: Adobe Illustrator 25.0.1, SVG Export Plug-In . SVG Version: 6.00 Build 0)  -->
<svg version="1.1" id="Layer_1" xmlns="http://www.w3.org/2000/svg" xmlns:xlink="http://www.w3.org/1999/xlink" x="0px" y="0px"
	 viewBox="0 0 40 40" style="enable-background:new 0 0 40 40;" xml:space="preserve">
<style type="text/css">
	.st0{fill:none;}
	.st1{fill:#272635;}
</style>
<rect class="st0" width="40" height="40"/>
<path class="st1" d="M20,30L20,30c-0.1,0-0.2,0-0.2,0c-0.1,0-0.2,0-0.2-0.1l-8-4C11.2,25.7,11,25.4,11,25V15l0,0c0-0.1,0-0.2,0-0.2
	c0-0.1,0.1-0.2,0.1-0.3s0.1-0.1,0.2-0.2l0,0l0,0c0.1-0.1,0.1-0.1,0.2-0.1c0,0,0.1,0,0.1-0.1l8-4c0.3-0.1,0.6-0.1,0.9,0l8,4
	c0,0,0.1,0,0.1,0.1c0.1,0,0.1,0.1,0.2,0.2l0,0l0,0c0,0.1,0.1,0.1,0.1,0.2c0.1,0.1,0.1,0.2,0.1,0.3s0,0.2,0,0.2l0,0v10
	c0,0.4-0.2,0.7-0.6,0.9l-8,4c-0.1,0-0.2,0.1-0.2,0.1C20.2,30,20.1,30,20,30z M21,19.6v7.8l6-3v-7.8L21,19.6z M13,24.4l6,3v-7.8l-6-3
	V24.4z M14.2,15l5.8,2.9l5.8-2.9L20,12.1L14.2,15z"/>
</svg>
