<?xml version="1.0" encoding="utf-8"?>
<!-- Generator: Adobe Illustrator 25.0.1, SVG Export Plug-In . SVG Version: 6.00 Build 0)  -->
<svg version="1.1" id="Layer_1" xmlns="http://www.w3.org/2000/svg" xmlns:xlink="http://www.w3.org/1999/xlink" x="0px" y="0px"
	 viewBox="0 0 40 40" style="enable-background:new 0 0 40 40;" xml:space="preserve">
<style type="text/css">
	.st0{fill:none;}
	.st1{fill:#272635;}
</style>
<rect class="st0" width="40" height="40"/>
<path class="st1" d="M20,30L20,30c-0.1,0-0.2,0-0.2,0c-0.1,0-0.2,0-0.2-0.1l-2-1c-0.5-0.2-0.7-0.8-0.4-1.3c0.2-0.5,0.8-0.7,1.3-0.4
	l0.6,0.3v-0.9c0-0.6,0.4-1,1-1s1,0.4,1,1v0.9l0.6-0.3c0.5-0.2,1.1,0,1.3,0.4s0,1.1-0.4,1.3l-2,1c-0.1,0-0.2,0.1-0.2,0.1
	C20.2,30,20.1,30,20,30z M26,27c-0.4,0-0.7-0.2-0.9-0.6c-0.2-0.5,0-1.1,0.4-1.3l1.4-0.7v-1.9c0-0.6,0.4-1,1-1s1,0.4,1,1V25
	c0,0.4-0.2,0.7-0.6,0.9l-2,1C26.3,27,26.2,27,26,27z M14,27c-0.1,0-0.3,0-0.4-0.1l-2-1C11.2,25.7,11,25.4,11,25v-2.5
	c0-0.6,0.4-1,1-1s1,0.4,1,1v1.9l1.4,0.7c0.5,0.2,0.7,0.8,0.4,1.3C14.7,26.8,14.4,27,14,27z M20,22.5c-0.6,0-1-0.4-1-1v-1.9l-1.4-0.7
	c-0.5-0.2-0.7-0.8-0.4-1.3c0.2-0.5,0.8-0.7,1.3-0.4l1.6,0.8l1.6-0.8c0.5-0.2,1.1,0,1.3,0.4c0.2,0.5,0,1.1-0.4,1.3L21,19.6v1.9
	C21,22.1,20.6,22.5,20,22.5z M28,18.5c-0.6,0-1-0.4-1-1v-0.9l-0.6,0.3c-0.5,0.2-1.1,0-1.3-0.4c-0.2-0.5,0-1.1,0.4-1.3l0.2-0.1
	L25.5,15c-0.5-0.2-0.7-0.8-0.4-1.3c0.2-0.5,0.8-0.7,1.3-0.4l2,1c0,0,0.1,0,0.1,0.1c0.1,0,0.1,0.1,0.2,0.2l0,0l0,0
	c0,0.1,0.1,0.1,0.1,0.2c0.1,0.1,0.1,0.2,0.1,0.3s0,0.2,0,0.2l0,0v2.5C29,18.1,28.6,18.5,28,18.5z M12,18.5c-0.6,0-1-0.4-1-1V15l0,0
	c0-0.1,0-0.2,0-0.2c0-0.1,0.1-0.2,0.1-0.3s0.1-0.1,0.2-0.2l0,0l0,0c0.1-0.1,0.1-0.1,0.2-0.1c0,0,0.1,0,0.1-0.1l2-1
	c0.5-0.2,1.1,0,1.3,0.4c0.2,0.5,0,1.1-0.4,1.3L14.2,15l0.2,0.1c0.5,0.2,0.7,0.8,0.4,1.3c-0.2,0.5-0.8,0.7-1.3,0.4L13,16.6v0.9
	C13,18.1,12.6,18.5,12,18.5z M22,13c-0.2,0-0.3,0-0.4-0.1L20,12.1l-1.6,0.8c-0.5,0.2-1.1,0-1.3-0.4c-0.2-0.5,0-1.1,0.4-1.3l2-1
	c0.3-0.1,0.6-0.1,0.9,0l2,1c0.5,0.2,0.7,0.8,0.4,1.3C22.7,12.8,22.4,13,22,13z"/>
</svg>
