<?xml version="1.0" encoding="utf-8"?>
<!-- Generator: Adobe Illustrator 25.0.1, SVG Export Plug-In . SVG Version: 6.00 Build 0)  -->
<svg version="1.1" id="Layer_1" xmlns="http://www.w3.org/2000/svg" xmlns:xlink="http://www.w3.org/1999/xlink" x="0px" y="0px"
	 viewBox="0 0 40 40" style="enable-background:new 0 0 40 40;" xml:space="preserve">
<style type="text/css">
	.st0{fill:none;}
	.st1{fill:#272635;}
</style>
<rect class="st0" width="40" height="40"/>
<path class="st1" d="M20,29.9c-1,0-2-0.4-2.9-1.1c-0.4-0.3-0.9-0.5-1.4-0.6c-2.2-0.2-3.9-1.9-4.1-4.1c0-0.5-0.2-1-0.6-1.4
	C9.6,21,9.6,18.6,11,17c0.3-0.4,0.5-0.9,0.6-1.4c0.2-2.2,1.9-3.9,4.1-4.1c0.5,0,1-0.2,1.4-0.6c1.7-1.4,4.1-1.4,5.7,0
	c0.4,0.3,0.9,0.5,1.4,0.6c2.2,0.2,3.9,1.9,4.1,4.1c0,0.5,0.2,1,0.6,1.4c1.4,1.7,1.4,4.1,0,5.7c-0.3,0.4-0.5,0.9-0.6,1.4
	c-0.2,2.2-1.9,3.9-4.1,4.1c-0.5,0-1,0.2-1.4,0.6C22,29.6,21,29.9,20,29.9z M20,12.1c-0.6,0-1.1,0.2-1.6,0.6c-0.7,0.6-1.6,1-2.5,1
	l0,0c-1.2,0.1-2.1,1-2.2,2.2c-0.1,0.9-0.4,1.8-1,2.5c-0.8,0.9-0.8,2.2,0,3.1c0.6,0.7,1,1.6,1,2.5c0.1,1.2,1,2.1,2.2,2.2
	c0.9,0.1,1.8,0.4,2.5,1c0.9,0.8,2.2,0.8,3.1,0c0.7-0.6,1.6-1,2.5-1c1.2-0.1,2.1-1,2.2-2.2c0.1-0.9,0.4-1.8,1-2.5
	c0.8-0.9,0.8-2.2,0-3.1c-0.6-0.7-1-1.6-1-2.5c-0.1-1.2-1-2.1-2.2-2.2c-0.9-0.1-1.8-0.4-2.5-1C21.1,12.3,20.6,12.1,20,12.1z
	 M15.8,12.7L15.8,12.7L15.8,12.7z M19,23c-0.3,0-0.5-0.1-0.7-0.3l-2-2c-0.4-0.4-0.4-1,0-1.4s1-0.4,1.4,0l1.3,1.3l3.3-3.3
	c0.4-0.4,1-0.4,1.4,0s0.4,1,0,1.4l-4,4C19.5,22.9,19.3,23,19,23z"/>
</svg>
