<?xml version="1.0" encoding="utf-8"?>
<!-- Generator: Adobe Illustrator 25.0.1, SVG Export Plug-In . SVG Version: 6.00 Build 0)  -->
<svg version="1.1" id="Layer_1" xmlns="http://www.w3.org/2000/svg" xmlns:xlink="http://www.w3.org/1999/xlink" x="0px" y="0px"
	 viewBox="0 0 40 40" style="enable-background:new 0 0 40 40;" xml:space="preserve">
<style type="text/css">
	.st0{fill:none;}
	.st1{fill:#272635;}
</style>
<rect class="st0" width="40" height="40"/>
<path class="st1" d="M20,30c-5.1,0-9-2.1-9-5V15c0-2.9,3.9-5,9-5s9,2.1,9,5v10C29,27.9,25.1,30,20,30z M13,23.2V25c0,1.4,3,3,7,3
	s7-1.6,7-3v-1.8c-1.6,1.1-4.1,1.8-7,1.8S14.6,24.3,13,23.2z M13,20c0,1.4,3,3,7,3s7-1.6,7-3v-1.8c-1.6,1.1-4.1,1.8-7,1.8
	s-5.4-0.7-7-1.8V20z M13,15c0,1.4,3,3,7,3s7-1.6,7-3s-3-3-7-3S13,13.6,13,15z"/>
</svg>
