<?xml version="1.0" encoding="utf-8"?>
<!-- Generator: Adobe Illustrator 25.0.1, SVG Export Plug-In . SVG Version: 6.00 Build 0)  -->
<svg version="1.1" id="Layer_1" xmlns="http://www.w3.org/2000/svg" xmlns:xlink="http://www.w3.org/1999/xlink" x="0px" y="0px"
	 viewBox="0 0 40 40" style="enable-background:new 0 0 40 40;" xml:space="preserve">
<style type="text/css">
	.st0{fill:none;}
	.st1{fill:#272635;}
</style>
<rect y="0" class="st0" width="40" height="40"/>
<path class="st1" d="M10,25V15c0-1.7,1.3-3,3-3h14c1.7,0,3,1.3,3,3v10c0,1.7-1.3,3-3,3H13C11.3,28,10,26.7,10,25z M28,15
	c0-0.6-0.4-1-1-1H13c-0.6,0-1,0.4-1,1v10c0,0.6,0.4,1,1,1h14c0.6,0,1-0.4,1-1V15z M20,25c-0.6,0-1-0.4-1-1s0.4-1,1-1l0,0
	c0.6,0,1,0.4,1,1S20.6,25,20,25z"/>
</svg>
