<?xml version="1.0" encoding="utf-8"?>
<!-- Generator: Adobe Illustrator 25.0.1, SVG Export Plug-In . SVG Version: 6.00 Build 0)  -->
<svg version="1.1" id="Layer_1" xmlns="http://www.w3.org/2000/svg" xmlns:xlink="http://www.w3.org/1999/xlink" x="0px" y="0px"
	 viewBox="0 0 40 40" style="enable-background:new 0 0 40 40;" xml:space="preserve">
<style type="text/css">
	.st0{fill:none;}
	.st1{fill:#272635;}
</style>
<rect y="0" class="st0" width="40" height="40"/>
<rect y="0" class="st0" width="40" height="40"/>
<path class="st1" d="M27,22c-1.1,0-2-0.9-2-2c0-1.1,0.9-2,2-2s2,0.9,2,2C29,21.1,28.1,22,27,22z M20,22c-1.1,0-2-0.9-2-2
	c0-1.1,0.9-2,2-2c1.1,0,2,0.9,2,2C22,21.1,21.1,22,20,22z M13,22c-1.1,0-2-0.9-2-2c0-1.1,0.9-2,2-2s2,0.9,2,2C15,21.1,14.1,22,13,22
	z"/>
</svg>
