<?xml version="1.0" encoding="utf-8"?>
<!-- Generator: Adobe Illustrator 25.0.1, SVG Export Plug-In . SVG Version: 6.00 Build 0)  -->
<svg version="1.1" id="Layer_1" xmlns="http://www.w3.org/2000/svg" xmlns:xlink="http://www.w3.org/1999/xlink" x="0px" y="0px"
	 viewBox="0 0 40 40" style="enable-background:new 0 0 40 40;" xml:space="preserve">
<style type="text/css">
	.st0{fill:none;}
	.st1{fill:#272635;}
</style>
<rect class="st0" width="40" height="40"/>
<path class="st1" d="M26,29h-8c-1.7,0-3-1.3-3-3v-1h-1c-1.7,0-3-1.3-3-3v-8c0-1.7,1.3-3,3-3h8c1.7,0,3,1.3,3,3v1h1c1.7,0,3,1.3,3,3
	v8C29,27.7,27.7,29,26,29z M17,24v2c0,0.6,0.4,1,1,1h8c0.6,0,1-0.4,1-1v-8c0-0.6-0.4-1-1-1h-8c-0.6,0-1,0.4-1,1V24z M14,13
	c-0.6,0-1,0.4-1,1v8c0,0.6,0.4,1,1,1h1v-5c0-1.7,1.3-3,3-3h5v-1c0-0.6-0.4-1-1-1H14z"/>
</svg>
