<?xml version="1.0" encoding="utf-8"?>
<!-- Generator: Adobe Illustrator 25.0.1, SVG Export Plug-In . SVG Version: 6.00 Build 0)  -->
<svg version="1.1" id="Layer_1" xmlns="http://www.w3.org/2000/svg" xmlns:xlink="http://www.w3.org/1999/xlink" x="0px" y="0px"
	 viewBox="0 0 40 40" style="enable-background:new 0 0 40 40;" xml:space="preserve">
<style type="text/css">
	.st0{fill:none;}
	.st1{fill:#272635;}
</style>
<rect class="st0" width="40" height="40"/>
<path class="st1" d="M24.5,29.5h-11c-1.7,0-3-1.3-3-3v-11c0-1.7,1.3-3,3-3h5c0.6,0,1,0.4,1,1s-0.4,1-1,1h-5c-0.6,0-1,0.4-1,1v11
	c0,0.6,0.4,1,1,1h11c0.6,0,1-0.4,1-1v-5c0-0.6,0.4-1,1-1s1,0.4,1,1v5C27.5,28.2,26.2,29.5,24.5,29.5z M19.3,24.5h-2.8
	c-0.6,0-1-0.4-1-1v-2.8c0-0.3,0.1-0.5,0.3-0.7l8.6-8.6c1.2-1.2,3.1-1.2,4.2,0c0.6,0.6,0.9,1.3,0.9,2.1s-0.3,1.6-0.9,2.1L20,24.2
	C19.8,24.4,19.6,24.5,19.3,24.5z M17.5,22.5h1.4l8.3-8.3c0.2-0.2,0.3-0.4,0.3-0.7s-0.1-0.5-0.3-0.7c-0.4-0.4-1-0.4-1.4,0l0,0
	l-8.3,8.3V22.5z M25.1,12.1L25.1,12.1L25.1,12.1z"/>
</svg>
