<?xml version="1.0" encoding="utf-8"?>
<!-- Generator: Adobe Illustrator 25.0.1, SVG Export Plug-In . SVG Version: 6.00 Build 0)  -->
<svg version="1.1" id="Layer_1" xmlns="http://www.w3.org/2000/svg" xmlns:xlink="http://www.w3.org/1999/xlink" x="0px" y="0px"
	 viewBox="0 0 40 40" style="enable-background:new 0 0 40 40;" xml:space="preserve">
<style type="text/css">
	.st0{fill:none;}
	.st1{fill:#272635;}
</style>
<rect class="st0" width="40" height="40"/>
<path class="st1" d="M20,30c-5.5,0-10-4.5-10-10s4.5-10,10-10s10,4.5,10,10S25.5,30,20,30z M20,12c-4.4,0-8,3.6-8,8s3.6,8,8,8
	s8-3.6,8-8S24.4,12,20,12z M17.2,25.2c-0.3,0-0.5-0.1-0.7-0.3c-0.4-0.4-0.4-1,0-1.4c0.9-0.9,2.2-1.5,3.5-1.5s2.6,0.5,3.5,1.5
	c0.4,0.4,0.4,1,0,1.4s-1,0.4-1.4,0c-1.1-1.1-3.1-1.1-4.2,0C17.7,25.1,17.4,25.2,17.2,25.2z M23,19c-0.6,0-1-0.4-1-1s0.4-1,1-1l0,0
	c0.6,0,1,0.4,1,1S23.6,19,23,19z M17,19c-0.6,0-1-0.4-1-1s0.4-1,1-1l0,0c0.6,0,1,0.4,1,1S17.6,19,17,19z"/>
</svg>
