<?xml version="1.0" encoding="utf-8"?>
<!-- Generator: Adobe Illustrator 25.0.1, SVG Export Plug-In . SVG Version: 6.00 Build 0)  -->
<svg version="1.1" id="Layer_1" xmlns="http://www.w3.org/2000/svg" xmlns:xlink="http://www.w3.org/1999/xlink" x="0px" y="0px"
	 viewBox="0 0 40 40" style="enable-background:new 0 0 40 40;" xml:space="preserve">
<style type="text/css">
	.st0{fill:none;}
	.st1{fill:#272635;}
</style>
<rect class="st0" width="40" height="40"/>
<path class="st1" d="M26.9,29H13.1c-1.1,0-2.1-0.6-2.6-1.5s-0.5-2.1,0-3l6.9-12c0.5-0.9,1.5-1.5,2.6-1.5s2.1,0.6,2.6,1.5l6.9,12
	c0.5,0.9,0.5,2.1,0,3S28,29,26.9,29z M20,13c-0.2,0-0.6,0-0.9,0.5l-6.9,12c-0.3,0.5-0.1,0.8,0,1s0.3,0.5,0.9,0.5H27
	c0.5,0,0.8-0.3,0.9-0.5s0.3-0.5,0-1l-6.9-12C20.6,13,20.2,13,20,13z M20,25c-0.6,0-1-0.4-1-1s0.4-1,1-1l0,0c0.6,0,1,0.4,1,1
	S20.6,25,20,25z M20,21c-0.6,0-1-0.4-1-1v-2c0-0.6,0.4-1,1-1s1,0.4,1,1v2C21,20.6,20.6,21,20,21z"/>
</svg>
