<?xml version="1.0" encoding="utf-8"?>
<!-- Generator: Adobe Illustrator 25.0.1, SVG Export Plug-In . SVG Version: 6.00 Build 0)  -->
<svg version="1.1" id="Layer_1" xmlns="http://www.w3.org/2000/svg" xmlns:xlink="http://www.w3.org/1999/xlink" x="0px" y="0px"
	 viewBox="0 0 40 40" style="enable-background:new 0 0 40 40;" xml:space="preserve">
<style type="text/css">
	.st0{fill:none;}
	.st1{fill:#272635;}
</style>
<rect class="st0" width="40" height="40"/>
<path class="st1" d="M29,30c-0.3,0-0.5-0.1-0.7-0.3l-3.6-3.6l0,0L13.9,15.3l0,0l-3.6-3.6c-0.4-0.4-0.4-1,0-1.4s1-0.4,1.4,0l3,3
	c1.6-0.9,3.4-1.3,5.3-1.3c4.8,0,9,3.1,10.5,7.7c0.1,0.2,0.1,0.4,0,0.6c-0.6,2.1-1.9,3.9-3.6,5.2l2.8,2.8c0.4,0.4,0.4,1,0,1.4
	C29.5,29.9,29.3,30,29,30z M23.4,22l2.1,2.1c1.4-1.1,2.4-2.5,3-4.1c-1.3-3.6-4.6-6-8.5-6c-1.3,0-2.6,0.3-3.8,0.8l1.7,1.7
	c0.6-0.4,1.3-0.6,2-0.6c2.2,0,4,1.8,4,4C24,20.7,23.8,21.4,23.4,22z M19.5,18.1l2.5,2.5c0-0.2,0.1-0.3,0.1-0.5c0-1.1-0.9-2-2-2
	C19.8,18,19.6,18,19.5,18.1z M20,28c-4.8,0-9-3.1-10.5-7.7c-0.1-0.2-0.1-0.4,0-0.6c0.4-1.2,1-2.3,1.7-3.3c0.3-0.4,1-0.5,1.4-0.2
	s0.5,1,0.2,1.4c-0.6,0.7-1,1.6-1.3,2.4c1.3,3.6,4.6,6,8.5,6c0.6,0,1.1-0.1,1.7-0.2s1.1,0.3,1.2,0.8s-0.3,1.1-0.8,1.2
	C21.4,27.9,20.7,28,20,28z"/>
</svg>
