<?xml version="1.0" encoding="utf-8"?>
<!-- Generator: Adobe Illustrator 25.0.1, SVG Export Plug-In . SVG Version: 6.00 Build 0)  -->
<svg version="1.1" id="Layer_1" xmlns="http://www.w3.org/2000/svg" xmlns:xlink="http://www.w3.org/1999/xlink" x="0px" y="0px"
	 viewBox="0 0 40 40" style="enable-background:new 0 0 40 40;" xml:space="preserve">
<style type="text/css">
	.st0{fill:none;}
	.st1{fill:#272635;}
</style>
<rect class="st0" width="40" height="40"/>
<g>
	<path class="st1" d="M20,16c-2.2,0-4,1.8-4,4s1.8,4,4,4s4-1.8,4-4S22.2,16,20,16z M20,22c-1.1,0-2-0.9-2-2s0.9-2,2-2s2,0.9,2,2
		S21.1,22,20,22z"/>
	<path class="st1" d="M30.5,19.7C29.1,15.1,24.8,12,20,12s-9,3.1-10.5,7.7c-0.1,0.2-0.1,0.4,0,0.6C11,24.9,15.2,28,20,28
		s9-3.1,10.5-7.7C30.6,20.1,30.6,19.9,30.5,19.7z M20,26c-3.8,0-7.2-2.4-8.5-6c1.3-3.6,4.6-6,8.5-6c3.8,0,7.2,2.4,8.5,6
		C27.2,23.6,23.8,26,20,26z"/>
</g>
</svg>
