<?xml version="1.0" encoding="utf-8"?>
<!-- Generator: Adobe Illustrator 25.0.1, SVG Export Plug-In . SVG Version: 6.00 Build 0)  -->
<svg version="1.1" id="Layer_1" xmlns="http://www.w3.org/2000/svg" xmlns:xlink="http://www.w3.org/1999/xlink" x="0px" y="0px"
	 viewBox="0 0 40 40" style="enable-background:new 0 0 40 40;" xml:space="preserve">
<style type="text/css">
	.st0{fill:none;}
	.st1{fill:#272635;}
</style>
<rect class="st0" width="40" height="40"/>
<path class="st1" d="M18,30c-0.1,0-0.3,0-0.4-0.1C17.2,29.8,17,29.4,17,29v-6.6L10.6,16c-0.4-0.4-0.6-0.9-0.6-1.4V12
	c0-1.1,0.9-2,2-2h16c1.1,0,2,0.9,2,2v2.6c0,0.5-0.2,1-0.6,1.4L23,22.4V25c0,0.3-0.1,0.5-0.3,0.7l-4,4C18.5,29.9,18.3,30,18,30z
	 M12,12v2.6l6.4,6.4c0.4,0.4,0.6,0.9,0.6,1.4v4.2l2-2v-2.2c0-0.5,0.2-1,0.6-1.4l6.4-6.4V12H12z M22,25L22,25L22,25z"/>
</svg>
