<?xml version="1.0" encoding="utf-8"?>
<!-- Generator: Adobe Illustrator 25.0.1, SVG Export Plug-In . SVG Version: 6.00 Build 0)  -->
<svg version="1.1" id="Layer_1" xmlns="http://www.w3.org/2000/svg" xmlns:xlink="http://www.w3.org/1999/xlink" x="0px" y="0px"
	 viewBox="0 0 40 40" style="enable-background:new 0 0 40 40;" xml:space="preserve">
<style type="text/css">
	.st0{fill:none;}
	.st1{fill:#272635;}
</style>
<rect class="st0" width="40" height="40"/>
<g>
	<path class="st1" d="M26.4,14.6c-0.8-0.8-1.7-1.4-2.7-2c-1-0.7-2-1.3-3-2.3c-0.4-0.4-0.9-0.4-1.3-0.1c-2.1,1.7-2.9,4.1-3.2,5.9
		c-0.6-0.6-0.8-1.2-0.9-1.2c-0.1-0.3-0.4-0.5-0.7-0.6s-0.7,0-0.9,0.3c-1.7,1.7-2.6,4-2.6,6.4s0.9,4.7,2.6,6.4
		c1.8,1.8,4.1,2.6,6.4,2.6s4.6-0.9,6.4-2.6c1.7-1.7,2.6-4,2.6-6.4C29,18.6,28.1,16.3,26.4,14.6z M25,26c-2.7,2.7-7.2,2.7-9.9,0
		c-1.3-1.3-2.1-3.1-2.1-5c0-1.4,0.4-2.8,1.2-4c0.5,0.6,1.2,1.3,2.3,1.9c0.3,0.2,0.7,0.1,1,0c0.3-0.2,0.5-0.5,0.5-0.9
		c0-1.7,0.4-3.9,2-5.6c0.9,0.8,1.8,1.4,2.6,1.9c0.9,0.6,1.7,1.1,2.3,1.8c1.3,1.3,2,3.1,2,4.9C27,22.9,26.3,24.6,25,26z"/>
	<path class="st1" d="M20,18L20,18c-0.4,0-0.8,0.3-1,0.7L18.3,21H17c-0.6,0-1,0.4-1,1c0,1.1,0.4,2.1,1.2,2.8C18,25.6,19,26,20,26
		s2.1-0.4,2.8-1.2C23.6,24,24,23,24,22s-0.4-2.1-1.2-2.8C22.1,18.4,21.1,18,20,18z M21.4,23.4c-0.8,0.8-2.1,0.8-2.8,0
		c-0.1-0.1-0.2-0.3-0.3-0.4H19c0.4,0,0.8-0.3,0.9-0.7l0.7-2.2c0.3,0.1,0.5,0.3,0.7,0.5C21.8,21,22,21.5,22,22S21.8,23,21.4,23.4z"/>
</g>
</svg>
