<?xml version="1.0" encoding="utf-8"?>
<!-- Generator: Adobe Illustrator 25.0.1, SVG Export Plug-In . SVG Version: 6.00 Build 0)  -->
<svg version="1.1" id="Layer_1" xmlns="http://www.w3.org/2000/svg" xmlns:xlink="http://www.w3.org/1999/xlink" x="0px" y="0px"
	 viewBox="0 0 40 40" style="enable-background:new 0 0 40 40;" xml:space="preserve">
<style type="text/css">
	.st0{fill:none;}
	.st1{fill:#272635;}
</style>
<rect class="st0" width="40" height="40"/>
<path class="st1" d="M11,30c-0.6,0-1-0.4-1-1V13c0-1.7,1.3-3,3-3h6.5c0.3,0,0.5,0.1,0.7,0.3l0.7,0.7H29c0.3,0,0.7,0.2,0.9,0.5
	c0.2,0.3,0.2,0.7,0,1L27.1,18l2.8,5.6c0.2,0.3,0.1,0.7,0,1S29.3,25,29,25h-8.5c-0.3,0-0.5-0.1-0.7-0.3L19.1,24H13c-0.6,0-1,0.4-1,1
	v4C12,29.6,11.6,30,11,30z M20.9,23h6.5l-2.3-4.6c-0.1-0.3-0.1-0.6,0-0.9l2.3-4.6H21v4c0,0.6-0.4,1-1,1s-1-0.4-1-1v-5h-6
	c-0.6,0-1,0.4-1,1v9.2c0.3-0.1,0.6-0.2,1-0.2h6.5c0.3,0,0.5,0.1,0.7,0.3L20.9,23z"/>
</svg>
