<?xml version="1.0" encoding="utf-8"?>
<!-- Generator: Adobe Illustrator 25.0.1, SVG Export Plug-In . SVG Version: 6.00 Build 0)  -->
<svg version="1.1" id="Layer_1" xmlns="http://www.w3.org/2000/svg" xmlns:xlink="http://www.w3.org/1999/xlink" x="0px" y="0px"
	 viewBox="0 0 40 40" style="enable-background:new 0 0 40 40;" xml:space="preserve">
<style type="text/css">
	.st0{fill:none;}
	.st1{fill:#272635;}
</style>
<rect class="st0" width="40" height="40"/>
<path class="st1" d="M27,28H13l0,0c-1.7,0-3-1.3-3-3V15c0-1.7,1.3-3,3-3h4c0.3,0,0.5,0.1,0.7,0.3l1.7,1.7H23c1.7,0,3,1.3,3,3h1
	c1.7,0,3,1.3,3,3v5C30,26.7,28.7,28,27,28z M15.8,26H27c0.6,0,1-0.4,1-1v-5c0-0.6-0.4-1-1-1H17c-0.6,0-1,0.4-1,1v5
	C16,25.4,15.9,25.7,15.8,26z M13,14c-0.6,0-1,0.4-1,1v10c0,0.6,0.4,1,1,1s1-0.4,1-1v-5c0-1.7,1.3-3,3-3h7c0-0.6-0.4-1-1-1h-4
	c-0.3,0-0.5-0.1-0.7-0.3L16.6,14H13z"/>
</svg>
