<?xml version="1.0" encoding="utf-8"?>
<!-- Generator: Adobe Illustrator 25.0.1, SVG Export Plug-In . SVG Version: 6.00 Build 0)  -->
<svg version="1.1" id="Layer_1" xmlns="http://www.w3.org/2000/svg" xmlns:xlink="http://www.w3.org/1999/xlink" x="0px" y="0px"
	 viewBox="0 0 40 40" style="enable-background:new 0 0 40 40;" xml:space="preserve">
<style type="text/css">
	.st0{fill:none;}
	.st1{fill:#272635;}
</style>
<rect class="st0" width="40" height="40"/>
<path class="st1" d="M27,28H13c-1.7,0-3-1.3-3-3V15c0-1.7,1.3-3,3-3h6c0.3,0,0.5,0.1,0.7,0.3l1.7,1.7H27c1.7,0,3,1.3,3,3v8
	C30,26.7,28.7,28,27,28z M13,14c-0.6,0-1,0.4-1,1v10c0,0.6,0.4,1,1,1h14c0.6,0,1-0.4,1-1v-8c0-0.6-0.4-1-1-1h-6
	c-0.3,0-0.5-0.1-0.7-0.3L18.6,14H13z M20,25c-0.6,0-1-0.4-1-1v-2h-2c-0.6,0-1-0.4-1-1s0.4-1,1-1h2v-2c0-0.6,0.4-1,1-1s1,0.4,1,1v2h2
	c0.6,0,1,0.4,1,1s-0.4,1-1,1h-2v2C21,24.6,20.6,25,20,25z"/>
</svg>
