<?xml version="1.0" encoding="utf-8"?>
<!-- Generator: Adobe Illustrator 25.0.1, SVG Export Plug-In . SVG Version: 6.00 Build 0)  -->
<svg version="1.1" id="Layer_1" xmlns="http://www.w3.org/2000/svg" xmlns:xlink="http://www.w3.org/1999/xlink" x="0px" y="0px"
	 viewBox="0 0 40 40" style="enable-background:new 0 0 40 40;" xml:space="preserve">
<style type="text/css">
	.st0{fill:none;}
	.st1{fill:#272635;}
</style>
<rect class="st0" width="40" height="40"/>
<path class="st1" d="M20,30c-0.4,0-0.7,0-1.1-0.1c0,0,0,0-0.1,0c-5-0.6-8.9-4.8-8.9-9.9c0-0.4,0-0.7,0.1-1.1c0,0,0,0,0-0.1
	c0.4-3.4,2.5-6.3,5.4-7.8l0.1-0.1c1.3-0.6,2.8-1,4.4-1c3.9,0,7.3,2.2,8.9,5.5l0.1,0.1c0.6,1.3,1,2.8,1,4.4s-0.4,3-1,4.4
	c0,0.1,0,0.1-0.1,0.1c-1.1,2.3-3.1,4-5.5,4.9h-0.1C22.2,29.8,21.1,30,20,30z M12.3,18H13c1.7,0,3,1.3,3,3v1c0,0.6,0.4,1,1,1
	c1.7,0,3,1.3,3,3v2c0.7,0,1.4-0.1,2-0.3V26c0-1.7,1.3-3,3-3h2.4c0.4-0.9,0.6-1.9,0.6-3s-0.2-2.1-0.6-3H27c-0.6,0-1,0.4-1,1
	c0,1.7-1.3,3-3,3s-3-1.3-3-3c0-0.6-0.4-1-1-1h-0.5c-1.8,0-3.4-1.4-3.5-3.2C13.7,14.8,12.7,16.3,12.3,18z M12,20c0,3.7,2.6,6.9,6,7.7
	V26c0-0.6-0.4-1-1-1c-1.7,0-3-1.3-3-3v-1c0-0.6-0.4-1-1-1H12z M25,25c-0.6,0-1,0.4-1,1v0.9c0.9-0.5,1.6-1.2,2.2-1.9H25z M17,12.6
	v0.9c0,0.8,0.7,1.5,1.5,1.5H19c1.7,0,3,1.3,3,3c0,0.6,0.4,1,1,1s1-0.4,1-1c0-1.4,1-2.6,2.3-2.9C24.8,13.2,22.6,12,20,12
	C18.9,12,17.9,12.2,17,12.6z"/>
</svg>
