<?xml version="1.0" encoding="utf-8"?>
<!-- Generator: Adobe Illustrator 25.0.1, SVG Export Plug-In . SVG Version: 6.00 Build 0)  -->
<svg version="1.1" id="Layer_1" xmlns="http://www.w3.org/2000/svg" xmlns:xlink="http://www.w3.org/1999/xlink" x="0px" y="0px"
	 viewBox="0 0 40 40" style="enable-background:new 0 0 40 40;" xml:space="preserve">
<style type="text/css">
	.st0{fill:none;}
	.st1{fill:#272635;}
</style>
<rect class="st0" width="40" height="40"/>
<path class="st1" d="M21,29c-0.1,0-0.2,0-0.2,0c-0.5-0.1-0.9-0.7-0.7-1.2L21,24h-4l-1,4.2c-0.1,0.5-0.7,0.9-1.2,0.7
	c-0.5-0.1-0.9-0.7-0.7-1.2L15,24h-3c-0.6,0-1-0.4-1-1s0.4-1,1-1h3.5l1-4H14c-0.6,0-1-0.4-1-1s0.4-1,1-1h3l1.1-4.2
	c0.1-0.5,0.7-0.9,1.2-0.7c0.5,0.1,0.9,0.7,0.7,1.2L19,16h4l1.1-4.2c0.1-0.5,0.7-0.9,1.2-0.7c0.5,0.1,0.9,0.7,0.7,1.2L25,16h3
	c0.6,0,1,0.4,1,1s-0.4,1-1,1h-3.5l-1,4H26c0.6,0,1,0.4,1,1s-0.4,1-1,1h-3l-1,4.2C21.9,28.7,21.4,29,21,29z M17.5,22h3.9l1-4h-3.9
	L17.5,22z"/>
</svg>
