<?xml version="1.0" encoding="utf-8"?>
<!-- Generator: Adobe Illustrator 25.0.1, SVG Export Plug-In . SVG Version: 6.00 Build 0)  -->
<svg version="1.1" id="Layer_1" xmlns="http://www.w3.org/2000/svg" xmlns:xlink="http://www.w3.org/1999/xlink" x="0px" y="0px"
	 viewBox="0 0 40 40" style="enable-background:new 0 0 40 40;" xml:space="preserve">
<style type="text/css">
	.st0{fill:none;}
	.st1{fill:#272635;}
</style>
<rect class="st0" width="40" height="40"/>
<path class="st1" d="M20,28.7c-0.3,0-0.5-0.1-0.7-0.3l-7.7-7.7c-2.1-2.1-2.1-5.6,0-7.8c1-1,2.4-1.6,3.9-1.6s2.9,0.6,3.9,1.6l0.6,0.6
	l0.6-0.6c1-1,2.4-1.6,3.9-1.6s2.9,0.6,3.9,1.6s1.6,2.4,1.6,3.9s-0.6,2.9-1.6,3.9l-7.7,7.7C20.5,28.6,20.3,28.7,20,28.7z M15.5,13.3
	c-0.9,0-1.8,0.4-2.5,1l0,0c-1.4,1.4-1.4,3.6,0,4.9l7,7l7-7c0.7-0.7,1-1.5,1-2.5c0-0.9-0.4-1.8-1-2.5c-1.3-1.3-3.6-1.3-4.9,0
	l-1.3,1.3c-0.4,0.4-1,0.4-1.4,0L18,14.3C17.3,13.7,16.4,13.3,15.5,13.3z M12.3,13.6L12.3,13.6L12.3,13.6z"/>
</svg>
