<?xml version="1.0" encoding="utf-8"?>
<!-- Generator: Adobe Illustrator 25.0.1, SVG Export Plug-In . SVG Version: 6.00 Build 0)  -->
<svg version="1.1" id="Layer_1" xmlns="http://www.w3.org/2000/svg" xmlns:xlink="http://www.w3.org/1999/xlink" x="0px" y="0px"
	 viewBox="0 0 40 40" style="enable-background:new 0 0 40 40;" xml:space="preserve">
<style type="text/css">
	.st0{fill:none;}
	.st1{fill:#272635;}
</style>
<rect class="st0" width="40" height="40"/>
<path class="st1" d="M27,28H13c-1.7,0-3-1.3-3-3v-9c0-1.7,1.3-3,3-3h4c0-1.7,1.3-3,3-3s3,1.3,3,3h4c1.7,0,3,1.3,3,3v9
	C30,26.7,28.7,28,27,28z M13,15c-0.6,0-1,0.4-1,1v9c0,0.6,0.4,1,1,1h14c0.6,0,1-0.4,1-1v-9c0-0.6-0.4-1-1-1h-4.2
	c-0.4,1.2-1.5,2-2.8,2s-2.4-0.8-2.8-2H13z M19,14c0,0.6,0.4,1,1,1s1-0.4,1-1v-1c0-0.6-0.4-1-1-1s-1,0.4-1,1V14z M14.2,25
	c-0.1,0-0.2,0-0.3-0.1c-0.5-0.2-0.8-0.8-0.6-1.3c0.3-0.8,0.8-1.4,1.4-1.9c-0.5-0.4-0.7-1-0.7-1.7c0-1.7,1.3-3,3-3s3,1.3,3,3
	c0,0.7-0.2,1.3-0.6,1.8c0.6,0.5,1.1,1.1,1.4,1.9c0.2,0.5-0.1,1.1-0.6,1.3c-0.5,0.2-1.1-0.1-1.3-0.6c-0.3-0.8-1-1.3-1.9-1.3
	s-1.6,0.5-1.9,1.3C15,24.7,14.6,25,14.2,25z M17,19c-0.6,0-1,0.4-1,1s0.4,1,1,1s1-0.4,1-1S17.6,19,17,19z M25,24h-2
	c-0.6,0-1-0.4-1-1s0.4-1,1-1h2c0.6,0,1,0.4,1,1S25.6,24,25,24z M26,20h-3c-0.6,0-1-0.4-1-1s0.4-1,1-1h3c0.6,0,1,0.4,1,1
	S26.6,20,26,20z"/>
</svg>
