<?xml version="1.0" encoding="utf-8"?>
<!-- Generator: Adobe Illustrator 25.0.1, SVG Export Plug-In . SVG Version: 6.00 Build 0)  -->
<svg version="1.1" id="Layer_1" xmlns="http://www.w3.org/2000/svg" xmlns:xlink="http://www.w3.org/1999/xlink" x="0px" y="0px"
	 viewBox="0 0 40 40" style="enable-background:new 0 0 40 40;" xml:space="preserve">
<style type="text/css">
	.st0{fill:none;}
	.st1{fill:#272635;}
</style>
<rect class="st0" width="40" height="40"/>
<path class="st1" d="M26,29H14c-1.7,0-3-1.3-3-3V14c0-1.7,1.3-3,3-3h12c1.7,0,3,1.3,3,3v12C29,27.7,27.7,29,26,29z M13,22v4
	c0,0.6,0.4,1,1,1h12c0.6,0,1-0.4,1-1v-4h-1.6L23,24.4c-0.4,0.4-0.9,0.6-1.4,0.6h-3.2c-0.5,0-1-0.2-1.4-0.6L14.6,22H13z M13,20h1.6
	c0.5,0,1,0.2,1.4,0.6l2.4,2.4h3.2l2.4-2.4c0.4-0.4,0.9-0.6,1.4-0.6H27v-6c0-0.6-0.4-1-1-1H14c-0.6,0-1,0.4-1,1V20z"/>
</svg>
