<?xml version="1.0" encoding="utf-8"?>
<!-- Generator: Adobe Illustrator 25.0.1, SVG Export Plug-In . SVG Version: 6.00 Build 0)  -->
<svg version="1.1" id="Layer_1" xmlns="http://www.w3.org/2000/svg" xmlns:xlink="http://www.w3.org/1999/xlink" x="0px" y="0px"
	 viewBox="0 0 40 40" style="enable-background:new 0 0 40 40;" xml:space="preserve">
<style type="text/css">
	.st0{fill:none;}
	.st1{fill:#272635;}
</style>
<rect class="st0" width="40" height="40"/>
<path class="st1" d="M26,30H14c-1.7,0-3-1.3-3-3v-6c0-1.7,1.3-3,3-3h1v-3c0-2.8,2.2-5,5-5s5,2.2,5,5c0,0.6-0.4,1-1,1s-1-0.4-1-1
	c0-1.7-1.3-3-3-3s-3,1.3-3,3v3h9c1.7,0,3,1.3,3,3v6C29,28.7,27.7,30,26,30z M14,20c-0.6,0-1,0.4-1,1v6c0,0.6,0.4,1,1,1h12
	c0.6,0,1-0.4,1-1v-6c0-0.6-0.4-1-1-1H14z M20,26c-0.6,0-1-0.4-1-1v-2c0-0.6,0.4-1,1-1s1,0.4,1,1v2C21,25.6,20.6,26,20,26z"/>
</svg>
