<?xml version="1.0" encoding="utf-8"?>
<!-- Generator: Adobe Illustrator 25.0.1, SVG Export Plug-In . SVG Version: 6.00 Build 0)  -->
<svg version="1.1" id="Layer_1" xmlns="http://www.w3.org/2000/svg" xmlns:xlink="http://www.w3.org/1999/xlink" x="0px" y="0px"
	 viewBox="0 0 40 40" style="enable-background:new 0 0 40 40;" xml:space="preserve">
<style type="text/css">
	.st0{fill:none;}
	.st1{fill:#272635;}
</style>
<rect class="st0" width="40" height="40"/>
<path class="st1" d="M18,29h-4c-2.2,0-4-1.8-4-4V15c0-2.2,1.8-4,4-4h4c2.2,0,4,1.8,4,4v1c0,0.6-0.4,1-1,1s-1-0.4-1-1v-1
	c0-1.1-0.9-2-2-2h-4c-1.1,0-2,0.9-2,2v10c0,1.1,0.9,2,2,2h4c1.1,0,2-0.9,2-2v-1c0-0.6,0.4-1,1-1s1,0.4,1,1v1C22,27.2,20.2,29,18,29z
	 M25,25c-0.3,0-0.5-0.1-0.7-0.3c-0.4-0.4-0.4-1,0-1.4l2.3-2.3H15c-0.6,0-1-0.4-1-1s0.4-1,1-1h11.6l-2.3-2.3c-0.4-0.4-0.4-1,0-1.4
	s1-0.4,1.4,0l4,4c0.1,0.1,0.2,0.2,0.2,0.3c0,0.1,0.1,0.2,0.1,0.4l0,0l0,0l0,0c0,0.1,0,0.3-0.1,0.4c0,0.1-0.1,0.2-0.2,0.3l-4,4
	C25.5,24.9,25.3,25,25,25z"/>
</svg>
