<?xml version="1.0" encoding="utf-8"?>
<!-- Generator: Adobe Illustrator 25.0.1, SVG Export Plug-In . SVG Version: 6.00 Build 0)  -->
<svg version="1.1" id="Layer_1" xmlns="http://www.w3.org/2000/svg" xmlns:xlink="http://www.w3.org/1999/xlink" x="0px" y="0px"
	 viewBox="0 0 40 40" style="enable-background:new 0 0 40 40;" xml:space="preserve">
<style type="text/css">
	.st0{fill:none;}
	.st1{fill:#272635;}
</style>
<rect class="st0" width="40" height="40"/>
<g>
	<path class="st1" d="M26.4,13.1c-3.5-3.5-9.2-3.5-12.7,0c-1.7,1.7-2.6,4-2.6,6.4s0.9,4.7,2.6,6.4l4.2,4.2c0.6,0.6,1.3,0.9,2.1,0.9
		s1.5-0.3,2.2-1l4.2-4.2C29.9,22.3,29.9,16.6,26.4,13.1z M24.9,24.4l-4.2,4.2c-0.4,0.4-1,0.4-1.4,0l-4.2-4.2c-1.4-1.3-2.1-3-2.1-4.9
		s0.8-3.7,2.1-5c1.3-1.3,3.1-2,4.9-2s3.6,0.7,4.9,2C27.6,17.2,27.6,21.7,24.9,24.4z"/>
	<path class="st1" d="M20,16.8c-2.2,0-4,1.8-4,4s1.8,4,4,4s4-1.8,4-4S22.2,16.8,20,16.8z M20,22.8c-1.1,0-2-0.9-2-2c0-1.1,0.9-2,2-2
		s2,0.9,2,2C22,21.9,21.1,22.8,20,22.8z"/>
</g>
</svg>
