<?xml version="1.0" encoding="utf-8"?>
<!-- Generator: Adobe Illustrator 25.0.1, SVG Export Plug-In . SVG Version: 6.00 Build 0)  -->
<svg version="1.1" id="Layer_1" xmlns="http://www.w3.org/2000/svg" xmlns:xlink="http://www.w3.org/1999/xlink" x="0px" y="0px"
	 viewBox="0 0 40 40" style="enable-background:new 0 0 40 40;" xml:space="preserve">
<style type="text/css">
	.st0{fill:none;}
	.st1{fill:#272635;}
</style>
<rect class="st0" width="40" height="40"/>
<path class="st1" d="M14,30c-2.2,0-4-1.3-4-3s1.8-3,4-3c0.7,0,1.4,0.1,2,0.4V18l0,0v-4c0-0.5,0.3-0.9,0.8-1l12-3
	c0.3-0.1,0.6,0,0.9,0.2c0.2,0.2,0.4,0.5,0.4,0.8v4l0,0v9c0,1.7-1.8,3-4,3s-4-1.3-4-3s1.8-3,4-3c0.7,0,1.4,0.1,2,0.4v-5.1l-10,2.5V27
	C18,28.7,16.2,30,14,30z M14,26c-1.2,0-2,0.6-2,1s0.8,1,2,1s2-0.6,2-1S15.2,26,14,26z M26,23c-1.2,0-2,0.6-2,1s0.8,1,2,1s2-0.6,2-1
	S27.2,23,26,23z M18,14.8v1.9l10-2.5v-1.9L18,14.8z"/>
</svg>
