<?xml version="1.0" encoding="utf-8"?>
<!-- Generator: Adobe Illustrator 25.0.1, SVG Export Plug-In . SVG Version: 6.00 Build 0)  -->
<svg version="1.1" id="Layer_1" xmlns="http://www.w3.org/2000/svg" xmlns:xlink="http://www.w3.org/1999/xlink" x="0px" y="0px"
	 viewBox="0 0 40 40" style="enable-background:new 0 0 40 40;" xml:space="preserve">
<style type="text/css">
	.st0{fill:none;}
	.st1{fill:#272635;}
</style>
<rect class="st0" width="40" height="40"/>
<path class="st1" d="M27,29H13c-1.7,0-3-1.3-3-3V14c0-1.7,1.3-3,3-3h10c1.7,0,3,1.3,3,3h1c1.7,0,3,1.3,3,3v9C30,27.7,28.7,29,27,29
	L27,29z M26,16v10c0,0.6,0.4,1,1,1s1-0.4,1-1v-9c0-0.6-0.4-1-1-1H26z M13,13c-0.6,0-1,0.4-1,1v12c0,0.6,0.4,1,1,1h11.2
	c-0.1-0.3-0.2-0.6-0.2-1V14c0-0.6-0.4-1-1-1H13z M21,25h-6c-0.6,0-1-0.4-1-1s0.4-1,1-1h6c0.6,0,1,0.4,1,1S21.6,25,21,25z M21,21h-6
	c-0.6,0-1-0.4-1-1v-4c0-0.6,0.4-1,1-1h6c0.6,0,1,0.4,1,1v4C22,20.6,21.6,21,21,21z M16,19h4v-2h-4V19z"/>
</svg>
