<?xml version="1.0" encoding="utf-8"?>
<!-- Generator: Adobe Illustrator 25.0.1, SVG Export Plug-In . SVG Version: 6.00 Build 0)  -->
<svg version="1.1" id="Layer_1" xmlns="http://www.w3.org/2000/svg" xmlns:xlink="http://www.w3.org/1999/xlink" x="0px" y="0px"
	 viewBox="0 0 40 40" style="enable-background:new 0 0 40 40;" xml:space="preserve">
<style type="text/css">
	.st0{fill:none;}
	.st1{fill:#272635;}
</style>
<rect class="st0" width="40" height="40"/>
<path class="st1" d="M29,30H11c-0.6,0-1-0.4-1-1s0.4-1,1-1h1V13c0-1.7,1.3-3,3-3h10c1.7,0,3,1.3,3,3v15h1c0.6,0,1,0.4,1,1
	S29.6,30,29,30z M23,28h3V13c0-0.6-0.4-1-1-1H15c-0.6,0-1,0.4-1,1v15h3v-4c0-1.1,0.9-2,2-2h2c1.1,0,2,0.9,2,2V28z M19,28h2v-4h-2V28
	z M23,20h-1c-0.6,0-1-0.4-1-1s0.4-1,1-1h1c0.6,0,1,0.4,1,1S23.6,20,23,20z M18,20h-1c-0.6,0-1-0.4-1-1s0.4-1,1-1h1c0.6,0,1,0.4,1,1
	S18.6,20,18,20z M23,16h-1c-0.6,0-1-0.4-1-1s0.4-1,1-1h1c0.6,0,1,0.4,1,1S23.6,16,23,16z M18,16h-1c-0.6,0-1-0.4-1-1s0.4-1,1-1h1
	c0.6,0,1,0.4,1,1S18.6,16,18,16z"/>
</svg>
