<?xml version="1.0" encoding="utf-8"?>
<!-- Generator: Adobe Illustrator 25.0.1, SVG Export Plug-In . SVG Version: 6.00 Build 0)  -->
<svg version="1.1" id="Layer_1" xmlns="http://www.w3.org/2000/svg" xmlns:xlink="http://www.w3.org/1999/xlink" x="0px" y="0px"
	 viewBox="0 0 40 40" style="enable-background:new 0 0 40 40;" xml:space="preserve">
<style type="text/css">
	.st0{fill:none;}
	.st1{fill:#272635;}
</style>
<rect class="st0" width="40" height="40"/>
<path class="st1" d="M29,30c-0.1,0-0.1,0-0.2,0L20,28l-8.8,2c-0.4,0.1-0.8-0.1-1-0.4s-0.3-0.7-0.1-1.1l9-18c0.3-0.7,1.5-0.7,1.8,0
	l9,18c0.2,0.3,0.1,0.8-0.1,1.1C29.6,29.9,29.3,30,29,30z M21,26.2l6.2,1.4L20,13.2l-7.2,14.3l6.2-1.4V19c0-0.6,0.4-1,1-1s1,0.4,1,1
	V26.2z"/>
</svg>
