<?xml version="1.0" encoding="utf-8"?>
<!-- Generator: Adobe Illustrator 25.0.1, SVG Export Plug-In . SVG Version: 6.00 Build 0)  -->
<svg version="1.1" id="Layer_1" xmlns="http://www.w3.org/2000/svg" xmlns:xlink="http://www.w3.org/1999/xlink" x="0px" y="0px"
	 viewBox="0 0 40 40" style="enable-background:new 0 0 40 40;" xml:space="preserve">
<style type="text/css">
	.st0{fill:none;}
	.st1{fill:#272635;}
</style>
<rect class="st0" width="40" height="40"/>
<path class="st1" d="M27,30h-1c-8.8,0-16-7.2-16-16v-1c0-1.7,1.3-3,3-3h3.3c0.9,0,1.6,0.5,1.9,1.4l1.5,4.5c0.3,0.9-0.1,2-1,2.4
	L17.3,19c0.9,1.6,2.2,2.8,3.7,3.7l0.7-1.4c0.4-0.9,1.5-1.3,2.4-1l4.5,1.5c0.8,0.3,1.4,1,1.4,1.9V27C30,28.7,28.7,30,27,30z M16.3,12
	H13c-0.6,0-1,0.4-1,1v1c0,7.7,6.3,14,14,14h1c0.6,0,1-0.4,1-1v-3.3l-4.5-1.5l-1.1,2.3c-0.2,0.5-0.8,0.7-1.3,0.5
	c-2.7-1.2-4.8-3.3-6-6c-0.2-0.5,0-1.1,0.5-1.3l2.3-1.1L16.3,12z M28,17c-0.3,0-0.5-0.1-0.7-0.3L26,15.4l-1.3,1.3
	c-0.4,0.4-1,0.4-1.4,0s-0.4-1,0-1.4l1.3-1.3l-1.3-1.3c-0.4-0.4-0.4-1,0-1.4s1-0.4,1.4,0l1.3,1.3l1.3-1.3c0.4-0.4,1-0.4,1.4,0
	s0.4,1,0,1.4L27.4,14l1.3,1.3c0.4,0.4,0.4,1,0,1.4C28.5,16.9,28.3,17,28,17z"/>
</svg>
