<?xml version="1.0" encoding="utf-8"?>
<!-- Generator: Adobe Illustrator 25.0.1, SVG Export Plug-In . SVG Version: 6.00 Build 0)  -->
<svg version="1.1" id="Layer_1" xmlns="http://www.w3.org/2000/svg" xmlns:xlink="http://www.w3.org/1999/xlink" x="0px" y="0px"
	 viewBox="0 0 40 40" style="enable-background:new 0 0 40 40;" xml:space="preserve">
<style type="text/css">
	.st0{fill:none;}
	.st1{fill:#272635;}
</style>
<rect class="st0" width="40" height="40"/>
<path class="st1" d="M28,30c-0.2,0-0.3,0-0.4-0.1L24,28.1l-3.6,1.8c-0.3,0.1-0.6,0.1-0.9,0L16,28.1l-3.6,1.8c-0.3,0.2-0.7,0.1-1,0
	C11.2,29.7,11,29.3,11,29V13c0-1.7,1.3-3,3-3h12c1.7,0,3,1.3,3,3v16c0,0.3-0.2,0.7-0.5,0.9C28.4,30,28.2,30,28,30z M16,26
	c0.2,0,0.3,0,0.4,0.1l3.6,1.8l3.6-1.8c0.3-0.1,0.6-0.1,0.9,0l2.6,1.3V13c0-0.6-0.4-1-1-1H14c-0.6,0-1,0.4-1,1v14.4l2.6-1.3
	C15.7,26,15.8,26,16,26z M24,24c-0.6,0-1-0.4-1-1v-1c0-1.7-1.3-3-3-3h-1.6l1.3,1.3c0.4,0.4,0.4,1,0,1.4s-1,0.4-1.4,0l-3-3
	c-0.1-0.1-0.2-0.2-0.2-0.3c0-0.1-0.1-0.2-0.1-0.4l0,0l0,0l0,0c0-0.1,0-0.3,0.1-0.4c0-0.1,0.1-0.2,0.2-0.3l3-3c0.4-0.4,1-0.4,1.4,0
	s0.4,1,0,1.4L18.4,17H20c2.8,0,5,2.2,5,5v1C25,23.6,24.6,24,24,24z"/>
</svg>
