<?xml version="1.0" encoding="utf-8"?>
<!-- Generator: Adobe Illustrator 25.0.1, SVG Export Plug-In . SVG Version: 6.00 Build 0)  -->
<svg version="1.1" id="Layer_1" xmlns="http://www.w3.org/2000/svg" xmlns:xlink="http://www.w3.org/1999/xlink" x="0px" y="0px"
	 viewBox="0 0 40 40" style="enable-background:new 0 0 40 40;" xml:space="preserve">
<style type="text/css">
	.st0{fill:none;}
	.st1{fill:#272635;}
</style>
<rect class="st0" width="40" height="40"/>
<path class="st1" d="M27,29H13c-1.7,0-3-1.3-3-3v-9c0-1.7,1.3-3,3-3h3c0.6,0,1,0.4,1,1s-0.4,1-1,1h-3c-0.6,0-1,0.4-1,1v9
	c0,0.6,0.4,1,1,1h14c0.6,0,1-0.4,1-1v-9c0-0.6-0.4-1-1-1h-3c-0.6,0-1-0.4-1-1s0.4-1,1-1h3c1.7,0,3,1.3,3,3v9C30,27.7,28.7,29,27,29z
	 M20,23L20,23L20,23c-0.1,0-0.3,0-0.4-0.1c-0.1,0-0.2-0.1-0.3-0.2l-3-3c-0.4-0.4-0.4-1,0-1.4s1-0.4,1.4,0l1.3,1.3V12
	c0-0.6,0.4-1,1-1s1,0.4,1,1v7.6l1.3-1.3c0.4-0.4,1-0.4,1.4,0s0.4,1,0,1.4l-3,3c-0.1,0.1-0.2,0.2-0.3,0.2C20.3,23,20.1,23,20,23
	L20,23L20,23z"/>
</svg>
