<?xml version="1.0" encoding="utf-8"?>
<!-- Generator: Adobe Illustrator 25.0.1, SVG Export Plug-In . SVG Version: 6.00 Build 0)  -->
<svg version="1.1" id="Layer_1" xmlns="http://www.w3.org/2000/svg" xmlns:xlink="http://www.w3.org/1999/xlink" x="0px" y="0px"
	 viewBox="0 0 40 40" style="enable-background:new 0 0 40 40;" xml:space="preserve">
<style type="text/css">
	.st0{fill:none;}
	.st1{fill:#272635;}
</style>
<rect class="st0" width="40" height="40"/>
<path class="st1" d="M23,29H13c-1.7,0-3-1.3-3-3v-7c0-1.7,1.3-3,3-3h1v-1c0-1.7,1.3-3,3-3h1c0.6,0,1,0.4,1,1s-0.4,1-1,1h-1
	c-0.6,0-1,0.4-1,1v7c0,0.6,0.4,1,1,1h10c0.6,0,1-0.4,1-1v-7c0-0.6-0.4-1-1-1h-1c-0.6,0-1-0.4-1-1s0.4-1,1-1h1c1.7,0,3,1.3,3,3v7
	c0,1.7-1.3,3-3,3h-1v1C26,27.7,24.7,29,23,29z M13,18c-0.6,0-1,0.4-1,1v7c0,0.6,0.4,1,1,1h10c0.6,0,1-0.4,1-1v-1h-7
	c-1.7,0-3-1.3-3-3v-4H13z M22,21L22,21L22,21c-0.1,0-0.3,0-0.4-0.1c-0.1,0-0.2-0.1-0.3-0.2l-3-3c-0.4-0.4-0.4-1,0-1.4s1-0.4,1.4,0
	l1.3,1.3V11c0-0.6,0.4-1,1-1s1,0.4,1,1v6.6l1.3-1.3c0.4-0.4,1-0.4,1.4,0s0.4,1,0,1.4l-3,3c-0.1,0.1-0.2,0.2-0.3,0.2
	C22.3,21,22.1,21,22,21L22,21L22,21z"/>
</svg>
