<?xml version="1.0" encoding="utf-8"?>
<!-- Generator: Adobe Illustrator 25.0.1, SVG Export Plug-In . SVG Version: 6.00 Build 0)  -->
<svg version="1.1" id="Layer_1" xmlns="http://www.w3.org/2000/svg" xmlns:xlink="http://www.w3.org/1999/xlink" x="0px" y="0px"
	 viewBox="0 0 40 40" style="enable-background:new 0 0 40 40;" xml:space="preserve">
<style type="text/css">
	.st0{fill:none;}
	.st1{fill:#272635;}
</style>
<rect class="st0" width="40" height="40"/>
<path class="st1" d="M23,30h-6c-0.6,0-1-0.4-1-1s0.4-1,1-1h2V14.4l-3.7,1.2l2.7,8c0.2,0.4,0,0.9-0.3,1.2c-2.1,1.6-5.1,1.6-7.2,0
	c-0.3-0.3-0.5-0.7-0.3-1.1l2.7-8.1l-2.1-0.7c-0.5-0.2-0.8-0.7-0.6-1.3c0.2-0.5,0.7-0.8,1.3-0.6l2.7,0.9l5-1.7V11c0-0.6,0.4-1,1-1
	s1,0.4,1,1v1.3l5,1.7l2.7-0.9c0.5-0.2,1.1,0.1,1.3,0.6c0.2,0.5-0.1,1.1-0.6,1.3l-2.1,0.7l2.7,8c0.2,0.4,0,0.9-0.3,1.2
	c-2.1,1.6-5.1,1.6-7.2,0c-0.3-0.3-0.5-0.7-0.3-1.1l2.7-8.1L21,14.4V28h2c0.6,0,1,0.4,1,1S23.6,30,23,30z M24.2,23.6
	c1.1,0.6,2.5,0.6,3.6,0L26,18.2L24.2,23.6z M12.2,23.6c1.1,0.6,2.5,0.6,3.6,0L14,18.2L12.2,23.6z"/>
</svg>
