<?xml version="1.0" encoding="utf-8"?>
<!-- Generator: Adobe Illustrator 25.0.1, SVG Export Plug-In . SVG Version: 6.00 Build 0)  -->
<svg version="1.1" id="Layer_1" xmlns="http://www.w3.org/2000/svg" xmlns:xlink="http://www.w3.org/1999/xlink" x="0px" y="0px"
	 viewBox="0 0 40 40" style="enable-background:new 0 0 40 40;" xml:space="preserve">
<style type="text/css">
	.st0{fill:none;}
	.st1{fill:#272635;}
</style>
<rect class="st0" width="40" height="40"/>
<path class="st1" d="M29.7,28.3l-5.4-5.4c2.4-3.1,2.2-7.7-0.7-10.6c-3.1-3.1-8.2-3.1-11.3,0s-3.1,8.2,0,11.3
	c2.9,2.9,7.4,3.1,10.6,0.7l5.4,5.4c0.4,0.4,1,0.4,1.4,0S30.1,28.7,29.7,28.3z M13.8,22.2c-2.3-2.3-2.3-6.1,0-8.5
	c2.3-2.3,6.1-2.3,8.5,0s2.3,6.1,0,8.5C19.9,24.6,16.1,24.6,13.8,22.2z"/>
</svg>
