<?xml version="1.0" encoding="utf-8"?>
<!-- Generator: Adobe Illustrator 25.0.1, SVG Export Plug-In . SVG Version: 6.00 Build 0)  -->
<svg version="1.1" id="Layer_1" xmlns="http://www.w3.org/2000/svg" xmlns:xlink="http://www.w3.org/1999/xlink" x="0px" y="0px"
	 viewBox="0 0 40 40" style="enable-background:new 0 0 40 40;" xml:space="preserve">
<style type="text/css">
	.st0{fill:none;}
	.st1{fill:#272635;}
</style>
<rect class="st0" width="40" height="40"/>
<path class="st1" d="M26,30c-2.2,0-4-1.8-4-4c0-0.3,0-0.6,0.1-0.8L17,22.6c-0.7,0.9-1.8,1.4-3,1.4c-2.2,0-4-1.8-4-4s1.8-4,4-4
	c1.2,0,2.3,0.5,3,1.4l5.1-2.5C22,14.6,22,14.3,22,14c0-2.2,1.8-4,4-4s4,1.8,4,4s-1.8,4-4,4c-1.2,0-2.3-0.5-3-1.4l-5.1,2.5
	C18,19.4,18,19.7,18,20s0,0.6-0.1,0.8l5.1,2.5c0.7-0.9,1.8-1.4,3-1.4c2.2,0,4,1.8,4,4S28.2,30,26,30z M26,24c-0.8,0-1.4,0.4-1.8,1.1
	l0,0C24.1,25.4,24,25.7,24,26c0,1.1,0.9,2,2,2s2-0.9,2-2S27.1,24,26,24z M14,18c-1.1,0-2,0.9-2,2s0.9,2,2,2c0.8,0,1.4-0.4,1.8-1.1
	c0.1-0.3,0.2-0.6,0.2-0.9s-0.1-0.6-0.2-0.9C15.4,18.4,14.8,18,14,18z M26,12c-1.1,0-2,0.9-2,2c0,0.3,0.1,0.6,0.2,0.9l0,0
	c0.3,0.7,1,1.1,1.8,1.1c1.1,0,2-0.9,2-2S27.1,12,26,12z"/>
</svg>
