<?xml version="1.0" encoding="utf-8"?>
<!-- Generator: Adobe Illustrator 25.0.1, SVG Export Plug-In . SVG Version: 6.00 Build 0)  -->
<svg version="1.1" id="Layer_1" xmlns="http://www.w3.org/2000/svg" xmlns:xlink="http://www.w3.org/1999/xlink" x="0px" y="0px"
	 viewBox="0 0 40 40" style="enable-background:new 0 0 40 40;" xml:space="preserve">
<style type="text/css">
	.st0{fill:none;}
	.st1{fill:#272635;}
</style>
<rect class="st0" width="40" height="40"/>
<path class="st1" d="M25,30c-1.7,0-3-1.3-3-3c0-0.4,0.1-0.7,0.2-1h-4.3c0.1,0.3,0.2,0.6,0.2,1c0,1.7-1.3,3-3,3s-3-1.3-3-3
	c0-0.5,0.1-0.9,0.3-1.3c-0.3-0.2-0.6-0.5-0.7-0.9c-0.3-0.8-0.1-1.6,0.4-2.2l1.9-1.9l-1.5-7.5l0,0L12.2,12H11c-0.6,0-1-0.4-1-1
	s0.4-1,1-1h2c0.5,0,0.9,0.3,1,0.8l0.2,1.2H29c0.3,0,0.7,0.2,0.9,0.5c0.2,0.3,0.2,0.7,0,1l-4,8C25.7,21.8,25.4,22,25,22h-9.6l-2,2H15
	l0,0h10l0,0c1.7,0,3,1.3,3,3S26.7,30,25,30z M25,26c-0.6,0-1,0.4-1,1s0.4,1,1,1s1-0.4,1-1S25.6,26,25,26z M15,26c-0.6,0-1,0.4-1,1
	s0.4,1,1,1s1-0.4,1-1S15.6,26,15,26z M15.8,20h8.6l3-6H14.6L15.8,20z"/>
</svg>
