<?xml version="1.0" encoding="utf-8"?>
<!-- Generator: Adobe Illustrator 25.0.1, SVG Export Plug-In . SVG Version: 6.00 Build 0)  -->
<svg version="1.1" id="Layer_1" xmlns="http://www.w3.org/2000/svg" xmlns:xlink="http://www.w3.org/1999/xlink" x="0px" y="0px"
	 viewBox="0 0 40 40" style="enable-background:new 0 0 40 40;" xml:space="preserve">
<style type="text/css">
	.st0{fill:none;}
	.st1{fill:#272635;}
</style>
<rect class="st0" width="40" height="40"/>
<path class="st1" d="M28,30H12c-0.3,0-0.5-0.1-0.7-0.3c-0.2-0.2-0.3-0.5-0.3-0.8l1-12c0-0.5,0.5-0.9,1-0.9h2v-1c0-2.8,2.2-5,5-5
	s5,2.2,5,5v1h2c0.5,0,1,0.4,1,0.9l1,12c0,0.3-0.1,0.6-0.3,0.8C28.5,29.9,28.3,30,28,30z M13.1,28h13.8l-0.8-10H25v1c0,0.6-0.4,1-1,1
	s-1-0.4-1-1v-1h-6v1c0,0.6-0.4,1-1,1s-1-0.4-1-1v-1h-1.1L13.1,28z M17,16h6v-1c0-1.7-1.3-3-3-3s-3,1.3-3,3V16z"/>
</svg>
