<?xml version="1.0" encoding="utf-8"?>
<!-- Generator: Adobe Illustrator 25.0.1, SVG Export Plug-In . SVG Version: 6.00 Build 0)  -->
<svg version="1.1" id="Layer_1" xmlns="http://www.w3.org/2000/svg" xmlns:xlink="http://www.w3.org/1999/xlink" x="0px" y="0px"
	 viewBox="0 0 40 40" style="enable-background:new 0 0 40 40;" xml:space="preserve">
<style type="text/css">
	.st0{fill:none;}
	.st1{fill:#272635;}
</style>
<rect class="st0" width="40" height="40"/>
<path class="st1" d="M25,29c-0.6,0-1-0.4-1-1v-9.6l-2.3,2.3c-0.4,0.4-1,0.4-1.4,0s-0.4-1,0-1.4l4-4c0.1-0.1,0.2-0.2,0.3-0.2
	c0.1,0,0.2-0.1,0.4-0.1l0,0l0,0l0,0c0.1,0,0.3,0,0.4,0.1c0.1,0,0.2,0.1,0.3,0.2l4,4c0.4,0.4,0.4,1,0,1.4s-1,0.4-1.4,0L26,18.4V28
	C26,28.6,25.6,29,25,29z M17,21h-6c-0.6,0-1-0.4-1-1s0.4-1,1-1h6c0.6,0,1,0.4,1,1S17.6,21,17,21z M20,17h-9c-0.6,0-1-0.4-1-1
	s0.4-1,1-1h9c0.6,0,1,0.4,1,1S20.6,17,20,17z M24,13H11c-0.6,0-1-0.4-1-1s0.4-1,1-1h13c0.6,0,1,0.4,1,1S24.6,13,24,13z"/>
</svg>
