<?xml version="1.0" encoding="utf-8"?>
<!-- Generator: Adobe Illustrator 25.0.1, SVG Export Plug-In . SVG Version: 6.00 Build 0)  -->
<svg version="1.1" id="Layer_1" xmlns="http://www.w3.org/2000/svg" xmlns:xlink="http://www.w3.org/1999/xlink" x="0px" y="0px"
	 viewBox="0 0 40 40" style="enable-background:new 0 0 40 40;" xml:space="preserve">
<style type="text/css">
	.st0{fill:none;}
	.st1{fill:#272635;}
</style>
<rect class="st0" width="40" height="40"/>
<path class="st1" d="M21,30L21,30c-0.4,0-0.8-0.3-0.9-0.7L18,22.9l-5.3-2C12.3,20.8,12,20.4,12,20s0.3-0.8,0.6-0.9l5.3-2l2.1-6.4
	c0.1-0.4,0.5-0.7,0.9-0.7s0.8,0.3,0.9,0.7l2.1,6.4l5.3,2c0.4,0.1,0.6,0.5,0.6,0.9s-0.3,0.8-0.6,0.9l-5.3,2l-2.1,6.4
	C21.8,29.7,21.4,30,21,30z M15.8,20l3.2,1.2c0.3,0.1,0.5,0.3,0.6,0.6l1.3,4l1.3-4c0.1-0.3,0.3-0.5,0.6-0.6L26,20l-3.2-1.2
	c-0.3-0.1-0.5-0.3-0.6-0.6l-1.3-4l-1.3,4c-0.1,0.3-0.3,0.5-0.6,0.6L15.8,20z M14,30c-0.6,0-1-0.4-1-1v-1h-1c-0.6,0-1-0.4-1-1
	s0.4-1,1-1h1v-1c0-0.6,0.4-1,1-1s1,0.4,1,1v1h1c0.6,0,1,0.4,1,1s-0.4,1-1,1h-1v1C15,29.6,14.6,30,14,30z M13,16c-0.6,0-1-0.4-1-1v-1
	h-1c-0.6,0-1-0.4-1-1s0.4-1,1-1h1v-1c0-0.6,0.4-1,1-1s1,0.4,1,1v1h1c0.6,0,1,0.4,1,1s-0.4,1-1,1h-1v1C14,15.6,13.6,16,13,16z"/>
</svg>
