<?xml version="1.0" encoding="utf-8"?>
<!-- Generator: Adobe Illustrator 25.0.1, SVG Export Plug-In . SVG Version: 6.00 Build 0)  -->
<svg version="1.1" id="Layer_1" xmlns="http://www.w3.org/2000/svg" xmlns:xlink="http://www.w3.org/1999/xlink" x="0px" y="0px"
	 viewBox="0 0 40 40" style="enable-background:new 0 0 40 40;" xml:space="preserve">
<style type="text/css">
	.st0{fill:none;}
	.st1{fill:#272635;}
</style>
<rect class="st0" width="40" height="40"/>
<path class="st1" d="M13.6,27.4c-0.3,0-0.5-0.1-0.7-0.3C11,25.2,10,22.7,10,20s1-5.2,2.9-7.1c0.4-0.4,1-0.4,1.4,0s0.4,1,0,1.4
	C12.8,15.9,12,17.9,12,20s0.8,4.1,2.3,5.7c0.4,0.4,0.4,1,0,1.4C14.1,27.3,13.9,27.4,13.6,27.4z M26.4,27.4c-0.3,0-0.5-0.1-0.7-0.3
	c-0.4-0.4-0.4-1,0-1.4c3.1-3.1,3.1-8.2,0-11.3c-0.4-0.4-0.4-1,0-1.4s1-0.4,1.4,0c3.9,3.9,3.9,10.2,0,14.1
	C26.9,27.3,26.6,27.4,26.4,27.4z M23.5,24.5c-0.3,0-0.5-0.1-0.7-0.3c-0.4-0.4-0.4-1,0-1.4C23.6,22,24,21,24,20s-0.4-2.1-1.2-2.8
	c-0.4-0.4-0.4-1,0-1.4s1-0.4,1.4,0c1.1,1.1,1.8,2.6,1.8,4.2s-0.6,3.1-1.8,4.2C24,24.4,23.8,24.5,23.5,24.5z M16.5,24.5
	c-0.3,0-0.5-0.1-0.7-0.3C14.6,23.1,14,21.6,14,20s0.6-3.1,1.8-4.2c0.4-0.4,1-0.4,1.4,0c0.4,0.4,0.4,1,0,1.4C16.4,17.9,16,18.9,16,20
	s0.4,2.1,1.2,2.8c0.4,0.4,0.4,1,0,1.4C17,24.4,16.7,24.5,16.5,24.5z M20,22c-1.1,0-2-0.9-2-2s0.9-2,2-2s2,0.9,2,2S21.1,22,20,22z
	 M20,20L20,20L20,20z"/>
</svg>
