<?xml version="1.0" encoding="utf-8"?>
<!-- Generator: Adobe Illustrator 25.0.1, SVG Export Plug-In . SVG Version: 6.00 Build 0)  -->
<svg version="1.1" id="Layer_1" xmlns="http://www.w3.org/2000/svg" xmlns:xlink="http://www.w3.org/1999/xlink" x="0px" y="0px"
	 viewBox="0 0 40 40" style="enable-background:new 0 0 40 40;" xml:space="preserve">
<style type="text/css">
	.st0{fill:none;}
	.st1{fill:#272635;}
</style>
<rect class="st0" width="40" height="40"/>
<path class="st1" d="M29,30c-0.3,0-0.5-0.1-0.7-0.3l-5.5-5.5l0,0L18.6,20l0,0l-8.3-8.3c-0.4-0.4-0.4-1,0-1.4s1-0.4,1.4,0l7.8,7.8
	c0.2,0,0.3-0.1,0.5-0.1c1.1,0,2,0.9,2,2c0,0.2,0,0.4-0.1,0.5l1.5,1.5c0.4-0.6,0.6-1.3,0.6-2c0-1.1-0.4-2.1-1.2-2.8
	c-0.4-0.4-0.4-1,0-1.4s1-0.4,1.4,0c1.1,1.1,1.8,2.6,1.8,4.2c0,1.3-0.4,2.5-1.1,3.5l1.4,1.4c2.4-3.1,2.2-7.7-0.7-10.6
	c-0.4-0.4-0.4-1,0-1.4s1-0.4,1.4,0c3.7,3.7,3.9,9.5,0.7,13.4l2,2c0.4,0.4,0.4,1,0,1.4C29.5,29.9,29.3,30,29,30z M13.6,27.4
	c-0.3,0-0.5-0.1-0.7-0.3c-2.7-2.7-3.6-6.6-2.4-10.3c0.2-0.5,0.7-0.8,1.3-0.6c0.5,0.2,0.8,0.7,0.6,1.3c-1,2.9-0.2,6,1.9,8.2
	c0.4,0.4,0.4,1,0,1.4C14.1,27.3,13.9,27.4,13.6,27.4z M16.5,24.5c-0.3,0-0.5-0.1-0.7-0.3c-0.9-0.9-1.5-2.1-1.7-3.4
	c-0.1-0.5,0.3-1.1,0.8-1.1c0.5-0.1,1.1,0.3,1.1,0.8c0.1,0.9,0.5,1.6,1.1,2.3c0.4,0.4,0.4,1,0,1.4C17,24.4,16.7,24.5,16.5,24.5z"/>
</svg>
