<?xml version="1.0" encoding="utf-8"?>
<!-- Generator: Adobe Illustrator 25.0.1, SVG Export Plug-In . SVG Version: 6.00 Build 0)  -->
<svg version="1.1" id="Layer_1" xmlns="http://www.w3.org/2000/svg" xmlns:xlink="http://www.w3.org/1999/xlink" x="0px" y="0px"
	 viewBox="0 0 40 40" style="enable-background:new 0 0 40 40;" xml:space="preserve">
<style type="text/css">
	.st0{fill:none;}
	.st1{fill:#272635;}
</style>
<rect class="st0" width="40" height="40"/>
<path class="st1" d="M20,30c-2.7,0-5.2-1.1-7-2.9c0,0-0.1,0-0.1-0.1s0,0-0.1-0.1c-1.8-1.8-2.9-4.3-2.9-7s1.1-5.2,2.9-7
	c0,0,0,0,0.1-0.1s0,0,0.1-0.1c1.8-1.8,4.3-2.9,7-2.9s5.2,1.1,7,2.9c0,0,0.1,0,0.1,0.1s0,0.1,0.1,0.1c1.8,1.8,2.9,4.3,2.9,7
	s-1.1,5.2-2.9,7c0,0,0,0.1-0.1,0.1S27,27,27,27.1C25.2,28.9,22.7,30,20,30z M15.1,26.3c1.4,1.1,3.1,1.7,4.9,1.7s3.5-0.6,4.9-1.7
	l-2.1-2.1C22,24.7,21,25,20,25s-2-0.3-2.8-0.8L15.1,26.3z M13.7,15.1C12.6,16.5,12,18.2,12,20s0.6,3.5,1.7,4.9l2.1-2.1
	C15.3,22,15,21,15,20s0.3-2,0.8-2.8L13.7,15.1z M24.2,22.8l2.1,2.1c1.1-1.4,1.7-3.1,1.7-4.9s-0.6-3.5-1.7-4.9l-2.1,2.1
	C24.7,18,25,19,25,20S24.7,22,24.2,22.8z M20,17c-1.7,0-3,1.3-3,3s1.3,3,3,3s3-1.3,3-3S21.7,17,20,17z M15.1,13.7l2.1,2.1
	C18,15.3,19,15,20,15s2,0.3,2.8,0.8l2.1-2.1C23.5,12.6,21.8,12,20,12S16.5,12.6,15.1,13.7z"/>
</svg>
