<?xml version="1.0" encoding="utf-8"?>
<!-- Generator: Adobe Illustrator 25.0.1, SVG Export Plug-In . SVG Version: 6.00 Build 0)  -->
<svg version="1.1" id="Layer_1" xmlns="http://www.w3.org/2000/svg" xmlns:xlink="http://www.w3.org/1999/xlink" x="0px" y="0px"
	 viewBox="0 0 40 40" style="enable-background:new 0 0 40 40;" xml:space="preserve">
<style type="text/css">
	.st0{fill:none;}
	.st1{fill:#272635;}
</style>
<rect class="st0" width="40" height="40"/>
<path class="st1" d="M25,29L25,29L25,29c-0.1,0-0.3,0-0.4-0.1c-0.1,0-0.2-0.1-0.3-0.2l-4-4c-0.4-0.4-0.4-1,0-1.4s1-0.4,1.4,0
	l2.3,2.3V16c0-0.6,0.4-1,1-1s1,0.4,1,1v9.6l2.3-2.3c0.4-0.4,1-0.4,1.4,0s0.4,1,0,1.4l-4,4c-0.1,0.1-0.2,0.2-0.3,0.2
	C25.3,29,25.1,29,25,29L25,29L25,29z M15,25c-0.6,0-1-0.4-1-1v-9.6l-2.3,2.3c-0.4,0.4-1,0.4-1.4,0s-0.4-1,0-1.4l4-4
	c0.1-0.1,0.2-0.2,0.3-0.2S14.8,11,15,11l0,0l0,0l0,0c0.1,0,0.3,0,0.4,0.1c0.1,0,0.2,0.1,0.3,0.2l4,4c0.4,0.4,0.4,1,0,1.4
	s-1,0.4-1.4,0L16,14.4V24C16,24.6,15.6,25,15,25z"/>
</svg>
