<?xml version="1.0" encoding="utf-8"?>
<!-- Generator: Adobe Illustrator 25.0.1, SVG Export Plug-In . SVG Version: 6.00 Build 0)  -->
<svg version="1.1" id="Layer_1" xmlns="http://www.w3.org/2000/svg" xmlns:xlink="http://www.w3.org/1999/xlink" x="0px" y="0px"
	 viewBox="0 0 40 40" style="enable-background:new 0 0 40 40;" xml:space="preserve">
<style type="text/css">
	.st0{fill:none;}
	.st1{fill:#272635;}
</style>
<rect class="st0" width="40" height="40"/>
<path class="st1" d="M27,27H13c-1.7,0-3-1.3-3-3v-8c0-1.7,1.3-3,3-3h14c1.7,0,3,1.3,3,3v8C30,25.7,28.7,27,27,27z M21,25h6
	c0.6,0,1-0.4,1-1v-1h-7V25z M12,23v1c0,0.6,0.4,1,1,1h6v-2H12z M21,21h7v-2h-7V21z M12,21h7v-2h-7V21z M20,17h8v-1c0-0.6-0.4-1-1-1
	H13c-0.6,0-1,0.4-1,1v1H20z"/>
</svg>
