<?xml version="1.0" encoding="utf-8"?>
<!-- Generator: Adobe Illustrator 25.0.1, SVG Export Plug-In . SVG Version: 6.00 Build 0)  -->
<svg version="1.1" id="Layer_1" xmlns="http://www.w3.org/2000/svg" xmlns:xlink="http://www.w3.org/1999/xlink" x="0px" y="0px"
	 viewBox="0 0 40 40" style="enable-background:new 0 0 40 40;" xml:space="preserve">
<style type="text/css">
	.st0{fill:none;}
	.st1{fill:#272635;}
</style>
<rect class="st0" width="40" height="40"/>
<path class="st1" d="M20,30c-0.8,0-1.6-0.3-2.1-0.9l-7-7C10.3,21.6,10,20.8,10,20v-5c0-2.8,2.2-5,5-5h5c0.8,0,1.6,0.3,2.1,0.9l7,7
	c0.6,0.6,0.9,1.3,0.9,2.1s-0.3,1.6-0.9,2.1l-7,7C21.6,29.7,20.8,30,20,30z M15,12c-1.7,0-3,1.3-3,3v5c0,0.3,0.1,0.5,0.3,0.7l7,7
	c0.4,0.4,1,0.4,1.4,0l7-7c0.2-0.2,0.3-0.4,0.3-0.7s-0.1-0.5-0.3-0.7l-7-7C20.5,12.1,20.3,12,20,12H15z M15,16c-0.6,0-1-0.4-1-1
	s0.4-1,1-1l0,0c0.6,0,1,0.4,1,1S15.6,16,15,16z"/>
</svg>
