<?xml version="1.0" encoding="utf-8"?>
<!-- Generator: Adobe Illustrator 25.0.1, SVG Export Plug-In . SVG Version: 6.00 Build 0)  -->
<svg version="1.1" id="Layer_1" xmlns="http://www.w3.org/2000/svg" xmlns:xlink="http://www.w3.org/1999/xlink" x="0px" y="0px"
	 viewBox="0 0 40 40" style="enable-background:new 0 0 40 40;" xml:space="preserve">
<style type="text/css">
	.st0{fill:none;}
	.st1{fill:#272635;}
</style>
<rect class="st0" width="40" height="40"/>
<g>
	<path class="st1" d="M27,11H13c-1.1,0-2,0.9-2,2v2c0,1.1,0.9,2,2,2h14c1.1,0,2-0.9,2-2v-2C29,11.9,28.1,11,27,11z M27,15H13v-2h14
		V15z"/>
	<path class="st1" d="M19,19h-6c-1.1,0-2,0.9-2,2v6c0,1.1,0.9,2,2,2h6c1.1,0,2-0.9,2-2v-6C21,19.9,20.1,19,19,19z M19,27h-6v-6h6V27
		z"/>
	<path class="st1" d="M27,19h-2c-1.1,0-2,0.9-2,2v6c0,1.1,0.9,2,2,2h2c1.1,0,2-0.9,2-2v-6C29,19.9,28.1,19,27,19z M27,27h-2v-6h2V27
		z"/>
</g>
</svg>
