<?xml version="1.0" encoding="utf-8"?>
<!-- Generator: Adobe Illustrator 25.0.1, SVG Export Plug-In . SVG Version: 6.00 Build 0)  -->
<svg version="1.1" id="Layer_1" xmlns="http://www.w3.org/2000/svg" xmlns:xlink="http://www.w3.org/1999/xlink" x="0px" y="0px"
	 viewBox="0 0 40 40" style="enable-background:new 0 0 40 40;" xml:space="preserve">
<style type="text/css">
	.st0{fill:none;}
	.st1{fill:#272635;}
</style>
<rect class="st0" width="40" height="40"/>
<path class="st1" d="M23.3,30h-4c-0.2,0-0.5,0-0.7-0.1L14.9,29H13c-1.7,0-3-1.3-3-3v-6c0-1.7,1.3-3,3-3h2.1l2.4-3.6
	c0.3-0.4,0.4-0.9,0.4-1.5c0-1,0.9-1.9,1.9-1.9c1.8,0,3.1,1.3,3.1,3v4h3.8c1,0,2,0.5,2.6,1.4c0.5,0.9,0.6,2,0.1,2.9l-3.5,7
	C25.4,29.4,24.4,30,23.3,30z M16,27.2l3,0.8c0.1,0,0.2,0,0.2,0h4c0.4,0,0.7-0.2,0.9-0.6l3.5-7c0.2-0.5,0-0.8,0-1
	c-0.1-0.1-0.3-0.5-0.9-0.5H20c-0.6,0-1-0.4-1-1s0.4-1,1-1h1v-4c0-0.6-0.4-1-1-1l0,0c0,0.9-0.3,1.7-0.8,2.5L16,19.3V27.2z M13,19
	c-0.6,0-1,0.4-1,1v6c0,0.6,0.4,1,1,1h1v-8H13z"/>
</svg>
