<?xml version="1.0" encoding="utf-8"?>
<!-- Generator: Adobe Illustrator 25.0.1, SVG Export Plug-In . SVG Version: 6.00 Build 0)  -->
<svg version="1.1" id="Layer_1" xmlns="http://www.w3.org/2000/svg" xmlns:xlink="http://www.w3.org/1999/xlink" x="0px" y="0px"
	 viewBox="0 0 40 40" style="enable-background:new 0 0 40 40;" xml:space="preserve">
<style type="text/css">
	.st0{fill:none;}
	.st1{fill:#272635;}
</style>
<rect class="st0" width="40" height="40"/>
<path class="st1" d="M24.1,30h-8.3c-1.6,0-2.9-1.2-3-2.8L12.1,16H12c-0.6,0-1-0.4-1-1s0.4-1,1-1h1l0,0h3v-2c0-1.1,0.9-2,2-2h4
	c1.1,0,2,0.9,2,2v2h3l0,0h1c0.6,0,1,0.4,1,1s-0.4,1-1,1h-0.1l-0.8,11.2C27,28.8,25.7,30,24.1,30z M14.1,16l0.8,11.1
	c0,0.5,0.5,0.9,1,0.9h8.3c0.5,0,1-0.4,1-0.9L25.9,16H14.1z M18,14h4v-2h-4V14z M22,26c-0.6,0-1-0.4-1-1v-6c0-0.6,0.4-1,1-1
	s1,0.4,1,1v6C23,25.6,22.6,26,22,26z M18,26c-0.6,0-1-0.4-1-1v-6c0-0.6,0.4-1,1-1s1,0.4,1,1v6C19,25.6,18.6,26,18,26z"/>
</svg>
