<?xml version="1.0" encoding="utf-8"?>
<!-- Generator: Adobe Illustrator 25.0.1, SVG Export Plug-In . SVG Version: 6.00 Build 0)  -->
<svg version="1.1" id="Layer_1" xmlns="http://www.w3.org/2000/svg" xmlns:xlink="http://www.w3.org/1999/xlink" x="0px" y="0px"
	 viewBox="0 0 40 40" style="enable-background:new 0 0 40 40;" xml:space="preserve">
<style type="text/css">
	.st0{fill:none;}
	.st1{fill:#272635;}
</style>
<rect class="st0" width="40" height="40"/>
<path class="st1" d="M29,26h-8c-0.6,0-1-0.4-1-1s0.4-1,1-1h5.6L21,18.4l-3.3,3.3c-0.4,0.4-1,0.4-1.4,0l-6-6c-0.4-0.4-0.4-1,0-1.4
	s1-0.4,1.4,0l5.3,5.3l3.3-3.3c0.4-0.4,1-0.4,1.4,0l6.3,6.3V17c0-0.6,0.4-1,1-1s1,0.4,1,1v8l0,0l0,0c0,0.1,0,0.3-0.1,0.4
	c0,0.1-0.1,0.2-0.2,0.3s-0.2,0.2-0.3,0.2C29.3,26,29.1,26,29,26L29,26L29,26z"/>
</svg>
