<?xml version="1.0" encoding="utf-8"?>
<!-- Generator: Adobe Illustrator 25.0.1, SVG Export Plug-In . SVG Version: 6.00 Build 0)  -->
<svg version="1.1" id="Layer_1" xmlns="http://www.w3.org/2000/svg" xmlns:xlink="http://www.w3.org/1999/xlink" x="0px" y="0px"
	 viewBox="0 0 40 40" style="enable-background:new 0 0 40 40;" xml:space="preserve">
<style type="text/css">
	.st0{fill:none;}
	.st1{fill:#272635;}
</style>
<rect class="st0" width="40" height="40"/>
<path class="st1" d="M25,28c-1.3,0-2.4-0.8-2.8-2H22c-0.4,0-0.7-0.1-1-0.3c-0.3,0.2-0.6,0.3-1,0.3h-2.2c-0.4,1.2-1.5,2-2.8,2
	s-2.4-0.8-2.8-2H12c-1.1,0-2-0.9-2-2V14c0-1.1,0.9-2,2-2h8c1.1,0,2,0.9,2,2h2.6c0.5,0,1,0.2,1.4,0.6l3.4,3.4
	c0.4,0.4,0.6,0.9,0.6,1.4V24c0,1.1-0.9,2-2,2h-0.2C27.4,27.2,26.3,28,25,28z M24,25c0,0.6,0.4,1,1,1s1-0.4,1-1s-0.4-1-1-1
	S24,24.4,24,25z M14,25c0,0.6,0.4,1,1,1s1-0.4,1-1s-0.4-1-1-1S14,24.4,14,25z M22,24L22,24h0.2c0.4-1.2,1.5-2,2.8-2s2.4,0.8,2.8,2
	H28v-4.6L24.6,16H22V24z M17.8,24H20V14h-8v10h0.2c0.4-1.2,1.5-2,2.8-2S17.4,22.8,17.8,24z"/>
</svg>
