<?xml version="1.0" encoding="utf-8"?>
<!-- Generator: Adobe Illustrator 25.0.1, SVG Export Plug-In . SVG Version: 6.00 Build 0)  -->
<svg version="1.1" id="Layer_1" xmlns="http://www.w3.org/2000/svg" xmlns:xlink="http://www.w3.org/1999/xlink" x="0px" y="0px"
	 viewBox="0 0 40 40" style="enable-background:new 0 0 40 40;" xml:space="preserve">
<style type="text/css">
	.st0{fill:none;}
	.st1{fill:#272635;}
</style>
<rect class="st0" width="40" height="40"/>
<g>
	<path class="st1" d="M20,20c2.8,0,5-2.2,5-5s-2.2-5-5-5s-5,2.2-5,5S17.2,20,20,20z M20,12c1.7,0,3,1.3,3,3s-1.3,3-3,3s-3-1.3-3-3
		S18.3,12,20,12z"/>
	<path class="st1" d="M20,21c-4.4,0-8,3.6-8,8c0,0.6,0.4,1,1,1h14c0.6,0,1-0.4,1-1C28,24.6,24.4,21,20,21z M14.1,28
		c0.5-2.8,2.9-5,5.9-5s5.4,2.2,5.9,5H14.1z"/>
</g>
</svg>
