<?xml version="1.0" encoding="utf-8"?>
<!-- Generator: Adobe Illustrator 25.0.1, SVG Export Plug-In . SVG Version: 6.00 Build 0)  -->
<svg version="1.1" id="Layer_1" xmlns="http://www.w3.org/2000/svg" xmlns:xlink="http://www.w3.org/1999/xlink" x="0px" y="0px"
	 viewBox="0 0 40 40" style="enable-background:new 0 0 40 40;" xml:space="preserve">
<style type="text/css">
	.st0{fill:none;}
	.st1{fill:#272635;}
</style>
<rect class="st0" width="40" height="40"/>
<path class="st1" d="M30,29H10c-0.6,0-1-0.4-1-1v-2c0-2.2,1.8-4,4-4c0.7,0,1.5,0.2,2.1,0.6C16.2,21,18,20,20,20s3.8,1,4.9,2.6
	c0.6-0.4,1.3-0.6,2.1-0.6c2.2,0,4,1.8,4,4v2C31,28.6,30.6,29,30,29z M26,27h3v-1c0-1.1-0.9-2-2-2c-0.4,0-0.9,0.1-1.2,0.4
	c0.1,0.5,0.2,1,0.2,1.6V27z M16,27h8v-1c0-0.5-0.1-1-0.3-1.5l0,0C23.1,23,21.6,22,20,22s-3.1,1-3.7,2.5l0,0C16.1,25,16,25.5,16,26
	V27z M11,27h3v-1c0-0.5,0.1-1.1,0.2-1.6C13.9,24.1,13.4,24,13,24c-1.1,0-2,0.9-2,2V27z M27,21c-1.7,0-3-1.3-3-3s1.3-3,3-3s3,1.3,3,3
	S28.7,21,27,21z M27,17c-0.6,0-1,0.4-1,1s0.4,1,1,1s1-0.4,1-1S27.6,17,27,17z M13,21c-1.7,0-3-1.3-3-3s1.3-3,3-3s3,1.3,3,3
	S14.7,21,13,21z M13,17c-0.6,0-1,0.4-1,1s0.4,1,1,1s1-0.4,1-1S13.6,17,13,17z M20,19c-2.2,0-4-1.8-4-4s1.8-4,4-4s4,1.8,4,4
	S22.2,19,20,19z M20,13c-1.1,0-2,0.9-2,2s0.9,2,2,2s2-0.9,2-2S21.1,13,20,13z"/>
</svg>
