<?xml version="1.0" encoding="utf-8"?>
<!-- Generator: Adobe Illustrator 25.0.1, SVG Export Plug-In . SVG Version: 6.00 Build 0)  -->
<svg version="1.1" id="Layer_1" xmlns="http://www.w3.org/2000/svg" xmlns:xlink="http://www.w3.org/1999/xlink" x="0px" y="0px"
	 viewBox="0 0 40 40" style="enable-background:new 0 0 40 40;" xml:space="preserve">
<style type="text/css">
	.st0{fill:none;}
	.st1{fill:#272635;}
</style>
<rect class="st0" width="40" height="40"/>
<g>
	<path class="st1" d="M16,11h-2c-1.7,0-3,1.3-3,3v2c0,1.7,1.3,3,3,3h2c1.7,0,3-1.3,3-3v-2C19,12.3,17.7,11,16,11z M17,16
		c0,0.6-0.4,1-1,1h-2c-0.6,0-1-0.4-1-1v-2c0-0.6,0.4-1,1-1h2c0.6,0,1,0.4,1,1V16z"/>
	<path class="st1" d="M26,11h-2c-1.7,0-3,1.3-3,3v2c0,1.7,1.3,3,3,3h2c1.7,0,3-1.3,3-3v-2C29,12.3,27.7,11,26,11z M27,16
		c0,0.6-0.4,1-1,1h-2c-0.6,0-1-0.4-1-1v-2c0-0.6,0.4-1,1-1h2c0.6,0,1,0.4,1,1V16z"/>
	<path class="st1" d="M16,21h-2c-1.7,0-3,1.3-3,3v2c0,1.7,1.3,3,3,3h2c1.7,0,3-1.3,3-3v-2C19,22.3,17.7,21,16,21z M17,26
		c0,0.6-0.4,1-1,1h-2c-0.6,0-1-0.4-1-1v-2c0-0.6,0.4-1,1-1h2c0.6,0,1,0.4,1,1V26z"/>
	<path class="st1" d="M26,21h-2c-1.7,0-3,1.3-3,3v2c0,1.7,1.3,3,3,3h2c1.7,0,3-1.3,3-3v-2C29,22.3,27.7,21,26,21z M27,26
		c0,0.6-0.4,1-1,1h-2c-0.6,0-1-0.4-1-1v-2c0-0.6,0.4-1,1-1h2c0.6,0,1,0.4,1,1V26z"/>
</g>
</svg>
