<?xml version="1.0" encoding="utf-8"?>
<!-- Generator: Adobe Illustrator 25.0.1, SVG Export Plug-In . SVG Version: 6.00 Build 0)  -->
<svg version="1.1" id="Layer_1" xmlns="http://www.w3.org/2000/svg" xmlns:xlink="http://www.w3.org/1999/xlink" x="0px" y="0px"
	 viewBox="0 0 40 40" style="enable-background:new 0 0 40 40;" xml:space="preserve">
<style type="text/css">
	.st0{fill:none;}
	.st1{fill:#272635;}
</style>
<rect class="st0" width="40" height="40"/>
<path class="st1" d="M25,29c-0.6,0-1-0.4-1-1v-2h-2c-0.6,0-1-0.4-1-1s0.4-1,1-1h2v-2c0-0.6,0.4-1,1-1s1,0.4,1,1v2h2c0.6,0,1,0.4,1,1
	s-0.4,1-1,1h-2v2C26,28.6,25.6,29,25,29z M16,29h-2c-1.7,0-3-1.3-3-3v-2c0-1.7,1.3-3,3-3h2c1.7,0,3,1.3,3,3v2C19,27.7,17.7,29,16,29
	z M14,23c-0.6,0-1,0.4-1,1v2c0,0.6,0.4,1,1,1h2c0.6,0,1-0.4,1-1v-2c0-0.6-0.4-1-1-1H14z M26,19h-2c-1.7,0-3-1.3-3-3v-2
	c0-1.7,1.3-3,3-3h2c1.7,0,3,1.3,3,3v2C29,17.7,27.7,19,26,19z M24,13c-0.6,0-1,0.4-1,1v2c0,0.6,0.4,1,1,1h2c0.6,0,1-0.4,1-1v-2
	c0-0.6-0.4-1-1-1H24z M16,19h-2c-1.7,0-3-1.3-3-3v-2c0-1.7,1.3-3,3-3h2c1.7,0,3,1.3,3,3v2C19,17.7,17.7,19,16,19z M14,13
	c-0.6,0-1,0.4-1,1v2c0,0.6,0.4,1,1,1h2c0.6,0,1-0.4,1-1v-2c0-0.6-0.4-1-1-1H14z"/>
</svg>
