<?xml version="1.0" encoding="utf-8"?>
<!-- Generator: Adobe Illustrator 25.0.1, SVG Export Plug-In . SVG Version: 6.00 Build 0)  -->
<svg version="1.1" id="Layer_1" xmlns="http://www.w3.org/2000/svg" xmlns:xlink="http://www.w3.org/1999/xlink" x="0px" y="0px"
	 viewBox="0 0 40 40" style="enable-background:new 0 0 40 40;" xml:space="preserve">
<style type="text/css">
	.st0{fill:none;}
	.st1{fill:#272635;}
</style>
<rect class="st0" width="40" height="40"/>
<path class="st1" d="M19,29c-0.5,0-1-0.2-1.4-0.6L13.2,24H12c-1.1,0-2-0.9-2-2v-4c0-1.1,0.9-2,2-2h1.2l4.4-4.4
	c0.6-0.6,1.4-0.7,2.2-0.4c0.8,0.3,1.2,1,1.2,1.8v14c0,0.8-0.5,1.5-1.2,1.8C19.5,29,19.3,29,19,29z M12,18v4h1.6
	c0.3,0,0.5,0.1,0.7,0.3L19,27V13l-4.7,4.7c-0.2,0.2-0.4,0.3-0.7,0.3H12z M26.4,27.4c-0.3,0-0.5-0.1-0.7-0.3c-0.4-0.4-0.4-1,0-1.4
	c3.1-3.1,3.1-8.2,0-11.3c-0.4-0.4-0.4-1,0-1.4s1-0.4,1.4,0c3.9,3.9,3.9,10.2,0,14.1C26.9,27.3,26.6,27.4,26.4,27.4z M23.5,24.5
	c-0.3,0-0.5-0.1-0.7-0.3c-0.4-0.4-0.4-1,0-1.4C23.6,22,24,21,24,20s-0.4-2.1-1.2-2.8c-0.4-0.4-0.4-1,0-1.4s1-0.4,1.4,0
	c1.1,1.1,1.8,2.6,1.8,4.2s-0.6,3.1-1.8,4.2C24,24.4,23.8,24.5,23.5,24.5z"/>
</svg>
