<?xml version="1.0" encoding="utf-8"?>
<!-- Generator: Adobe Illustrator 25.0.1, SVG Export Plug-In . SVG Version: 6.00 Build 0)  -->
<svg version="1.1" id="Layer_1" xmlns="http://www.w3.org/2000/svg" xmlns:xlink="http://www.w3.org/1999/xlink" x="0px" y="0px"
	 viewBox="0 0 40 40" style="enable-background:new 0 0 40 40;" xml:space="preserve">
<style type="text/css">
	.st0{fill:none;}
	.st1{fill:#272635;}
</style>
<rect class="st0" width="40" height="40"/>
<g>
	<path class="st1" d="M29.7,28.3l-5.4-5.4c1.1-1.4,1.7-3.1,1.7-4.9c0-4.4-3.6-8-8-8s-8,3.6-8,8s3.6,8,8,8c1.8,0,3.5-0.6,4.9-1.7
		l5.4,5.4c0.2,0.2,0.5,0.3,0.7,0.3s0.5-0.1,0.7-0.3C30.1,29.3,30.1,28.7,29.7,28.3z M18,24c-3.3,0-6-2.7-6-6s2.7-6,6-6s6,2.7,6,6
		S21.3,24,18,24z"/>
	<path class="st1" d="M21,17h-6c-0.6,0-1,0.4-1,1s0.4,1,1,1h6c0.6,0,1-0.4,1-1S21.6,17,21,17z"/>
</g>
</svg>
