<?xml version="1.0" encoding="UTF-8"?>
<!DOCTYPE svg PUBLIC "-//W3C//DTD SVG 1.1//EN" "http://www.w3.org/Graphics/SVG/1.1/DTD/svg11.dtd">
<!-- Creator: CorelDRAW 2019 (64-Bit) -->
<svg xmlns="http://www.w3.org/2000/svg" xml:space="preserve" width="52.9166mm" height="7.9374mm" version="1.1" style="shape-rendering:geometricPrecision; text-rendering:geometricPrecision; image-rendering:optimizeQuality; fill-rule:evenodd; clip-rule:evenodd"
viewBox="0 0 5291.66 793.74"
 xmlns:xlink="http://www.w3.org/1999/xlink"
 xmlns:xodm="http://www.corel.com/coreldraw/odm/2003">
 <defs>
  <style type="text/css">
   <![CDATA[
    .fil0 {fill:none}
    .fil1 {fill:#E8E9F2;fill-rule:nonzero}
   ]]>
  </style>
 </defs>
 <g id="Layer_x0020_1">
  <metadata id="CorelCorpID_0Corel-Layer"/>
  <rect class="fil0" x="0" y="0" width="5291.66" height="793.74"/>
  <path class="fil1" d="M44.48 751.84l0 -709.94 164.41 0 185.11 352.79 69.68 156.8 4.36 0c-3.63,-37.75 -7.8,-79.85 -12.52,-126.31 -4.72,-46.46 -7.08,-90.74 -7.08,-132.84l0 -250.44 152.44 0 0 709.94 -164.42 0 -185.1 -353.88 -69.69 -154.62 -4.35 0c3.62,39.2 7.8,81.3 12.52,126.31 4.72,45 7.08,88.56 7.08,130.66l0 251.53 -152.44 0zm724.08 0l0 -709.94 444.26 0 0 135.02 -284.2 0 0 142.64 241.73 0 0 133.93 -241.73 0 0 163.33 295.08 0 0 135.02 -455.14 0zm596.69 0l0 -709.94 242.82 0c37.02,0 71.32,2.72 102.9,8.17 31.57,5.44 59.16,15.06 82.75,28.85 23.59,13.79 42.1,31.94 55.53,54.45 13.43,22.5 20.14,50.81 20.14,84.93 0,15.97 -2.17,31.94 -6.53,47.91 -4.36,15.97 -10.53,30.85 -18.51,44.64 -7.98,13.79 -17.6,26.13 -28.86,37.02 -11.25,10.89 -24.13,18.88 -38.65,23.96l0 4.35c18.15,4.36 34.84,11.07 50.09,20.15 15.24,9.07 28.67,20.5 40.29,34.3 11.61,13.79 20.68,29.94 27.22,48.45 6.53,18.51 9.79,39.74 9.79,63.7 0,36.29 -7.07,67.51 -21.23,93.64 -14.15,26.13 -33.75,47.73 -58.8,64.78 -25.04,17.06 -54.26,29.77 -87.65,38.11 -33.39,8.35 -69.32,12.53 -107.79,12.53l-263.51 0zm160.06 -425.75l75.14 0c39.19,0 67.69,-7.62 85.47,-22.86 17.79,-15.24 26.68,-35.57 26.68,-60.98 0,-27.58 -9.08,-47.18 -27.22,-58.8 -18.15,-11.61 -46.1,-17.42 -83.85,-17.42l-76.22 0 0 160.06zm0 301.62l90.38 0c87.83,0 131.75,-31.94 131.75,-95.82 0,-31.21 -10.89,-53.54 -32.66,-66.96 -21.78,-13.44 -54.81,-20.15 -99.09,-20.15l-90.38 0 0 182.93zm498.7 124.13l0 -709.94 255.88 0c37.75,0 73.14,3.63 106.16,10.89 33.03,7.26 61.89,19.42 86.57,36.48 24.68,17.06 44.28,39.74 58.79,68.05 14.52,28.31 21.78,63.52 21.78,105.62 0,52.27 -11.43,95.28 -34.3,129.03 -22.86,33.76 -53.53,58.98 -92,75.68l161.14 284.19 -179.66 0 -136.1 -255.88 -88.2 0 0 255.88 -160.06 0zm160.06 -383.28l82.75 0c42.1,0 74.23,-8.89 96.36,-26.68 22.15,-17.78 33.22,-44.1 33.22,-78.94 0,-34.84 -11.07,-59.16 -33.22,-72.95 -22.13,-13.8 -54.26,-20.69 -96.36,-20.69l-82.75 0 0 199.26zm795.95 396.35c-47.91,0 -91.64,-8.53 -131.21,-25.6 -39.56,-17.05 -73.49,-41.55 -101.8,-73.49 -28.31,-31.94 -50.27,-70.78 -65.88,-116.51 -15.6,-45.73 -23.41,-97.63 -23.41,-155.71 0,-58.07 7.81,-109.79 23.41,-155.16 15.61,-45.37 37.57,-83.48 65.88,-114.33 28.31,-30.85 62.24,-54.44 101.8,-70.77 39.57,-16.34 83.3,-24.51 131.21,-24.51 47.91,0 91.65,8.17 131.21,24.51 39.56,16.33 73.5,40.1 101.81,71.31 28.31,31.22 50.27,69.51 65.87,114.88 15.61,45.37 23.41,96.73 23.41,154.07 0,58.08 -7.8,109.98 -23.41,155.71 -15.6,45.73 -37.56,84.57 -65.87,116.51 -28.31,31.94 -62.25,56.44 -101.81,73.49 -39.56,17.07 -83.3,25.6 -131.21,25.6zm0 -138.29c48.64,0 87.11,-20.87 115.42,-62.61 28.31,-41.74 42.47,-98.54 42.47,-170.41 0,-71.14 -14.16,-126.67 -42.47,-166.59 -28.31,-39.93 -66.78,-59.89 -115.42,-59.89 -48.63,0 -87.11,19.96 -115.42,59.89 -28.31,39.92 -42.46,95.45 -42.46,166.59 0,71.87 14.15,128.67 42.46,170.41 28.31,41.74 66.79,62.61 115.42,62.61zm672.91 138.29c-46.45,0 -92.73,-8.53 -138.83,-25.6 -46.09,-17.05 -87.29,-42.64 -123.58,-76.76l91.47 -109.97c25.4,21.77 53.53,39.56 84.38,53.35 30.85,13.79 61.16,20.69 90.92,20.69 33.39,0 58.25,-6.17 74.58,-18.51 16.34,-12.34 24.5,-29.04 24.5,-50.09 0,-10.89 -2.35,-20.32 -7.07,-28.31 -4.72,-7.98 -11.62,-15.06 -20.69,-21.23 -9.08,-6.17 -19.96,-11.98 -32.67,-17.42 -12.7,-5.45 -26.67,-11.44 -41.92,-17.97l-92.55 -39.2c-18.15,-7.26 -35.75,-16.69 -52.81,-28.31 -17.06,-11.61 -32.3,-25.22 -45.73,-40.83 -13.43,-15.61 -24.14,-33.75 -32.12,-54.44 -7.99,-20.69 -11.98,-44.1 -11.98,-70.24 0,-29.03 6.17,-56.43 18.51,-82.2 12.34,-25.77 29.76,-48.28 52.27,-67.51 22.5,-19.24 49.18,-34.3 80.03,-45.19 30.85,-10.89 64.78,-16.34 101.8,-16.34 41.38,0 82.21,7.99 122.5,23.96 40.29,15.97 75.67,39.2 106.16,69.69l-81.66 101.26c-23.23,-18.15 -46.46,-32.12 -69.69,-41.92 -23.23,-9.8 -48.99,-14.7 -77.31,-14.7 -27.58,0 -49.54,5.63 -65.87,16.88 -16.33,11.25 -24.5,27.04 -24.5,47.36 0,10.89 2.72,20.15 8.17,27.77 5.44,7.62 13.06,14.52 22.86,20.69 9.8,6.17 21.23,11.98 34.3,17.42 13.07,5.44 27.22,11.43 42.47,17.97l91.46 37.02c43.55,17.42 77.85,41.37 102.9,71.86 25.04,30.49 37.56,70.78 37.56,120.87 0,29.76 -5.99,57.89 -17.96,84.38 -11.98,26.5 -29.41,49.73 -52.27,69.69 -22.87,19.96 -51,35.93 -84.39,47.91 -33.39,11.97 -71.13,17.97 -113.24,17.97zm684.89 0c-45,0 -87.47,-7.81 -127.39,-23.42 -39.93,-15.6 -74.95,-38.65 -105.08,-69.14 -30.12,-30.49 -53.89,-68.42 -71.32,-113.79 -17.42,-45.36 -26.13,-97.81 -26.13,-157.34 0,-58.79 9.07,-111.24 27.22,-157.34 18.15,-46.09 42.47,-85.11 72.96,-117.05 30.48,-31.94 66.05,-56.25 106.7,-72.95 40.65,-16.69 83.48,-25.05 128.49,-25.05 45.73,0 86.74,9.26 123.04,27.77 36.29,18.51 66.42,40.11 90.37,64.79l-84.93 102.35c-18.15,-16.69 -37.2,-30.31 -57.16,-40.83 -19.96,-10.53 -42.65,-15.79 -68.06,-15.79 -23.95,0 -46.64,5.26 -68.05,15.79 -21.42,10.52 -39.92,25.59 -55.53,45.19 -15.61,19.6 -27.95,43.55 -37.02,71.86 -9.08,28.31 -13.61,60.25 -13.61,95.82 0,73.32 15.6,130.12 46.82,170.41 31.21,40.29 72.95,60.43 125.22,60.43 29.03,0 54.98,-6.35 77.85,-19.05 22.87,-12.71 43.01,-28.5 60.43,-47.37l84.93 100.17c-59.52,69.69 -136.11,104.54 -229.75,104.54zm585.81 0c-47.92,0 -91.65,-8.53 -131.21,-25.6 -39.56,-17.05 -73.5,-41.55 -101.81,-73.49 -28.31,-31.94 -50.27,-70.78 -65.87,-116.51 -15.61,-45.73 -23.41,-97.63 -23.41,-155.71 0,-58.07 7.8,-109.79 23.41,-155.16 15.6,-45.37 37.56,-83.48 65.87,-114.33 28.31,-30.85 62.25,-54.44 101.81,-70.77 39.56,-16.34 83.29,-24.51 131.21,-24.51 47.9,0 91.64,8.17 131.2,24.51 39.56,16.33 73.5,40.1 101.81,71.31 28.31,31.22 50.27,69.51 65.87,114.88 15.61,45.37 23.41,96.73 23.41,154.07 0,58.08 -7.8,109.98 -23.41,155.71 -15.6,45.73 -37.56,84.57 -65.87,116.51 -28.31,31.94 -62.25,56.44 -101.81,73.49 -39.56,17.07 -83.3,25.6 -131.2,25.6zm0 -138.29c48.63,0 87.1,-20.87 115.41,-62.61 28.31,-41.74 42.47,-98.54 42.47,-170.41 0,-71.14 -14.16,-126.67 -42.47,-166.59 -28.31,-39.93 -66.78,-59.89 -115.41,-59.89 -48.64,0 -87.11,19.96 -115.42,59.89 -28.31,39.92 -42.47,95.45 -42.47,166.59 0,71.87 14.16,128.67 42.47,170.41 28.31,41.74 66.78,62.61 115.42,62.61z"/>
 </g>
</svg>
