<?xml version="1.0" encoding="UTF-8"?>
<!DOCTYPE svg PUBLIC "-//W3C//DTD SVG 1.1//EN" "http://www.w3.org/Graphics/SVG/1.1/DTD/svg11.dtd">
<!-- Creator: CorelDRAW 2019 (64-Bit) -->
<svg xmlns="http://www.w3.org/2000/svg" xml:space="preserve" width="55.5624mm" height="21.1666mm" version="1.1" style="shape-rendering:geometricPrecision; text-rendering:geometricPrecision; image-rendering:optimizeQuality; fill-rule:evenodd; clip-rule:evenodd"
viewBox="0 0 5556.24 2116.66"
 xmlns:xlink="http://www.w3.org/1999/xlink"
 xmlns:xodm="http://www.corel.com/coreldraw/odm/2003">
 <defs>
  <style type="text/css">
   <![CDATA[
    .fil0 {fill:white;fill-rule:nonzero}
   ]]>
  </style>
 </defs>
 <g id="Layer_x0020_1">
  <metadata id="CorelCorpID_0Corel-Layer"/>
  <path class="fil0" d="M662.86 1346.95l0 -577.24 133.69 0 150.5 286.85 56.66 127.49 3.55 0c-2.95,-30.69 -6.35,-64.93 -10.18,-102.7 -3.84,-37.78 -5.76,-73.78 -5.76,-108.01l0 -203.63 123.95 0 0 577.24 -133.69 0 -150.5 -287.73 -56.67 -125.72 -3.54 0c2.95,31.87 6.35,66.1 10.18,102.7 3.84,36.59 5.76,72 5.76,106.24l0 204.51 -123.95 0zm588.75 0l0 -577.24 361.22 0 0 109.78 -231.08 0 0 115.98 196.55 0 0 108.9 -196.55 0 0 132.8 239.93 0 0 109.78 -370.07 0zm485.17 0l0 -577.24 197.43 0c30.1,0 57.99,2.21 83.66,6.64 25.67,4.43 48.1,12.25 67.29,23.46 19.18,11.21 34.23,25.97 45.15,44.27 10.92,18.3 16.38,41.31 16.38,69.05 0,12.99 -1.77,25.97 -5.32,38.96 -3.54,12.98 -8.55,25.08 -15.05,36.3 -6.49,11.21 -14.31,21.25 -23.46,30.1 -9.15,8.85 -19.62,15.35 -31.43,19.48l0 3.54c14.76,3.54 28.33,9 40.73,16.38 12.39,7.38 23.31,16.67 32.76,27.89 9.44,11.21 16.82,24.34 22.13,39.39 5.31,15.05 7.97,32.32 7.97,51.79 0,29.52 -5.76,54.9 -17.27,76.14 -11.5,21.25 -27.44,38.81 -47.81,52.68 -20.36,13.87 -44.11,24.2 -71.26,30.99 -27.15,6.79 -56.37,10.18 -87.65,10.18l-214.25 0zm130.14 -346.17l61.09 0c31.87,0 55.04,-6.19 69.5,-18.59 14.46,-12.39 21.69,-28.92 21.69,-49.58 0,-22.43 -7.38,-38.36 -22.14,-47.81 -14.75,-9.44 -37.47,-14.16 -68.17,-14.16l-61.97 0 0 130.14zm0 245.24l73.48 0c71.42,0 107.13,-25.97 107.13,-77.91 0,-25.38 -8.85,-43.53 -26.56,-54.44 -17.71,-10.93 -44.56,-16.39 -80.57,-16.39l-73.48 0 0 148.74zm405.48 100.93l0 -577.24 208.06 0c30.69,0 59.46,2.95 86.32,8.85 26.86,5.91 50.32,15.79 70.38,29.66 20.07,13.87 36.01,32.32 47.81,55.34 11.81,23.01 17.71,51.64 17.71,85.87 0,42.5 -9.3,77.47 -27.89,104.92 -18.59,27.44 -43.53,47.95 -74.81,61.53l131.03 231.07 -146.08 0 -110.67 -208.05 -71.71 0 0 208.05 -130.15 0zm130.15 -311.64l67.29 0c34.23,0 60.34,-7.23 78.35,-21.69 18,-14.46 27,-35.86 27,-64.19 0,-28.33 -9,-48.1 -27,-59.31 -18.01,-11.22 -44.12,-16.82 -78.35,-16.82l-67.29 0 0 162.01zm647.18 322.27c-38.95,0 -74.51,-6.94 -106.68,-20.81 -32.17,-13.87 -59.76,-33.79 -82.78,-59.76 -23.02,-25.97 -40.87,-57.55 -53.56,-94.73 -12.69,-37.19 -19.04,-79.39 -19.04,-126.61 0,-47.21 6.35,-89.27 19.04,-126.16 12.69,-36.89 30.54,-67.87 53.56,-92.96 23.02,-25.08 50.61,-44.26 82.78,-57.54 32.17,-13.28 67.73,-19.93 106.68,-19.93 38.96,0 74.52,6.65 106.68,19.93 32.17,13.28 59.76,32.61 82.78,57.99 23.02,25.38 40.88,56.51 53.57,93.4 12.69,36.89 19.03,78.65 19.03,125.27 0,47.22 -6.34,89.42 -19.03,126.61 -12.69,37.18 -30.55,68.76 -53.57,94.73 -23.02,25.97 -50.61,45.89 -82.78,59.76 -32.16,13.87 -67.72,20.81 -106.68,20.81zm0 -112.44c39.55,0 70.83,-16.97 93.85,-50.91 23.02,-33.94 34.53,-80.12 34.53,-138.56 0,-57.84 -11.51,-102.99 -34.53,-135.45 -23.02,-32.46 -54.3,-48.7 -93.85,-48.7 -39.54,0 -70.83,16.24 -93.84,48.7 -23.02,32.46 -34.53,77.61 -34.53,135.45 0,58.44 11.51,104.62 34.53,138.56 23.01,33.94 54.3,50.91 93.84,50.91zm547.14 112.44c-37.77,0 -75.4,-6.94 -112.88,-20.81 -37.48,-13.87 -70.97,-34.68 -100.49,-62.42l74.37 -89.42c20.66,17.71 43.53,32.17 68.62,43.39 25.08,11.21 49.72,16.82 73.92,16.82 27.15,0 47.37,-5.02 60.65,-15.05 13.28,-10.04 19.92,-23.61 19.92,-40.73 0,-8.85 -1.92,-16.52 -5.76,-23.02 -3.83,-6.49 -9.44,-12.25 -16.82,-17.26 -7.38,-5.02 -16.23,-9.74 -26.56,-14.17 -10.33,-4.42 -21.69,-9.29 -34.08,-14.61l-75.26 -31.87c-14.75,-5.9 -29.07,-13.57 -42.94,-23.02 -13.87,-9.44 -26.26,-20.51 -37.18,-33.2 -10.92,-12.69 -19.63,-27.44 -26.12,-44.26 -6.49,-16.82 -9.74,-35.86 -9.74,-57.11 0,-23.61 5.02,-45.89 15.05,-66.84 10.04,-20.95 24.2,-39.25 42.5,-54.89 18.3,-15.64 39.99,-27.89 65.07,-36.74 25.09,-8.86 52.68,-13.29 82.78,-13.29 33.64,0 66.84,6.5 99.6,19.48 32.76,12.99 61.53,31.88 86.32,56.66l-66.4 82.34c-18.89,-14.75 -37.77,-26.12 -56.66,-34.08 -18.89,-7.97 -39.84,-11.96 -62.86,-11.96 -22.43,0 -40.28,4.58 -53.56,13.73 -13.28,9.14 -19.92,21.98 -19.92,38.51 0,8.85 2.21,16.38 6.64,22.57 4.42,6.2 10.62,11.81 18.59,16.83 7.97,5.01 17.26,9.74 27.89,14.16 10.62,4.43 22.13,9.3 34.53,14.61l74.37 30.1c35.41,14.17 63.3,33.64 83.66,58.43 20.36,24.79 30.54,57.55 30.54,98.28 0,24.19 -4.87,47.07 -14.6,68.61 -9.74,21.54 -23.91,40.43 -42.5,56.66 -18.59,16.23 -41.46,29.22 -68.61,38.96 -27.15,9.73 -57.85,14.61 -92.08,14.61zm556.88 0c-36.59,0 -71.12,-6.35 -103.59,-19.04 -32.46,-12.69 -60.94,-31.43 -85.43,-56.22 -24.5,-24.79 -43.82,-55.63 -57.99,-92.52 -14.17,-36.89 -21.25,-79.53 -21.25,-127.93 0,-47.81 7.38,-90.45 22.14,-127.93 14.75,-37.48 34.52,-69.2 59.31,-95.17 24.79,-25.97 53.71,-45.75 86.77,-59.32 33.05,-13.58 67.87,-20.37 104.46,-20.37 37.19,0 70.54,7.53 100.05,22.58 29.51,15.05 54,32.61 73.48,52.68l-69.05 83.22c-14.76,-13.57 -30.25,-24.64 -46.49,-33.2 -16.23,-8.56 -34.67,-12.84 -55.33,-12.84 -19.48,0 -37.92,4.28 -55.33,12.84 -17.41,8.56 -32.46,20.81 -45.16,36.74 -12.68,15.94 -22.72,35.42 -30.09,58.43 -7.38,23.02 -11.07,48.99 -11.07,77.91 0,59.62 12.69,105.8 38.07,138.56 25.38,32.76 59.31,49.14 101.81,49.14 23.61,0 44.71,-5.17 63.3,-15.5 18.6,-10.33 34.97,-23.16 49.14,-38.51l69.06 81.45c-48.4,56.66 -110.67,85 -186.81,85zm476.31 0c-38.96,0 -74.51,-6.94 -106.68,-20.81 -32.17,-13.87 -59.76,-33.79 -82.78,-59.76 -23.02,-25.97 -40.87,-57.55 -53.56,-94.73 -12.69,-37.19 -19.04,-79.39 -19.04,-126.61 0,-47.21 6.35,-89.27 19.04,-126.16 12.69,-36.89 30.54,-67.87 53.56,-92.96 23.02,-25.08 50.61,-44.26 82.78,-57.54 32.17,-13.28 67.72,-19.93 106.68,-19.93 38.95,0 74.52,6.65 106.68,19.93 32.17,13.28 59.76,32.61 82.78,57.99 23.02,25.38 40.88,56.51 53.57,93.4 12.69,36.89 19.03,78.65 19.03,125.27 0,47.22 -6.34,89.42 -19.03,126.61 -12.69,37.18 -30.55,68.76 -53.57,94.73 -23.02,25.97 -50.61,45.89 -82.78,59.76 -32.16,13.87 -67.73,20.81 -106.68,20.81zm0 -112.44c39.55,0 70.83,-16.97 93.85,-50.91 23.01,-33.94 34.52,-80.12 34.52,-138.56 0,-57.84 -11.51,-102.99 -34.52,-135.45 -23.02,-32.46 -54.3,-48.7 -93.85,-48.7 -39.54,0 -70.83,16.24 -93.85,48.7 -23.01,32.46 -34.52,77.61 -34.52,135.45 0,58.44 11.51,104.62 34.52,138.56 23.02,33.94 54.31,50.91 93.85,50.91z"/>
 </g>
</svg>
