<?xml version="1.0" encoding="utf-8"?>
<!-- Generator: Adobe Illustrator 25.1.0, SVG Export Plug-In . SVG Version: 6.00 Build 0)  -->
<svg version="1.1" id="Layer_1" xmlns:xodm="http://www.corel.com/coreldraw/odm/2003"
	 xmlns="http://www.w3.org/2000/svg" xmlns:xlink="http://www.w3.org/1999/xlink" x="0px" y="0px" viewBox="0 0 157.5 60"
	 style="enable-background:new 0 0 157.5 60;" xml:space="preserve">
<g id="Layer_x0020_1">
	<path d="M18.8,38.2V21.8h3.8l4.3,8.1l1.6,3.6h0.1c-0.1-0.9-0.2-1.8-0.3-2.9c-0.1-1.1-0.2-2.1-0.2-3.1v-5.8h3.5v16.4h-3.8L23.6,30
		L22,26.5h-0.1c0.1,0.9,0.2,1.9,0.3,2.9c0.1,1,0.2,2,0.2,3v5.8C22.3,38.2,18.8,38.2,18.8,38.2z M35.5,38.2V21.8h10.2v3.1h-6.6v3.3
		h5.6v3.1h-5.6v3.8H46v3.1C46,38.2,35.5,38.2,35.5,38.2z M49.2,38.2V21.8h5.6c0.9,0,1.6,0.1,2.4,0.2c0.7,0.1,1.4,0.3,1.9,0.7
		c0.5,0.3,1,0.7,1.3,1.3c0.3,0.5,0.5,1.2,0.5,2c0,0.4-0.1,0.7-0.2,1.1c-0.1,0.4-0.2,0.7-0.4,1c-0.2,0.3-0.4,0.6-0.7,0.9
		c-0.3,0.3-0.6,0.4-0.9,0.6v0.1c0.4,0.1,0.8,0.3,1.2,0.5c0.4,0.2,0.7,0.5,0.9,0.8c0.3,0.3,0.5,0.7,0.6,1.1c0.2,0.4,0.2,0.9,0.2,1.5
		c0,0.8-0.2,1.6-0.5,2.2c-0.3,0.6-0.8,1.1-1.4,1.5c-0.6,0.4-1.3,0.7-2,0.9c-0.8,0.2-1.6,0.3-2.5,0.3L49.2,38.2L49.2,38.2z
		 M52.9,28.4h1.7c0.9,0,1.6-0.2,2-0.5c0.4-0.4,0.6-0.8,0.6-1.4c0-0.6-0.2-1.1-0.6-1.4c-0.4-0.3-1.1-0.4-1.9-0.4h-1.8
		C52.9,24.7,52.9,28.4,52.9,28.4z M52.9,35.3H55c2,0,3-0.7,3-2.2c0-0.7-0.3-1.2-0.8-1.5c-0.5-0.3-1.3-0.5-2.3-0.5h-2.1V35.3z
		 M64.4,38.2V21.8h5.9c0.9,0,1.7,0.1,2.4,0.3c0.8,0.2,1.4,0.4,2,0.8c0.6,0.4,1,0.9,1.4,1.6c0.3,0.7,0.5,1.5,0.5,2.4
		c0,1.2-0.3,2.2-0.8,3c-0.5,0.8-1.2,1.4-2.1,1.7l3.7,6.6h-4.1l-3.1-5.9h-2v5.9C68.1,38.2,64.4,38.2,64.4,38.2z M68.1,29.3H70
		c1,0,1.7-0.2,2.2-0.6c0.5-0.4,0.8-1,0.8-1.8s-0.3-1.4-0.8-1.7c-0.5-0.3-1.3-0.5-2.2-0.5h-1.9V29.3z M86.4,38.5
		c-1.1,0-2.1-0.2-3-0.6s-1.7-1-2.3-1.7s-1.2-1.6-1.5-2.7c-0.4-1.1-0.5-2.3-0.5-3.6c0-1.3,0.2-2.5,0.5-3.6c0.4-1,0.9-1.9,1.5-2.6
		c0.7-0.7,1.4-1.3,2.3-1.6c0.9-0.4,1.9-0.6,3-0.6c1.1,0,2.1,0.2,3,0.6c0.9,0.4,1.7,0.9,2.3,1.6c0.7,0.7,1.2,1.6,1.5,2.6
		c0.4,1,0.5,2.2,0.5,3.6c0,1.3-0.2,2.5-0.5,3.6c-0.4,1.1-0.9,1.9-1.5,2.7s-1.4,1.3-2.3,1.7C88.6,38.3,87.6,38.5,86.4,38.5z
		 M86.4,35.3c1.1,0,2-0.5,2.7-1.4c0.7-1,1-2.3,1-3.9c0-1.6-0.3-2.9-1-3.8c-0.7-0.9-1.5-1.4-2.7-1.4c-1.1,0-2,0.5-2.7,1.4
		c-0.7,0.9-1,2.2-1,3.8c0,1.7,0.3,3,1,3.9C84.4,34.8,85.3,35.3,86.4,35.3z M102,38.5c-1.1,0-2.1-0.2-3.2-0.6c-1.1-0.4-2-1-2.8-1.8
		l2.1-2.5c0.6,0.5,1.2,0.9,1.9,1.2c0.7,0.3,1.4,0.5,2.1,0.5c0.8,0,1.3-0.1,1.7-0.4c0.4-0.3,0.6-0.7,0.6-1.2c0-0.3-0.1-0.5-0.2-0.7
		c-0.1-0.2-0.3-0.3-0.5-0.5c-0.2-0.1-0.5-0.3-0.8-0.4c-0.3-0.1-0.6-0.3-1-0.4l-2.1-0.9c-0.4-0.2-0.8-0.4-1.2-0.7
		c-0.4-0.3-0.7-0.6-1.1-0.9c-0.3-0.4-0.6-0.8-0.7-1.3c-0.2-0.5-0.3-1-0.3-1.6c0-0.7,0.1-1.3,0.4-1.9c0.3-0.6,0.7-1.1,1.2-1.6
		c0.5-0.4,1.1-0.8,1.8-1c0.7-0.3,1.5-0.4,2.3-0.4c1,0,1.9,0.2,2.8,0.6c0.9,0.4,1.7,0.9,2.4,1.6l-1.9,2.3c-0.5-0.4-1.1-0.7-1.6-1
		c-0.5-0.2-1.1-0.3-1.8-0.3c-0.6,0-1.1,0.1-1.5,0.4c-0.4,0.3-0.6,0.6-0.6,1.1c0,0.3,0.1,0.5,0.2,0.6c0.1,0.2,0.3,0.3,0.5,0.5
		c0.2,0.1,0.5,0.3,0.8,0.4c0.3,0.1,0.6,0.3,1,0.4l2.1,0.9c1,0.4,1.8,1,2.4,1.7c0.6,0.7,0.9,1.6,0.9,2.8c0,0.7-0.1,1.3-0.4,1.9
		c-0.3,0.6-0.7,1.1-1.2,1.6s-1.2,0.8-1.9,1.1C103.8,38.3,102.9,38.5,102,38.5L102,38.5z M117.7,38.5c-1,0-2-0.2-2.9-0.5
		c-0.9-0.4-1.7-0.9-2.4-1.6c-0.7-0.7-1.2-1.6-1.6-2.6c-0.4-1-0.6-2.3-0.6-3.6c0-1.4,0.2-2.6,0.6-3.6c0.4-1.1,1-2,1.7-2.7
		c0.7-0.7,1.5-1.3,2.5-1.7c0.9-0.4,1.9-0.6,3-0.6c1.1,0,2,0.2,2.8,0.6c0.8,0.4,1.5,0.9,2.1,1.5l-2,2.4c-0.4-0.4-0.9-0.7-1.3-0.9
		c-0.5-0.2-1-0.4-1.6-0.4c-0.6,0-1.1,0.1-1.6,0.4s-0.9,0.6-1.3,1c-0.4,0.5-0.6,1-0.9,1.7c-0.2,0.7-0.3,1.4-0.3,2.2
		c0,1.7,0.4,3,1.1,3.9c0.7,0.9,1.7,1.4,2.9,1.4c0.7,0,1.3-0.1,1.8-0.4c0.5-0.3,1-0.7,1.4-1.1l2,2.3
		C121.7,37.7,119.9,38.5,117.7,38.5L117.7,38.5z M131.2,38.5c-1.1,0-2.1-0.2-3-0.6c-0.9-0.4-1.7-1-2.3-1.7c-0.7-0.7-1.2-1.6-1.5-2.7
		c-0.4-1.1-0.5-2.3-0.5-3.6c0-1.3,0.2-2.5,0.5-3.6c0.4-1,0.9-1.9,1.5-2.6c0.7-0.7,1.4-1.3,2.3-1.6c0.9-0.4,1.9-0.6,3-0.6
		c1.1,0,2.1,0.2,3,0.6c0.9,0.4,1.7,0.9,2.3,1.6c0.7,0.7,1.2,1.6,1.5,2.6c0.4,1,0.5,2.2,0.5,3.6c0,1.3-0.2,2.5-0.5,3.6
		c-0.4,1.1-0.9,1.9-1.5,2.7c-0.7,0.7-1.4,1.3-2.3,1.7C133.4,38.3,132.3,38.5,131.2,38.5z M131.2,35.3c1.1,0,2-0.5,2.7-1.4
		c0.7-1,1-2.3,1-3.9c0-1.6-0.3-2.9-1-3.8c-0.7-0.9-1.5-1.4-2.7-1.4c-1.1,0-2,0.5-2.7,1.4c-0.7,0.9-1,2.2-1,3.8c0,1.7,0.3,3,1,3.9
		C129.2,34.8,130.1,35.3,131.2,35.3z"/>
</g>
</svg>
