<?xml version="1.0" encoding="UTF-8"?>
<!DOCTYPE svg PUBLIC "-//W3C//DTD SVG 1.1//EN" "http://www.w3.org/Graphics/SVG/1.1/DTD/svg11.dtd">
<!-- Creator: CorelDRAW 2019 (64-Bit) -->
<svg xmlns="http://www.w3.org/2000/svg" xml:space="preserve" width="132.292mm" height="132.292mm" version="1.1" style="shape-rendering:geometricPrecision; text-rendering:geometricPrecision; image-rendering:optimizeQuality; fill-rule:evenodd; clip-rule:evenodd"
viewBox="0 0 13229.16 13229.16"
 xmlns:xlink="http://www.w3.org/1999/xlink"
 xmlns:xodm="http://www.corel.com/coreldraw/odm/2003">
 <defs>
  <style type="text/css">
   <![CDATA[
    .fil2 {fill:#B1E5F2;fill-rule:nonzero}
    .fil1 {fill:#B1EFB7;fill-rule:nonzero}
    .fil4 {fill:#D0B1EF;fill-rule:nonzero}
    .fil3 {fill:#EFB1B1;fill-rule:nonzero}
    .fil0 {fill:#EFE9B1;fill-rule:nonzero}
   ]]>
  </style>
 </defs>
 <g id="Layer_x0020_1">
  <metadata id="CorelCorpID_0Corel-Layer"/>
  <path class="fil0" d="M13163.5 7549.77c-205.56,1452.31 -882.79,2752.98 -1871.76,3741.97 -1197.04,1197.03 -2850.68,1937.42 -4677.16,1937.42 -1558.06,0 -2990.27,-538.85 -4120.64,-1440.25l-0.01 0 950.84 -1193.97c869.48,693.31 1971.2,1107.78 3169.81,1107.78 1405.12,0 2677.18,-569.5 3597.91,-1490.23 760.98,-760.97 1281.99,-1761.95 1439.89,-2879.68l1510.57 215.36 0.55 1.6z"/>
  <path class="fil1" d="M12746.24 4129.22c311.36,767.34 482.92,1606.31 482.92,2485.36 0,316.47 -22.27,627.72 -65.25,932.34l-0.96 1.25 -1510.57 -215.36c33.15,-234.65 50.34,-474.43 50.34,-718.23 0,-676.78 -132.17,-1322.68 -372.02,-1913.34l1413.24 -573.36 2.3 1.34z"/>
  <path class="fil2" d="M8331.78 225.19c1136.44,304.7 2152.17,904.46 2959.96,1712.23 619.54,619.55 1116.71,1361.42 1452.27,2186.25l-0.07 4.21 -1413.24 573.36c-258.12,-635.65 -640.95,-1207.32 -1118.21,-1684.57 -622.22,-622.23 -1404.93,-1083.97 -2280.7,-1318.02l394.77 -1473.27 5.22 -0.19z"/>
  <path class="fil3" d="M2493.93 11788.91c-194.74,-155.29 -380.59,-321.26 -556.51,-497.17 -1197.03,-1197.04 -1937.42,-2850.68 -1937.42,-4677.16 0,-1115.9 276.4,-2167.25 764.41,-3089.41l5.97 -8.67 1347.79 714.47c-377.69,711.03 -591.73,1522.31 -591.73,2383.61 0,1405.12 569.5,2677.18 1490.23,3597.91 135.34,135.34 278.32,263.03 428.14,382.49l-950.79 1193.93 -0.09 0z"/>
  <path class="fil4" d="M6614.58 0c590.8,0 1163.46,77.56 1708.49,222.89l3.49 2.49 -394.77 1473.27c-420.13,-112.27 -861.66,-172.21 -1317.21,-172.21 -1348.51,0 -2636.74,529.05 -3597.91,1490.23 -356.35,356.34 -660.03,765.35 -898.5,1214.3l-1347.79 -714.47 -0.21 -2.06c309.91,-582.99 704.4,-1114.16 1167.25,-1577.02 1246.27,-1246.25 2919.75,-1937.42 4677.16,-1937.42z"/>
 </g>
</svg>
