<?xml version="1.0" encoding="utf-8"?>
<!-- Generator: Adobe Illustrator 25.1.0, SVG Export Plug-In . SVG Version: 6.00 Build 0)  -->
<svg version="1.1" id="Layer_1" xmlns="http://www.w3.org/2000/svg" xmlns:xlink="http://www.w3.org/1999/xlink" x="0px" y="0px"
	 viewBox="0 0 1000 1000" style="enable-background:new 0 0 1000 1000;" xml:space="preserve">
<path d="M796.5,377.5L515.3,221.3c-9.5-5.2-20.9-5.2-30.4,0L203.7,377.5c-10,5.5-16.1,16-16.1,27.3s6.2,21.8,16.1,27.3l65,36.1
	c-12.2,39.4-18.6,81.8-18.6,124.1c0,24,3.3,47.4,6.6,70c2,14.1,13.2,25,27.3,26.6c20.7,2.4,40.7,6.3,59.8,11.5v48.1
	c0,17.2,14,31.2,31.2,31.2s31.2-13.9,31.2-31.2v-24.3c26.9,13.4,51.2,30.2,72.3,50.1c6.1,5.7,13.8,8.5,21.5,8.5s15.4-2.8,21.4-8.5
	c49.7-46.9,117-76.4,194.6-85.4c14.1-1.6,25.4-12.6,27.4-26.6c3.2-22.6,6.6-45.8,6.6-70.1c0-40.6-6.3-82.2-18.8-123.8l65.3-36.3
	c9.9-5.5,16.1-16,16.1-27.3S806.4,383,796.5,377.5z M343.8,514.1v121.8c-9.4-2.2-18.9-4.1-28.5-5.7c-1.7-13-2.8-25.6-2.7-38
	c0-31.5,4.2-63.1,12.1-92.9l19.4,10.8C343.9,511.4,343.8,512.7,343.8,514.1z M684.8,630.2C614,642.1,551,669.4,500,710.2
	c-27.9-22.4-59.4-40.7-93.8-54.6V544.7l78.6,43.6c9.5,5.2,20.9,5.2,30.4,0L675,499.5c8.3,31.4,12.5,62.5,12.5,92.7
	C687.5,604.6,686.4,617.4,684.8,630.2z M500,525.2L460,503l55-30.4c15.1-8.3,20.6-27.3,12.3-42.4c-8.3-15.1-27.3-20.6-42.4-12.3
	l-89.4,49.2l-112.4-62.4L500,284.2l216.9,120.5L500,525.2z"/>
</svg>
