<?xml version="1.0" encoding="utf-8"?>
<!-- Generator: Adobe Illustrator 25.1.0, SVG Export Plug-In . SVG Version: 6.00 Build 0)  -->
<svg version="1.1" id="Layer_1" xmlns="http://www.w3.org/2000/svg" xmlns:xlink="http://www.w3.org/1999/xlink" x="0px" y="0px"
	 viewBox="0 0 1000 1000" style="enable-background:new 0 0 1000 1000;" xml:space="preserve">
<g>
	<path d="M343.7,536.6V250c0-17.2-14-31.2-31.2-31.2s-31.2,13.9-31.2,31.2v286.6c-36.4,12.9-62.5,47.7-62.5,88.4
		s26.1,75.5,62.5,88.4V750c0,17.2,13.9,31.2,31.2,31.2s31.3-13.9,31.2-31.2v-36.6c36.4-12.9,62.5-47.7,62.5-88.4
		S380.1,549.5,343.7,536.6z M312.5,656.2c-17.2,0-31.2-14-31.2-31.2s14-31.2,31.2-31.2s31.2,14,31.2,31.2S329.7,656.2,312.5,656.2z"
		/>
	<path d="M718.7,536.6V250c0-17.2-14-31.2-31.2-31.2s-31.2,13.9-31.2,31.2v286.6c-36.4,12.9-62.5,47.7-62.5,88.4
		s26.1,75.5,62.5,88.4V750c0,17.2,13.9,31.2,31.2,31.2s31.3-13.9,31.2-31.2v-36.6c36.4-12.9,62.5-47.7,62.5-88.4
		S755.1,549.5,718.7,536.6z M687.5,656.2c-17.2,0-31.2-14-31.2-31.2s14-31.2,31.2-31.2s31.2,14,31.2,31.2S704.7,656.2,687.5,656.2z"
		/>
	<path d="M531.2,286.6V250c0-17.2-14-31.2-31.2-31.2s-31.2,13.9-31.2,31.2v36.6c-36.4,12.9-62.5,47.7-62.5,88.4
		c0,40.7,26.1,75.5,62.5,88.4V750c0,17.2,13.9,31.2,31.2,31.2s31.2-13.9,31.2-31.2V463.4c36.4-12.9,62.5-47.7,62.5-88.4
		C593.7,334.3,567.6,299.5,531.2,286.6z M500,406.2c-17.2,0-31.2-14-31.2-31.2s14-31.2,31.2-31.2s31.2,14,31.2,31.2
		S517.2,406.2,500,406.2z"/>
</g>
</svg>
