<?xml version="1.0" encoding="utf-8"?>
<!-- Generator: Adobe Illustrator 25.1.0, SVG Export Plug-In . SVG Version: 6.00 Build 0)  -->
<svg version="1.1" id="Layer_1" xmlns="http://www.w3.org/2000/svg" xmlns:xlink="http://www.w3.org/1999/xlink" x="0px" y="0px"
	 viewBox="0 0 1000 1000" style="enable-background:new 0 0 1000 1000;" xml:space="preserve">
<g>
	<path d="M468.8,468.8h-125c-17.2,0-31.2,14-31.2,31.2s13.9,31.2,31.2,31.2h125c17.2,0,31.2-14,31.2-31.2S486.1,468.8,468.8,468.8z"
		/>
	<path d="M718.8,218.6H281.3c-51.7,0-93.8,42.1-93.8,93.8v250c0,51.7,42.1,93.8,93.8,93.8h80.8L477.9,772c6.1,6.1,14.1,9.2,22.1,9.2
		s16-3,22.1-9.1L638,656.2h80.8c51.7,0,93.8-42.1,93.8-93.8v-250C812.6,260.7,770.5,218.6,718.8,218.6z M750,562.5
		c0,17.2-14,31.2-31.2,31.2H625c-8.3,0-16.2,3.3-22.1,9.2L500,705.8l-102.9-103c-5.9-5.9-13.8-9.2-22.1-9.2h-93.8
		c-17.2,0-31.2-14-31.2-31.2v-250c0-17.2,14-31.2,31.2-31.2v0.1h437.6c17.2,0,31.2,14,31.2,31.2V562.5z"/>
	<path d="M656.3,343.8H343.8c-17.2,0-31.2,14-31.2,31.2s13.9,31.2,31.2,31.2h312.4c17.3,0,31.3-14,31.3-31.2
		S673.6,343.8,656.3,343.8z"/>
</g>
</svg>
