<?xml version="1.0" encoding="utf-8"?>
<!-- Generator: Adobe Illustrator 25.1.0, SVG Export Plug-In . SVG Version: 6.00 Build 0)  -->
<svg version="1.1" id="Layer_1" xmlns="http://www.w3.org/2000/svg" xmlns:xlink="http://www.w3.org/1999/xlink" x="0px" y="0px"
	 viewBox="0 0 1000 1000" style="enable-background:new 0 0 1000 1000;" xml:space="preserve">
<g>
	<path d="M718.8,218.7H281.3c-51.7,0-93.8,42.1-93.8,93.8c0,40.7,26.1,75.5,62.5,88.4v286.5c0,51.7,42.1,93.8,93.8,93.8h312.4
		c51.7,0,93.8-42,93.9-93.7V400.9c36.4-12.9,62.5-47.7,62.5-88.4C812.6,260.8,770.5,218.7,718.8,218.7z M687.4,687.4
		c0,17.2-14,31.2-31.2,31.2H343.7c-17.2,0-31.2-14-31.2-31.2V406.2h374.9V687.4z M718.7,343.8H281.2c-17.2,0-31.2-14-31.2-31.2
		s14-31.2,31.2-31.2h437.5c17.2,0,31.2,14,31.2,31.2S735.9,343.8,718.7,343.8z"/>
	<path d="M437.5,531.2h125c17.3,0,31.2-14,31.2-31.2s-13.9-31.2-31.2-31.2h-125c-17.2,0-31.2,14-31.2,31.2S420.2,531.2,437.5,531.2z
		"/>
</g>
</svg>
