<?xml version="1.0" encoding="utf-8"?>
<!-- Generator: Adobe Illustrator 25.0.1, SVG Export Plug-In . SVG Version: 6.00 Build 0)  -->
<svg version="1.1" id="Layer_1" xmlns="http://www.w3.org/2000/svg" xmlns:xlink="http://www.w3.org/1999/xlink" x="0px" y="0px"
	 viewBox="0 0 40 40" style="enable-background:new 0 0 40 40;" xml:space="preserve">
<style type="text/css">
	.st0{fill:none;}
	.st1{fill:#E8E9F3;}
</style>
<rect class="st0" width="40" height="40"/>
<path class="st1" d="M25,29H15c-1.7,0-3-1.3-3-3v-9.2c-1.2-0.4-2-1.5-2-2.8c0-1.7,1.3-3,3-3h14c1.7,0,3,1.3,3,3c0,1.3-0.8,2.4-2,2.8
	V26C28,27.7,26.7,29,25,29z M14,17v9c0,0.6,0.4,1,1,1h10c0.6,0,1-0.4,1-1v-9H14z M13,15h14c0.6,0,1-0.4,1-1s-0.4-1-1-1H13
	c-0.6,0-1,0.4-1,1S12.4,15,13,15z M22,21h-4c-0.6,0-1-0.4-1-1s0.4-1,1-1h4c0.6,0,1,0.4,1,1S22.6,21,22,21z"/>
</svg>
