<?xml version="1.0" encoding="utf-8"?>
<!-- Generator: Adobe Illustrator 25.1.0, SVG Export Plug-In . SVG Version: 6.00 Build 0)  -->
<svg version="1.1" id="Layer_1" xmlns="http://www.w3.org/2000/svg" xmlns:xlink="http://www.w3.org/1999/xlink" x="0px" y="0px"
	 viewBox="0 0 1000 1000" style="enable-background:new 0 0 1000 1000;" xml:space="preserve">
<path d="M647.1,634.2c-12.2-12.2-32-12.2-44.2,0l-71.7,71.7V218.8c0-17.2-14-31.2-31.2-31.2s-31.2,13.9-31.2,31.2v487.1l-71.7-71.7
	c-12.2-12.2-32-12.2-44.2,0s-12.2,32,0,44.2l125,125c3,3,6.5,5.3,10.2,6.8c3.6,1.4,7.6,2.3,11.9,2.3s8.3-0.9,11.9-2.3
	c3.7-1.5,7.2-3.8,10.2-6.8l125-125C659.3,666.2,659.3,646.4,647.1,634.2z"/>
</svg>
