<?xml version="1.0" encoding="utf-8"?>
<!-- Generator: Adobe Illustrator 25.1.0, SVG Export Plug-In . SVG Version: 6.00 Build 0)  -->
<svg version="1.1" id="Layer_1" xmlns="http://www.w3.org/2000/svg" xmlns:xlink="http://www.w3.org/1999/xlink" x="0px" y="0px"
	 viewBox="0 0 1000 1000" style="enable-background:new 0 0 1000 1000;" xml:space="preserve">
<path d="M781.3,468.8H294.2l165.5-165.5c12.2-12.2,12.2-32,0-44.2s-32-12.2-44.2,0L196.7,477.9c-3,3-5.3,6.5-6.8,10.2
	c-1.5,3.6-2.3,7.6-2.3,11.8c0,0.1,0,0.1,0,0.2c0,4.2,0.8,8.2,2.3,11.8c1.5,3.7,3.8,7.2,6.8,10.2l218.7,218.7
	c6.1,6.1,14.1,9.2,22.1,9.2s16-3.1,22.1-9.2c12.2-12.2,12.2-32,0-44.2L294.2,531.2h487.1c17.2,0,31.2-14,31.2-31.2
	S798.6,468.8,781.3,468.8z"/>
</svg>
