<?xml version="1.0" encoding="utf-8"?>
<!-- Generator: Adobe Illustrator 25.1.0, SVG Export Plug-In . SVG Version: 6.00 Build 0)  -->
<svg version="1.1" id="Layer_1" xmlns="http://www.w3.org/2000/svg" xmlns:xlink="http://www.w3.org/1999/xlink" x="0px" y="0px"
	 viewBox="0 0 1000 1000" style="enable-background:new 0 0 1000 1000;" xml:space="preserve">
<path d="M810.2,488.1c-1.5-3.7-3.8-7.2-6.8-10.2L584.6,259.1c-12.2-12.2-32-12.2-44.2,0s-12.2,32,0,44.2l165.5,165.5H218.8
	c-17.2,0-31.2,14-31.2,31.2s13.9,31.2,31.2,31.2h487L540.4,696.6c-12.2,12.2-12.2,32,0,44.2c6.1,6.1,14.1,9.2,22.1,9.2
	s16-3.1,22.1-9.2l218.8-218.7c3-3,5.3-6.5,6.8-10.2c1.4-3.6,2.3-7.6,2.3-11.8c0-0.1,0-0.1,0-0.2
	C812.5,495.7,811.7,491.7,810.2,488.1z"/>
</svg>
