<?xml version="1.0" encoding="utf-8"?>
<!-- Generator: Adobe Illustrator 25.1.0, SVG Export Plug-In . SVG Version: 6.00 Build 0)  -->
<svg version="1.1" id="Layer_1" xmlns="http://www.w3.org/2000/svg" xmlns:xlink="http://www.w3.org/1999/xlink" x="0px" y="0px"
	 viewBox="0 0 1000 1000" style="enable-background:new 0 0 1000 1000;" xml:space="preserve">
<g>
	<path d="M593.8,437.5c7.9,0,15.9-3.1,22-9.2l103-102.9V375c0,17.2,14,31.2,31.2,31.2s31.2-13.9,31.2-31.2V250v-0.1
		c0-4.2-0.8-8.2-2.3-11.8c-1.5-3.7-3.8-7.2-6.8-10.2s-6.5-5.3-10.2-6.8c-3.6-1.5-7.6-2.3-11.8-2.3H750H625
		c-17.2,0-31.2,14-31.2,31.2c0,17.2,13.9,31.2,31.2,31.2h49.6L571.7,384.1c-12.2,12.2-12.2,32,0,44.2
		C577.8,434.4,585.8,437.5,593.8,437.5z"/>
	<path d="M384.1,571.7L281.2,674.6V625c0-17.2-14-31.2-31.2-31.2s-31.2,13.9-31.2,31.2v125v0.1c0,4.2,0.8,8.2,2.3,11.8
		c1.5,3.7,3.8,7.2,6.8,10.2s6.5,5.3,10.2,6.8c3.6,1.4,7.6,2.3,11.8,2.3h0.1h125c17.3,0,31.2-14,31.2-31.2s-13.9-31.2-31.2-31.2
		h-49.6l102.9-102.9c12.2-12.2,12.2-32,0-44.2S396.3,559.5,384.1,571.7z"/>
	<path d="M325.4,281.2H375c17.2,0,31.2-14,31.2-31.2c0-17.2-13.9-31.2-31.2-31.2H250h-0.1c-4.2,0-8.2,0.8-11.8,2.3
		c-3.7,1.5-7.2,3.8-10.2,6.8s-5.3,6.5-6.8,10.2c-1.5,3.6-2.3,7.6-2.3,11.8v0.1v125c0,17.2,14,31.2,31.2,31.2
		c17.2,0,31.2-13.9,31.2-31.2v-49.6l102.9,102.9c6.1,6.1,14.1,9.2,22.1,9.2s16-3.1,22.1-9.2c12.2-12.2,12.2-32,0-44.2L325.4,281.2z"
		/>
	<path d="M750,593.8c-17.2,0-31.2,13.9-31.2,31.2v49.5L615.9,571.6c-12.2-12.2-32-12.2-44.2,0s-12.2,32,0,44.2l102.9,103H625
		c-17.2,0-31.2,14-31.2,31.2s13.9,31.2,31.2,31.2h125c4.3,0,8.3-0.8,11.9-2.3c3.7-1.5,7.2-3.8,10.2-6.8s5.3-6.5,6.8-10.2
		c1.4-3.6,2.3-7.6,2.3-11.8V750V625C781.2,607.8,767.2,593.8,750,593.8z"/>
</g>
</svg>
