<?xml version="1.0" encoding="utf-8"?>
<!-- Generator: Adobe Illustrator 25.1.0, SVG Export Plug-In . SVG Version: 6.00 Build 0)  -->
<svg version="1.1" id="Layer_1" xmlns="http://www.w3.org/2000/svg" xmlns:xlink="http://www.w3.org/1999/xlink" x="0px" y="0px"
	 viewBox="0 0 1000 1000" style="enable-background:new 0 0 1000 1000;" xml:space="preserve">
<path d="M740.9,415.4L522.1,196.6c-3-3-6.5-5.3-10.2-6.8c-3.6-1.5-7.6-2.3-11.8-2.3c-0.1,0-0.1,0-0.2,0c-4.2,0-8.2,0.8-11.8,2.3
	c-3.7,1.5-7.2,3.8-10.2,6.8L259.1,415.4c-12.2,12.2-12.2,32,0,44.2s32,12.2,44.2,0l165.5-165.4v487.1c0,17.2,13.9,31.2,31.2,31.2
	s31.2-14,31.2-31.2V294.2l165.5,165.4c12.2,12.2,32,12.2,44.2,0S753.1,427.6,740.9,415.4z"/>
</svg>
