<?xml version="1.0" encoding="utf-8"?>
<!-- Generator: Adobe Illustrator 25.0.1, SVG Export Plug-In . SVG Version: 6.00 Build 0)  -->
<svg version="1.1" id="Layer_1" xmlns="http://www.w3.org/2000/svg" xmlns:xlink="http://www.w3.org/1999/xlink" x="0px" y="0px"
	 viewBox="0 0 40 40" style="enable-background:new 0 0 40 40;" xml:space="preserve">
<style type="text/css">
	.st0{fill:none;}
	.st1{fill:#E8E9F3;}
</style>
<rect class="st0" width="40" height="40"/>
<path class="st1" d="M10,20L10,20L10,20c0-0.1,0-0.3,0.1-0.4c0-0.1,0.1-0.2,0.2-0.3l4-4c0.4-0.4,1-0.4,1.4,0c0.4,0.4,0.4,1,0,1.4
	L13.4,19H29c0.6,0,1,0.4,1,1s-0.4,1-1,1H13.4l2.3,2.3c0.4,0.4,0.4,1,0,1.4c-0.4,0.4-1,0.4-1.4,0l-4-4c-0.1-0.1-0.2-0.2-0.2-0.3
	C10,20.3,10,20.1,10,20L10,20L10,20z"/>
</svg>
