<?xml version="1.0" encoding="utf-8"?>
<!-- Generator: Adobe Illustrator 25.0.1, SVG Export Plug-In . SVG Version: 6.00 Build 0)  -->
<svg version="1.1" id="Layer_1" xmlns="http://www.w3.org/2000/svg" xmlns:xlink="http://www.w3.org/1999/xlink" x="0px" y="0px"
	 viewBox="0 0 40 40" style="enable-background:new 0 0 40 40;" xml:space="preserve">
<style type="text/css">
	.st0{fill:none;}
	.st1{fill:#E8E9F3;}
</style>
<rect class="st0" width="40" height="40"/>
<path class="st1" d="M20,30L20,30L20,30c-0.1,0-0.3,0-0.4-0.1c-0.1,0-0.2-0.1-0.3-0.2l-4-4c-0.4-0.4-0.4-1,0-1.4s1-0.4,1.4,0
	l2.3,2.3V11c0-0.6,0.4-1,1-1s1,0.4,1,1v15.6l2.3-2.3c0.4-0.4,1-0.4,1.4,0s0.4,1,0,1.4l-4,4c-0.1,0.1-0.2,0.2-0.3,0.2
	C20.3,30,20.1,30,20,30L20,30L20,30z"/>
</svg>
