<?xml version="1.0" encoding="utf-8"?>
<!-- Generator: Adobe Illustrator 25.1.0, SVG Export Plug-In . SVG Version: 6.00 Build 0)  -->
<svg version="1.1" id="Layer_1" xmlns="http://www.w3.org/2000/svg" xmlns:xlink="http://www.w3.org/1999/xlink" x="0px" y="0px"
	 viewBox="0 0 1000 1000" style="enable-background:new 0 0 1000 1000;" xml:space="preserve">
<path d="M740.8,540.5c-12.2-12.2-32-12.2-44.2,0L531.2,705.9V218.8c0-17.2-14-31.2-31.2-31.2s-31.2,13.9-31.2,31.2v487L303.4,540.4
	c-12.2-12.2-32-12.2-44.2,0s-12.2,32,0,44.2l218.7,218.8c3,3,6.5,5.3,10.2,6.8c3.6,1.4,7.6,2.3,11.9,2.3s8.3-0.9,11.9-2.4
	c3.7-1.5,7.2-3.8,10.2-6.8l218.7-218.6C753,572.5,753,552.7,740.8,540.5z"/>
</svg>
