<?xml version="1.0" encoding="utf-8"?>
<!-- Generator: Adobe Illustrator 25.0.1, SVG Export Plug-In . SVG Version: 6.00 Build 0)  -->
<svg version="1.1" id="Layer_1" xmlns="http://www.w3.org/2000/svg" xmlns:xlink="http://www.w3.org/1999/xlink" x="0px" y="0px"
	 viewBox="0 0 40 40" style="enable-background:new 0 0 40 40;" xml:space="preserve">
<style type="text/css">
	.st0{fill:none;}
	.st1{fill:#E8E9F3;}
</style>
<rect class="st0" width="40" height="40"/>
<path class="st1" d="M30,20L30,20L30,20c0,0.1,0,0.3-0.1,0.4c0,0.1-0.1,0.2-0.2,0.3l-4,4c-0.4,0.4-1,0.4-1.4,0s-0.4-1,0-1.4l2.3-2.3
	H11c-0.6,0-1-0.4-1-1s0.4-1,1-1h15.6l-2.3-2.3c-0.4-0.4-0.4-1,0-1.4s1-0.4,1.4,0l4,4c0.1,0.1,0.2,0.2,0.2,0.3C30,19.7,30,19.9,30,20
	L30,20L30,20z"/>
</svg>
