<?xml version="1.0" encoding="utf-8"?>
<!-- Generator: Adobe Illustrator 25.1.0, SVG Export Plug-In . SVG Version: 6.00 Build 0)  -->
<svg version="1.1" id="Layer_1" xmlns="http://www.w3.org/2000/svg" xmlns:xlink="http://www.w3.org/1999/xlink" x="0px" y="0px"
	 viewBox="0 0 1000 1000" style="enable-background:new 0 0 1000 1000;" xml:space="preserve">
<g>
	<path d="M506.5,477.9L287.7,259.1c-12.2-12.2-32-12.2-44.2,0s-12.2,32,0,44.2L440.2,500L243.5,696.6c-12.2,12.2-12.2,32,0,44.2
		c6.1,6.1,14.1,9.2,22.1,9.2s16-3.1,22.1-9.2l218.8-218.7C518.7,509.9,518.7,490.1,506.5,477.9z"/>
	<path d="M756.5,477.9L537.7,259.1c-12.2-12.2-32-12.2-44.2,0s-12.2,32,0,44.2L690.2,500L493.5,696.6c-12.2,12.2-12.2,32,0,44.2
		c6.1,6.1,14.1,9.2,22.1,9.2s16-3.1,22.1-9.2l218.8-218.7C768.7,509.9,768.7,490.1,756.5,477.9z"/>
</g>
</svg>
