<?xml version="1.0" encoding="utf-8"?>
<!-- Generator: Adobe Illustrator 25.1.0, SVG Export Plug-In . SVG Version: 6.00 Build 0)  -->
<svg version="1.1" id="Layer_1" xmlns="http://www.w3.org/2000/svg" xmlns:xlink="http://www.w3.org/1999/xlink" x="0px" y="0px"
	 viewBox="0 0 1000 1000" style="enable-background:new 0 0 1000 1000;" xml:space="preserve">
<g>
	<path d="M303.3,506.5L500,309.8l196.7,196.6c6.1,6.1,14.1,9.2,22.1,9.2c7.9,0,15.9-3,22.1-9.1c12.2-12.2,12.2-32,0-44.2
		L522.1,243.5c-12.2-12.2-32-12.2-44.2,0L259.1,462.3c-12.2,12.2-12.2,32,0,44.2S291.1,518.7,303.3,506.5z"/>
	<path d="M522.1,493.5c-12.2-12.2-32-12.2-44.2,0L259.1,712.3c-12.2,12.2-12.2,32,0,44.2s32,12.2,44.2,0L500,559.8l196.7,196.6
		c6.1,6.1,14.1,9.2,22.1,9.2c7.9,0,15.9-3,22.1-9.1c12.2-12.2,12.2-32,0-44.2L522.1,493.5z"/>
</g>
</svg>
