<?xml version="1.0" encoding="utf-8"?>
<!-- Generator: Adobe Illustrator 25.0.1, SVG Export Plug-In . SVG Version: 6.00 Build 0)  -->
<svg version="1.1" id="Layer_1" xmlns="http://www.w3.org/2000/svg" xmlns:xlink="http://www.w3.org/1999/xlink" x="0px" y="0px"
	 viewBox="0 0 40 40" style="enable-background:new 0 0 40 40;" xml:space="preserve">
<style type="text/css">
	.st0{fill:none;}
	.st1{fill:#E8E9F3;}
</style>
<rect class="st0" width="40" height="40"/>
<path class="st1" d="M20,30L20,30c-5.6,0-10-4.5-10-10s4.5-10,10-10s10,4.5,10,10v1.5c0,1.9-1.6,3.5-3.5,3.5c-1.2,0-2.3-0.6-2.9-1.5
	C22.7,24.4,21.4,25,20,25c-2.8,0-5-2.2-5-5s2.2-5,5-5s5,2.2,5,5v1.5c0,0.8,0.7,1.5,1.5,1.5s1.5-0.7,1.5-1.5V20c0-4.4-3.6-8-8-8
	s-8,3.6-8,8s3.6,8,8,8c0,0,0,0,0.1,0c1.4,0,2.7-0.4,3.9-1.1c0.5-0.3,1.1-0.1,1.4,0.4s0.1,1.1-0.4,1.4C23.5,29.5,21.8,30,20,30z
	 M20,17c-1.7,0-3,1.3-3,3s1.3,3,3,3s3-1.3,3-3S21.7,17,20,17z"/>
</svg>
