<?xml version="1.0" encoding="utf-8"?>
<!-- Generator: Adobe Illustrator 25.1.0, SVG Export Plug-In . SVG Version: 6.00 Build 0)  -->
<svg version="1.1" id="Layer_1" xmlns="http://www.w3.org/2000/svg" xmlns:xlink="http://www.w3.org/1999/xlink" x="0px" y="0px"
	 viewBox="0 0 1000 1000" style="enable-background:new 0 0 1000 1000;" xml:space="preserve">
<path d="M500.1,187.5c-172.3,0-312.5,140.2-312.5,312.5c0,171.8,139.4,311.7,311,312.5c0.6,0,1.2,0.1,1.8,0
	c54.5,0,108.4-14.5,155.9-41.9c14.9-8.6,20-27.8,11.4-42.7c-8.7-14.9-27.8-20-42.7-11.4c-37.7,21.8-80.5,33.3-123.7,33.5
	c-0.4,0-0.8,0-1.3,0c-137.8,0-250-112.1-250-250s112.2-250,250-250s250,112.2,250,250v46.9c0,25.9-21,46.9-46.9,46.9
	s-46.9-21.1-46.9-46.9V500c0-86.2-70-156.3-156.2-156.3S343.9,414,343.9,500.1s70,156.2,156.2,156.2c44.2,0,84.2-18.4,112.6-48
	c19.7,28.9,52.9,48,90.5,48c60.3,0,109.4-49.1,109.4-109.4V500C812.6,327.7,672.4,187.5,500.1,187.5z M500,593.8
	c-51.7,0-93.8-42.1-93.8-93.8c0-51.7,42.1-93.8,93.8-93.8s93.8,42.1,93.8,93.8S551.7,593.8,500,593.8z"/>
</svg>
