<?xml version="1.0" encoding="utf-8"?>
<!-- Generator: Adobe Illustrator 25.1.0, SVG Export Plug-In . SVG Version: 6.00 Build 0)  -->
<svg version="1.1" id="Layer_1" xmlns="http://www.w3.org/2000/svg" xmlns:xlink="http://www.w3.org/1999/xlink" x="0px" y="0px"
	 viewBox="0 0 1000 1000" style="enable-background:new 0 0 1000 1000;" xml:space="preserve">
<g>
	<path d="M718.8,249.9H463.4c-25.1,0-48.6,9.8-66.3,27.5L196.7,477.9c-12.2,12.2-12.2,32,0,44.2l200.4,200.4
		c17.7,17.7,41.3,27.5,66.3,27.5h255.4c51.6,0,93.7-42.1,93.8-93.8V343.7C812.6,292,770.5,249.9,718.8,249.9z M749.9,656.3
		c0,17.2-14,31.2-31.2,31.2H463.3c-8.3,0-16.2-3.3-22.1-9.2L262.9,500l178.4-178.3c5.9-5.8,13.7-9.1,22.1-9.1h255.3
		c17.2,0,31.2,14,31.2,31.2V656.3z"/>
	<path d="M647.1,415.4c-12.2-12.2-32-12.2-44.2,0l-40.4,40.4l-40.4-40.4c-12.2-12.2-32-12.2-44.2,0s-12.2,32,0,44.2l40.4,40.4
		l-40.4,40.4c-12.2,12.2-12.2,32,0,44.2s32,12.2,44.2,0l40.4-40.4l40.4,40.4c6.1,6.1,14.1,9.2,22.1,9.2s16-3.1,22.1-9.2
		c12.2-12.2,12.2-32,0-44.2L606.7,500l40.4-40.4C659.3,447.4,659.3,427.6,647.1,415.4z"/>
</g>
</svg>
