<?xml version="1.0" encoding="utf-8"?>
<!-- Generator: Adobe Illustrator 25.1.0, SVG Export Plug-In . SVG Version: 6.00 Build 0)  -->
<svg version="1.1" id="Layer_1" xmlns="http://www.w3.org/2000/svg" xmlns:xlink="http://www.w3.org/1999/xlink" x="0px" y="0px"
	 viewBox="0 0 1000 1000" style="enable-background:new 0 0 1000 1000;" xml:space="preserve">
<path d="M720.9,279C599.1,157.2,400.8,157.1,279,279s-121.8,320.1,0,442c61,60.9,141,91.4,221,91.4s160-30.5,220.9-91.4
	C842.7,599.1,842.7,400.8,720.9,279z M323.2,676.8c-90-90-96.9-232.1-20.7-330.1l350.8,350.8C555.3,773.7,413.2,766.8,323.2,676.8z
	 M697.5,653.3L346.7,302.5c98-76.2,240.1-69.3,330.1,20.7C766.7,413.2,773.7,555.3,697.5,653.3z"/>
</svg>
