<?xml version="1.0" encoding="utf-8"?>
<!-- Generator: Adobe Illustrator 25.0.1, SVG Export Plug-In . SVG Version: 6.00 Build 0)  -->
<svg version="1.1" id="Layer_1" xmlns="http://www.w3.org/2000/svg" xmlns:xlink="http://www.w3.org/1999/xlink" x="0px" y="0px"
	 viewBox="0 0 40 40" style="enable-background:new 0 0 40 40;" xml:space="preserve">
<style type="text/css">
	.st0{fill:none;}
	.st1{fill:#E8E9F3;}
</style>
<rect class="st0" width="40" height="40"/>
<rect class="st0" width="40" height="40"/>
<path class="st1" d="M27.2,29H12.8c-1.2,0-2.3-0.7-2.8-1.9c-0.5-1.1-0.2-2.4,0.7-3.3l5-5c0.2-0.2,0.3-0.4,0.3-0.7v-4.8l-0.7-0.7
	c-0.3-0.3-0.4-0.7-0.2-1.1c0.2-0.4,0.5-0.6,0.9-0.6h8c0.4,0,0.8,0.2,0.9,0.6c0.2,0.4,0.1,0.8-0.2,1.1L24,13.4v4.8
	c0,0.3,0.1,0.5,0.3,0.7l3.8,3.8c0,0,0,0,0,0l1.2,1.2c0.9,0.9,1.1,2.1,0.7,3.3C29.5,28.3,28.4,29,27.2,29z M13,24.5l-0.8,0.8
	c-0.4,0.4-0.3,0.9-0.2,1.1s0.3,0.6,0.9,0.6h14.3c0.6,0,0.9-0.5,0.9-0.6c0.1-0.1,0.2-0.7-0.2-1.1l-1.2-1.2c-0.1-0.1-0.3-0.2-0.5-0.3
	l-2.4-0.5c-1.1-0.2-2.2-0.1-3.2,0.4L20.3,24c-1.4,0.7-3,0.9-4.5,0.6l-1.9-0.4C13.5,24.1,13.2,24.2,13,24.5z M15,22.4l1.1,0.2
	c1.1,0.2,2.2,0.1,3.2-0.4l0.3-0.2c1.3-0.7,2.8-0.9,4.3-0.6l-1.1-1.1C22.3,19.7,22,19,22,18.2V13h-4v5.2c0,0.8-0.3,1.6-0.9,2.1
	L15,22.4z"/>
</svg>
