<?xml version="1.0" encoding="utf-8"?>
<!-- Generator: Adobe Illustrator 25.1.0, SVG Export Plug-In . SVG Version: 6.00 Build 0)  -->
<svg version="1.1" id="Layer_1" xmlns="http://www.w3.org/2000/svg" xmlns:xlink="http://www.w3.org/1999/xlink" x="0px" y="0px"
	 viewBox="0 0 1000 1000" style="enable-background:new 0 0 1000 1000;" xml:space="preserve">
<path d="M790.4,621.3L634.2,465c-5.9-5.8-9.2-13.9-9.2-22.1V294.2l22.1-22.1c9-9,11.7-22.4,6.8-34.1s-16.3-19.3-28.9-19.3H375
	c-12.7,0-24.1,7.6-28.9,19.3c-4.8,11.7-2.1,25.2,6.8,34.1l22.1,22.1v148.7c0,8.2-3.4,16.3-9.2,22.1L209.6,621.1
	c-27.3,27.3-35.1,66.5-20.3,102.2s48,57.9,86.6,57.9h448.2c38.7,0,71.8-22.1,86.6-57.7C825.5,687.8,817.7,648.6,790.4,621.3z
	 M410,509.1c17.7-17.7,27.5-41.3,27.5-66.3V281.2h125v161.6c0,25.1,9.8,48.6,27.5,66.3l33.8,34c-45.2-7.3-92-0.1-132.9,20.3
	l-9.9,4.9c-30.9,15.5-66.6,20.3-100.5,13.5l-35.9-7.2L410,509.1z M753,699.5c-1.9,4.5-9.5,19.3-28.9,19.3H275.9
	c-19.4,0-27-14.7-28.9-19.3c-1.9-4.6-6.9-20.4,6.8-34.1l25.7-25.7c0-0.1,0.1-0.1,0.2-0.2c7.4-7.3,18-10.5,28.2-8.5l60.4,12
	c47.4,9.5,97.4,2.8,140.7-18.8l9.9-4.9c31-15.5,66.7-20.3,100.5-13.5l74.6,14.9c6.1,1.2,11.6,4.1,16,8.5c0.1,0.1,0.2,0.2,0.3,0.3
	l35.9,35.9C759.9,679.1,754.9,695,753,699.5z"/>
</svg>
