<?xml version="1.0" encoding="utf-8"?>
<!-- Generator: Adobe Illustrator 25.1.0, SVG Export Plug-In . SVG Version: 6.00 Build 0)  -->
<svg version="1.1" id="Layer_1" xmlns="http://www.w3.org/2000/svg" xmlns:xlink="http://www.w3.org/1999/xlink" x="0px" y="0px"
	 viewBox="0 0 1000 1000" style="enable-background:new 0 0 1000 1000;" xml:space="preserve">
<path d="M772.1,634.1l-43.9-43.9c-6-6.1-9.4-14.2-9.4-22.8v-98.7c0-85.2-49.7-162.2-125.6-198c-5.2-46.8-45-83.3-93.2-83.3
	s-88,36.5-93.2,83.3c-75.9,35.8-125.6,112.8-125.6,198v98.7c0,8.6-3.3,16.7-9.4,22.8l-43.9,43.9c-9,9-11.7,22.4-6.8,34.1
	c4.9,11.7,16.3,19.3,28.9,19.3h125c0,68.9,56.1,125,125,125s125-56.1,125-125h125c12.7,0,24.1-7.6,28.9-19.3
	C783.7,656.5,781,643,772.1,634.1z M500,750c-34.5,0-62.5-28-62.5-62.5h125C562.5,722,534.5,750,500,750z M593.7,625H324.3
	c12.7-16.5,19.5-36.5,19.5-57.6v-98.7c0-66.2,41.9-125.4,104.2-147.4c12.5-4.4,20.8-16.3,20.8-29.5v-10.7c0-17.2,14-31.2,31.2-31.2
	s31.2,14,31.2,31.2v10.7c0,13.3,8.3,25.1,20.8,29.5c62.3,22,104.2,81.3,104.2,147.4v98.7c0,21.1,6.9,41.2,19.5,57.6H593.7z"/>
</svg>
