<?xml version="1.0" encoding="utf-8"?>
<!-- Generator: Adobe Illustrator 25.0.1, SVG Export Plug-In . SVG Version: 6.00 Build 0)  -->
<svg version="1.1" id="Layer_1" xmlns="http://www.w3.org/2000/svg" xmlns:xlink="http://www.w3.org/1999/xlink" x="0px" y="0px"
	 viewBox="0 0 40 40" style="enable-background:new 0 0 40 40;" xml:space="preserve">
<style type="text/css">
	.st0{fill:none;}
	.st1{fill:#E8E9F3;}
</style>
<rect class="st0" width="40" height="40"/>
<path class="st1" d="M20,30c-2.2,0-4-1.8-4-4h-4c-0.4,0-0.8-0.2-0.9-0.6s-0.1-0.8,0.2-1.1l1.4-1.4c0.2-0.2,0.3-0.5,0.3-0.7V19
	c0-2.7,1.6-5.2,4-6.3c0.2-1.5,1.5-2.7,3-2.7s2.8,1.2,3,2.7c2.4,1.1,4,3.6,4,6.3v3.2c0,0.3,0.1,0.5,0.3,0.7l1.4,1.4
	c0.3,0.3,0.4,0.7,0.2,1.1C28.8,25.8,28.4,26,28,26h-4C24,28.2,22.2,30,20,30z M18,26c0,1.1,0.9,2,2,2s2-0.9,2-2H18z M23,24h2.6
	c-0.4-0.5-0.6-1.2-0.6-1.8V19c0-2.1-1.3-4-3.3-4.7c-0.4-0.1-0.7-0.5-0.7-0.9V13c0-0.6-0.4-1-1-1s-1,0.4-1,1v0.3
	c0,0.4-0.3,0.8-0.7,0.9C16.3,15,15,16.9,15,19v3.2c0,0.7-0.2,1.3-0.6,1.8H23z"/>
</svg>
