<?xml version="1.0" encoding="utf-8"?>
<!-- Generator: Adobe Illustrator 25.1.0, SVG Export Plug-In . SVG Version: 6.00 Build 0)  -->
<svg version="1.1" id="Layer_1" xmlns="http://www.w3.org/2000/svg" xmlns:xlink="http://www.w3.org/1999/xlink" x="0px" y="0px"
	 viewBox="0 0 1000 1000" style="enable-background:new 0 0 1000 1000;" xml:space="preserve">
<path d="M687.5,218.6h-375c-51.7,0-93.8,42.1-93.8,93.8v375c0,51.7,42.1,93.8,93.8,93.8h375c51.7,0,93.7-42,93.8-93.8v-375
	C781.3,260.7,739.2,218.6,687.5,218.6z M406.2,281.2h187.6v293.2L514,534.5c-4.4-2.2-9.2-3.3-14-3.3s-9.6,1.1-14,3.3l-79.8,39.9
	V281.2z M718.7,687.4c0,17.2-14,31.2-31.2,31.2h-375c-17.2,0-31.2-14-31.2-31.2v-375c0-17.2,14-31.2,31.2-31.2h31.3V625
	c0,10.9,5.6,20.9,14.8,26.6c9.2,5.7,20.7,6.2,30.4,1.4l111.1-55.5l111,55.5c9.7,4.8,21.2,4.3,30.4-1.4s14.8-15.8,14.8-26.6V281.2
	h31.2c17.2,0,31.2,14,31.2,31.2V687.4z"/>
</svg>
