<?xml version="1.0" encoding="utf-8"?>
<!-- Generator: Adobe Illustrator 25.1.0, SVG Export Plug-In . SVG Version: 6.00 Build 0)  -->
<svg version="1.1" id="Layer_1" xmlns="http://www.w3.org/2000/svg" xmlns:xlink="http://www.w3.org/1999/xlink" x="0px" y="0px"
	 viewBox="0 0 1000 1000" style="enable-background:new 0 0 1000 1000;" xml:space="preserve">
<path d="M798.5,290.5c-43-28.7-99.1-44.4-157.9-44.4c-51.2,0-100.3,11.9-140.6,33.9c-40.3-22-89.4-34-140.7-34
	c-58.8,0-114.8,15.8-157.9,44.4c-8.8,5.8-14,15.5-14,26v406.2c0,11.5,6.4,22.1,16.5,27.6c10.2,5.5,22.5,4.9,32.1-1.5
	c32.9-21.8,76.7-33.9,123.3-33.9c46.4,0,89.9,11.9,122.8,33.6c1,0.7,2.1,1.3,3.2,1.9c1.7,0.9,3.5,1.6,5.3,2.2
	c3.1,0.9,6.2,1.4,9.4,1.4c3.1,0,6.1-0.4,8.9-1.1c2.1-0.6,4-1.4,5.8-2.4c1-0.5,2-1.1,3-1.8c32.9-21.7,76.4-33.6,122.8-33.6
	c46.6,0,90.4,12,123.3,33.9c9.6,6.4,21.9,6.9,32.1,1.5c10.2-5.5,16.5-16.1,16.5-27.6V316.5C812.4,306.1,807.2,296.3,798.5,290.5z
	 M468.8,671.8c-66.7-25.5-152.1-25.5-218.8,0V334.1c61.8-33.1,157-33.1,218.8,0V671.8z M750,671.9c-33.4-12.8-70.8-19.6-109.4-19.6
	s-76,6.8-109.4,19.5V334.1c61.8-33.1,157-33.1,218.8,0V671.9z"/>
</svg>
