<?xml version="1.0" encoding="utf-8"?>
<!-- Generator: Adobe Illustrator 25.0.1, SVG Export Plug-In . SVG Version: 6.00 Build 0)  -->
<svg version="1.1" id="Layer_1" xmlns="http://www.w3.org/2000/svg" xmlns:xlink="http://www.w3.org/1999/xlink" x="0px" y="0px"
	 viewBox="0 0 40 40" style="enable-background:new 0 0 40 40;" xml:space="preserve">
<style type="text/css">
	.st0{fill:none;}
	.st1{fill:#E8E9F3;}
</style>
<rect class="st0" width="40" height="40"/>
<path class="st1" d="M27,30c-0.2,0-0.3,0-0.4-0.1L20,26.6l-6.6,3.3c-0.3,0.2-0.7,0.1-1,0C12.2,29.7,12,29.3,12,29V13
	c0-1.7,1.3-3,3-3h10c1.7,0,3,1.3,3,3v16c0,0.3-0.2,0.7-0.5,0.9C27.4,30,27.2,30,27,30z M20,24.5c0.2,0,0.3,0,0.4,0.1l5.6,2.8V13
	c0-0.6-0.4-1-1-1H15c-0.6,0-1,0.4-1,1v14.4l5.6-2.8C19.7,24.5,19.8,24.5,20,24.5z"/>
</svg>
