<?xml version="1.0" encoding="utf-8"?>
<!-- Generator: Adobe Illustrator 25.1.0, SVG Export Plug-In . SVG Version: 6.00 Build 0)  -->
<svg version="1.1" id="Layer_1" xmlns="http://www.w3.org/2000/svg" xmlns:xlink="http://www.w3.org/1999/xlink" x="0px" y="0px"
	 viewBox="0 0 1000 1000" style="enable-background:new 0 0 1000 1000;" xml:space="preserve">
<path d="M656.3,187.5H343.8c-51.7,0-93.8,42-93.8,93.7v500c0,10.9,5.6,20.9,14.8,26.6c9.2,5.8,20.7,6.2,30.4,1.4L500,706.8
	l204.8,102.4c4.4,2.2,9.2,3.3,14,3.3c5.7,0,11.4-1.6,16.5-4.7c9.2-5.7,14.8-15.8,14.8-26.6v-500C750.1,229.6,708,187.5,656.3,187.5z
	 M687.5,730.7L514,643.9c-4.4-2.2-9.2-3.3-14-3.3s-9.6,1.1-14,3.3l-173.4,86.7V281.2c0-17.2,14-31.2,31.2-31.2h312.5
	c17.2,0,31.2,14,31.2,31.2V730.7z"/>
</svg>
