<?xml version="1.0" encoding="utf-8"?>
<!-- Generator: Adobe Illustrator 25.0.1, SVG Export Plug-In . SVG Version: 6.00 Build 0)  -->
<svg version="1.1" id="Layer_1" xmlns="http://www.w3.org/2000/svg" xmlns:xlink="http://www.w3.org/1999/xlink" x="0px" y="0px"
	 viewBox="0 0 40 40" style="enable-background:new 0 0 40 40;" xml:space="preserve">
<style type="text/css">
	.st0{fill:none;}
	.st1{fill:#E8E9F3;}
</style>
<rect class="st0" width="40" height="40"/>
<path class="st1" d="M26,29H14c-1.7,0-3-1.3-3-3V14c0-1.7,1.3-3,3-3h12c1.7,0,3,1.3,3,3v12C29,27.7,27.7,29,26,29z M14,13
	c-0.6,0-1,0.4-1,1v12c0,0.6,0.4,1,1,1h12c0.6,0,1-0.4,1-1V14c0-0.6-0.4-1-1-1h-1v11c0,0.3-0.2,0.7-0.5,0.9c-0.3,0.2-0.7,0.2-1,0
	L20,23.1l-3.6,1.8c-0.3,0.2-0.7,0.1-1,0C15.2,24.7,15,24.3,15,24V13H14z M20,21c0.2,0,0.3,0,0.4,0.1l2.6,1.3V13h-6v9.4l2.6-1.3
	C19.7,21,19.8,21,20,21z"/>
</svg>
