<?xml version="1.0" encoding="utf-8"?>
<!-- Generator: Adobe Illustrator 25.0.1, SVG Export Plug-In . SVG Version: 6.00 Build 0)  -->
<svg version="1.1" id="Layer_1" xmlns="http://www.w3.org/2000/svg" xmlns:xlink="http://www.w3.org/1999/xlink" x="0px" y="0px"
	 viewBox="0 0 40 40" style="enable-background:new 0 0 40 40;" xml:space="preserve">
<style type="text/css">
	.st0{fill:none;}
	.st1{fill:#E8E9F3;}
</style>
<rect class="st0" width="40" height="40"/>
<path class="st1" d="M20,28.3C20,28.3,20,28.3,20,28.3c-0.1,0-0.2,0-0.3,0c-0.1,0-0.1,0-0.2-0.1c0,0-0.1,0-0.1-0.1
	C18.4,27.4,17,27,15.5,27c-1.5,0-2.9,0.4-3.9,1.1c-0.3,0.2-0.7,0.2-1,0C10.2,28,10,27.6,10,27.3v-13c0-0.3,0.2-0.6,0.4-0.8
	c1.4-0.9,3.2-1.4,5.1-1.4c1.6,0,3.2,0.4,4.5,1.1c1.3-0.7,2.9-1.1,4.5-1.1c1.9,0,3.7,0.5,5.1,1.4c0.3,0.2,0.4,0.5,0.4,0.8v13
	c0,0.4-0.2,0.7-0.5,0.9c-0.3,0.2-0.7,0.2-1,0C27.4,27.4,26,27,24.5,27c-1.5,0-2.9,0.4-3.9,1.1c0,0-0.1,0-0.1,0.1
	c-0.1,0-0.1,0.1-0.2,0.1C20.2,28.2,20.1,28.3,20,28.3z M24.5,25c1.2,0,2.4,0.2,3.5,0.6V14.8c-2-1.1-5-1.1-7,0v10.8
	C22.1,25.2,23.3,25,24.5,25z M12,14.8v10.8c2.1-0.8,4.9-0.8,7,0V14.8C17,13.8,14,13.8,12,14.8z"/>
</svg>
