<?xml version="1.0" encoding="utf-8"?>
<!-- Generator: Adobe Illustrator 25.1.0, SVG Export Plug-In . SVG Version: 6.00 Build 0)  -->
<svg version="1.1" id="Layer_1" xmlns="http://www.w3.org/2000/svg" xmlns:xlink="http://www.w3.org/1999/xlink" x="0px" y="0px"
	 viewBox="0 0 1000 1000" style="enable-background:new 0 0 1000 1000;" xml:space="preserve">
<g>
	<path d="M500.3,500H500c-17.3,0-31.1,14.1-31.1,31.3s14.1,31.2,31.4,31.2s31.2-14.1,31.2-31.3S517.6,500,500.3,500z"/>
	<path d="M718.9,312.4h-62.5v-31.2c0-51.7-42.1-93.8-93.8-93.8h-125c-51.7,0-93.8,42.1-93.8,93.8v31.2h-62.5
		c-51.7,0-93.8,42.1-93.8,93.8v163.6c0,0.5,0,0.9,0,1.4v147.5c0,51.7,42.1,93.8,93.8,93.8h437.5c51.7,0,93.7-42.1,93.9-93.8V571.1
		c0-0.5,0-0.9,0-1.4V406.2C812.7,354.5,770.6,312.4,718.9,312.4z M406.4,281.3c0-17.2,14-31.2,31.2-31.2h125
		c17.2,0,31.2,14,31.2,31.2v31.2H406.4V281.3z M750,718.8c0,17.2-14,31.2-31.2,31.2H281.3c-17.3,0-31.3-14-31.3-31.2V615.4
		c160.5,54.2,339.5,54.2,500,0V718.8z M750,549.1c-159.6,59.3-340.4,59.3-500,0V406.2c0-17.2,14.1-31.2,31.3-31.2h437.5
		c17.2,0,31.2,14,31.2,31.2V549.1z"/>
</g>
</svg>
