<?xml version="1.0" encoding="utf-8"?>
<!-- Generator: Adobe Illustrator 25.0.1, SVG Export Plug-In . SVG Version: 6.00 Build 0)  -->
<svg version="1.1" id="Layer_1" xmlns="http://www.w3.org/2000/svg" xmlns:xlink="http://www.w3.org/1999/xlink" x="0px" y="0px"
	 viewBox="0 0 40 40" style="enable-background:new 0 0 40 40;" xml:space="preserve">
<style type="text/css">
	.st0{fill:none;}
	.st1{fill:#E8E9F3;}
</style>
<rect class="st0" width="40" height="40"/>
<path class="st1" d="M27,30H13c-1.7,0-3-1.3-3-3v-4.7l0,0V17c0-1.7,1.3-3,3-3h2v-1c0-1.7,1.3-3,3-3h4c1.7,0,3,1.3,3,3v1h2
	c1.7,0,3,1.3,3,3v5.2l0,0V27C30,28.7,28.7,30,27,30z M12,23.7V27c0,0.6,0.4,1,1,1h14c0.6,0,1-0.4,1-1v-3.3
	C22.9,25.4,17.1,25.4,12,23.7z M12,21.6c5.1,1.9,10.9,1.9,16,0V17c0-0.6-0.4-1-1-1H13c-0.6,0-1,0.4-1,1V21.6z M17,14h6v-1
	c0-0.6-0.4-1-1-1h-4c-0.6,0-1,0.4-1,1V14z M20,22c-0.6,0-1-0.4-1-1s0.4-1,1-1l0,0c0.6,0,1,0.4,1,1S20.6,22,20,22z"/>
</svg>
