<?xml version="1.0" encoding="utf-8"?>
<!-- Generator: Adobe Illustrator 25.0.1, SVG Export Plug-In . SVG Version: 6.00 Build 0)  -->
<svg version="1.1" id="Layer_1" xmlns="http://www.w3.org/2000/svg" xmlns:xlink="http://www.w3.org/1999/xlink" x="0px" y="0px"
	 viewBox="0 0 40 40" style="enable-background:new 0 0 40 40;" xml:space="preserve">
<style type="text/css">
	.st0{fill:none;}
	.st1{fill:#E8E9F3;}
</style>
<rect class="st0" width="40" height="40"/>
<path class="st1" d="M29,20.4h-3.1c-0.2-0.9-0.5-1.8-1-2.5l2.2-2.2c0.4-0.4,0.4-1,0-1.4s-1-0.4-1.4,0l-2.2,2.2
	c-0.3-0.2-0.5-0.3-0.8-0.5c0.3-0.4,0.4-1,0.4-1.7c0-1.7-1.4-3-3-3s-3,1.4-3,3c0,0.7,0.2,1.2,0.4,1.7c-0.3,0.1-0.6,0.3-0.8,0.5
	l-2.2-2.2c-0.4-0.4-1-0.4-1.4,0s-0.4,1,0,1.4l2.2,2.2c-0.5,0.7-0.9,1.6-1,2.5H11c-0.6,0-1,0.4-1,1s0.4,1,1,1h3.1
	c0.2,0.9,0.5,1.7,1,2.5l-2.2,2.2c-0.4,0.4-0.4,1,0,1.4c0.2,0.2,0.5,0.3,0.7,0.3s0.5-0.1,0.7-0.3l2.2-2.2c1,0.7,2.2,1.1,3.5,1.1
	s2.5-0.4,3.5-1.1l2.2,2.2c0.2,0.2,0.5,0.3,0.7,0.3s0.5-0.1,0.7-0.3c0.4-0.4,0.4-1,0-1.4l-2.2-2.2c0.5-0.7,0.9-1.6,1-2.5H29
	c0.6,0,1-0.4,1-1S29.6,20.4,29,20.4z M19,14.4c0-0.6,0.5-1,1-1s1,0.5,1,1c0,0.7-0.4,1-0.6,1.1c-0.1,0-0.3,0-0.4,0s-0.3,0-0.4,0
	C19.3,15.2,19,15,19,14.4z M16,21.4c0-2.2,1.8-4,4-4s4,1.8,4,4s-1.8,4-4,4S16,23.6,16,21.4z"/>
</svg>
