<?xml version="1.0" encoding="utf-8"?>
<!-- Generator: Adobe Illustrator 25.1.0, SVG Export Plug-In . SVG Version: 6.00 Build 0)  -->
<svg version="1.1" id="Layer_1" xmlns="http://www.w3.org/2000/svg" xmlns:xlink="http://www.w3.org/1999/xlink" x="0px" y="0px"
	 viewBox="0 0 1000 1000" style="enable-background:new 0 0 1000 1000;" xml:space="preserve">
<g>
	<path d="M594.1,250c17.2,0,31.2-14,31.2-31.2s-13.9-31.2-31.2-31.2h-0.3c-17.3,0-31.1,14-31.1,31.2S576.8,250,594.1,250z"/>
	<path d="M500.3,250c17.3,0,31.2-14,31.2-31.2s-13.9-31.2-31.2-31.2H500c-17.3,0-31.1,14-31.1,31.2S483,250,500.3,250z"/>
	<path d="M718.6,468.7v-31.2c0-51.7-42.1-93.8-93.8-93.8v-31.2c0-17.2-14-31.2-31.2-31.2s-31.2,13.9-31.2,31.2v31.2h-31.2v-31.2
		c0-17.2-14-31.2-31.2-31.2s-31.2,13.9-31.2,31.2v31.2h-31.2v-31.2c0-17.2-14-31.2-31.2-31.2s-31.2,13.9-31.2,31.2v31.2
		c-51.7,0-93.8,42.1-93.8,93.8v31.2c-51.7,0-93.8,42.1-93.8,93.8v218.8c0,17.2,13.9,31.2,31.2,31.2h562.4c17.3,0,31.3-14,31.2-31.2
		V562.5C812.4,510.8,770.3,468.7,718.6,468.7z M343.8,437.6c0-17.2,14-31.2,31.2-31.2h250.1c17.2,0,31.2,14,31.2,31.2v31.2H343.8
		V437.6z M750,750H250v-97.9c38.7,24.9,88.3,24.5,126.7-1.1c18-12,41.2-12,59.1,0c39,26,89.4,26,128.4,0c18-12,41.2-12,59.1,0
		c38.4,25.6,87.9,25.9,126.7,1.1V750z M750.1,583.8c-11.7,3.3-22.8,8.4-33,15.2c-18,12-41.2,12-59.1,0c-19.5-13-41.9-19.5-64.2-19.5
		c-22.4,0-44.8,6.5-64.2,19.5c-18,12-41.2,12-59.1,0c-39-26-89.4-26-128.4,0c-18,12-41.2,12-59.1,0c-10.2-6.8-21.4-11.9-33-15.2
		v-21.3c0-17.2,14-31.2,31.2-31.2h437.7c17.2,0,31.2,14,31.2,31.2V583.8z"/>
	<path d="M406.6,250c17.2,0,31.2-14,31.2-31.2s-13.9-31.2-31.2-31.2h-0.3c-17.3,0-31.1,14-31.1,31.2S389.3,250,406.6,250z"/>
</g>
</svg>
