<?xml version="1.0" encoding="utf-8"?>
<!-- Generator: Adobe Illustrator 25.0.1, SVG Export Plug-In . SVG Version: 6.00 Build 0)  -->
<svg version="1.1" id="Layer_1" xmlns="http://www.w3.org/2000/svg" xmlns:xlink="http://www.w3.org/1999/xlink" x="0px" y="0px"
	 viewBox="0 0 40 40" style="enable-background:new 0 0 40 40;" xml:space="preserve">
<style type="text/css">
	.st0{fill:none;}
	.st1{fill:#E8E9F3;}
</style>
<rect class="st0" width="40" height="40"/>
<path class="st1" d="M29,30H11c-0.6,0-1-0.4-1-1v-7c0-1.7,1.3-3,3-3v-1c0-1.7,1.3-3,3-3v-1c0-0.6,0.4-1,1-1s1,0.4,1,1v1h1v-1
	c0-0.6,0.4-1,1-1s1,0.4,1,1v1h1v-1c0-0.6,0.4-1,1-1s1,0.4,1,1v1c1.7,0,3,1.3,3,3v1c1.7,0,3,1.3,3,3v7C30,29.6,29.6,30,29,30z M12,28
	h16v-3.1c-1.2,0.8-2.8,0.8-4.1,0c-0.6-0.4-1.3-0.4-1.9,0c-1.2,0.8-2.9,0.8-4.1,0c-0.6-0.4-1.3-0.4-1.9,0c-1.2,0.8-2.8,0.8-4.1,0V28z
	 M23,22.5c0.7,0,1.4,0.2,2.1,0.6c0.6,0.4,1.3,0.4,1.9,0c0.3-0.2,0.7-0.4,1.1-0.5V22c0-0.6-0.4-1-1-1H13c-0.6,0-1,0.4-1,1v0.7
	c0.4,0.1,0.7,0.3,1.1,0.5c0.6,0.4,1.3,0.4,1.9,0c1.2-0.8,2.9-0.8,4.1,0c0.6,0.4,1.3,0.4,1.9,0C21.6,22.8,22.3,22.5,23,22.5z M15,19
	h10v-1c0-0.6-0.4-1-1-1h-8c-0.6,0-1,0.4-1,1V19z M23,12c-0.6,0-1-0.4-1-1s0.4-1,1-1h0c0.6,0,1,0.4,1,1S23.6,12,23,12z M20,12
	c-0.6,0-1-0.4-1-1s0.4-1,1-1h0c0.6,0,1,0.4,1,1S20.6,12,20,12z M17,12c-0.6,0-1-0.4-1-1s0.4-1,1-1h0c0.6,0,1,0.4,1,1S17.6,12,17,12z
	"/>
</svg>
