<?xml version="1.0" encoding="utf-8"?>
<!-- Generator: Adobe Illustrator 25.1.0, SVG Export Plug-In . SVG Version: 6.00 Build 0)  -->
<svg version="1.1" id="Layer_1" xmlns="http://www.w3.org/2000/svg" xmlns:xlink="http://www.w3.org/1999/xlink" x="0px" y="0px"
	 viewBox="0 0 1000 1000" style="enable-background:new 0 0 1000 1000;" xml:space="preserve">
<g>
	<path d="M406.6,531.4h-0.3c-17.3,0-31.1,14-31.1,31.2s14.1,31.2,31.4,31.2c17.2,0,31.2-14,31.2-31.2S423.9,531.4,406.6,531.4z"/>
	<path d="M406.6,437.6h-0.3c-17.3,0-31.1,14-31.1,31.2s14.1,31.2,31.4,31.2c17.2,0,31.2-14,31.2-31.2S423.9,437.6,406.6,437.6z"/>
	<path d="M406.2,375h187.6c17.2,0,31.1-14,31.1-31.2s-13.9-31.2-31.2-31.2H406.2c-17.2,0-31.2,14-31.2,31.2S388.9,375,406.2,375z"/>
	<path d="M500.3,625H500c-17.3,0-31.1,14.1-31.1,31.3s14.1,31.2,31.4,31.2s31.2-14.1,31.2-31.3S517.6,625,500.3,625z"/>
	<path d="M406.5,625h-0.3c-17.2,0-31,14.1-31,31.3s14.1,31.2,31.4,31.2c17.2,0,31.1-14.1,31.1-31.3S423.8,625,406.5,625z"/>
	<path d="M593.8,531.3c-17.2,0-31.2,13.9-31.2,31.2v93.8c0,17.2,13.9,31.2,31.2,31.2c17.2,0,31.2-14,31.2-31.2v-93.8
		C625,545.3,611,531.3,593.8,531.3z"/>
	<path d="M656.3,187.4H343.8c-51.7,0-93.8,42.1-93.8,93.8v437.5c0,51.7,42.1,93.8,93.8,93.8h312.4c51.7,0,93.8-42.1,93.9-93.8V281.2
		C750.1,229.5,708,187.4,656.3,187.4z M687.5,718.7c0,17.2-14,31.2-31.2,31.2H343.8c-17.2,0-31.2-14-31.2-31.2V281.2
		c0-17.2,14-31.2,31.2-31.2h312.5c17.2,0,31.2,14,31.2,31.2V718.7z"/>
	<path d="M500.3,531.4H500c-17.3,0-31.1,14-31.1,31.2s14.1,31.2,31.4,31.2s31.2-14,31.2-31.2S517.6,531.4,500.3,531.4z"/>
	<path d="M594.1,437.6h-0.3c-17.3,0-31.1,14-31.1,31.2s14.1,31.2,31.4,31.2c17.2,0,31.2-14,31.2-31.2S611.4,437.6,594.1,437.6z"/>
	<path d="M500.3,437.6H500c-17.3,0-31.1,14-31.1,31.2S483,500,500.3,500s31.2-14,31.2-31.2S517.6,437.6,500.3,437.6z"/>
</g>
</svg>
