<?xml version="1.0" encoding="utf-8"?>
<!-- Generator: Adobe Illustrator 25.1.0, SVG Export Plug-In . SVG Version: 6.00 Build 0)  -->
<svg version="1.1" id="Layer_1" xmlns="http://www.w3.org/2000/svg" xmlns:xlink="http://www.w3.org/1999/xlink" x="0px" y="0px"
	 viewBox="0 0 1000 1000" style="enable-background:new 0 0 1000 1000;" xml:space="preserve">
<g>
	<path d="M718.5,250H656v-31.2c0-17.2-14-31.2-31.2-31.2s-31.2,13.9-31.2,31.2V250H406.1v-31.3c0-17.2-14-31.2-31.2-31.2
		s-31.2,13.9-31.2,31.2v31.2h-62.5c-51.7,0-93.8,42.1-93.8,93.8v375c0,51.7,42.1,93.8,93.8,93.8h437.6c51.6,0,93.7-42.1,93.5-93.7
		v-375C812.3,292.1,770.2,250,718.5,250z M749.9,718.7c0,17.2-14,31.2-31.2,31.2H281.2c-17.2,0-31.2-14-31.2-31.2v-375
		c0-17.2,14-31.2,31.2-31.2h62.6v31.2c0,17.2,14,31.2,31.2,31.2s31.2-13.9,31.2-31.2v-31.2h187.6v31.2c0,17.2,14,31.2,31.2,31.2
		s31.2-13.9,31.2-31.2v-31.2h62.5c17.2,0,31.2,14,31.2,31.2V718.7z"/>
	<path d="M656.3,437.6H343.8c-17.2,0-31.2,14-31.2,31.2s13.9,31.2,31.2,31.2h312.4c17.3,0,31.3-14,31.3-31.2
		S673.6,437.6,656.3,437.6z"/>
</g>
</svg>
