<?xml version="1.0" encoding="utf-8"?>
<!-- Generator: Adobe Illustrator 25.1.0, SVG Export Plug-In . SVG Version: 6.00 Build 0)  -->
<svg version="1.1" id="Layer_1" xmlns="http://www.w3.org/2000/svg" xmlns:xlink="http://www.w3.org/1999/xlink" x="0px" y="0px"
	 viewBox="0 0 1000 1000" style="enable-background:new 0 0 1000 1000;" xml:space="preserve">
<g>
	<path d="M718.8,312.4h-29.1c-10.5,0-20.2-5.2-26-13.9l-25.4-38.1c-17.4-26.1-46.6-41.7-78-41.7H439.7c-31.4,0-60.6,15.6-78,41.7
		l-25.4,38.1c-5.8,8.7-15.5,13.9-26,13.9h-29.1c-51.7,0-93.8,42.1-93.8,93.8v281.2c0,51.7,42.1,93.8,93.8,93.8h437.6
		c51.6,0,93.7-42,93.8-93.8V406.2C812.6,354.5,770.5,312.4,718.8,312.4z M749.9,687.4c0,17.2-14,31.2-31.2,31.2H281.2
		c-17.2,0-31.2-14-31.2-31.2V406.2c0-17.2,14-31.2,31.2-31.2h29.1c31.4,0,60.6-15.6,78-41.7l25.4-38.1c5.8-8.7,15.5-13.9,26-13.9
		h120.5c10.5,0,20.2,5.2,26,13.9l25.4,38.1c17.5,26.1,46.6,41.7,78,41.7h29.1c17.2,0,31.2,14,31.2,31.2V687.4z"/>
	<path d="M500,406.2c-68.9,0-125,56.1-125,125s56.1,125,125,125s125-56,125-125C625,462.3,568.9,406.2,500,406.2z M500,593.8
		c-34.5,0-62.5-28-62.5-62.5s28-62.5,62.5-62.5s62.5,28,62.5,62.5S534.5,593.8,500,593.8z"/>
</g>
</svg>
