<?xml version="1.0" encoding="utf-8"?>
<!-- Generator: Adobe Illustrator 25.0.1, SVG Export Plug-In . SVG Version: 6.00 Build 0)  -->
<svg version="1.1" id="Layer_1" xmlns="http://www.w3.org/2000/svg" xmlns:xlink="http://www.w3.org/1999/xlink" x="0px" y="0px"
	 viewBox="0 0 40 40" style="enable-background:new 0 0 40 40;" xml:space="preserve">
<style type="text/css">
	.st0{fill:none;}
	.st1{fill:#E8E9F3;}
</style>
<rect class="st0" width="40" height="40"/>
<path class="st1" d="M27,28H17c-1.7,0-3-1.3-3-3v-1h-1c-1.7,0-3-1.3-3-3v-6c0-1.7,1.3-3,3-3h10c1.7,0,3,1.3,3,3v1h1c1.7,0,3,1.3,3,3
	v6C30,26.7,28.7,28,27,28z M16,23v2c0,0.6,0.4,1,1,1h10c0.6,0,1-0.4,1-1v-6c0-0.6-0.4-1-1-1H17c-0.6,0-1,0.4-1,1V23z M13,14
	c-0.6,0-1,0.4-1,1v6c0,0.6,0.4,1,1,1h1v-3c0-1.7,1.3-3,3-3h7v-1c0-0.6-0.4-1-1-1H13z M22,25c-1.7,0-3-1.3-3-3s1.3-3,3-3s3,1.3,3,3
	S23.7,25,22,25z M22,21c-0.6,0-1,0.4-1,1s0.4,1,1,1s1-0.4,1-1S22.6,21,22,21z"/>
</svg>
