<?xml version="1.0" encoding="utf-8"?>
<!-- Generator: Adobe Illustrator 25.1.0, SVG Export Plug-In . SVG Version: 6.00 Build 0)  -->
<svg version="1.1" id="Layer_1" xmlns="http://www.w3.org/2000/svg" xmlns:xlink="http://www.w3.org/1999/xlink" x="0px" y="0px"
	 viewBox="0 0 1000 1000" style="enable-background:new 0 0 1000 1000;" xml:space="preserve">
<g>
	<path d="M718.7,375h-31.2v-31.2c0-51.7-42.1-93.8-93.8-93.8H281.2c-51.7,0-93.8,42.1-93.8,93.8v187.4c0,51.7,42.1,93.8,93.8,93.8
		h31.2v31.2c0,51.7,42.1,93.8,93.8,93.8h312.6c51.6,0,93.7-42.1,93.7-93.7V468.8C812.5,417.1,770.4,375,718.7,375z M312.4,468.6
		v93.8h-31.2c-17.2,0-31.2-14-31.2-31.2V343.7c0-17.2,14-31.2,31.2-31.2v-0.1h312.6c17.2,0,31.2,14,31.2,31.2v31.2H406.2
		C354.5,374.8,312.4,416.9,312.4,468.6z M749.9,656.3c0,17.2-14,31.2-31.2,31.2H406.2c-17.2,0-31.2-14-31.2-31.2v-62.5v-125
		c0-17.2,14-31.2,31.2-31.2h312.5c17.2,0,31.2,14,31.2,31.2V656.3z"/>
	<path d="M562.5,468.6c-51.7,0-93.8,42.1-93.8,93.8s42.1,93.8,93.8,93.8s93.8-42.1,93.8-93.8C656.3,510.7,614.2,468.6,562.5,468.6z
		 M562.5,593.6c-17.2,0-31.2-14-31.2-31.2s14-31.2,31.2-31.2s31.2,14,31.2,31.2S579.7,593.6,562.5,593.6z"/>
</g>
</svg>
