<?xml version="1.0" encoding="utf-8"?>
<!-- Generator: Adobe Illustrator 25.1.0, SVG Export Plug-In . SVG Version: 6.00 Build 0)  -->
<svg version="1.1" id="Layer_1" xmlns="http://www.w3.org/2000/svg" xmlns:xlink="http://www.w3.org/1999/xlink" x="0px" y="0px"
	 viewBox="0 0 1000 1000" style="enable-background:new 0 0 1000 1000;" xml:space="preserve">
<g>
	<path d="M500,437.6c-17.2,0-31.2,13.9-31.2,31.2V625c0,17.2,13.9,31.2,31.2,31.2s31.2-13.9,31.2-31.2V468.8
		C531.2,451.6,517.2,437.6,500,437.6z"/>
	<path d="M375,531.3c-17.2,0-31.2,13.9-31.2,31.2V625c0,17.2,13.9,31.2,31.2,31.2s31.2-13.9,31.2-31.2v-62.5
		C406.2,545.3,392.2,531.3,375,531.3z"/>
	<path d="M625,343.8c-17.2,0-31.2,13.9-31.2,31.2v250c0,17.2,13.9,31.2,31.2,31.2s31.2-13.9,31.2-31.2V375
		C656.2,357.8,642.2,343.8,625,343.8z"/>
	<path d="M687.5,218.6h-375c-51.7,0-93.8,42.1-93.8,93.8v375c0,51.7,42.1,93.8,93.8,93.8h375c51.7,0,93.7-42,93.8-93.8v-375
		C781.3,260.7,739.2,218.6,687.5,218.6z M718.7,687.4c0,17.2-14,31.2-31.2,31.2h-375c-17.2,0-31.2-14-31.2-31.2v-375
		c0-17.2,14-31.2,31.2-31.2h375c17.2,0,31.2,14,31.2,31.2V687.4z"/>
</g>
</svg>
