<?xml version="1.0" encoding="utf-8"?>
<!-- Generator: Adobe Illustrator 25.1.0, SVG Export Plug-In . SVG Version: 6.00 Build 0)  -->
<svg version="1.1" id="Layer_1" xmlns="http://www.w3.org/2000/svg" xmlns:xlink="http://www.w3.org/1999/xlink" x="0px" y="0px"
	 viewBox="0 0 1000 1000" style="enable-background:new 0 0 1000 1000;" xml:space="preserve">
<g>
	<path d="M803.7,509.6c-5.9-6.6-14.4-10.4-23.3-10.4H500.9V219.7c0-8.9-3.8-17.3-10.4-23.3s-15.6-8.8-24.3-7.8
		c-158.4,17.5-277.8,151-277.8,310.6c0,172.3,140.2,312.5,312.5,312.5c159.5,0,293-119.5,310.6-277.8
		C812.5,525,809.6,516.2,803.7,509.6z M500.9,749.2c-137.8,0-250-112.2-250-250c0-115.7,78.5-214.3,187.5-242.2v273.5
		c0,17.2,13.9,31.2,31.2,31.2h273.5C715.2,670.7,616.6,749.2,500.9,749.2z"/>
	<path d="M594.6,436.7h171.5c10.1,0,19.8-5,25.6-13.3s7.3-18.9,3.9-28.5C763.9,305.5,694.5,236,605,204.4c-9.5-3.3-20.1-1.9-28.4,4
		c-8.3,5.8-13.2,15.4-13.2,25.5v171.6C563.4,422.7,577.3,436.7,594.6,436.7z M625.9,282.7c37.8,22,69.5,53.7,91.5,91.5h-91.5V282.7z
		"/>
</g>
</svg>
