<?xml version="1.0" encoding="utf-8"?>
<!-- Generator: Adobe Illustrator 25.1.0, SVG Export Plug-In . SVG Version: 6.00 Build 0)  -->
<svg version="1.1" id="Layer_1" xmlns="http://www.w3.org/2000/svg" xmlns:xlink="http://www.w3.org/1999/xlink" x="0px" y="0px"
	 viewBox="0 0 1000 1000" style="enable-background:new 0 0 1000 1000;" xml:space="preserve">
<path d="M718.8,187.4h-62.5c-51.7,0-93.8,42.1-93.8,93.8v36.6c-9.7-3.5-20.2-5.4-31.2-5.4h-62.5c-51.7,0-93.8,42.1-93.8,93.8v36.6
	c-9.7-3.5-20.2-5.4-31.2-5.4h-62.5c-51.7,0-93.8,42.1-93.8,93.8v187.5c0,51.7,42.1,93.8,93.8,93.8h62.5c24,0,45.9-9,62.5-23.9
	c16.6,14.8,38.5,23.9,62.5,23.9h62.5c24,0,45.9-9,62.5-23.9c16.6,14.8,38.5,23.9,62.5,23.9h62.5c51.6,0,93.7-42.1,93.8-93.8V281.2
	C812.6,229.5,770.5,187.4,718.8,187.4z M374.9,718.7c0,17.2-14,31.2-31.2,31.2h-62.5c-17.2,0-31.2-14-31.2-31.2V531.2
	c0-17.2,14-31.2,31.2-31.2h62.5c17.2,0,31.2,14,31.2,31.2V718.7z M562.4,718.8c0,17.2-14,31.2-31.2,31.2h-62.5
	c-17.2,0-31.2-14-31.2-31.2V406.2c0-17.2,14-31.2,31.2-31.2h62.5c17.2,0,31.2,14,31.2,31.2V718.8z M749.9,718.8
	c0,17.2-14,31.2-31.2,31.2h-62.5c-17.2,0-31.2-14-31.2-31.2V281.2c0-17.2,14-31.2,31.2-31.2h62.5c17.2,0,31.2,14,31.2,31.2V718.8z"
	/>
</svg>
