<?xml version="1.0" encoding="utf-8"?>
<!-- Generator: Adobe Illustrator 25.1.0, SVG Export Plug-In . SVG Version: 6.00 Build 0)  -->
<svg version="1.1" id="Layer_1" xmlns="http://www.w3.org/2000/svg" xmlns:xlink="http://www.w3.org/1999/xlink" x="0px" y="0px"
	 viewBox="0 0 1000 1000" style="enable-background:new 0 0 1000 1000;" xml:space="preserve">
<g>
	<path d="M375.3,468.8H375c-17.3,0-31.1,14-31.1,31.2s14.1,31.2,31.4,31.2c17.3,0,31.2-14,31.2-31.2S392.6,468.8,375.3,468.8z"/>
	<path d="M500.3,468.8H500c-17.3,0-31.1,14-31.1,31.2s14.1,31.2,31.4,31.2s31.3-14,31.3-31.2S517.6,468.8,500.3,468.8z"/>
	<path d="M625.3,468.8H625c-17.3,0-31.1,14-31.1,31.2s14.1,31.2,31.4,31.2s31.2-14,31.2-31.2S642.6,468.8,625.3,468.8z"/>
	<path d="M500,218.8c-172.3,0-312.5,126.1-312.5,281.2c0,48.5,13.8,95.8,40,137.8l-38,101.2c-3.9,10.6-1.9,22.6,5.5,31.2
		c6,7.1,14.7,11,23.8,11c2,0,4-0.2,6-0.6l138.4-27.7c42.4,18.5,89.4,28.3,136.8,28.3c172.3,0,312.5-126.1,312.5-281.2
		C812.5,345,672.3,218.8,500,218.8z M500,718.8c-41.7,0-83.1-9.2-119.5-26.6c-4.3-2.1-8.9-3.1-13.5-3.1c-2,0-4.1,0.2-6.1,0.6
		l-93.1,18.6l23.8-63.6c3.7-9.7,2.2-20.6-3.8-29.1C263.1,581,250,541,250,500c0-120.6,112.2-218.8,250-218.8S750,379.4,750,500
		C750,620.7,637.8,718.8,500,718.8z"/>
</g>
</svg>
