<?xml version="1.0" encoding="utf-8"?>
<!-- Generator: Adobe Illustrator 25.1.0, SVG Export Plug-In . SVG Version: 6.00 Build 0)  -->
<svg version="1.1" id="Layer_1" xmlns="http://www.w3.org/2000/svg" xmlns:xlink="http://www.w3.org/1999/xlink" x="0px" y="0px"
	 viewBox="0 0 1000 1000" style="enable-background:new 0 0 1000 1000;" xml:space="preserve">
<g>
	<path d="M718.6,203H281.1c-51.7,0-93.8,42.1-93.8,93.8v250c0,51.7,42.1,93.8,93.8,93.8h93.8v125c0,12.7,7.6,24.1,19.3,28.9
		c3.9,1.6,8,2.4,12,2.4c8.2,0,16.2-3.2,22.1-9.2l147.1-147.1h143.2c51.7,0,93.8-42.1,93.8-93.8v-250
		C812.4,245.1,770.3,203,718.6,203z M749.8,546.7c0,17.2-14,31.2-31.2,31.2H562.4c-8.3,0-16.2,3.3-22.1,9.2L437.4,690v-80.8
		c0-17.2-13.9-31.2-31.2-31.2h-125c-17.2,0-31.2-14-31.2-31.2v-250c0-17.2,14-31.2,31.2-31.2v-0.1h437.4c17.2,0,31.2,14,31.2,31.2
		V546.7z"/>
</g>
</svg>
