<?xml version="1.0" encoding="utf-8"?>
<!-- Generator: Adobe Illustrator 25.0.1, SVG Export Plug-In . SVG Version: 6.00 Build 0)  -->
<svg version="1.1" id="Layer_1" xmlns="http://www.w3.org/2000/svg" xmlns:xlink="http://www.w3.org/1999/xlink" x="0px" y="0px"
	 viewBox="0 0 40 40" style="enable-background:new 0 0 40 40;" xml:space="preserve">
<style type="text/css">
	.st0{fill:none;}
	.st1{fill:#E8E9F3;}
</style>
<rect class="st0" width="40" height="40"/>
<rect class="st0" width="40" height="40"/>
<path class="st1" d="M11,29c-0.3,0-0.6-0.1-0.8-0.4s-0.3-0.7-0.2-1l1.2-3.2C10.4,23.1,10,21.6,10,20c0-5,4.5-9,10-9s10,4,10,9
	s-4.5,9-10,9c-1.5,0-3-0.3-4.4-0.9L11.2,29C11.1,29,11.1,29,11,29z M15.7,26.1c0.1,0,0.3,0,0.4,0.1c1.2,0.6,2.5,0.9,3.8,0.9
	c4.4,0,8-3.1,8-7s-3.6-7-8-7s-8,3.1-8,7c0,1.3,0.4,2.6,1.2,3.7c0.2,0.3,0.2,0.6,0.1,0.9l-0.8,2l3-0.6C15.6,26.1,15.7,26.1,15.7,26.1
	z"/>
</svg>
