<?xml version="1.0" encoding="utf-8"?>
<!-- Generator: Adobe Illustrator 25.0.1, SVG Export Plug-In . SVG Version: 6.00 Build 0)  -->
<svg version="1.1" id="Layer_1" xmlns="http://www.w3.org/2000/svg" xmlns:xlink="http://www.w3.org/1999/xlink" x="0px" y="0px"
	 viewBox="0 0 40 40" style="enable-background:new 0 0 40 40;" xml:space="preserve">
<style type="text/css">
	.st0{fill:#E8E9F2;}
	.st1{fill:none;}
</style>
<path class="st0" d="M26,11H14c-1.7,0-3,1.3-3,3v12c0,1.7,1.3,3,3,3h12c1.7,0,3-1.3,3-3V14C29,12.3,27.7,11,26,11z M27,15.5V20v2
	v3.7V26c0,0.6-0.4,1-1,1H14c-0.6,0-1-0.4-1-1v-0.3V22v-2v-4.5V14c0-0.6,0.4-1,1-1h12c0.6,0,1,0.4,1,1V15.5z"/>
<rect class="st1" width="40" height="40"/>
<path class="st0" d="M18.1,24.8c-0.3,0-0.5-0.1-0.7-0.3l-3.1-3c-0.4-0.4-0.4-1,0-1.4s1-0.4,1.4,0l2.4,2.3l6.2-6.3
	c0.4-0.4,1-0.4,1.4,0s0.4,1,0,1.4l-6.9,7C18.6,24.7,18.3,24.8,18.1,24.8z"/>
</svg>
