<?xml version="1.0" encoding="utf-8"?>
<!-- Generator: Adobe Illustrator 25.0.1, SVG Export Plug-In . SVG Version: 6.00 Build 0)  -->
<svg version="1.1" id="Layer_1" xmlns="http://www.w3.org/2000/svg" xmlns:xlink="http://www.w3.org/1999/xlink" x="0px" y="0px"
	 viewBox="0 0 40 40" style="enable-background:new 0 0 40 40;" xml:space="preserve">
<style type="text/css">
	.st0{fill:none;}
	.st1{fill:#E8E9F3;}
</style>
<rect class="st0" width="40" height="40"/>
<path class="st1" d="M23,30c-0.6,0-1-0.4-1-1v-1h-4v1c0,0.6-0.4,1-1,1s-1-0.4-1-1v-1h-1c-1.7,0-3-1.3-3-3v-1h-1c-0.6,0-1-0.4-1-1
	s0.4-1,1-1h1v-4h-1c-0.6,0-1-0.4-1-1s0.4-1,1-1h1v-1c0-1.7,1.3-3,3-3h1v-1c0-0.6,0.4-1,1-1s1,0.4,1,1v1h4v-1c0-0.6,0.4-1,1-1
	s1,0.4,1,1v1h1c1.7,0,3,1.3,3,3v1h1c0.6,0,1,0.4,1,1s-0.4,1-1,1h-1v4h1c0.6,0,1,0.4,1,1s-0.4,1-1,1h-1v1c0,1.7-1.3,3-3,3h-1v1
	C24,29.6,23.6,30,23,30z M14,23v2c0,0.6,0.4,1,1,1h10c0.6,0,1-0.4,1-1V15c0-0.6-0.4-1-1-1H15c-0.6,0-1,0.4-1,1V23z M23,24h-6
	c-0.6,0-1-0.4-1-1v-6c0-0.6,0.4-1,1-1h6c0.6,0,1,0.4,1,1v6C24,23.6,23.6,24,23,24z M18,22h4v-4h-4V22z"/>
</svg>
