<?xml version="1.0" encoding="utf-8"?>
<!-- Generator: Adobe Illustrator 25.1.0, SVG Export Plug-In . SVG Version: 6.00 Build 0)  -->
<svg version="1.1" id="Layer_1" xmlns="http://www.w3.org/2000/svg" xmlns:xlink="http://www.w3.org/1999/xlink" x="0px" y="0px"
	 viewBox="0 0 1000 1000" style="enable-background:new 0 0 1000 1000;" xml:space="preserve">
<g>
	<path d="M781.2,562.4H750v-125h31c17.2,0,31.2-14,31.2-31.2S798.3,375,781,375h-31.2v-31.2c0-51.7-42.1-93.8-93.8-93.8h-31.2v-31.2
		c0-17.2-14-31.2-31.2-31.2s-31.2,13.9-31.2,31.2V250h-125v-31c0-17.2-14-31.2-31.2-31.2S375,201.7,375,219v31.2h-31.2
		c-51.7,0-93.8,42.1-93.8,93.8v31.2h-31.2c-17.2,0-31.2,14-31.2,31.2s13.9,31.2,31.2,31.2H250v125h-31c-17.2,0-31.2,14-31.2,31.2
		S201.7,625,219,625h31.2v31.2c0,51.7,42.1,93.8,93.8,93.8h31.2v31.2c0,17.2,14,31.2,31.2,31.2s31.2-13.9,31.2-31.2V750h125v31.3
		c0,17.2,13.9,31.2,31.2,31.2c17.2,0,31.2-14,31.2-31.5v-31.2h31.2c51.7,0,93.8-42.1,93.8-93.8v-31.2h31.2c17.2,0,31.2-14,31.2-31.2
		S798.5,562.4,781.2,562.4z M687.4,656.3c0,17.2-14,31.2-31.2,31.2H343.7c-17.2,0-31.2-14-31.2-31.2v-62.5h0.1v-250
		c0-17.2,14-31.2,31.2-31.2h312.4c17.2,0,31.2,14,31.2,31.2V656.3z"/>
	<path d="M593.7,375H406.2c-17.2,0-31.2,13.9-31.2,31.2v187.6c0,17.2,13.9,31.2,31.2,31.2h187.6c17.2,0,31.2-14,31.1-31.3V406.2
		C624.9,389,611,375,593.7,375z M562.5,562.5h-125v-125h125V562.5z"/>
</g>
</svg>
