<?xml version="1.0" encoding="utf-8"?>
<!-- Generator: Adobe Illustrator 25.1.0, SVG Export Plug-In . SVG Version: 6.00 Build 0)  -->
<svg version="1.1" id="Layer_1" xmlns="http://www.w3.org/2000/svg" xmlns:xlink="http://www.w3.org/1999/xlink" x="0px" y="0px"
	 viewBox="0 0 1000 1000" style="enable-background:new 0 0 1000 1000;" xml:space="preserve">
<g>
	<path d="M500,312.7c-65.8,0-123.2,31.5-146.2,80.4c-7.3,15.6-0.6,34.2,15,41.6c15.6,7.3,34.2,0.6,41.6-15
		c12.3-26.3,49.2-44.6,89.6-44.6c50.9,0,93.8,28.6,93.8,62.5c0,27.2-28.9,52.5-68.6,60.1c-32.7,6.3-56.4,33.6-56.4,64.9
		c0,17.2,13.9,31.2,31.2,31.2s31.2-14,31.2-31.1c0.2-0.7,2.3-2.9,5.7-3.5c70.2-13.4,119.3-63.4,119.3-121.5
		C656.2,368.8,586.2,312.7,500,312.7z"/>
	<path d="M500.3,625H500c-17.3,0-31.1,14.1-31.1,31.3s14.1,31.2,31.4,31.2s31.2-14.1,31.2-31.3S517.6,625,500.3,625z"/>
	<path d="M500,187.5c-172.3,0-312.5,140.2-312.5,312.5S327.7,812.5,500,812.5S812.5,672.3,812.5,500S672.3,187.5,500,187.5z
		 M500,750c-137.8,0-250-112.2-250-250s112.2-250,250-250s250,112.2,250,250S637.8,750,500,750z"/>
</g>
</svg>
