<?xml version="1.0" encoding="utf-8"?>
<!-- Generator: Adobe Illustrator 25.1.0, SVG Export Plug-In . SVG Version: 6.00 Build 0)  -->
<svg version="1.1" id="Layer_1" xmlns="http://www.w3.org/2000/svg" xmlns:xlink="http://www.w3.org/1999/xlink" x="0px" y="0px"
	 viewBox="0 0 1000 1000" style="enable-background:new 0 0 1000 1000;" xml:space="preserve">
<g>
	<path d="M531.2,343.7c-68.9,0-125,56.1-125,125c0,22.7,6,44.5,17.3,63.5l-70.6,70.6c-12.2,12.2-12.2,32,0,44.2
		c6.1,6.1,14.1,9.2,22.1,9.2s16-3,22.1-9.2l70.6-70.6c19,11.3,40.8,17.3,63.5,17.3c68.9,0,125-56.1,125-125S600.1,343.7,531.2,343.7
		z M531.2,531.2c-16.7,0-32.4-6.5-44.2-18.3c-11.8-11.8-18.3-27.5-18.3-44.2c0-34.5,28-62.5,62.5-62.5s62.5,28,62.5,62.5
		S565.7,531.2,531.2,531.2z"/>
	<path d="M500,187.5c-172.3,0-312.5,140.2-312.5,312.5S327.7,812.5,500,812.5S812.5,672.3,812.5,500S672.3,187.5,500,187.5z
		 M500,750c-137.8,0-250-112.2-250-250s112.2-250,250-250s250,112.2,250,250S637.8,750,500,750z"/>
</g>
</svg>
