<?xml version="1.0" encoding="utf-8"?>
<!-- Generator: Adobe Illustrator 25.1.0, SVG Export Plug-In . SVG Version: 6.00 Build 0)  -->
<svg version="1.1" id="Layer_1" xmlns="http://www.w3.org/2000/svg" xmlns:xlink="http://www.w3.org/1999/xlink" x="0px" y="0px"
	 viewBox="0 0 1000 1000" style="enable-background:new 0 0 1000 1000;" xml:space="preserve">
<g>
	<path d="M500.3,406.2c17.3,0,31.2-14,31.2-31.2s-13.9-31.2-31.2-31.2H500c-17.3,0-31.1,14-31.1,31.2S483,406.2,500.3,406.2z"/>
	<path d="M500,187.5c-172.3,0-312.5,140.2-312.5,312.5S327.7,812.5,500,812.5S812.5,672.3,812.5,500S672.3,187.5,500,187.5z
		 M500,750c-137.8,0-250-112.2-250-250s112.2-250,250-250s250,112.2,250,250S637.8,750,500,750z"/>
	<path d="M531.2,593.8V500c0-17.2-13.9-31.2-31.2-31.2h-31.2c-17.2,0-31.2,14-31.2,31.2s13.9,31.2,31.2,31.2V625
		c0,17.2,13.9,31.2,31.2,31.2h31.2c17.3,0,31.2-14,31.2-31.2S548.5,593.8,531.2,593.8z"/>
</g>
</svg>
