<?xml version="1.0" encoding="utf-8"?>
<!-- Generator: Adobe Illustrator 25.1.0, SVG Export Plug-In . SVG Version: 6.00 Build 0)  -->
<svg version="1.1" id="Layer_1" xmlns="http://www.w3.org/2000/svg" xmlns:xlink="http://www.w3.org/1999/xlink" x="0px" y="0px"
	 viewBox="0 0 1000 1000" style="enable-background:new 0 0 1000 1000;" xml:space="preserve">
<g>
	<path d="M375.3,468.8H375c-17.3,0-31.1,14-31.1,31.2s14.1,31.2,31.4,31.2c17.3,0,31.2-14,31.2-31.2S392.6,468.8,375.3,468.8z"/>
	<path d="M500,187.5c-172.3,0-312.5,140.2-312.5,312.5S327.7,812.5,500,812.5S812.5,672.3,812.5,500S672.3,187.5,500,187.5z
		 M500,750c-137.8,0-250-112.2-250-250s112.2-250,250-250s250,112.2,250,250S637.8,750,500,750z"/>
	<path d="M500.3,468.8H500c-17.3,0-31.1,14-31.1,31.2s14.1,31.2,31.4,31.2s31.2-14,31.2-31.2S517.6,468.8,500.3,468.8z"/>
	<path d="M625.3,468.8H625c-17.3,0-31.1,14-31.1,31.2s14.1,31.2,31.4,31.2s31.2-14,31.2-31.2S642.6,468.8,625.3,468.8z"/>
</g>
</svg>
