<?xml version="1.0" encoding="utf-8"?>
<!-- Generator: Adobe Illustrator 25.0.1, SVG Export Plug-In . SVG Version: 6.00 Build 0)  -->
<svg version="1.1" id="Layer_1" xmlns="http://www.w3.org/2000/svg" xmlns:xlink="http://www.w3.org/1999/xlink" x="0px" y="0px"
	 viewBox="0 0 40 40" style="enable-background:new 0 0 40 40;" xml:space="preserve">
<style type="text/css">
	.st0{fill:none;}
	.st1{fill:#E8E9F3;}
</style>
<rect class="st0" width="40" height="40"/>
<path class="st1" d="M20,30c-2.6,0-5.1-1-7.1-2.9C11,25.2,10,22.7,10,20s1-5.2,2.9-7.1l0,0l0,0l0,0C14.8,11,17.3,10,20,10
	s5.2,1,7.1,2.9c3.9,3.9,3.9,10.2,0,14.1C25.1,29,22.6,30,20,30z M13.7,15.1C12.6,16.5,12,18.2,12,20c0,2.1,0.8,4.1,2.3,5.7
	c2.9,2.9,7.4,3.1,10.6,0.7L13.7,15.1z M15.1,13.7l11.2,11.2c2.4-3.1,2.2-7.7-0.7-10.6C24.1,12.8,22.1,12,20,12
	C18.2,12,16.5,12.6,15.1,13.7z"/>
</svg>
