<?xml version="1.0" encoding="utf-8"?>
<!-- Generator: Adobe Illustrator 25.1.0, SVG Export Plug-In . SVG Version: 6.00 Build 0)  -->
<svg version="1.1" id="Layer_1" xmlns="http://www.w3.org/2000/svg" xmlns:xlink="http://www.w3.org/1999/xlink" x="0px" y="0px"
	 viewBox="0 0 1000 1000" style="enable-background:new 0 0 1000 1000;" xml:space="preserve">
<g>
	<path d="M500,312.5c-68.9,0-125,56.1-125,125s56.1,125,125,125s125-56.1,125-125S568.9,312.5,500,312.5z M500,500
		c-34.5,0-62.5-28-62.5-62.5s28-62.5,62.5-62.5s62.5,28,62.5,62.5S534.5,500,500,500z"/>
	<path d="M500,187.5c-172.3,0-312.5,140.2-312.5,312.5c0,75.5,27,144.9,71.8,199c1.2,1.8,2.6,3.4,4.1,4.9
		c57.3,66.5,142.1,108.6,236.6,108.6s179.3-42.1,236.6-108.6c1.5-1.5,2.9-3.1,4.1-4.9c44.9-54,71.8-123.4,71.8-199
		C812.5,327.7,672.3,187.5,500,187.5z M500,750c-61.9,0-118.6-22.6-162.3-60c101.8-44.4,222.8-44.4,324.6,0
		C618.6,727.4,561.9,750,500,750z M706.1,641.4c-127.6-62.5-284.5-62.5-412.2,0c-27.7-40.3-43.9-89-43.9-141.4
		c0-137.8,112.2-250,250-250s250,112.2,250,250C750,552.4,733.8,601.1,706.1,641.4z"/>
</g>
</svg>
