<?xml version="1.0" encoding="utf-8"?>
<!-- Generator: Adobe Illustrator 25.1.0, SVG Export Plug-In . SVG Version: 6.00 Build 0)  -->
<svg version="1.1" id="Layer_1" xmlns="http://www.w3.org/2000/svg" xmlns:xlink="http://www.w3.org/1999/xlink" x="0px" y="0px"
	 viewBox="0 0 1000 1000" style="enable-background:new 0 0 1000 1000;" xml:space="preserve">
<g>
	<path d="M571.7,415.4L468.8,518.3l-40.4-40.4c-12.2-12.2-32-12.2-44.2,0s-12.2,32,0,44.2l62.5,62.5c6.1,6.1,14.1,9.2,22.1,9.2
		c7.9,0,15.9-3.1,22.1-9.2l125-125c12.2-12.2,12.2-32,0-44.2S583.9,403.2,571.7,415.4z"/>
	<path d="M500,187.5c-172.3,0-312.5,140.2-312.5,312.5S327.7,812.5,500,812.5S812.5,672.3,812.5,500S672.3,187.5,500,187.5z
		 M500,750c-137.8,0-250-112.2-250-250s112.2-250,250-250s250,112.2,250,250S637.8,750,500,750z"/>
</g>
</svg>
