<?xml version="1.0" encoding="utf-8"?>
<!-- Generator: Adobe Illustrator 25.1.0, SVG Export Plug-In . SVG Version: 6.00 Build 0)  -->
<svg version="1.1" id="Layer_1" xmlns="http://www.w3.org/2000/svg" xmlns:xlink="http://www.w3.org/1999/xlink" x="0px" y="0px"
	 viewBox="0 0 1000 1000" style="enable-background:new 0 0 1000 1000;" xml:space="preserve">
<g>
	<path d="M687.4,656.3c-17.2,0-31.2,13.9-31.2,31.2v31.2c0,17.2-14,31.2-31.2,31.2H312.5c-17.2,0-31.2-14-31.2-31.2v-375
		c0-17.2,14-31.2,31.2-31.2h36.6c12.9,36.4,47.7,62.5,88.4,62.5H500c40.7,0,75.5-26.1,88.6-62.5h36.6c17.2,0,31.2,14,31.2,31.2v93.8
		c0,17.2,14,31.2,31.2,31.2s31.2-13.9,31.2-31.2v-93.8c0-51.7-42.1-93.8-93.8-93.8h-36.6c-12.9-36.4-47.7-62.5-88.4-62.5h-62.5
		c-40.7,0-75.5,26.1-88.4,62.5h-36.6c-51.7,0-93.8,42.1-93.8,93.8v375c0,51.7,42.1,93.8,93.8,93.8H625c51.7,0,93.8-42.1,93.6-93.8
		v-31.2C718.6,670.3,704.6,656.3,687.4,656.3z M437.5,250H500c17.2,0,31.2,14,31.2,31.2s-14,31.2-31.2,31.2h-62.6
		c-17.2,0-31.2-14-31.2-31.2S420.3,250,437.5,250z"/>
	<path d="M750,531.1H512.9l40.4-40.4c12.2-12.2,12.2-32,0-44.2s-32-12.2-44.2,0l-93.8,93.8c-3,3-5.3,6.5-6.8,10.2
		c-1.5,3.6-2.3,7.6-2.3,11.8c0,0.1,0,0.1,0,0.2c0,4.2,0.8,8.2,2.3,11.8c1.5,3.7,3.8,7.2,6.8,10.2l93.8,93.8
		c6.1,6.1,14.1,9.2,22.1,9.2s16-3.1,22.1-9.4c12.2-12.2,12.2-32,0-44.2l-40.4-40.4H750c17.2,0,31.2-14,31.2-31.2
		S767.3,531.1,750,531.1z"/>
</g>
</svg>
