<?xml version="1.0" encoding="utf-8"?>
<!-- Generator: Adobe Illustrator 25.0.1, SVG Export Plug-In . SVG Version: 6.00 Build 0)  -->
<svg version="1.1" id="Layer_1" xmlns="http://www.w3.org/2000/svg" xmlns:xlink="http://www.w3.org/1999/xlink" x="0px" y="0px"
	 viewBox="0 0 40 40" style="enable-background:new 0 0 40 40;" xml:space="preserve">
<style type="text/css">
	.st0{fill:none;}
	.st1{fill:#E8E9F3;}
</style>
<rect class="st0" width="40" height="40"/>
<path class="st1" d="M17.8,30c-1.9,0-3.6-0.7-4.9-2.1s-2.1-3-2.1-4.9s0.7-3.6,2.1-4.9l6.4-6.6c1-1,2.2-1.5,3.5-1.5s2.6,0.5,3.5,1.5
	c1.9,1.9,1.9,5.1,0,7.1l-6.4,6.6c-1.2,1.2-3.1,1.1-4.3,0c-1.2-1.2-1.2-3.1,0-4.2l6.6-6.6c0.4-0.4,1-0.4,1.4,0s0.4,1,0,1.4L17,22.3
	c-0.4,0.4-0.4,1,0,1.4s1,0.4,1.4,0l6.4-6.6c1.2-1.2,1.2-3.1,0-4.3c-1.1-1.1-3.1-1.1-4.2,0l-6.4,6.6c-1,1-1.5,2.2-1.5,3.5
	s0.5,2.6,1.5,3.5s2.2,1.5,3.5,1.5s2.6-0.5,3.5-1.5l6.3-6.2c0.4-0.4,1-0.4,1.4,0s0.4,1,0,1.4L22.7,28C21.4,29.3,19.6,30,17.8,30z"/>
</svg>
