<?xml version="1.0" encoding="utf-8"?>
<!-- Generator: Adobe Illustrator 25.0.1, SVG Export Plug-In . SVG Version: 6.00 Build 0)  -->
<svg version="1.1" id="Layer_1" xmlns="http://www.w3.org/2000/svg" xmlns:xlink="http://www.w3.org/1999/xlink" x="0px" y="0px"
	 viewBox="0 0 40 40" style="enable-background:new 0 0 40 40;" xml:space="preserve">
<style type="text/css">
	.st0{fill:none;}
	.st1{fill:#E8E9F3;}
</style>
<rect class="st0" width="40" height="40"/>
<path class="st1" d="M24,30H14c-1.7,0-3-1.3-3-3V15c0-1.7,1.3-3,3-3h1.2c0.4-1.2,1.5-2,2.8-2h2c1.3,0,2.4,0.8,2.8,2H24
	c1.7,0,3,1.3,3,3v3c0,0.6-0.4,1-1,1s-1-0.4-1-1v-3c0-0.6-0.4-1-1-1h-1.2c-0.4,1.2-1.5,2-2.8,2h-2c-1.3,0-2.4-0.8-2.8-2H14
	c-0.6,0-1,0.4-1,1v12c0,0.6,0.4,1,1,1h10c0.6,0,1-0.4,1-1v-1c0-0.6,0.4-1,1-1s1,0.4,1,1v1C27,28.7,25.7,30,24,30z M17,13
	c0,0.6,0.4,1,1,1h2c0.6,0,1-0.4,1-1s-0.4-1-1-1h-2C17.4,12,17,12.4,17,13z M21,26c-0.3,0-0.5-0.1-0.7-0.3l-3-3
	c-0.1-0.1-0.2-0.2-0.2-0.3c0-0.1-0.1-0.2-0.1-0.4l0,0c0,0,0,0,0,0l0,0c0-0.1,0-0.3,0.1-0.4c0-0.1,0.1-0.2,0.2-0.3l3-3
	c0.4-0.4,1-0.4,1.4,0s0.4,1,0,1.4L20.4,21H28c0.6,0,1,0.4,1,1s-0.4,1-1,1h-7.6l1.3,1.3c0.4,0.4,0.4,1,0,1.4C21.5,25.9,21.3,26,21,26
	z"/>
</svg>
