<?xml version="1.0" encoding="utf-8"?>
<!-- Generator: Adobe Illustrator 25.1.0, SVG Export Plug-In . SVG Version: 6.00 Build 0)  -->
<svg version="1.1" id="Layer_1" xmlns="http://www.w3.org/2000/svg" xmlns:xlink="http://www.w3.org/1999/xlink" x="0px" y="0px"
	 viewBox="0 0 1000 1000" style="enable-background:new 0 0 1000 1000;" xml:space="preserve">
<g>
	<path d="M616,509.1l-93.8-93.8c-3-3-6.5-5.3-10.2-6.8c-3.6-1.5-7.6-2.3-11.8-2.3c-0.1,0-0.1,0-0.2,0c-4.2,0-8.2,0.8-11.8,2.3
		c-3.7,1.5-7.2,3.8-10.2,6.8l-93.8,93.8c-12.2,12.2-12.2,32,0,44.2s32,12.2,44.2,0l40.4-40.4v299.7c0,17.2,13.9,31.2,31.2,31.2
		s31.2-14,31.4-31.3V512.9l40.4,40.4c12.2,12.2,32,12.2,44.2,0S628.2,521.3,616,509.1z"/>
	<path d="M646.1,282.4c-25.7-74.4-96.7-126.2-177.2-126.2c-103.4,0-187.5,84.1-187.5,187.5c0,4.3,0.1,8.6,0.4,12.9
		c-56,24.4-94.2,80.8-94.2,143.4c0,86.1,70,156.2,156.2,156.2c17.2,0,31.3-14.2,31.3-31.4s-13.9-31.2-31.2-31.2
		c-51.7,0-93.8-42.1-93.8-93.8c0-43.5,30.7-82,73.1-91.5c16.8-3.7,27.4-20.5,23.6-37.3c-2-8.9-3-18.1-3-27.4
		c0-68.9,56.1-125,125-125c59.2,0,110.8,42.1,122.5,100c3,14.6,18.9,25,33.8,25c68.9,0,125,56.1,125,125
		c0,59.3-42.1,110.8-100,122.5c-16.9,3.5-27.8,20-24.4,36.9c3.5,16.9,19.8,27.6,36.9,24.4c86.9-17.6,150-94.9,150-183.7
		C812.6,372.4,739.6,292.9,646.1,282.4z"/>
</g>
</svg>
