<?xml version="1.0" encoding="utf-8"?>
<!-- Generator: Adobe Illustrator 25.1.0, SVG Export Plug-In . SVG Version: 6.00 Build 0)  -->
<svg version="1.1" id="Layer_1" xmlns="http://www.w3.org/2000/svg" xmlns:xlink="http://www.w3.org/1999/xlink" x="0px" y="0px"
	 viewBox="0 0 1000 1000" style="enable-background:new 0 0 1000 1000;" xml:space="preserve">
<path d="M646.1,376.2C620.4,301.8,549.4,250,468.9,250c-103.4,0-187.5,84.1-187.5,187.5c0,4.3,0.1,8.6,0.4,12.9
	c-56,24.4-94.2,80.8-94.2,143.4c0,86.1,70,156.2,156.2,156.2H625c103.4,0,187.5-84.1,187.6-187.5
	C812.6,466.2,739.6,386.7,646.1,376.2z M625,687.5H343.9c-51.7,0-93.8-42.1-93.8-93.8c0-43.5,30.7-82,73.1-91.5
	c16.8-3.7,27.4-20.5,23.6-37.3c-2-8.9-3-18.1-3-27.4c0-68.9,56.1-125,125-125c59.2,0,110.7,42.1,122.4,100c3,14.6,18.9,25,33.8,25
	c68.9,0,125,56.1,125,125S693.9,687.5,625,687.5z"/>
</svg>
