<?xml version="1.0" encoding="utf-8"?>
<!-- Generator: Adobe Illustrator 25.1.0, SVG Export Plug-In . SVG Version: 6.00 Build 0)  -->
<svg version="1.1" id="Layer_1" xmlns="http://www.w3.org/2000/svg" xmlns:xlink="http://www.w3.org/1999/xlink" x="0px" y="0px"
	 viewBox="0 0 1000 1000" style="enable-background:new 0 0 1000 1000;" xml:space="preserve">
<g>
	<path d="M334.6,352.9c-12.2-12.2-32-12.2-44.2,0l-125,125c-12.2,12.2-12.2,32,0,44.2l125,125c6.1,6.1,14.1,9.2,22.1,9.2
		s16-3.1,22.1-9.2c12.2-12.2,12.2-32,0-44.2L231.7,500l102.9-102.9C346.8,384.9,346.8,365.1,334.6,352.9z"/>
	<path d="M834.6,477.9l-125-125c-12.2-12.2-32-12.2-44.2,0s-12.2,32,0,44.2L768.3,500L665.4,602.9c-12.2,12.2-12.2,32,0,44.2
		c6.1,6.1,14.1,9.2,22.1,9.2s16-3.1,22.1-9.2l125-125C846.8,509.9,846.8,490.1,834.6,477.9z"/>
	<path d="M570.1,219.8c-16.8-4.4-33.7,6-37.9,22.7l-125,500c-4.2,16.8,6,33.7,22.7,37.9c2.5,0.6,5.1,0.9,7.6,0.9
		c14,0,26.8-9.5,30.3-23.6l125-500C597,240.9,586.9,224,570.1,219.8z"/>
</g>
</svg>
