<?xml version="1.0" encoding="utf-8"?>
<!-- Generator: Adobe Illustrator 25.0.1, SVG Export Plug-In . SVG Version: 6.00 Build 0)  -->
<svg version="1.1" id="Layer_1" xmlns="http://www.w3.org/2000/svg" xmlns:xlink="http://www.w3.org/1999/xlink" x="0px" y="0px"
	 viewBox="0 0 40 40" style="enable-background:new 0 0 40 40;" xml:space="preserve">
<style type="text/css">
	.st0{fill:#E8E9F3;}
	.st1{fill:none;}
</style>
<path class="st0" d="M20,30L20,30c-1.3,0-2.3-0.8-2.6-2.1c-0.1-0.2-0.2-0.4-0.4-0.5s-0.5-0.1-0.7,0c-1.1,0.7-2.4,0.5-3.3-0.4
	s-1.1-2.3-0.4-3.3c0.1-0.2,0.1-0.4,0.1-0.7s-0.3-0.4-0.5-0.4C10.8,22.3,10,21.3,10,20s0.8-2.3,2.1-2.6c0.2-0.1,0.4-0.2,0.5-0.4
	s0.1-0.5-0.1-0.7c-0.7-1.1-0.5-2.4,0.4-3.3s2.2-1.1,3.3-0.4c0.2,0.1,0.4,0.1,0.7,0.1c0.2-0.1,0.4-0.3,0.4-0.5l0,0
	c0.4-1.4,1.4-2.2,2.7-2.2s2.3,0.8,2.6,2.1c0.1,0.2,0.2,0.4,0.4,0.5c0.2,0.1,0.5,0.1,0.7-0.1c1.1-0.7,2.4-0.5,3.3,0.4
	s1.1,2.2,0.4,3.3c-0.1,0.2-0.1,0.4,0,0.7c0.1,0.2,0.3,0.4,0.5,0.4c1.2,0.3,2.1,1.4,2.1,2.6c0,1.3-0.8,2.3-2.1,2.6
	c-0.2,0.1-0.4,0.2-0.5,0.4c-0.1,0.2-0.1,0.5,0,0.7c0.7,1.1,0.5,2.4-0.4,3.3s-2.2,1.1-3.3,0.4c-0.2-0.1-0.4-0.1-0.7,0
	c-0.2,0.1-0.4,0.3-0.4,0.5C22.3,29.2,21.3,30,20,30z M16.6,25.4c0.4,0,0.7,0.1,1,0.2c0.8,0.3,1.4,1,1.6,1.9C19.4,28,19.9,28,20,28
	l0,0c0.1,0,0.6,0,0.7-0.6c0.2-0.9,0.8-1.5,1.6-1.9c0.8-0.3,1.7-0.3,2.5,0.2c0.4,0.3,0.8,0,0.9-0.1s0.4-0.4,0.1-0.9
	c-0.5-0.8-0.5-1.6-0.2-2.5c0.3-0.8,1-1.4,1.9-1.6c0.5,0,0.5-0.5,0.5-0.6s0-0.6-0.6-0.7c-0.9-0.2-1.5-0.8-1.9-1.6
	c-0.3-0.8-0.3-1.7,0.2-2.5c0.3-0.5,0-0.8-0.1-0.9c-0.1-0.1-0.4-0.4-0.9-0.1c-0.8,0.5-1.6,0.5-2.5,0.2s-1.4-1-1.6-1.9
	c0-0.5-0.5-0.5-0.6-0.5s-0.6,0-0.7,0.6c-0.2,0.9-0.8,1.5-1.6,1.9c-0.8,0.3-1.7,0.3-2.5-0.2c-0.5-0.3-0.8,0-0.9,0.1
	c-0.1,0.1-0.4,0.4-0.1,0.9c0.5,0.8,0.5,1.6,0.2,2.5c-0.3,0.9-1,1.4-1.9,1.6C12,19.4,12,19.9,12,20s0,0.6,0.6,0.7
	c0.9,0.2,1.5,0.8,1.9,1.6s0.3,1.7-0.2,2.5c-0.3,0.5,0,0.8,0.1,0.9s0.4,0.4,0.9,0.1C15.7,25.5,16.2,25.4,16.6,25.4z"/>
<rect class="st1" width="40" height="40"/>
<path class="st0" d="M20,24c-2.2,0-4-1.8-4-4s1.8-4,4-4s4,1.8,4,4S22.2,24,20,24z M20,18c-1.1,0-2,0.9-2,2s0.9,2,2,2s2-0.9,2-2
	S21.1,18,20,18z"/>
</svg>
