<?xml version="1.0" encoding="utf-8"?>
<!-- Generator: Adobe Illustrator 25.1.0, SVG Export Plug-In . SVG Version: 6.00 Build 0)  -->
<svg version="1.1" id="Layer_1" xmlns="http://www.w3.org/2000/svg" xmlns:xlink="http://www.w3.org/1999/xlink" x="0px" y="0px"
	 viewBox="0 0 1000 1000" style="enable-background:new 0 0 1000 1000;" xml:space="preserve">
<path d="M750,442.8v-36.6c0-40.7-26.1-75.5-62.5-88.4v-36.6c0-51.7-42.1-93.8-93.8-93.8H406.2c-51.7,0-93.8,42.1-93.8,93.8v36.6
	c-36.4,12.9-62.5,47.7-62.5,88.4v36.6c-36.4,12.9-62.5,47.7-62.5,88.4v187.5c0,51.7,42.1,93.8,93.8,93.8h437.6
	c51.6,0,93.7-42.1,93.7-93.8V531.2C812.5,490.5,786.4,455.7,750,442.8z M375,281.3c0-17.2,14-31.2,31.2-31.2h187.6
	c17.2,0,31.2,14,31.2,31.2v31.2H375V281.3z M312.6,406.3c0-17.2,14-31.2,31.2-31.2h312.5c17.2,0,31.2,14,31.2,31.2v31.2H312.6V406.3
	z M749.9,718.7c0,17.2-14,31.2-31.2,31.2H281.2c-17.2,0-31.2-14-31.2-31.2V531.2c0-17.2,14-31.2,31.2-31.2h437.5
	c17.2,0,31.2,14,31.2,31.2V718.7z"/>
</svg>
