<?xml version="1.0" encoding="utf-8"?>
<!-- Generator: Adobe Illustrator 25.1.0, SVG Export Plug-In . SVG Version: 6.00 Build 0)  -->
<svg version="1.1" id="Layer_1" xmlns="http://www.w3.org/2000/svg" xmlns:xlink="http://www.w3.org/1999/xlink" x="0px" y="0px"
	 viewBox="0 0 1000 1000" style="enable-background:new 0 0 1000 1000;" xml:space="preserve">
<g>
	<path d="M344.1,625.1h-0.3c-17.3,0-31.1,14-31.1,31.2s14.1,31.2,31.4,31.2c17.2,0,31.2-14,31.2-31.2S361.4,625.1,344.1,625.1z"/>
	<path d="M721,500.1c16.8-17.6,26-40.5,26-64.8c0-25.1-9.8-48.6-27.5-66.3l-88.4-88.4c-36-36-94.4-36.5-131-1.5
		c-1.1-50.7-42.7-91.6-93.7-91.6h-125c-51.7,0-93.8,42.1-93.8,93.8v375c0,86.1,70,156.2,156.2,156.2h375c51.6,0,93.7-42.1,93.8-93.7
		v-125C812.6,542.9,771.7,501.2,721,500.1z M500,367.4l42.6-42.6c12.2-12.1,32-12.2,44.2,0l88.4,88.4c6,5.9,9.2,13.7,9.2,22.1
		c0,8.4-3.3,16.2-9.2,22.1L500,632.6V367.4z M437.6,656.2c0,51.7-42.1,93.8-93.8,93.8S250,707.9,250,656.2v-375
		c0-17.2,14-31.2,31.2-31.2h125.2c17.2,0,31.2,14,31.2,31.2V656.2z M750,718.8c0,17.2-14,31.2-31.2,31.2H471l187.5-187.4h60.3
		c17.2,0,31.2,14,31.2,31.2V718.8z"/>
</g>
</svg>
