<?xml version="1.0" encoding="utf-8"?>
<!-- Generator: Adobe Illustrator 25.0.1, SVG Export Plug-In . SVG Version: 6.00 Build 0)  -->
<svg version="1.1" id="Layer_1" xmlns="http://www.w3.org/2000/svg" xmlns:xlink="http://www.w3.org/1999/xlink" x="0px" y="0px"
	 viewBox="0 0 40 40" style="enable-background:new 0 0 40 40;" xml:space="preserve">
<style type="text/css">
	.st0{fill:none;}
	.st1{fill:#E8E9F3;}
</style>
<rect class="st0" width="40" height="40"/>
<path class="st1" d="M27,30H15c-2.8,0-5-2.2-5-5V13c0-1.7,1.3-3,3-3h4c1.6,0,3,1.3,3,2.9c1.1-1.1,3.1-1.1,4.2,0l2.8,2.8
	c1.2,1.2,1.2,3,0,4.2c1.6,0,2.9,1.4,2.9,3v4C30,28.7,28.7,30,27,30z M19.1,28H27c0.6,0,1-0.4,1-1v-4c0-0.6-0.4-1-1-1h-1.9L19.1,28z
	 M13,12c-0.6,0-1,0.4-1,1v12c0,1.7,1.3,3,3,3s3-1.3,3-3V13c0-0.6-0.4-1-1-1H13z M20,15.8v8.5l5.6-5.6c0.4-0.4,0.4-1,0-1.4l-2.8-2.8
	c-0.4-0.4-1-0.4-1.4,0L20,15.8z M15,26c-0.6,0-1-0.4-1-1s0.4-1,1-1h0c0.6,0,1,0.4,1,1S15.6,26,15,26z"/>
</svg>
