<?xml version="1.0" encoding="utf-8"?>
<!-- Generator: Adobe Illustrator 25.1.0, SVG Export Plug-In . SVG Version: 6.00 Build 0)  -->
<svg version="1.1" id="Layer_1" xmlns="http://www.w3.org/2000/svg" xmlns:xlink="http://www.w3.org/1999/xlink" x="0px" y="0px"
	 viewBox="0 0 1000 1000" style="enable-background:new 0 0 1000 1000;" xml:space="preserve">
<g>
	<path d="M500,625h31.2c17.3,0,31.2-14,31.2-31.2s-13.9-31.2-31.2-31.2H500c-17.2,0-31.2,14-31.2,31.2S482.7,625,500,625z"/>
	<path d="M687.5,250h-375c-68.9,0-125,56.1-125,125v250c0,68.9,56.1,125,125,125h375c68.9,0,125-56.1,125-125V375
		C812.5,306.1,756.4,250,687.5,250z M750,625c0,34.5-28,62.5-62.5,62.5h-375c-34.5,0-62.5-28-62.5-62.5V468.8h500V625z M750,406.2
		H250V375c0-34.5,28-62.5,62.5-62.5h375c34.5,0,62.5,28,62.5,62.5V406.2z"/>
	<path d="M343.8,625H375c17.3,0,31.2-14,31.2-31.2s-13.9-31.2-31.2-31.2h-31.2c-17.2,0-31.2,14-31.2,31.2S326.5,625,343.8,625z"/>
</g>
</svg>
