<?xml version="1.0" encoding="utf-8"?>
<!-- Generator: Adobe Illustrator 25.1.0, SVG Export Plug-In . SVG Version: 6.00 Build 0)  -->
<svg version="1.1" id="Layer_1" xmlns="http://www.w3.org/2000/svg" xmlns:xlink="http://www.w3.org/1999/xlink" x="0px" y="0px"
	 viewBox="0 0 1000 1000" style="enable-background:new 0 0 1000 1000;" xml:space="preserve">
<g>
	<path d="M548.4,722l-17.3,8.6V703c0-17.2-14-31.2-31.3-31.2c-17.2,0-31.2,13.9-31.2,31.2v27.6l-17.3-8.6
		c-15.5-7.7-34.2-1.4-41.9,14s-1.4,34.2,14,41.9l62,31c2.3,1.2,4.7,2.1,7.3,2.7c2.4,0.6,4.8,0.9,7.3,0.9c2.4,0,4.8-0.3,6.9-0.9
		c2.6-0.6,5.1-1.5,7.4-2.7l62-31c15.5-7.7,21.7-26.4,14-41.9S563.8,714.3,548.4,722z"/>
	<path d="M548.5,409.6L500,433.9l-48.5-24.3c-15.5-7.7-34.2-1.4-41.9,14c-7.7,15.4-1.4,34.2,14,41.9l45.2,22.6v58.8
		c0,17.2,13.9,31.2,31.2,31.2s31.3-14,31.2-31.2v-58.8l45.2-22.6c15.5-7.7,21.7-26.5,14-41.9C582.7,408.1,563.9,401.9,548.5,409.6z"
		/>
	<path d="M340.4,298.7c-7.7-15.4-26.4-21.8-41.9-14l-61.9,30.9c-1.1,0.5-2.1,1.1-3.1,1.7c-1.9,1.2-3.8,2.6-5.4,4.2
		c-1.8,1.8-3.4,3.8-4.7,5.9c-1.7,2.8-3,5.9-3.8,9.2c-0.5,2.4-0.8,4.8-0.8,7.2c0,0.2,0,0.5,0,0.7v77.4c0,17.2,13.9,31.2,31.2,31.2
		s31.3-14,31.2-31v-27.6l17.3,8.6c15.5,7.7,34.2,1.4,41.9-14c7.7-15.4,1.4-34.2-14-41.9l-6.6-3.3l6.6-3.3
		C341.9,332.9,348.1,314.1,340.4,298.7z"/>
	<path d="M326.3,659.5l-45.2-22.6v-58.8c0-17.2-14-31.2-31.2-31.2c-17.2,0-31.2,13.9-31.2,31.2v78.1c0,11.9,6.7,22.7,17.3,28
		l62.6,31.3c4.4,2.2,9.2,3.3,13.9,3.3c11.4,0,22.5-6.4,27.8-17.4C348,686,341.7,667.2,326.3,659.5z"/>
	<path d="M576.6,222.1l-62.5-31.2c-8.8-4.4-19.2-4.4-28,0l-62.5,31.2c-15.5,7.7-21.7,26.5-14,41.9c7.7,15.5,26.4,21.8,41.9,14
		l48.5-24.3l48.6,24.2c4.4,2.2,9.2,3.3,13.9,3.3c11.4,0,22.5-6.3,28.1-17.2C598.3,248.6,592,229.8,576.6,222.1z"/>
	<path d="M780.5,336.4c-0.8-3.3-2.1-6.4-3.8-9.2c-1.2-1.8-2.5-3.6-4.1-5.2c-1.9-1.9-4-3.6-6.3-5c-0.9-0.6-1.9-1.1-2.9-1.6
		l-61.9-30.9c-15.4-7.7-34.1-1.4-41.9,14c-7.7,15.4-1.4,34.2,14,41.9l6.6,3.3l-6.6,3.3c-15.5,7.7-21.7,26.5-14,41.9
		c7.7,15.4,26.5,21.7,41.9,14l17.3-8.6v27.6c0,17.2,13.9,31.2,31.2,31.2s31.3-14,31.4-31.4v-77.4c0-0.2,0-0.5,0-0.7
		C781.4,341.2,781.1,338.8,780.5,336.4z"/>
	<path d="M749.9,547c-17.2,0-31.2,13.9-31.2,31.2V637l-45.2,22.6c-15.5,7.7-21.7,26.5-14,41.9c5.5,11,16.5,17.3,28,17.3
		c4.7,0,9.5-1.1,13.8-3.3l62.5-31.2c10.6-5.4,17.3-16.2,17.3-28v-78.1C781.1,561,767.1,547,749.9,547z"/>
</g>
</svg>
