<?xml version="1.0" encoding="utf-8"?>
<!-- Generator: Adobe Illustrator 25.1.0, SVG Export Plug-In . SVG Version: 6.00 Build 0)  -->
<svg version="1.1" id="Layer_1" xmlns="http://www.w3.org/2000/svg" xmlns:xlink="http://www.w3.org/1999/xlink" x="0px" y="0px"
	 viewBox="0 0 1000 1000" style="enable-background:new 0 0 1000 1000;" xml:space="preserve">
<path d="M780.5,336.5c-0.8-3.3-2.1-6.4-3.8-9.2c-1.2-1.8-2.5-3.6-4.1-5.2c-1.9-1.9-4-3.6-6.3-5c-0.9-0.6-1.9-1.1-2.9-1.6L514,190.8
	c-8.8-4.4-19.2-4.4-28,0L236.5,315.5c-1.1,0.5-2.1,1.1-3.1,1.7c-1.9,1.2-3.8,2.6-5.4,4.2c-1.8,1.8-3.4,3.8-4.7,5.9
	c-1.7,2.8-3,5.9-3.8,9.2c-0.5,2.4-0.8,4.8-0.8,7.2c0,0.2,0,0.5,0,0.7v311.8c0,11.9,6.7,22.7,17.3,28l249.4,124.7
	c2.3,1.2,4.7,2.1,7.3,2.7c2.4,0.6,4.8,0.9,7.3,0.9c2.4,0,4.8-0.3,7.1-0.9c2.6-0.6,5.1-1.5,7.4-2.7l249.6-124.7
	c10.6-5.4,17.3-16.2,17.3-28V344.4c0-0.2,0-0.5,0-0.7C781.4,341.3,781.1,338.9,780.5,336.5z M468.8,730.7l-187.5-93.8V394.3
	l187.5,93.8V730.7z M500,433.8l-180.1-90L500,253.7l180.1,90L500,433.8z M718.8,636.9l-187.5,93.8V488.1l187.5-93.8V636.9z"/>
</svg>
