<?xml version="1.0" encoding="utf-8"?>
<!-- Generator: Adobe Illustrator 25.1.0, SVG Export Plug-In . SVG Version: 6.00 Build 0)  -->
<svg version="1.1" id="Layer_1" xmlns="http://www.w3.org/2000/svg" xmlns:xlink="http://www.w3.org/1999/xlink" x="0px" y="0px"
	 viewBox="0 0 1000 1000" style="enable-background:new 0 0 1000 1000;" xml:space="preserve">
<g>
	<path d="M609.9,348.2c-14.9-8.9-34-4.1-42.9,10.7l-65.9,109.9H499L433.1,359c-8.9-14.8-28.1-19.6-42.9-10.7
		c-14.8,8.9-19.6,28.1-10.7,42.9l46.6,77.7h-19.8c-17.2,0-31.2,14-31.2,31.2s13.9,31.2,31.2,31.2h57.3l5.2,8.7v22.6h-62.5
		c-17.2,0-31.2,14-31.2,31.2S389,625,406.3,625h62.5v31.3c0,17.2,13.9,31.2,31.2,31.2s31.2-14,31.3-31.3V625h62.5
		c17.2,0,31.2-14.1,31.2-31.3s-13.9-31.2-31.2-31.2h-62.5v-22.6l5.2-8.7h57.3c17.2,0,31.2-14,31.2-31.2s-13.9-31.2-31.2-31.2H574
		l46.6-77.7C629.5,376.3,624.7,357.1,609.9,348.2z"/>
	<path d="M500,187.5c-172.3,0-312.5,140.2-312.5,312.5S327.7,812.5,500,812.5S812.5,672.3,812.5,500S672.3,187.5,500,187.5z
		 M500,750c-137.8,0-250-112.2-250-250s112.2-250,250-250s250,112.2,250,250S637.8,750,500,750z"/>
</g>
</svg>
