<?xml version="1.0" encoding="utf-8"?>
<!-- Generator: Adobe Illustrator 25.0.1, SVG Export Plug-In . SVG Version: 6.00 Build 0)  -->
<svg version="1.1" id="Layer_1" xmlns="http://www.w3.org/2000/svg" xmlns:xlink="http://www.w3.org/1999/xlink" x="0px" y="0px"
	 viewBox="0 0 40 40" style="enable-background:new 0 0 40 40;" xml:space="preserve">
<style type="text/css">
	.st0{fill:none;}
	.st1{fill:#E8E9F3;}
</style>
<rect class="st0" width="40" height="40"/>
<path class="st1" d="M20,30c-5.5,0-10-4.5-10-10c0-5.5,4.5-10,10-10c5.5,0,10,4.5,10,10C30,25.5,25.5,30,20,30z M20,12
	c-4.4,0-8,3.6-8,8s3.6,8,8,8s8-3.6,8-8S24.4,12,20,12z M20,26c-1.1,0-2.2-0.7-3-2c-0.3-0.5-0.5-1-0.7-1.5H16c-0.6,0-1-0.4-1-1
	c0-0.6,0.4-1,1-1h0c0-0.3,0-0.7,0-1h0c-0.6,0-1-0.4-1-1s0.4-1,1-1h0.4c0.2-0.6,0.4-1.1,0.7-1.6c0.7-1.2,1.8-1.9,3-1.9s2.2,0.7,3,1.9
	c0.3,0.5,0.1,1.1-0.3,1.4c-0.5,0.3-1.1,0.1-1.4-0.3c-0.7-1.2-1.8-1.2-2.5,0c-0.1,0.2-0.2,0.3-0.3,0.5H20c0.6,0,1,0.4,1,1s-0.4,1-1,1
	h-2c0,0.3,0,0.7,0,1h2c0.6,0,1,0.4,1,1c0,0.6-0.4,1-1,1h-1.5c0.1,0.2,0.2,0.4,0.3,0.5c0.7,1.2,1.8,1.2,2.5,0
	c0.3-0.5,0.9-0.6,1.4-0.3c0.5,0.3,0.6,0.9,0.3,1.4C22.2,25.3,21.1,26,20,26z"/>
</svg>
