<?xml version="1.0" encoding="utf-8"?>
<!-- Generator: Adobe Illustrator 25.1.0, SVG Export Plug-In . SVG Version: 6.00 Build 0)  -->
<svg version="1.1" id="Layer_1" xmlns="http://www.w3.org/2000/svg" xmlns:xlink="http://www.w3.org/1999/xlink" x="0px" y="0px"
	 viewBox="0 0 1000 1000" style="enable-background:new 0 0 1000 1000;" xml:space="preserve">
<g>
	<path d="M500,187.5c-172.3,0-312.5,140.2-312.5,312.5S327.7,812.5,500,812.5S812.5,672.3,812.5,500S672.3,187.5,500,187.5z
		 M500,750c-137.8,0-250-112.2-250-250s112.2-250,250-250s250,112.2,250,250S637.8,750,500,750z"/>
	<path d="M624.9,375.1c0-17.2-13.9-31.2-31.2-31.2H406.2c-17.2,0-31.2,14-31.2,31.2s13.9,31.2,31.2,31.2h31.2
		c23.1,0,43.3,12.5,54.1,31.2h-85.4c-17.2,0-31.2,14-31.2,31.2s13.9,31.2,31.2,31.2h85.4c-10.8,18.6-31,31.2-54.1,31.2h-31.2
		c-12.7,0-24.1,7.6-28.9,19.3c-4.8,11.7-2.1,25.2,6.8,34.1l93.8,93.8c6.1,6.1,14.1,9.2,22.1,9.2s16-3.1,22.2-9.1
		c12.2-12.2,12.2-32,0-44.2l-46.4-46.4c40.5-13.1,72.1-46.3,82.8-87.8h35.2c17.2,0,31.1-14.1,31.1-31.3s-13.9-31.2-31.2-31.2h-35.2
		c-2.8-11-7.2-21.5-12.8-31.2h48C610.9,406.3,624.9,392.3,624.9,375.1z"/>
</g>
</svg>
