<?xml version="1.0" encoding="utf-8"?>
<!-- Generator: Adobe Illustrator 25.1.0, SVG Export Plug-In . SVG Version: 6.00 Build 0)  -->
<svg version="1.1" id="Layer_1" xmlns="http://www.w3.org/2000/svg" xmlns:xlink="http://www.w3.org/1999/xlink" x="0px" y="0px"
	 viewBox="0 0 1000 1000" style="enable-background:new 0 0 1000 1000;" xml:space="preserve">
<g>
	<path d="M531.4,375.3c17.2,0,31.2,14,31.2,31.2s14,31.2,31.2,31.2s31.2-13.9,31.2-31.2c0-51.7-42.1-93.8-93.8-93.8
		c-51.7,0-93.8,42.1-93.8,93.8V469h-31.2c-17.2,0-31.2,14-31.2,31.2s13.9,31.2,31.2,31.2h31.2v31.2c0,17.2-14,31.2-31.2,31.2
		S375,607.8,375,625s13.9,31.2,31.2,31.2h187.6c17.2,0,31.1-14,31.1-31.2s-13.9-31.2-31.2-31.2h-99.1c3.5-9.7,5.4-20.2,5.4-31.2
		v-31.2h31.4c17.2,0,31.2-14,31.2-31.2S548.7,469,531.4,469h-31.2v-62.5C500.2,389.3,514.2,375.3,531.4,375.3z"/>
	<path d="M500,187.5c-172.3,0-312.5,140.2-312.5,312.5S327.7,812.5,500,812.5S812.5,672.3,812.5,500S672.3,187.5,500,187.5z
		 M500,750c-137.8,0-250-112.2-250-250s112.2-250,250-250s250,112.2,250,250S637.8,750,500,750z"/>
</g>
</svg>
