<?xml version="1.0" encoding="utf-8"?>
<!-- Generator: Adobe Illustrator 25.1.0, SVG Export Plug-In . SVG Version: 6.00 Build 0)  -->
<svg version="1.1" id="Layer_1" xmlns="http://www.w3.org/2000/svg" xmlns:xlink="http://www.w3.org/1999/xlink" x="0px" y="0px"
	 viewBox="0 0 1000 1000" style="enable-background:new 0 0 1000 1000;" xml:space="preserve">
<g>
	<path d="M531.3,471.8v-60.7c12.5,4.1,21.5,10.2,26.3,15.8c11.4,13,31.1,14.4,44.1,3.1c13-11.3,14.4-31.1,3.1-44.1
		c-17.1-19.8-43.4-33.5-73.6-39.2v-2.9c0-17.2-14-31.2-31.2-31.2s-31.2,13.9-31.2,31.2v2.8c-54.5,10.2-93.8,46.5-93.8,90.9
		c0,44.4,39.3,80.7,93.8,90.9V589c-12.6-4.1-21.6-10.2-26.4-15.8c-11.3-13-31.1-14.5-44.1-3.1c-13,11.3-14.4,31.1-3.1,44.1
		c17.2,19.8,43.5,33.6,73.6,39.2v2.9c0,17.2,13.9,31.2,31.2,31.2s31.2-14,31.3-31.1v-2.8c54.6-10.2,93.8-46.4,93.8-90.9
		C625.1,518.3,585.8,482,531.3,471.8z M468.8,464.1c-19.6-6.3-31.2-17.8-31.2-26.6c0-8.8,11.5-20.3,31.2-26.6V464.1z M531.2,589.1
		v-53.2c19.7,6.3,31.2,17.8,31.2,26.6S550.9,582.8,531.2,589.1z"/>
	<path d="M500,187.5c-172.3,0-312.5,140.2-312.5,312.5S327.7,812.5,500,812.5S812.5,672.3,812.5,500S672.3,187.5,500,187.5z
		 M500,750c-137.8,0-250-112.2-250-250s112.2-250,250-250s250,112.2,250,250S637.8,750,500,750z"/>
</g>
</svg>
