<?xml version="1.0" encoding="utf-8"?>
<!-- Generator: Adobe Illustrator 25.1.0, SVG Export Plug-In . SVG Version: 6.00 Build 0)  -->
<svg version="1.1" id="Layer_1" xmlns="http://www.w3.org/2000/svg" xmlns:xlink="http://www.w3.org/1999/xlink" x="0px" y="0px"
	 viewBox="0 0 1000 1000" style="enable-background:new 0 0 1000 1000;" xml:space="preserve">
<path d="M500,187.6c-160.3,0-281.2,67.1-281.2,156.2v312.5c0,89,120.9,156.2,281.2,156.2s281.2-67.2,281.2-156.2V343.8
	C781.2,254.8,660.3,187.6,500,187.6z M718.8,656.3c0,44.3-93.6,93.8-218.8,93.8s-218.8-49.5-218.8-93.8v-55.8
	c50.8,34.4,128.5,55.7,218.8,55.7c90.2,0,168-21.3,218.8-55.7V656.3z M718.8,500c0,44.3-93.6,93.8-218.8,93.8S281.2,544.3,281.2,500
	v-55.8C332,478.7,409.7,500,500,500c90.2,0,168-21.3,218.8-55.8V500z M500,437.6c-125.2,0-218.8-49.5-218.8-93.8S374.8,250,500,250
	s218.8,49.5,218.8,93.8S625.2,437.6,500,437.6z"/>
</svg>
