<?xml version="1.0" encoding="utf-8"?>
<!-- Generator: Adobe Illustrator 25.0.1, SVG Export Plug-In . SVG Version: 6.00 Build 0)  -->
<svg version="1.1" id="Layer_1" xmlns="http://www.w3.org/2000/svg" xmlns:xlink="http://www.w3.org/1999/xlink" x="0px" y="0px"
	 viewBox="0 0 40 40" style="enable-background:new 0 0 40 40;" xml:space="preserve">
<style type="text/css">
	.st0{fill:none;}
	.st1{fill:#E8E9F3;}
</style>
<rect class="st0" width="40" height="40"/>
<path class="st1" d="M24,30h-8c-0.4,0-0.8-0.2-0.9-0.6s-0.1-0.8,0.2-1.1l0.8-0.8l0.4-1.5H13c-1.7,0-3-1.3-3-3V13c0-1.7,1.3-3,3-3h14
	c1.7,0,3,1.3,3,3v10c0,1.7-1.3,3-3,3h-3.5l0.4,1.5l0.8,0.8c0.3,0.3,0.4,0.7,0.2,1.1C24.8,29.8,24.4,30,24,30z M23,28L23,28L23,28z
	 M18,28H22l-0.5-2h-2.9L18,28z M22.3,24H27c0.6,0,1-0.4,1-1v-1H12v1c0,0.6,0.4,1,1,1h4.7c0,0,0,0,0,0H22.3C22.2,24,22.3,24,22.3,24z
	 M12,20h16v-7c0-0.6-0.4-1-1-1H13c-0.6,0-1,0.4-1,1V20z"/>
</svg>
