<?xml version="1.0" encoding="utf-8"?>
<!-- Generator: Adobe Illustrator 25.1.0, SVG Export Plug-In . SVG Version: 6.00 Build 0)  -->
<svg version="1.1" id="Layer_1" xmlns="http://www.w3.org/2000/svg" xmlns:xlink="http://www.w3.org/1999/xlink" x="0px" y="0px"
	 viewBox="0 0 1000 1000" style="enable-background:new 0 0 1000 1000;" xml:space="preserve">
<path d="M718.7,187.4H281.2c-51.7,0-93.8,42.1-93.8,93.8v312.5c0,51.7,42.1,93.8,93.8,93.8h108.4L378,734l-25.1,25.1
	c-9,9-11.7,22.4-6.8,34.1c4.9,11.7,16.3,19.3,28.9,19.3h250c12.6,0,24-7.6,28.9-19.3c4.8-11.7,2.1-25.2-6.8-34.1L622,734l-11.6-46.5
	h108.3c51.7,0,93.8-42.1,93.8-93.8V281.2C812.5,229.5,770.4,187.4,718.7,187.4z M438.5,750l15.7-62.5H546l15.6,62.5H438.5z
	 M749.9,593.8c0,17.2-14,31.2-31.2,31.2H571c-0.5,0-0.9,0-1.3,0H430.4c-0.5,0-0.9,0-1.4,0H281.2c-17.2,0-31.2-14-31.2-31.2v-31.2
	h499.9V593.8z M750,500H250V281.2c0-17.2,14-31.2,31.2-31.2h437.6c17.2,0,31.2,14,31.2,31.2V500z"/>
</svg>
