<?xml version="1.0" encoding="utf-8"?>
<!-- Generator: Adobe Illustrator 25.1.0, SVG Export Plug-In . SVG Version: 6.00 Build 0)  -->
<svg version="1.1" id="Layer_1" xmlns="http://www.w3.org/2000/svg" xmlns:xlink="http://www.w3.org/1999/xlink" x="0px" y="0px"
	 viewBox="0 0 1000 1000" style="enable-background:new 0 0 1000 1000;" xml:space="preserve">
<g>
	<path d="M500.3,656.4H500c-17.3,0-31.1,14-31.1,31.2s14.1,31.2,31.4,31.2s31.2-14,31.2-31.2S517.6,656.4,500.3,656.4z"/>
	<path d="M687.5,187.4h-375c-51.7,0-93.8,42.1-93.8,93.8v437.5c0,51.7,42.1,93.8,93.8,93.8h374.9c51.7,0,93.8-42.1,93.9-93.8V281.2
		C781.3,229.5,739.2,187.4,687.5,187.4z M718.7,718.7c0,17.2-14,31.2-31.2,31.2h-375c-17.2,0-31.2-14-31.2-31.2V281.2
		c0-17.2,14-31.2,31.2-31.2h375c17.2,0,31.2,14,31.2,31.2V718.7z"/>
</g>
</svg>
