<?xml version="1.0" encoding="utf-8"?>
<!-- Generator: Adobe Illustrator 25.0.1, SVG Export Plug-In . SVG Version: 6.00 Build 0)  -->
<svg version="1.1" id="Layer_1" xmlns="http://www.w3.org/2000/svg" xmlns:xlink="http://www.w3.org/1999/xlink" x="0px" y="0px"
	 viewBox="0 0 40 40" style="enable-background:new 0 0 40 40;" xml:space="preserve">
<style type="text/css">
	.st0{fill:none;}
	.st1{fill:#E8E9F3;}
</style>
<rect class="st0" width="40" height="40"/>
<path class="st1" d="M25,30H15c-1.7,0-3-1.3-3-3V13c0-1.7,1.3-3,3-3h10c1.7,0,3,1.3,3,3v14C28,28.7,26.7,30,25,30z M15,12
	c-0.6,0-1,0.4-1,1v14c0,0.6,0.4,1,1,1h10c0.6,0,1-0.4,1-1V13c0-0.6-0.4-1-1-1H15z M20,27c-0.6,0-1-0.4-1-1s0.4-1,1-1h0
	c0.6,0,1,0.4,1,1S20.6,27,20,27z"/>
</svg>
