<?xml version="1.0" encoding="utf-8"?>
<!-- Generator: Adobe Illustrator 25.1.0, SVG Export Plug-In . SVG Version: 6.00 Build 0)  -->
<svg version="1.1" id="Layer_1" xmlns="http://www.w3.org/2000/svg" xmlns:xlink="http://www.w3.org/1999/xlink" x="0px" y="0px"
	 viewBox="0 0 1000 1000" style="enable-background:new 0 0 1000 1000;" xml:space="preserve">
<g>
	<path d="M468.7,437.5v112l-40.4-40.4c-12.2-12.2-32-12.2-44.2,0s-12.2,32,0,44.2l93.8,93.8c3,3,6.5,5.3,10.2,6.8
		c3.6,1.4,7.6,2.3,11.9,2.3s8.3-0.8,11.7-2.2c3.7-1.5,7.2-3.8,10.2-6.8l93.8-93.8c12.2-12.2,12.2-32,0-44.2
		c-12.2-12.2-32-12.2-44.2,0l-40.4,40.4V437.5c0-17.2-14-31.2-31.2-31.2C482.7,406.3,468.7,420.2,468.7,437.5z"/>
	<path d="M731.7,375L562.6,205.7c-11.8-11.8-27.5-18.3-44.2-18.3H343.8c-51.7,0-93.8,42.1-93.8,93.8v437.5
		c0,51.7,42.1,93.8,93.8,93.8h312.4c51.7,0,93.8-42.1,93.8-93.7V419.2C750,402.5,743.5,386.8,731.7,375z M687.5,718.7
		c0,17.2-14,31.2-31.2,31.2H343.8c-17.2,0-31.2-14-31.2-31.2V281.2c0-17.2,14-31.2,31.2-31.2h174.5l169.2,169.2V718.7z"/>
</g>
</svg>
