<?xml version="1.0" encoding="utf-8"?>
<!-- Generator: Adobe Illustrator 25.1.0, SVG Export Plug-In . SVG Version: 6.00 Build 0)  -->
<svg version="1.1" id="Layer_1" xmlns="http://www.w3.org/2000/svg" xmlns:xlink="http://www.w3.org/1999/xlink" x="0px" y="0px"
	 viewBox="0 0 1000 1000" style="enable-background:new 0 0 1000 1000;" xml:space="preserve">
<g>
	<path d="M500,687.5c68.9,0,125-56.1,125-125s-56.1-125-125-125s-125,56.1-125,125c0,22.7,6,44.5,17.3,63.5L259.1,759.1
		c-12.2,12.2-12.2,32,0,44.2c6.1,6.1,14.1,9.2,22.1,9.2s16-3.1,22.1-9.2l133.2-133.1C455.5,681.5,477.3,687.5,500,687.5z M500,500
		c34.5,0,62.5,28,62.5,62.5S534.5,625,500,625c-16.7,0-32.4-6.5-44.2-18.3s-18.3-27.5-18.3-44.2C437.5,528,465.5,500,500,500z"/>
	<path d="M731.7,375L562.6,205.7c-11.8-11.8-27.5-18.3-44.2-18.3H343.8c-51.7,0-93.8,42.1-93.8,93.8V625c0,17.3,14.2,31.2,31.4,31.2
		s31.2-13.9,31.2-31.2V281.2c0-17.2,14-31.2,31.2-31.2h174.5l169.2,169.2v299.7c0,17.2-14,31.2-31.2,31.2H437.5
		c-17.2,0-31.2,14-31.2,31.2s13.9,31.2,31.2,31.2h218.7c51.7,0,93.8-42.1,93.8-93.7V419.2C750,402.5,743.5,386.8,731.7,375z"/>
</g>
</svg>
