<?xml version="1.0" encoding="utf-8"?>
<!-- Generator: Adobe Illustrator 25.1.0, SVG Export Plug-In . SVG Version: 6.00 Build 0)  -->
<svg version="1.1" id="Layer_1" xmlns="http://www.w3.org/2000/svg" xmlns:xlink="http://www.w3.org/1999/xlink" x="0px" y="0px"
	 viewBox="0 0 1000 1000" style="enable-background:new 0 0 1000 1000;" xml:space="preserve">
<g>
	<path d="M375,500c0,17.2,13.9,31.2,31.2,31.2h187.6c17.2,0,31.1-14,31.1-31.2s-13.9-31.2-31.2-31.2H406.2
		C389,468.8,375,482.8,375,500z"/>
	<path d="M593.7,593.8H406.2c-17.2,0-31.2,14-31.2,31.2s13.9,31.2,31.2,31.2h187.6c17.2,0,31.1-14,31.1-31.2S611,593.8,593.7,593.8z
		"/>
	<path d="M731.7,375L562.6,205.7c-11.8-11.8-27.5-18.3-44.2-18.3H343.8c-51.7,0-93.8,42.1-93.8,93.8v437.5
		c0,51.7,42.1,93.8,93.8,93.8h312.4c51.7,0,93.8-42.1,93.8-93.7V419.2C750,402.5,743.5,386.8,731.7,375z M687.5,718.7
		c0,17.2-14,31.2-31.2,31.2H343.8c-17.2,0-31.2-14-31.2-31.2V281.2c0-17.2,14-31.2,31.2-31.2h174.5l169.2,169.2V718.7z"/>
</g>
</svg>
