<?xml version="1.0" encoding="utf-8"?>
<!-- Generator: Adobe Illustrator 25.1.0, SVG Export Plug-In . SVG Version: 6.00 Build 0)  -->
<svg version="1.1" id="Layer_1" xmlns="http://www.w3.org/2000/svg" xmlns:xlink="http://www.w3.org/1999/xlink" x="0px" y="0px"
	 viewBox="0 0 1000 1000" style="enable-background:new 0 0 1000 1000;" xml:space="preserve">
<path d="M762.9,343.6L625,205.7c-11.6-11.6-27.8-18.3-44.2-18.3H437.5c-51.7,0-93.8,42.1-93.8,93.8v31.2h-31.2
	c-51.7,0-93.8,42.1-93.8,93.8v312.5c0,51.7,42.1,93.8,93.8,93.8h250c51.7,0,93.7-42.1,93.7-93.9v-31.2h31.2
	c51.7,0,93.8-42.1,93.8-93.8V387.8C781.2,371.1,774.7,355.4,762.9,343.6z M593.7,718.7c0,17.2-14,31.2-31.2,31.2h-250
	c-17.2,0-31.2-14-31.2-31.2V406.2c0-17.2,14-31.2,31.2-31.2h31.2v218.7c0,51.7,42.1,93.8,93.8,93.8h156.2V718.7z M718.7,593.8
	c0,17.2-14,31.2-31.2,31.2H625v-0.1H437.5c-17.2,0-31.2-14-31.2-31.2V281.2c0-17.2,14-31.2,31.2-31.2h143.3l137.9,137.9V593.8z"/>
</svg>
