<?xml version="1.0" encoding="utf-8"?>
<!-- Generator: Adobe Illustrator 25.1.0, SVG Export Plug-In . SVG Version: 6.00 Build 0)  -->
<svg version="1.1" id="Layer_1" xmlns="http://www.w3.org/2000/svg" xmlns:xlink="http://www.w3.org/1999/xlink" x="0px" y="0px"
	 viewBox="0 0 1000 1000" style="enable-background:new 0 0 1000 1000;" xml:space="preserve">
<g>
	<path d="M468.8,437.6v62.5h-62.5c-17.2,0-31.2,13.9-31.2,31.2c0,17.2,13.9,31.2,31.2,31.2h62.5V625c0,17.2,13.9,31.2,31.2,31.2
		s31.2-13.9,31.2-31.2v-62.6h62.5c17.2,0,31.2-13.9,31.2-31.2c0-17.2-13.9-31.2-31.2-31.2h-62.5v-62.4c0-17.2-14-31.2-31.2-31.2
		S468.8,420.3,468.8,437.6z"/>
	<path d="M731.7,375L562.6,205.7c-11.8-11.8-27.5-18.3-44.2-18.3H343.8c-51.7,0-93.8,42.1-93.8,93.8v437.5
		c0,51.7,42.1,93.8,93.8,93.8h312.4c51.7,0,93.8-42.1,93.8-93.7V419.2C750,402.5,743.5,386.8,731.7,375z M687.5,718.7
		c0,17.2-14,31.2-31.2,31.2H343.8c-17.2,0-31.2-14-31.2-31.2V281.2c0-17.2,14-31.2,31.2-31.2h174.5l169.2,169.2V718.7z"/>
</g>
</svg>
