<?xml version="1.0" encoding="utf-8"?>
<!-- Generator: Adobe Illustrator 25.0.1, SVG Export Plug-In . SVG Version: 6.00 Build 0)  -->
<svg version="1.1" id="Layer_1" xmlns="http://www.w3.org/2000/svg" xmlns:xlink="http://www.w3.org/1999/xlink" x="0px" y="0px"
	 viewBox="0 0 40 40" style="enable-background:new 0 0 40 40;" xml:space="preserve">
<style type="text/css">
	.st0{fill:none;}
	.st1{fill:#E8E9F3;}
</style>
<rect class="st0" width="40" height="40"/>
<path class="st1" d="M25,30h-7c-0.6,0-1-0.4-1-1s0.4-1,1-1h7c0.6,0,1-0.4,1-1v-9.6L20.6,12H15c-0.6,0-1,0.4-1,1v11c0,0.6-0.4,1-1,1
	s-1-0.4-1-1V13c0-1.7,1.3-3,3-3h5.6c0.5,0,1,0.2,1.4,0.6l5.4,5.4c0.4,0.4,0.6,0.9,0.6,1.4V27C28,28.7,26.7,30,25,30z M13,30
	c-0.3,0-0.5-0.1-0.7-0.3c-0.4-0.4-0.4-1,0-1.4l4.3-4.3c-0.4-0.6-0.6-1.3-0.6-2c0-2.2,1.8-4,4-4c2.2,0,4,1.8,4,4c0,2.2-1.8,4-4,4
	c-0.7,0-1.4-0.2-2-0.6l-4.3,4.3C13.5,29.9,13.3,30,13,30z M20,20c-1.1,0-2,0.9-2,2c0,0.5,0.2,1,0.6,1.4h0C19,23.8,19.5,24,20,24
	c1.1,0,2-0.9,2-2C22,20.9,21.1,20,20,20z"/>
</svg>
