<?xml version="1.0" encoding="utf-8"?>
<!-- Generator: Adobe Illustrator 25.0.1, SVG Export Plug-In . SVG Version: 6.00 Build 0)  -->
<svg version="1.1" id="Layer_1" xmlns="http://www.w3.org/2000/svg" xmlns:xlink="http://www.w3.org/1999/xlink" x="0px" y="0px"
	 viewBox="0 0 40 40" style="enable-background:new 0 0 40 40;" xml:space="preserve">
<style type="text/css">
	.st0{fill:none;}
	.st1{fill:#E8E9F3;}
</style>
<rect class="st0" width="40" height="40"/>
<path class="st1" d="M25,29H15c-2.2,0-4-1.8-4-4v-1c0-0.6,0.4-1,1-1s1,0.4,1,1v1c0,1.1,0.9,2,2,2h10c1.1,0,2-0.9,2-2v-1
	c0-0.6,0.4-1,1-1s1,0.4,1,1v1C29,27.2,27.2,29,25,29z M20,25C20,25,20,25,20,25L20,25c-0.1,0-0.3,0-0.4-0.1c-0.1,0-0.2-0.1-0.3-0.2
	l-4-4c-0.4-0.4-0.4-1,0-1.4s1-0.4,1.4,0l2.3,2.3V12c0-0.6,0.4-1,1-1s1,0.4,1,1v9.6l2.3-2.3c0.4-0.4,1-0.4,1.4,0s0.4,1,0,1.4l-4,4
	c-0.1,0.1-0.2,0.2-0.3,0.2C20.3,25,20.1,25,20,25L20,25C20,25,20,25,20,25z"/>
</svg>
