<?xml version="1.0" encoding="utf-8"?>
<!-- Generator: Adobe Illustrator 25.1.0, SVG Export Plug-In . SVG Version: 6.00 Build 0)  -->
<svg version="1.1" id="Layer_1" xmlns="http://www.w3.org/2000/svg" xmlns:xlink="http://www.w3.org/1999/xlink" x="0px" y="0px"
	 viewBox="0 0 1000 1000" style="enable-background:new 0 0 1000 1000;" xml:space="preserve">
<g>
	<path d="M749.9,593.8c-17.2,0-31.2,13.9-31.2,31.2v31.2c0,34.5-28,62.5-62.5,62.5H343.7c-34.5,0-62.5-28-62.5-62.5V625
		c0-17.2-14-31.2-31.2-31.2s-31.2,13.9-31.2,31.2v31.2c0,68.9,56.1,125,125,125h312.4c69,0,125-56,124.9-125V625
		C781.1,607.8,767.1,593.8,749.9,593.8z"/>
	<path d="M477.9,647.1c3,3,6.5,5.3,10.2,6.8c3.6,1.4,7.6,2.3,11.9,2.3s8.3-0.8,11.9-2.3c3.7-1.5,7.2-3.8,10.2-6.8l125-125
		c12.2-12.2,12.2-32,0-44.2s-32-12.2-44.2,0l-71.7,71.7V250c0-17.2-14-31.2-31.2-31.2s-31.2,13.9-31.2,31.2v299.6l-71.7-71.7
		c-12.2-12.2-32-12.2-44.2,0s-12.2,32,0,44.2L477.9,647.1z"/>
</g>
</svg>
