<?xml version="1.0" encoding="utf-8"?>
<!-- Generator: Adobe Illustrator 25.1.0, SVG Export Plug-In . SVG Version: 6.00 Build 0)  -->
<svg version="1.1" id="Layer_1" xmlns="http://www.w3.org/2000/svg" xmlns:xlink="http://www.w3.org/1999/xlink" x="0px" y="0px"
	 viewBox="0 0 1000 1000" style="enable-background:new 0 0 1000 1000;" xml:space="preserve">
<path d="M687.5,343.6h-31.2v-31.2c0-51.7-42.1-93.8-93.8-93.8h-250c-51.7,0-93.8,42.1-93.8,93.8v250c0,51.7,42.1,93.8,93.8,93.8
	h31.2v31.2c0,51.7,42.1,93.8,93.8,93.8h250c51.7,0,93.7-42,93.8-93.8v-250C781.3,385.7,739.2,343.6,687.5,343.6z M343.7,437.5v156.1
	h-31.2c-17.2,0-31.2-14-31.2-31.2v-250c0-17.2,14-31.2,31.2-31.2v0.1h250c17.2,0,31.2,14,31.2,31.2v31.2H437.5
	C385.8,343.7,343.7,385.8,343.7,437.5z M718.6,687.5c0,17.2-14,31.2-31.2,31.2h-250c-17.2,0-31.2-14-31.2-31.2V625V437.5
	c0-17.2,14-31.2,31.2-31.2h250c17.2,0,31.2,14,31.2,31.2V687.5z"/>
</svg>
