<?xml version="1.0" encoding="utf-8"?>
<!-- Generator: Adobe Illustrator 25.1.0, SVG Export Plug-In . SVG Version: 6.00 Build 0)  -->
<svg version="1.1" id="Layer_1" xmlns="http://www.w3.org/2000/svg" xmlns:xlink="http://www.w3.org/1999/xlink" x="0px" y="0px"
	 viewBox="0 0 1000 1000" style="enable-background:new 0 0 1000 1000;" xml:space="preserve">
<g>
	<path d="M406.6,468.8c17.2,0,31.2-14,31.2-31.2s-13.9-31.2-31.2-31.2h-0.3c-17.3,0-31.1,14-31.1,31.2S389.3,468.8,406.6,468.8z"/>
	<path d="M500,562.4c-41.7,0-81,16.3-110.5,45.8c-12.2,12.2-12.2,32,0,44.2c6.1,6.1,14.1,9.2,22.1,9.2s16-3,22.1-9.2
		c35.4-35.4,97.2-35.4,132.6,0c12.2,12.2,32,12.2,44.2,0s12.2-32,0-44.2C581,578.7,541.7,562.4,500,562.4z"/>
	<path d="M594.1,406.4h-0.3c-17.3,0-31.1,14-31.1,31.2s14.1,31.2,31.4,31.2c17.2,0,31.2-14,31.2-31.2S611.4,406.4,594.1,406.4z"/>
	<path d="M500,187.5c-172.3,0-312.5,140.2-312.5,312.5S327.7,812.5,500,812.5S812.5,672.3,812.5,500S672.3,187.5,500,187.5z
		 M500,750c-137.8,0-250-112.2-250-250s112.2-250,250-250s250,112.2,250,250S637.8,750,500,750z"/>
</g>
</svg>
