<?xml version="1.0" encoding="utf-8"?>
<!-- Generator: Adobe Illustrator 25.1.0, SVG Export Plug-In . SVG Version: 6.00 Build 0)  -->
<svg version="1.1" id="Layer_1" xmlns="http://www.w3.org/2000/svg" xmlns:xlink="http://www.w3.org/1999/xlink" x="0px" y="0px"
	 viewBox="0 0 1000 1000" style="enable-background:new 0 0 1000 1000;" xml:space="preserve">
<g>
	<path d="M500.3,593.8H500c-17.3,0-31.1,14-31.1,31.2s14.1,31.2,31.4,31.2s31.2-14,31.2-31.2S517.6,593.8,500.3,593.8z"/>
	<path d="M500,531.2c17.3,0,31.3-13.9,31.2-31.2v-62.5c0-17.2-13.9-31.2-31.2-31.2c-17.2,0-31.2,13.9-31.2,31.2V500
		C468.8,517.2,482.7,531.2,500,531.2z"/>
	<path d="M797.7,640.5l-216.5-375c-16.9-29.4-47.3-46.9-81.2-46.9s-64.3,17.6-81.2,46.9l-216.5,375c-16.9,29.4-17,64.4,0,93.8
		c16.9,29.4,47.3,46.9,81.2,46.9h433c33.9,0,64.2-17.5,81.2-46.9C814.6,704.9,814.6,669.9,797.7,640.5z M743.6,703
		c-2.7,4.7-10.8,15.6-27.1,15.6h-433c-16.3,0-24.4-10.9-27.1-15.6c-2.7-4.6-8.1-17.1,0-31.2l216.5-375c8.2-14.1,21.7-15.6,27.1-15.6
		c5.4,0,18.9,1.6,27.1,15.6l216.5,375C751.7,685.8,746.3,698.3,743.6,703z"/>
</g>
</svg>
