<?xml version="1.0" encoding="utf-8"?>
<!-- Generator: Adobe Illustrator 25.1.0, SVG Export Plug-In . SVG Version: 6.00 Build 0)  -->
<svg version="1.1" id="Layer_1" xmlns="http://www.w3.org/2000/svg" xmlns:xlink="http://www.w3.org/1999/xlink" x="0px" y="0px"
	 viewBox="0 0 1000 1000" style="enable-background:new 0 0 1000 1000;" xml:space="preserve">
<g>
	<path d="M687.4,531.1c-17.2,0-31.2,13.9-31.2,31.2v125c0,17.2-14,31.2-31.2,31.2H312.5c-17.2,0-31.2-14-31.2-31.2V374.8
		c0-17.2,14-31.2,31.2-31.2h125c17.2,0,31.2-14,31.2-31.2s-13.9-31.2-31.2-31.2h-125c-51.7,0-93.8,42.1-93.8,93.8v312.4
		c0,51.7,42.1,93.8,93.8,93.8H625c51.7,0,93.8-42,93.6-93.9v-125C718.6,545.1,704.6,531.1,687.4,531.1z"/>
	<path d="M778.9,238.1c-1.5-3.7-3.8-7.2-6.8-10.2s-6.5-5.3-10.2-6.8c-3.6-1.5-7.6-2.3-11.8-2.3H750H562.5c-17.2,0-31.2,14-31.2,31.2
		s13.9,31.2,31.2,31.2h112.1L415.4,540.4c-12.2,12.2-12.2,32,0,44.2c6.1,6.1,14.1,9.2,22.1,9.2s16-3.1,22.1-9.2l259.2-259.2v112.1
		c0,17.2,14,31.2,31.2,31.2s31.2-13.9,31.2-31.2V250v-0.1C781.2,245.7,780.4,241.7,778.9,238.1z"/>
</g>
</svg>
