<?xml version="1.0" encoding="utf-8"?>
<!-- Generator: Adobe Illustrator 25.0.1, SVG Export Plug-In . SVG Version: 6.00 Build 0)  -->
<svg version="1.1" id="Layer_1" xmlns="http://www.w3.org/2000/svg" xmlns:xlink="http://www.w3.org/1999/xlink" x="0px" y="0px"
	 viewBox="0 0 40 40" style="enable-background:new 0 0 40 40;" xml:space="preserve">
<style type="text/css">
	.st0{fill:#E8E9F3;}
	.st1{fill:none;}
</style>
<path class="st0" d="M24,29H14c-1.7,0-3-1.3-3-3V16c0-1.7,1.3-3,3-3h4c0.6,0,1,0.4,1,1s-0.4,1-1,1h-4c-0.6,0-1,0.4-1,1v10
	c0,0.6,0.4,1,1,1h10c0.6,0,1-0.4,1-1v-4c0-0.6,0.4-1,1-1s1,0.4,1,1v4C27,27.7,25.7,29,24,29z M18,23c-0.3,0-0.5-0.1-0.7-0.3
	c-0.4-0.4-0.4-1,0-1.4l8.3-8.3H22c-0.6,0-1-0.4-1-1s0.4-1,1-1h6l0,0l0,0c0.1,0,0.3,0,0.4,0.1c0.1,0,0.2,0.1,0.3,0.2s0.2,0.2,0.2,0.3
	C29,11.7,29,11.9,29,12l0,0l0,0v6c0,0.6-0.4,1-1,1s-1-0.4-1-1v-3.6l-8.3,8.3C18.5,22.9,18.3,23,18,23z"/>
<rect x="-31.1" y="-0.2" class="st1" width="40" height="40"/>
<rect x="-31.1" y="-0.2" class="st1" width="40" height="40"/>
</svg>
