<?xml version="1.0" encoding="utf-8"?>
<!-- Generator: Adobe Illustrator 25.1.0, SVG Export Plug-In . SVG Version: 6.00 Build 0)  -->
<svg version="1.1" id="Layer_1" xmlns="http://www.w3.org/2000/svg" xmlns:xlink="http://www.w3.org/1999/xlink" x="0px" y="0px"
	 viewBox="0 0 1000 1000" style="enable-background:new 0 0 1000 1000;" xml:space="preserve">
<g>
	<path d="M552.7,682.6c-17.3,3.2-35,4.9-52.7,4.9c-120.2,0-225.6-75-265.1-187.4c9.6-27.2,23.3-52.7,40.8-75.8
		c10.4-13.8,7.7-33.4-6.1-43.8c-13.8-10.4-33.4-7.7-43.8,6.1c-23.9,31.5-42,66.5-53.8,104.1c-1.9,6.1-1.9,12.6,0,18.7
		C217.2,653.3,349,750,500,750c21.6,0,43.3-2,64.3-6c17-3.2,28.1-19.5,24.9-36.5S569.9,679.4,552.7,682.6z"/>
	<path d="M828,509.3c1.9-6.1,1.9-12.6,0-18.7C782.8,346.7,651,250,500,250c-57.7,0-114,14.3-164.2,41.6l-95-95
		c-12.2-12.2-32-12.2-44.2,0c-12.2,12.2-12.2,32,0,44.2l111.8,111.8c0.3,0.3,0.6,0.6,0.9,0.9l234.9,234.9l102.3,102.4
		c0.3,0.3,0.6,0.6,0.9,0.9l111.7,111.6c6.1,6.1,14.1,9.2,22.1,9.2s16-3.1,22.1-9.2c12.2-12.2,12.2-32,0-44.2L717,672.8
		C769,630.4,807.8,573.5,828,509.3z M560.4,516.2l-76.6-76.6c5.2-1.4,10.6-2.1,16.2-2.1c34.5,0,62.5,28,62.5,62.5
		C562.5,505.5,561.8,511,560.4,516.2z M672.5,628.3l-64.8-64.8c11.3-19,17.3-40.8,17.3-63.5c0-68.9-56.1-125-125-125
		c-22.7,0-44.5,6-63.5,17.3l-54.1-54.1c36.7-16.9,76.7-25.7,117.6-25.7c120.2,0,225.6,74.9,265.2,187.4
		C747.3,550.6,715,595.2,672.5,628.3z"/>
</g>
</svg>
