<?xml version="1.0" encoding="utf-8"?>
<!-- Generator: Adobe Illustrator 25.1.0, SVG Export Plug-In . SVG Version: 6.00 Build 0)  -->
<svg version="1.1" id="Layer_1" xmlns="http://www.w3.org/2000/svg" xmlns:xlink="http://www.w3.org/1999/xlink" x="0px" y="0px"
	 viewBox="0 0 1000 1000" style="enable-background:new 0 0 1000 1000;" xml:space="preserve">
<g>
	<path d="M500,375c-68.9,0-125,56.1-125,125s56.1,125,125,125s125-56.1,125-125S568.9,375,500,375z M500,562.5
		c-34.5,0-62.5-28-62.5-62.5s28-62.5,62.5-62.5c34.4,0,62.5,28,62.5,62.5S534.5,562.5,500,562.5z"/>
	<path d="M828,490.6C782.8,346.7,651,250,500,250s-282.8,96.7-328,240.7c-1.9,6.1-1.9,12.6,0,18.7C217.2,653.3,349,750,500,750
		s282.8-96.7,328-240.7C829.9,503.2,829.9,496.7,828,490.6z M500,687.5c-120.3,0-225.6-74.9-265.3-187.5
		C274.4,387.4,379.8,312.5,500,312.5c120.3,0,225.7,74.9,265.3,187.5C725.6,612.5,620.3,687.5,500,687.5z"/>
</g>
</svg>
