<?xml version="1.0" encoding="utf-8"?>
<!-- Generator: Adobe Illustrator 25.1.0, SVG Export Plug-In . SVG Version: 6.00 Build 0)  -->
<svg version="1.1" id="Layer_1" xmlns="http://www.w3.org/2000/svg" xmlns:xlink="http://www.w3.org/1999/xlink" x="0px" y="0px"
	 viewBox="0 0 1000 1000" style="enable-background:new 0 0 1000 1000;" xml:space="preserve">
<path d="M745.8,450L579.1,325c-19-14.3-44.1-16.5-65.4-5.9c-21.3,10.7-34.5,32.1-34.5,55.9v62.6L329.1,325
	c-19-14.3-44.1-16.5-65.4-5.9c-21.3,10.7-34.5,32.1-34.5,55.9v250c0,23.9,13.2,45.2,34.5,55.9c8.9,4.5,18.5,6.7,28,6.7
	c13.2,0,26.4-4.3,37.5-12.6l150-112.5V625c0,23.9,13.2,45.2,34.5,55.9c8.9,4.5,18.5,6.7,28,6.7c13.2,0,26.4-4.3,37.4-12.6l166.7-125
	c15.9-11.9,25-30.1,25-50C770.8,480.2,761.7,461.9,745.8,450z M458.4,500L291.7,625V375l166.8,124.9L458.4,500z M541.7,625V375
	l166.7,124.9L541.7,625z"/>
</svg>
