<?xml version="1.0" encoding="utf-8"?>
<!-- Generator: Adobe Illustrator 25.0.1, SVG Export Plug-In . SVG Version: 6.00 Build 0)  -->
<svg version="1.1" id="Layer_1" xmlns="http://www.w3.org/2000/svg" xmlns:xlink="http://www.w3.org/1999/xlink" x="0px" y="0px"
	 viewBox="0 0 40 40" style="enable-background:new 0 0 40 40;" xml:space="preserve">
<style type="text/css">
	.st0{fill:none;}
	.st1{fill:#E8E9F3;}
</style>
<rect class="st0" width="40" height="40"/>
<path class="st1" d="M28.5,18.4l-5.3-4c-0.6-0.5-1.4-0.5-2.1-0.2c-0.7,0.3-1.1,1-1.1,1.8v2l-4.8-3.6c-0.6-0.5-1.4-0.5-2.1-0.2
	c-0.7,0.3-1.1,1-1.1,1.8v8c0,0.8,0.4,1.4,1.1,1.8c0.3,0.1,0.6,0.2,0.9,0.2c0.4,0,0.8-0.1,1.2-0.4L20,22v2c0,0.8,0.4,1.4,1.1,1.8
	c0.3,0.1,0.6,0.2,0.9,0.2c0.4,0,0.8-0.1,1.2-0.4l5.3-4c0.5-0.4,0.8-1,0.8-1.6S29,18.8,28.5,18.4z M19.3,20C19.3,20,19.3,20,19.3,20
	L14,24v-8L19.3,20L19.3,20z M22,24v-8l5.3,4L22,24z"/>
</svg>
