<?xml version="1.0" encoding="utf-8"?>
<!-- Generator: Adobe Illustrator 25.0.1, SVG Export Plug-In . SVG Version: 6.00 Build 0)  -->
<svg version="1.1" id="Layer_1" xmlns="http://www.w3.org/2000/svg" xmlns:xlink="http://www.w3.org/1999/xlink" x="0px" y="0px"
	 viewBox="0 0 40 40" style="enable-background:new 0 0 40 40;" xml:space="preserve">
<style type="text/css">
	.st0{fill:none;}
	.st1{fill:#E8E9F3;}
</style>
<rect class="st0" width="40" height="40"/>
<path class="st1" d="M28,29H12c-1.1,0-2-0.9-2-2V13c0-1.1,0.9-2,2-2h16c1.1,0,2,0.9,2,2v14C30,28.1,29.1,29,28,29z M26,27h2v-2h-2
	V27z M16,27h8v-6h-8V27z M12,25v2h2v-2H12z M26,23h2v-2h-2V23z M12,23h2v-2h-2V23z M26,19h2v-2h-2V19z M16,19h8v-6h-8V19z M12,19h2
	v-2h-2V19z M26,15h2v-2h-2V15z M12,15h2v-2h-2V15z"/>
</svg>
