<?xml version="1.0" encoding="utf-8"?>
<!-- Generator: Adobe Illustrator 25.1.0, SVG Export Plug-In . SVG Version: 6.00 Build 0)  -->
<svg version="1.1" id="Layer_1" xmlns="http://www.w3.org/2000/svg" xmlns:xlink="http://www.w3.org/1999/xlink" x="0px" y="0px"
	 viewBox="0 0 1000 1000" style="enable-background:new 0 0 1000 1000;" xml:space="preserve">
<path d="M750,218.7H250c-34.5,0-62.5,28-62.5,62.5v437.5c0,34.5,28,62.5,62.5,62.5h500c34.5,0,62.5-28,62.5-62.5V281.2
	C812.5,246.7,784.5,218.7,750,218.7z M312.5,718.7H250v-62.5h62.5V718.7z M312.5,593.8H250v-62.5h62.5V593.8z M312.5,468.8H250
	v-62.5h62.5V468.8z M312.5,343.8H250v-62.5h62.5V343.8z M625,718.8H375V531.2h250V718.8z M625,468.8H375V281.2h250V468.8z
	 M750,718.8h-62.5v-62.5H750V718.8z M750,593.8h-62.5v-62.5H750V593.8z M750,468.8h-62.5v-62.5H750V468.8z M750,343.8h-62.5v-62.5
	H750V343.8z"/>
</svg>
