<?xml version="1.0" encoding="utf-8"?>
<!-- Generator: Adobe Illustrator 25.1.0, SVG Export Plug-In . SVG Version: 6.00 Build 0)  -->
<svg version="1.1" id="Layer_1" xmlns="http://www.w3.org/2000/svg" xmlns:xlink="http://www.w3.org/1999/xlink" x="0px" y="0px"
	 viewBox="0 0 1000 1000" style="enable-background:new 0 0 1000 1000;" xml:space="preserve">
<path d="M750,187.5H250c-34.5,0-62.5,28-62.5,62.5v80.8c0,16.7,6.5,32.4,18.3,44.2l200.4,200.4v205.8c0,12.7,7.6,24.1,19.3,28.9
	c3.9,1.6,8,2.4,12,2.4c8.1,0,16.1-3.2,22.1-9.2l125-125c5.9-5.9,9.2-13.8,9.2-22.1v-80.8L794.2,375c11.8-11.8,18.3-27.5,18.3-44.2
	V250C812.5,215.5,784.5,187.5,750,187.5z M750,330.8L549.5,531.3c-11.8,11.8-18.3,27.5-18.3,44.2v67.9l-62.5,62.5V575.5
	c0-16.7-6.5-32.4-18.3-44.2L250,330.8V250h500V330.8z"/>
</svg>
