<?xml version="1.0" encoding="utf-8"?>
<!-- Generator: Adobe Illustrator 25.0.1, SVG Export Plug-In . SVG Version: 6.00 Build 0)  -->
<svg version="1.1" id="Layer_1" xmlns="http://www.w3.org/2000/svg" xmlns:xlink="http://www.w3.org/1999/xlink" x="0px" y="0px"
	 viewBox="0 0 40 40" style="enable-background:new 0 0 40 40;" xml:space="preserve">
<style type="text/css">
	.st0{fill:none;}
	.st1{fill:#E8E9F3;}
</style>
<rect class="st0" width="40" height="40"/>
<path class="st1" d="M21.7,29.8c-0.2,0-0.3,0-0.4-0.1c-0.5-0.2-0.7-0.8-0.4-1.3c0.6-1.2,1.1-2.4,1.4-3.7c0.2-0.5,0.7-0.8,1.2-0.7
	c0.5,0.2,0.8,0.7,0.7,1.2c-0.4,1.4-0.9,2.7-1.6,4C22.4,29.6,22,29.8,21.7,29.8z M17.2,29.6c-0.2,0-0.4,0-0.5-0.2
	c-0.5-0.3-0.6-0.9-0.3-1.4c1.7-2.7,2.6-5.8,2.6-9c0-0.6,0.4-1,1-1s1,0.4,1,1c0,3.6-1,7.1-2.9,10.1C17.9,29.4,17.6,29.6,17.2,29.6z
	 M13.8,27.5c-0.2,0-0.3,0-0.5-0.1C12.8,27,12.7,26.5,13,26l0.9,0.5L13,26c1.3-2.1,2-4.5,2-7c0-2.8,2.2-5,5-5s5,2.2,5,5
	c0,1-0.1,2.1-0.2,3.1c-0.1,0.5-0.6,0.9-1.1,0.9c-0.5-0.1-0.9-0.6-0.9-1.1C22.9,20.9,23,20,23,19c0-1.7-1.3-3-3-3s-3,1.3-3,3
	c0,2.8-0.8,5.6-2.3,8C14.5,27.3,14.2,27.5,13.8,27.5z M27,27.1c-0.1,0-0.2,0-0.3,0c-0.5-0.2-0.8-0.7-0.7-1.2c0.6-2.2,1-4.5,1-6.9
	c0-3.9-3.1-7-7-7c-1.2,0-2.4,0.3-3.5,0.9c-0.5,0.3-1.1,0.1-1.4-0.4c-0.3-0.5-0.1-1.1,0.4-1.4c1.4-0.8,2.9-1.2,4.5-1.2c5,0,9,4,9,9
	c0,2.5-0.3,5-1,7.4C27.8,26.8,27.4,27.1,27,27.1z M11,24.4c-0.1,0-0.3,0-0.4-0.1c-0.5-0.2-0.7-0.8-0.5-1.3c0.6-1.2,0.9-2.6,0.9-3.9
	c0-1.6,0.4-3.1,1.2-4.5c0.3-0.5,0.9-0.6,1.4-0.4s0.6,0.9,0.4,1.4C13.3,16.6,13,17.8,13,19c0,1.7-0.4,3.3-1.1,4.8
	C11.7,24.2,11.4,24.4,11,24.4z"/>
</svg>
