<?xml version="1.0" encoding="utf-8"?>
<!-- Generator: Adobe Illustrator 25.1.0, SVG Export Plug-In . SVG Version: 6.00 Build 0)  -->
<svg version="1.1" id="Layer_1" xmlns="http://www.w3.org/2000/svg" xmlns:xlink="http://www.w3.org/1999/xlink" x="0px" y="0px"
	 viewBox="0 0 1000 1000" style="enable-background:new 0 0 1000 1000;" xml:space="preserve">
<g>
	<path d="M326.1,362c8.7-14.9,3.6-34-11.4-42.7s-34.1-3.6-42.7,11.4c-24.6,42.5-37.6,91.2-37.6,140.6c0,43-9.5,84.3-28.1,122.7
		c-7.5,15.5-1,34.2,14.5,41.7c4.4,2.1,9,3.1,13.6,3.1c11.5,0,22.7-6.4,28-17.4c22.8-47,34.4-97.4,34.4-150
		C296.8,432.9,307,395.1,326.1,362z"/>
	<path d="M515.6,439.9c-17.2,0-31.2,13.9-31.2,31.2c0,100.3-28.1,198-81.2,282.5c-9.2,14.6-4.8,33.9,9.8,43.1
		c5.2,3.2,10.9,4.8,16.6,4.8c10.4,0,20.5-5.1,26.4-14.7c59.4-94.4,90.8-203.6,90.8-315.7C546.8,453.9,532.8,439.9,515.6,439.9z"/>
	<path d="M515.7,314.9c-86.1,0-156.2,70-156.2,156.2c0,76.7-21.5,151.4-62,215.8l-2.2,3.5c-8.8,14.9-3.3,32.9,11.5,41.8
		c4.7,2.9,10,4.2,15.2,4.2c11.1,0,22.2-5.9,28.2-15.9c46.8-74.5,71.6-160.7,71.6-249.2c0-51.7,42.1-93.8,93.8-93.8
		s93.8,42.1,93.8,93.8c0,29.9-2.1,60-6.1,89.5c-2.3,17.1,9.7,32.9,26.8,35.2c17.1,2.1,32.9-9.7,35.2-26.8c4.4-32.3,6.6-65.3,6.6-98
		C671.9,385,601.8,314.9,515.7,314.9z"/>
	<path d="M623.3,628.7c-16.6-4.8-33.9,4.8-38.6,21.5c-11.2,39.5-26.2,78-44.5,114.7c-7.7,15.4-1.4,34.2,14,41.9
		c4.4,2.2,9.2,3.3,13.9,3.3c11.5,0,22.5-6.4,28-17.2c20.1-40.2,36.5-82.4,48.7-125.6C649.5,650.7,639.9,633.4,623.3,628.7z"/>
	<path d="M515.5,190c-49.4,0-98,13-140.6,37.6c-14.9,8.7-20,27.8-11.4,42.7c8.7,15,27.8,20.1,42.7,11.4
		c33.1-19.2,70.9-29.3,109.4-29.3c120.7,0,218.8,98.2,218.8,218.8c0,72.8-10.1,144.9-29.8,214.3c-4.7,16.6,4.9,33.9,21.5,38.6
		c2.9,0.8,5.8,1.2,8.6,1.2c13.6,0,26.1-9,29.9-22.7c21.3-75,32.1-152.8,32.1-231.4C796.7,316.2,670.6,190,515.5,190z"/>
</g>
</svg>
