<?xml version="1.0" encoding="utf-8"?>
<!-- Generator: Adobe Illustrator 25.1.0, SVG Export Plug-In . SVG Version: 6.00 Build 0)  -->
<svg version="1.1" id="Layer_1" xmlns="http://www.w3.org/2000/svg" xmlns:xlink="http://www.w3.org/1999/xlink" x="0px" y="0px"
	 viewBox="0 0 1000 1000" style="enable-background:new 0 0 1000 1000;" xml:space="preserve">
<g>
	<path d="M698.9,332.4c-25.3-25.3-53.3-43.8-83-63.3c-31.1-20.5-63.2-41.6-94.3-72.5c-11.3-11.2-29.2-12.2-41.6-2.2
		c-66.8,53.7-92,127.1-100.8,185.9c-19.1-18.9-26.5-36.4-26.9-37.3c-3.9-9.8-12.4-17-22.7-19.1c-10.3-2.2-21,1.1-28.4,8.5
		c-53.1,53.2-82.4,123.8-82.4,198.9S248,677,301.1,730.1c53.1,53.1,123.8,82.4,198.9,82.4s145.8-29.3,198.9-82.3
		c53.2-53.1,82.4-123.8,82.4-198.9S752,385.6,698.9,332.4z M654.7,685.9C613.4,727.2,558.4,750,500,750
		c-58.4,0-113.4-22.7-154.7-64.1c-41.3-41.4-64.1-96.3-64.1-154.7c0-44.9,13.5-87.8,38.5-124c15.5,19.2,38.9,41.4,72.6,58.3
		c9.7,4.8,21.2,4.3,30.4-1.4s14.8-15.8,14.8-26.6c0-52.5,11.3-123.1,61.9-176.3c28.4,24.6,56.6,43.2,82.1,60
		c26.9,17.7,52.4,34.5,73.2,55.3c41.3,41.3,64.1,96.3,64.1,154.7S696,644.6,654.7,685.9z"/>
	<path d="M500.5,437.6h-0.1c-13.4,0-25.3,8.5-29.6,21.2l-24.5,72.5h-40.1c-17.2,0-31.2,13.9-31.2,31.2c0,33.4,13,64.8,36.6,88.4
		c23.6,23.6,55,36.6,88.4,36.6c33.4,0,64.8-13,88.3-36.5c23.6-23.6,36.6-55,36.6-88.4s-13-64.8-36.6-88.4
		C564.8,450.8,533.7,437.8,500.5,437.6z M544.2,606.7c-23.6,23.6-64.8,23.6-88.4,0c-4-3.9-7.3-8.2-10-12.9v-0.1h23
		c13.4,0,25.3-8.5,29.6-21.2l23.2-68.7c8.4,3.1,16.1,8,22.6,14.5c11.8,11.8,18.3,27.5,18.3,44.2S556,594.9,544.2,606.7z"/>
</g>
</svg>
