<?xml version="1.0" encoding="utf-8"?>
<!-- Generator: Adobe Illustrator 25.1.0, SVG Export Plug-In . SVG Version: 6.00 Build 0)  -->
<svg version="1.1" id="Layer_1" xmlns="http://www.w3.org/2000/svg" xmlns:xlink="http://www.w3.org/1999/xlink" x="0px" y="0px"
	 viewBox="0 0 1000 1000" style="enable-background:new 0 0 1000 1000;" xml:space="preserve">
<g>
	<path d="M593.7,500.1H406.2c-17.2,0-31.2,13.9-31.2,31.2c0,17.2,13.9,31.2,31.2,31.2h187.6c17.2,0,31.2-14,31.1-31.2
		C624.9,514.1,611,500.1,593.7,500.1z"/>
	<path d="M718.7,312.5H544.1l-53.3-53.3c-5.9-5.9-13.8-9.2-22.1-9.2H281.2c-51.7,0-93.8,42.1-93.8,93.8v312.4
		c0,51.7,42.1,93.8,93.8,93.8h437.6c51.6,0,93.7-42.1,93.7-93.7v-250C812.5,354.6,770.4,312.5,718.7,312.5z M749.9,656.2
		c0,17.2-14,31.2-31.2,31.2H281.2c-17.2,0-31.2-14-31.2-31.2V343.7c0-17.2,14-31.2,31.2-31.2h174.6l53.3,53.3
		c5.9,5.9,13.8,9.2,22.1,9.2h187.5c17.2,0,31.2,14,31.2,31.2V656.2z"/>
</g>
</svg>
