<?xml version="1.0" encoding="utf-8"?>
<!-- Generator: Adobe Illustrator 25.1.0, SVG Export Plug-In . SVG Version: 6.00 Build 0)  -->
<svg version="1.1" id="Layer_1" xmlns="http://www.w3.org/2000/svg" xmlns:xlink="http://www.w3.org/1999/xlink" x="0px" y="0px"
	 viewBox="0 0 1000 1000" style="enable-background:new 0 0 1000 1000;" xml:space="preserve">
<g>
	<path d="M571.5,509.2l-40.4,40.4V437.5c0-17.2-14-31.2-31.2-31.2c-17.2,0-31.2,13.9-31.2,31.2v112l-40.4-40.4
		c-12.2-12.2-32-12.2-44.2,0s-12.2,32,0,44.2l93.8,93.8c3,3,6.5,5.3,10.2,6.8c3.6,1.4,7.6,2.3,11.9,2.3s8.3-0.8,11.7-2.2
		c3.7-1.5,7.2-3.8,10.2-6.8l93.8-93.8c12.2-12.2,12.2-32,0-44.2C603.5,497,583.7,497,571.5,509.2z"/>
	<path d="M718.7,312.5H544.1l-53.3-53.3c-5.9-5.9-13.8-9.2-22.1-9.2H281.2c-51.7,0-93.8,42.1-93.8,93.8v312.4
		c0,51.7,42.1,93.8,93.8,93.8h437.6c51.6,0,93.7-42.1,93.7-93.7v-250C812.5,354.6,770.4,312.5,718.7,312.5z M749.9,656.2
		c0,17.2-14,31.2-31.2,31.2H281.2c-17.2,0-31.2-14-31.2-31.2V343.7c0-17.2,14-31.2,31.2-31.2h174.6l53.3,53.3
		c5.9,5.9,13.8,9.2,22.1,9.2h187.5c17.2,0,31.2,14,31.2,31.2V656.2z"/>
</g>
</svg>
