<?xml version="1.0" encoding="utf-8"?>
<!-- Generator: Adobe Illustrator 25.1.0, SVG Export Plug-In . SVG Version: 6.00 Build 0)  -->
<svg version="1.1" id="Layer_1" xmlns="http://www.w3.org/2000/svg" xmlns:xlink="http://www.w3.org/1999/xlink" x="0px" y="0px"
	 viewBox="0 0 1000 1000" style="enable-background:new 0 0 1000 1000;" xml:space="preserve">
<path d="M718.8,406.3h-31.2c0-51.7-42.1-93.8-93.8-93.8H481.7l-53.3-53.3c-5.9-5.9-13.8-9.2-22.1-9.2h-125
	c-51.7,0-93.8,42.1-93.8,93.8v312.4c0,51.7,42,93.8,93.7,93.8h437.6c51.6,0,93.7-42.1,93.8-93.7V500.1
	C812.6,448.4,770.5,406.3,718.8,406.3z M312.4,500v156.2c0,17.2-14,31.2-31.2,31.2s-31.2-14-31.2-31.2V343.7
	c0-17.2,14-31.2,31.2-31.2h112.2l53.3,53.3c5.9,5.9,13.8,9.2,22.1,9.2h125c17.2,0,31.2,14,31.2,31.2H406.2
	C354.5,406.2,312.4,448.3,312.4,500z M749.9,656.3c0,17.2-14,31.2-31.2,31.2H369.6c3.5-9.8,5.4-20.3,5.4-31.3V500
	c0-17.2,14-31.2,31.2-31.2h312.5c17.2,0,31.2,14,31.2,31.2V656.3z"/>
</svg>
