<?xml version="1.0" encoding="utf-8"?>
<!-- Generator: Adobe Illustrator 25.0.1, SVG Export Plug-In . SVG Version: 6.00 Build 0)  -->
<svg version="1.1" id="Layer_1" xmlns="http://www.w3.org/2000/svg" xmlns:xlink="http://www.w3.org/1999/xlink" x="0px" y="0px"
	 viewBox="0 0 40 40" style="enable-background:new 0 0 40 40;" xml:space="preserve">
<style type="text/css">
	.st0{fill:none;}
	.st1{fill:#E8E9F3;}
</style>
<rect class="st0" width="40" height="40"/>
<path class="st1" d="M25,30H15c-1.7,0-3-1.3-3-3v-6.2c-1.2-0.4-2-1.5-2-2.8c0-1.7,1.3-3,3-3h1.3c-0.2-0.5-0.3-1-0.3-1.5
	c0-1.9,1.6-3.5,3.5-3.5c1.2,0,2.2,0.6,2.9,1.5c0.5-0.3,1-0.5,1.6-0.5c1.7,0,3,1.3,3,3c0,0.4-0.1,0.7-0.2,1H27c1.7,0,3,1.3,3,3
	c0,1.3-0.8,2.4-2,2.8V27C28,28.7,26.7,30,25,30z M21,28h4c0.6,0,1-0.4,1-1v-6h-5V28z M14,21v6c0,0.6,0.4,1,1,1h4v-7H14z M21,19h6
	c0.6,0,1-0.4,1-1s-0.4-1-1-1h-6V19z M13,19h6v-2h-6c-0.6,0-1,0.4-1,1S12.4,19,13,19z M21,15h1c0.6,0,1-0.4,1-1s-0.4-1-1-1
	s-1,0.4-1,1V15z M17.5,15H19v-1.5c0-0.8-0.7-1.5-1.5-1.5S16,12.7,16,13.5S16.7,15,17.5,15z"/>
</svg>
