<?xml version="1.0" encoding="utf-8"?>
<!-- Generator: Adobe Illustrator 25.1.0, SVG Export Plug-In . SVG Version: 6.00 Build 0)  -->
<svg version="1.1" id="Layer_1" xmlns="http://www.w3.org/2000/svg" xmlns:xlink="http://www.w3.org/1999/xlink" x="0px" y="0px"
	 viewBox="0 0 1000 1000" style="enable-background:new 0 0 1000 1000;" xml:space="preserve">
<path d="M718.8,343.7H651c3.4-9.7,5.3-20.2,5.3-31.2c0-51.7-42.1-93.8-93.8-93.8c-18.9,0-36.5,5.6-51.2,15.2
	c-19.8-28.1-52.5-46.5-89.4-46.5c-60.3,0-109.4,49.1-109.4,109.4c0,16.8,3.8,32.7,10.6,46.9h-41.8c-51.7,0-93.8,42.1-93.8,93.8
	c0,40.7,26.1,75.5,62.5,88.4v192.8c0,51.7,42.1,93.8,93.8,93.8h312.4c51.7,0,93.8-42.1,93.9-93.7V525.9
	c36.4-12.9,62.5-47.7,62.5-88.4C812.6,385.8,770.5,343.7,718.8,343.7z M468.7,749.9h-125c-17.2,0-31.2-14-31.2-31.2V531.2h156.2
	V749.9z M468.7,468.8H281.2c-17.2,0-31.2-14.1-31.2-31.3s14-31.2,31.2-31.2h187.5V468.8z M468.8,343.8h-46.9
	c-25.9,0-46.9-21-46.9-46.9c0-25.9,21-46.9,46.9-46.9c25.9,0,46.9,21.1,46.9,46.9V343.8z M531.2,312.6c0-17.2,14-31.2,31.2-31.2
	s31.2,14,31.2,31.2s-14,31.2-31.2,31.2h-31.2V312.6z M687.4,718.8c0,17.2-14,31.2-31.2,31.2h-125V531.2h156.2V718.8z M718.7,468.8
	H531.2v-62.4h187.5c17.2,0,31.2,14,31.2,31.2S735.9,468.8,718.7,468.8z"/>
</svg>
