<?xml version="1.0" encoding="utf-8"?>
<!-- Generator: Adobe Illustrator 25.1.0, SVG Export Plug-In . SVG Version: 6.00 Build 0)  -->
<svg version="1.1" id="Layer_1" xmlns="http://www.w3.org/2000/svg" xmlns:xlink="http://www.w3.org/1999/xlink" x="0px" y="0px"
	 viewBox="0 0 1000 1000" style="enable-background:new 0 0 1000 1000;" xml:space="preserve">
<path d="M781,363.4c-0.6-1.6-1.4-3.1-2.3-4.6C727.1,257.2,621.6,187.5,500,187.5c-49,0-95.3,11.3-136.6,31.4
	c-1.6,0.6-3.1,1.4-4.6,2.3c-91.5,46.6-157.1,136.8-169.3,243c-0.1,0.7-0.1,1.4-0.2,2.1c-1.2,11.1-1.8,22.3-1.8,33.7
	c0,160.2,121.2,292.6,276.7,310.5c0.7,0.1,1.4,0.1,2.1,0.2c11.1,1.2,22.3,1.8,33.7,1.8c35.9,0,70.4-6.1,102.5-17.3
	c1.2-0.3,2.3-0.7,3.4-1.2c75.1-27.1,137-82.3,172.8-152.8c0.9-1.5,1.7-3,2.3-4.6c20.1-41.3,31.4-87.6,31.4-136.6
	S801.1,404.7,781,363.4z M406.2,268.2c29-11.7,60.7-18.2,93.8-18.2c79.9,0,151.2,37.7,196.9,96.3c-41.2,9.8-72,47-72,91.2
	c0,17.2-14,31.2-31.2,31.2s-31.2-14-31.2-31.2c0-51.7-42.1-93.8-93.8-93.8h-15.6c-25.9,0-46.9-21.1-46.9-46.9V268.2z M437.5,742.1
	C329.8,714.3,250,616.4,250,500.1h31.3c17.2,0,31.2,14,31.2,31.2v31.2c0,51.7,42.1,93.8,93.8,93.8c17.2,0,31.2,14,31.2,31.2V742.1z
	 M625,716.4v-29c0-17.2,14-31.2,31.2-31.2H695C675.7,680.3,651.9,700.8,625,716.4z M731.8,593.7h-75.5c-51.7,0-93.8,42.1-93.8,93.8
	v54.6c-20,5.2-40.9,7.9-62.5,7.9v-62.5c0-51.7-42.1-93.8-93.8-93.8c-17.2,0-31.2-14-31.2-31.2v-31.2c0-51.7-42.1-93.8-93.8-93.8
	h-23.3c13.7-53.1,44.5-99.4,86.2-132.7c4.1,56.7,51.4,101.5,109.1,101.5h15.6c17.2,0,31.2,14,31.2,31.2c0,51.7,42.1,93.6,93.8,93.6
	s93.8-42.1,93.8-93.8c0-17.2,14-31.2,31.2-31.2h13c11.7,29,18.2,60.7,18.2,93.8C750,533.1,743.6,564.7,731.8,593.7z"/>
</svg>
