<?xml version="1.0" encoding="utf-8"?>
<!-- Generator: Adobe Illustrator 25.1.0, SVG Export Plug-In . SVG Version: 6.00 Build 0)  -->
<svg version="1.1" id="Layer_1" xmlns="http://www.w3.org/2000/svg" xmlns:xlink="http://www.w3.org/1999/xlink" x="0px" y="0px"
	 viewBox="0 0 1000 1000" style="enable-background:new 0 0 1000 1000;" xml:space="preserve">
<path d="M500,187.5c-172.3,0-312.5,140.2-312.5,312.5S327.7,812.5,500,812.5S812.5,672.3,812.5,500S672.3,187.5,500,187.5z
	 M251.9,531.2L251.9,531.2l123.6,0c2.7,75,15.1,149.8,38.2,203.4C327.6,702.9,263.7,625,251.9,531.2z M375.5,468.8H251.9
	c11.8-93.9,75.8-171.7,161.8-203.4C390.6,319,378.2,393.8,375.5,468.8z M500,750c-15,0-56.5-75.1-61.9-218.8h123.8
	C556.5,674.9,515,750,500,750z M438.1,468.8C443.5,325.1,485,250,500,250s56.5,75.1,61.9,218.8H438.1z M748,468.8H624.5
	c-2.8-75-15.2-149.9-38.3-203.4C672.3,297.1,736.3,375,748,468.8z M586.3,734.6c23.1-53.6,35.5-128.4,38.2-203.4v0h123.6
	C736.4,625,672.4,702.9,586.3,734.6z"/>
</svg>
