<?xml version="1.0" encoding="utf-8"?>
<!-- Generator: Adobe Illustrator 25.0.1, SVG Export Plug-In . SVG Version: 6.00 Build 0)  -->
<svg version="1.1" id="Layer_1" xmlns="http://www.w3.org/2000/svg" xmlns:xlink="http://www.w3.org/1999/xlink" x="0px" y="0px"
	 viewBox="0 0 40 40" style="enable-background:new 0 0 40 40;" xml:space="preserve">
<style type="text/css">
	.st0{fill:none;}
	.st1{fill:#E8E9F3;}
</style>
<rect class="st0" width="40" height="40"/>
<path class="st1" d="M19.5,30c-4.7,0-8.5-3.8-8.5-8.5v-2c0-1.4,1.1-2.5,2.5-2.5c0.2,0,0.3,0,0.5,0.1v-3.6c0-1.4,1.1-2.5,2.5-2.5
	c0.3,0,0.6,0.1,0.9,0.2c0.4-0.7,1.2-1.2,2.1-1.2s1.7,0.5,2.1,1.2c0.3-0.1,0.6-0.2,0.9-0.2c1.4,0,2.5,1.1,2.5,2.5v0.6
	c0.2,0,0.3-0.1,0.5-0.1c1.4,0,2.5,1.1,2.5,2.5v5C28,26.2,24.2,30,19.5,30z M13.5,19c-0.3,0-0.5,0.2-0.5,0.5v2c0,3.6,2.9,6.5,6.5,6.5
	s6.5-2.9,6.5-6.5v-5c0-0.3-0.2-0.5-0.5-0.5S25,16.2,25,16.5V19c0,0.6-0.4,1-1,1s-1-0.4-1-1v-5.5c0-0.3-0.2-0.5-0.5-0.5
	S22,13.2,22,13.5V19c0,0.6-0.4,1-1,1c-0.6,0-1-0.4-1-1v-6.5c0-0.3-0.2-0.5-0.5-0.5S19,12.2,19,12.5V19c0,0.6-0.4,1-1,1s-1-0.4-1-1
	v-5.5c0-0.3-0.2-0.5-0.5-0.5S16,13.2,16,13.5V22c0,0.6-0.4,1-1,1s-1-0.4-1-1v-2.5C14,19.2,13.8,19,13.5,19z"/>
</svg>
