<?xml version="1.0" encoding="utf-8"?>
<!-- Generator: Adobe Illustrator 25.1.0, SVG Export Plug-In . SVG Version: 6.00 Build 0)  -->
<svg version="1.1" id="Layer_1" xmlns="http://www.w3.org/2000/svg" xmlns:xlink="http://www.w3.org/1999/xlink" x="0px" y="0px"
	 viewBox="0 0 1000 1000" style="enable-background:new 0 0 1000 1000;" xml:space="preserve">
<path d="M687.5,312.5c-5.3,0-10.5,0.6-15.6,1.6v-17.2c0-43.1-35-78.1-78.1-78.1c-9.8,0-19.2,1.8-27.8,5.1
	c-13.9-21.8-38.3-36.3-66-36.3s-52.1,14.5-66,36.3c-8.7-3.3-18-5.1-27.8-5.1c-43.1,0-78.1,35-78.1,78.1v111
	c-5-1.1-10.2-1.6-15.6-1.6c-43.1,0-78.1,35-78.1,78.1v62.5c0,146.4,119.1,265.6,265.6,265.6s265.6-119.2,265.6-265.7V390.6
	C765.6,347.5,730.6,312.5,687.5,312.5z M703.1,546.9C703.1,658.9,612,750,500,750s-203.1-91.1-203.1-203.1v-62.5
	c0-8.6,7-15.6,15.6-15.6c8.6,0,15.6,7,16.2,15.6v78.1c0,17.2,14,31.2,31.2,31.2s31.2-13.9,31.2-31.2V296.9c0-8.6,7-15.6,15.6-15.6
	c8.6,0,15.6,7,15.6,15.6v171.8c0,17.2,14,31.2,31.2,31.2s31.2-13.9,31.2-31.2V265.6c0-8.6,7-15.6,15.6-15.6c8.6,0,15.6,7,15.6,15.6
	v203.2c0,17.2,13.9,31.2,31.2,31.2c17.2,0,31.2-13.9,31.2-31.2V296.9c0-8.6,7-15.6,15.6-15.6s15.6,7,15.6,15.6v171.8
	c0,17.2,14,31.2,31.2,31.2s31.2-13.9,31.2-31.2v-78.1c0-8.6,7-15.6,15.6-15.6s15.6,7,15.6,15.6V546.9z"/>
</svg>
