<?xml version="1.0" encoding="utf-8"?>
<!-- Generator: Adobe Illustrator 25.1.0, SVG Export Plug-In . SVG Version: 6.00 Build 0)  -->
<svg version="1.1" id="Layer_1" xmlns="http://www.w3.org/2000/svg" xmlns:xlink="http://www.w3.org/1999/xlink" x="0px" y="0px"
	 viewBox="0 0 1000 1000" style="enable-background:new 0 0 1000 1000;" xml:space="preserve">
<path d="M750,375h-92.8l29.4-117.4c4.2-16.8-5.9-33.7-22.7-37.9c-16.8-4.4-33.7,6-37.9,22.7L592.8,375H469.7l29.2-117.2
	c4.2-16.8-6-33.7-22.7-37.9c-16.7-4.2-33.7,6-37.9,22.7l-33.1,132.6h-92.8c-17.2,0-31.2,14-31.2,31.2s13.9,31.2,31.2,31.2h77.2
	l-31.2,125H250c-17.2,0-31.2,14-31.2,31.2S232.7,625,250,625h92.8l-29.3,117.4c-4.2,16.8,6,33.7,22.7,37.9s33.7-5.9,37.9-22.7
	L407.2,625h123.1L501,742.5c-4.2,16.8,6,33.7,22.7,37.9c2.5,0.6,5.1,0.9,7.6,0.9c14,0,26.7-9.5,30.2-23.9l33.2-132.6h92.8
	c17.2,0,31.2-14,31.2-31.2s-13.9-31.2-31.2-31.2h-77.1l31.2-125H750c17.2,0,31.2-14,31.2-31.2S767.3,375,750,375z M545.9,562.5
	H422.8l31.3-125h123L545.9,562.5z"/>
</svg>
