<?xml version="1.0" encoding="utf-8"?>
<!-- Generator: Adobe Illustrator 25.1.0, SVG Export Plug-In . SVG Version: 6.00 Build 0)  -->
<svg version="1.1" id="Layer_1" xmlns="http://www.w3.org/2000/svg" xmlns:xlink="http://www.w3.org/1999/xlink" x="0px" y="0px"
	 viewBox="0 0 1000 1000" style="enable-background:new 0 0 1000 1000;" xml:space="preserve">
<path d="M762.1,279c-32.4-32.4-75.6-50.3-121.5-50.3s-89.1,17.8-121.5,50.3L500,298.1L480.9,279c-67-67-176.1-67.1-243.1,0
	s-67,176.1,0,243.1l240.1,240c5.9,5.9,13.8,9.2,22.1,9.2c8.2,0,16.2-3.3,22.1-9.1l240-240.2c32.5-32.4,50.4-75.6,50.4-121.5
	C812.5,354.6,794.6,311.5,762.1,279z M718,477.9l-218,218l-218-218c-42.6-42.7-42.6-112.1,0-154.7c21.3-21.3,49.3-32,77.3-32
	c28.1,0,56.1,10.7,77.4,32.1l41.2,41.2c12.2,12.2,32,12.2,44.2,0l41.2-41.2c41.4-41.3,113.4-41.3,154.7,0c20.6,20.6,32,48.1,32,77.3
	C750,429.8,738.7,457.2,718,477.9z"/>
</svg>
