<?xml version="1.0" encoding="utf-8"?>
<!-- Generator: Adobe Illustrator 25.1.0, SVG Export Plug-In . SVG Version: 6.00 Build 0)  -->
<svg version="1.1" id="Layer_1" xmlns="http://www.w3.org/2000/svg" xmlns:xlink="http://www.w3.org/1999/xlink" x="0px" y="0px"
	 viewBox="0 0 1000 1000" style="enable-background:new 0 0 1000 1000;" xml:space="preserve">
<path d="M803.2,477.9L522,196.7c-12.2-12.2-32-12.2-44.2,0L196.6,477.9c-12.2,12.2-12.2,32,0,44.2c12.2,12.2,32,12.2,44.2,0l9.2-9.2
	V750c0,34.5,28,62.5,62.5,62.5h375c34.5,0,62.5-28,62.3-62.5V512.9l9.2,9.2c12.2,12.2,32,12.2,44.2,0S815.4,490.1,803.2,477.9z
	 M531.3,750h-62.5V625h62.5V750z M687.6,750h-93.8V625c0-34.5-28-62.5-62.5-62.5h-62.5c-34.5,0-62.5,28-62.5,62.5v125h-93.8V450.4
	L500,262.9l187.6,187.5V750z"/>
</svg>
