<?xml version="1.0" encoding="utf-8"?>
<!-- Generator: Adobe Illustrator 25.0.1, SVG Export Plug-In . SVG Version: 6.00 Build 0)  -->
<svg version="1.1" id="Layer_1" xmlns="http://www.w3.org/2000/svg" xmlns:xlink="http://www.w3.org/1999/xlink" x="0px" y="0px"
	 viewBox="0 0 40 40" style="enable-background:new 0 0 40 40;" xml:space="preserve">
<style type="text/css">
	.st0{fill:none;}
	.st1{fill:#E8E9F3;}
</style>
<rect class="st0" width="40" height="40"/>
<path class="st1" d="M26,30H14c-1.1,0-2-0.9-2-2v-7.6l-0.3,0.3c-0.4,0.4-1,0.4-1.4,0s-0.4-1,0-1.4l9-9c0.4-0.4,1-0.4,1.4,0l9,9
	c0.4,0.4,0.4,1,0,1.4s-1,0.4-1.4,0L28,20.4V28C28,29.1,27.1,30,26,30z M23,28h3v-9.6l-6-6l-6,6V28h3v-4c0-1.1,0.9-2,2-2h2
	c1.1,0,2,0.9,2,2V28z M19,28h2v-4h-2V28z"/>
</svg>
