<?xml version="1.0" encoding="utf-8"?>
<!-- Generator: Adobe Illustrator 25.1.0, SVG Export Plug-In . SVG Version: 6.00 Build 0)  -->
<svg version="1.1" id="Layer_1" xmlns="http://www.w3.org/2000/svg" xmlns:xlink="http://www.w3.org/1999/xlink" x="0px" y="0px"
	 viewBox="0 0 1000 1000" style="enable-background:new 0 0 1000 1000;" xml:space="preserve">
<g>
	<path d="M718.8,312.4h-125c0-51.7-42.1-93.8-93.8-93.8s-93.8,42.1-93.8,93.8h-125c-51.7,0-93.8,42.1-93.8,93.8v281.2
		c0,51.7,42.1,93.8,93.8,93.8h437.6c51.6,0,93.7-42,93.8-93.8V406.2C812.6,354.5,770.5,312.4,718.8,312.4z M468.8,312.6
		c0-17.2,14-31.2,31.2-31.2s31.2,14,31.2,31.2v31.2c0,17.2-14,31.2-31.2,31.2s-31.2-14-31.2-31.2V312.6z M749.9,687.4
		c0,17.2-14,31.2-31.2,31.2H281.2c-17.2,0-31.2-14-31.2-31.2V406.2c0-17.2,14-31.2,31.2-31.2h130.4c12.9,36.4,47.7,62.5,88.4,62.5
		c40.7,0,75.5-26.1,88.4-62.5h130.3c17.2,0,31.2,14,31.2,31.2V687.4z"/>
	<path d="M656.2,593.8h-62.5c-17.2,0-31.2,14-31.2,31.2s13.9,31.2,31.2,31.2h62.5c17.3,0,31.2-14,31.2-31.2S673.5,593.8,656.2,593.8
		z"/>
	<path d="M687.5,468.8h-93.8c-17.2,0-31.2,14-31.2,31.2s13.9,31.2,31.2,31.2h93.8c17.3,0,31.2-14,31.2-31.2S704.8,468.8,687.5,468.8
		z"/>
	<path d="M481.3,587.5c11.8-15.6,18.8-35.1,18.8-56.2c0-51.7-42.1-93.8-93.8-93.8c-51.7,0-93.8,42.1-93.8,93.8
		c0,21,7,40.5,18.8,56.2c-19.3,14.4-34.5,34.5-42.9,58.3c-5.8,16.3,2.7,34.2,19,39.9c3.4,1.2,6.9,1.8,10.4,1.8
		c12.9,0,24.9-8,29.5-20.9c8.9-24.9,32.6-41.7,59-41.7c26.4,0,50.1,16.8,58.9,41.7c5.8,16.3,23.7,24.8,39.9,19.1
		c16.3-5.8,24.9-23.6,19.1-39.9C515.8,622,500.6,602,481.3,587.5z M406.2,562.4c-17.2,0-31.2-14-31.2-31.2s14-31.2,31.2-31.2
		c17.3,0,31.2,14,31.2,31.2S423.4,562.4,406.2,562.4z"/>
</g>
</svg>
