<?xml version="1.0" encoding="utf-8"?>
<!-- Generator: Adobe Illustrator 25.0.1, SVG Export Plug-In . SVG Version: 6.00 Build 0)  -->
<svg version="1.1" id="Layer_1" xmlns="http://www.w3.org/2000/svg" xmlns:xlink="http://www.w3.org/1999/xlink" x="0px" y="0px"
	 viewBox="0 0 40 40" style="enable-background:new 0 0 40 40;" xml:space="preserve">
<style type="text/css">
	.st0{fill:none;}
	.st1{fill:#E8E9F3;}
</style>
<rect class="st0" width="40" height="40"/>
<path class="st1" d="M26,29H14c-1.7,0-3-1.3-3-3V14c0-1.7,1.3-3,3-3h12c1.7,0,3,1.3,3,3v12C29,27.7,27.7,29,26,29z M13,24.4V26
	c0,0.6,0.4,1,1,1h12c0.6,0,1-0.4,1-1v-3.6l-1.3-1.3c-0.4-0.4-1-0.4-1.4,0L23.4,22l1.3,1.3c0.4,0.4,0.4,1,0,1.4s-1,0.4-1.4,0l-2-2
	l0,0l-2.6-2.6c-0.4-0.4-1-0.4-1.4,0L13,24.4z M14,13c-0.6,0-1,0.4-1,1v7.6l2.9-2.9c1.1-1.1,3.1-1.1,4.2,0l1.9,1.9l0.9-0.9
	c1.1-1.1,2.9-1.2,4.1-0.1V14c0-0.6-0.4-1-1-1H14z M22,17c-0.6,0-1-0.4-1-1s0.4-1,1-1l0,0c0.6,0,1,0.4,1,1S22.6,17,22,17z"/>
</svg>
