<?xml version="1.0" encoding="utf-8"?>
<!-- Generator: Adobe Illustrator 25.1.0, SVG Export Plug-In . SVG Version: 6.00 Build 0)  -->
<svg version="1.1" id="Layer_1" xmlns="http://www.w3.org/2000/svg" xmlns:xlink="http://www.w3.org/1999/xlink" x="0px" y="0px"
	 viewBox="0 0 1000 1000" style="enable-background:new 0 0 1000 1000;" xml:space="preserve">
<path d="M687.5,218.6h-375c-51.7,0-93.8,42.1-93.8,93.8v375c0,51.7,42.1,93.8,93.8,93.8h375c51.7,0,93.7-42,93.8-93.8v-375
	C781.3,260.7,739.2,218.6,687.5,218.6z M718.6,687.5c0,17.2-14,31.2-31.2,31.2h-375c-17.2,0-31.2-14-31.2-31.2v-125h49.5l75.4,75.4
	c11.8,11.8,27.5,18.3,44.2,18.3h99.1c16.5,0,32.6-6.7,44.2-18.3l75.4-75.4h49.6V687.5z M718.7,500h-49.6c-16.5,0-32.6,6.7-44.2,18.3
	l-75.4,75.4h-99.1L375,518.3c-11.8-11.8-27.5-18.3-44.2-18.3h-49.5V312.5c0-17.2,14-31.2,31.2-31.2h375c17.2,0,31.2,14,31.2,31.2
	V500z"/>
</svg>
