<?xml version="1.0" encoding="utf-8"?>
<!-- Generator: Adobe Illustrator 25.0.1, SVG Export Plug-In . SVG Version: 6.00 Build 0)  -->
<svg version="1.1" id="Layer_1" xmlns="http://www.w3.org/2000/svg" xmlns:xlink="http://www.w3.org/1999/xlink" x="0px" y="0px"
	 viewBox="0 0 40 40" style="enable-background:new 0 0 40 40;" xml:space="preserve">
<style type="text/css">
	.st0{fill:none;}
	.st1{fill:#E8E9F3;}
</style>
<rect class="st0" width="40" height="40"/>
<path class="st1" d="M26,29H14c-1.7,0-3-1.3-3-3V14c0-1.7,1.3-3,3-3h2c0.6,0,1,0.4,1,1s-0.4,1-1,1h-2c-0.6,0-1,0.4-1,1v6h1.6
	c0.5,0,1,0.2,1.4,0.6l2.4,2.4h3.2l2.4-2.4c0.4-0.4,0.9-0.6,1.4-0.6H27v-6c0-0.6-0.4-1-1-1h-2c-0.6,0-1-0.4-1-1s0.4-1,1-1h2
	c1.7,0,3,1.3,3,3v12C29,27.7,27.7,29,26,29z M13,22v4c0,0.6,0.4,1,1,1h12c0.6,0,1-0.4,1-1v-4h-1.6L23,24.4c-0.4,0.4-0.9,0.6-1.4,0.6
	h-3.2c-0.5,0-1-0.2-1.4-0.6L14.6,22H13z M20,20L20,20L20,20c-0.1,0-0.3,0-0.4-0.1c-0.1,0-0.2-0.1-0.3-0.2l-3-3c-0.4-0.4-0.4-1,0-1.4
	s1-0.4,1.4,0l1.3,1.3V11c0-0.6,0.4-1,1-1s1,0.4,1,1v5.6l1.3-1.3c0.4-0.4,1-0.4,1.4,0s0.4,1,0,1.4l-3,3c-0.1,0.1-0.2,0.2-0.3,0.2
	C20.3,20,20.1,20,20,20L20,20L20,20z"/>
</svg>
