<?xml version="1.0" encoding="utf-8"?>
<!-- Generator: Adobe Illustrator 25.1.0, SVG Export Plug-In . SVG Version: 6.00 Build 0)  -->
<svg version="1.1" id="Layer_1" xmlns="http://www.w3.org/2000/svg" xmlns:xlink="http://www.w3.org/1999/xlink" x="0px" y="0px"
	 viewBox="0 0 1000 1000" style="enable-background:new 0 0 1000 1000;" xml:space="preserve">
<g>
	<path d="M687.5,234.5H625c-17.2,0-31.2,14-31.2,31.2s13.9,31.2,31.2,31.2h62.6c17.2,0,31.2,14,31.2,31.2v187.3h-49.6
		c-16.5,0-32.6,6.7-44.2,18.3l-75.4,75.4h-99.1l-75.4-75.4c-11.8-11.8-27.5-18.3-44.2-18.3h-49.6V327.9c0-17.2,14-31.2,31.2-31.2
		H375c17.2,0,31.2-14,31.2-31.2c0-17.2-13.9-31.2-31.2-31.2h-62.5c-51.7,0-93.8,42.1-93.8,93.8v375c0,51.7,42.1,93.8,93.8,93.8h375
		c51.7,0,93.7-42.1,93.8-93.6v-375C781.3,276.6,739.2,234.5,687.5,234.5z M718.6,703.1c0,17.2-14,31.2-31.2,31.2h-375
		c-17.2,0-31.2-14-31.2-31.2v-125h49.5l75.4,75.4c11.8,11.8,27.5,18.3,44.2,18.3h99.1c16.5,0,32.6-6.7,44.2-18.3l75.4-75.4h49.6
		V703.1z"/>
	<path d="M384.1,368.5c-12.2,12.2-12.2,32,0,44.2l93.8,93.8c3,3,6.5,5.3,10.2,6.8c3.6,1.5,7.6,2.3,11.9,2.3s8.3-0.8,11.7-2.2
		c3.7-1.5,7.2-3.8,10.2-6.8l93.8-93.8c12.2-12.2,12.2-32,0-44.2s-32-12.2-44.2,0L531.1,409V234.4c0-17.2-14-31.2-31.2-31.2
		c-17.2,0-31.2,13.9-31.2,31.2v174.5l-40.4-40.4C416.1,356.3,396.3,356.3,384.1,368.5z"/>
</g>
</svg>
