<?xml version="1.0" encoding="utf-8"?>
<!-- Generator: Adobe Illustrator 25.1.0, SVG Export Plug-In . SVG Version: 6.00 Build 0)  -->
<svg version="1.1" id="Layer_1" xmlns="http://www.w3.org/2000/svg" xmlns:xlink="http://www.w3.org/1999/xlink" x="0px" y="0px"
	 viewBox="0 0 1000 1000" style="enable-background:new 0 0 1000 1000;" xml:space="preserve">
<g>
	<path d="M593.8,312.7c-17.2,0-31.2,14-31.2,31.2s13.9,31.2,31.2,31.2c17.2,0,31.2,14,31.2,31.2s13.9,31.2,31.2,31.2
		s31.3-14,31.4-31C687.6,354.8,645.5,312.7,593.8,312.7z"/>
	<path d="M593.8,187.5c-120.7,0-218.8,98.2-218.8,218.8c0,15.1,1.5,30.2,4.6,44.9L205.8,625c-11.8,11.8-18.3,27.5-18.3,44.2V750
		c0,34.5,28,62.5,62.5,62.5h93.8c17.2,0,31.2-14,31.2-31.3V750h31.4c17.2,0,31.2-13.9,31.2-31.2v-31.2h31.2c8.3,0,16.2-3.3,22.1-9.2
		l58-58c14.7,3,29.7,4.6,44.9,4.6c120.6,0,218.8-98,218.8-218.7S714.4,187.5,593.8,187.5z M593.8,562.7c-15.5,0-30.8-2.3-45.4-6.7
		c-11.1-3.4-23.1-0.3-31.2,7.8l-61.4,61.4h-49.6c-17.2,0-31.2,13.9-31.2,31.2v31.2h-31.3c-17.2,0-31.2,13.9-31.2,31.2V750H250v-80.8
		l186.5-186.4c8.1-8.2,11.1-20.2,7.8-31.2c-4.5-14.6-6.7-29.9-6.7-45.4c0-86.1,70-156.2,156.2-156.2c86.1,0,156.2,70.4,156.2,156.5
		S680,562.7,593.8,562.7z"/>
</g>
</svg>
