<?xml version="1.0" encoding="utf-8"?>
<!-- Generator: Adobe Illustrator 25.0.1, SVG Export Plug-In . SVG Version: 6.00 Build 0)  -->
<svg version="1.1" id="Layer_1" xmlns="http://www.w3.org/2000/svg" xmlns:xlink="http://www.w3.org/1999/xlink" x="0px" y="0px"
	 viewBox="0 0 40 40" style="enable-background:new 0 0 40 40;" xml:space="preserve">
<style type="text/css">
	.st0{fill:none;}
	.st1{fill:#E8E9F3;}
</style>
<rect class="st0" width="40" height="40"/>
<path class="st1" d="M29,30H11c-0.6,0-1-0.4-1-1s0.4-1,1-1v-9c-0.6,0-1-0.4-1-1s0.4-1,1-1h18c0.6,0,1,0.4,1,1s-0.4,1-1,1v9
	c0.6,0,1,0.4,1,1S29.6,30,29,30z M13,28h14v-9H13V28z M24,26c-0.6,0-1-0.4-1-1v-3c0-0.6,0.4-1,1-1s1,0.4,1,1v3
	C25,25.6,24.6,26,24,26z M20,26c-0.6,0-1-0.4-1-1v-3c0-0.6,0.4-1,1-1s1,0.4,1,1v3C21,25.6,20.6,26,20,26z M16,26c-0.6,0-1-0.4-1-1
	v-3c0-0.6,0.4-1,1-1s1,0.4,1,1v3C17,25.6,16.6,26,16,26z M29,16c-0.1,0-0.3,0-0.4-0.1L20,12.1l-8.6,3.8c-0.5,0.2-1.1,0-1.3-0.5
	c-0.2-0.5,0-1.1,0.5-1.3l9-4c0.3-0.1,0.6-0.1,0.8,0l9,4c0.5,0.2,0.7,0.8,0.5,1.3C29.7,15.8,29.4,16,29,16z"/>
</svg>
