<?xml version="1.0" encoding="utf-8"?>
<!-- Generator: Adobe Illustrator 25.1.0, SVG Export Plug-In . SVG Version: 6.00 Build 0)  -->
<svg version="1.1" id="Layer_1" xmlns="http://www.w3.org/2000/svg" xmlns:xlink="http://www.w3.org/1999/xlink" x="0px" y="0px"
	 viewBox="0 0 1000 1000" style="enable-background:new 0 0 1000 1000;" xml:space="preserve">
<g>
	<path d="M625,687.5c17.3,0,31.2-14,31.2-31.2v-93.8c0-17.2-14-31.2-31.2-31.2s-31.2,13.9-31.2,31.2v93.8
		C593.8,673.5,607.7,687.5,625,687.5z"/>
	<path d="M231.4,372.3L500,252.9l268.5,119.4c4.2,1.8,8.5,2.7,12.7,2.7c12,0,23.4-6.9,28.6-18.6c7-15.7-0.1-34.2-15.9-41.2
		l-281.2-125c-8.1-3.6-17.3-3.6-25.4,0l-281.2,125c-15.8,7-22.9,25.4-15.9,41.2S215.6,379.3,231.4,372.3z"/>
	<path d="M812.4,437.6c0-17.2-13.9-31.2-31.2-31.2H218.7c-17.2,0-31.2,14-31.2,31.2s13.9,31.2,31.2,31.2v281.3
		c-17.2,0-31.2,14-31.2,31.2s13.9,31.2,31.2,31.2h562.5c17.3,0,31.2-14.1,31.2-31.3S798.5,750,781.2,750V468.8
		C798.4,468.8,812.4,454.8,812.4,437.6z M718.7,750H281.2V468.8h437.5V750z"/>
	<path d="M500,687.5c17.3,0,31.2-14,31.2-31.2v-93.8c0-17.2-14-31.2-31.2-31.2s-31.2,13.9-31.2,31.2v93.8
		C468.8,673.5,482.7,687.5,500,687.5z"/>
	<path d="M375,687.5c17.3,0,31.2-14,31.2-31.2v-93.8c0-17.2-14-31.2-31.2-31.2s-31.2,13.9-31.2,31.2v93.8
		C343.8,673.5,357.7,687.5,375,687.5z"/>
</g>
</svg>
