<?xml version="1.0" encoding="utf-8"?>
<!-- Generator: Adobe Illustrator 25.1.0, SVG Export Plug-In . SVG Version: 6.00 Build 0)  -->
<svg version="1.1" id="Layer_1" xmlns="http://www.w3.org/2000/svg" xmlns:xlink="http://www.w3.org/1999/xlink" x="0px" y="0px"
	 viewBox="0 0 1000 1000" style="enable-background:new 0 0 1000 1000;" xml:space="preserve">
<path d="M778.2,424.2c-5.1-10.9-16.1-17.9-28.2-17.9H562.6V218.8c0-13.2-8.3-25-20.8-29.4c-12.4-4.5-26.3-0.6-34.7,9.6L225.9,542.7
	c-7.7,9.4-9.3,22.3-4.1,33.2c5.1,10.9,16.1,17.9,28.2,17.9h187.6v187.5c0,13.2,8.3,25,20.7,29.4c3.4,1.2,7,1.8,10.5,1.8
	c9.1,0,18.1-4.1,24.1-11.5l281.3-343.6C781.8,448,783.4,435.1,778.2,424.2z M499.9,693.7V562.5c0-17.2-13.9-31.2-31.2-31.2H315.9
	l184.2-225v131.3c0,17.2,13.9,31.2,31.2,31.2H684L499.9,693.7z"/>
</svg>
