<?xml version="1.0" encoding="utf-8"?>
<!-- Generator: Adobe Illustrator 25.1.0, SVG Export Plug-In . SVG Version: 6.00 Build 0)  -->
<svg version="1.1" id="Layer_1" xmlns="http://www.w3.org/2000/svg" xmlns:xlink="http://www.w3.org/1999/xlink" x="0px" y="0px"
	 viewBox="0 0 1000 1000" style="enable-background:new 0 0 1000 1000;" xml:space="preserve">
<g>
	<path d="M345.3,345.3c12.2-12.2,12.2-32,0-44.2L323.2,279c-12.2-12.2-32-12.2-44.2,0s-12.2,32,0,44.2l22.1,22.1
		c6.1,6.1,14.1,9.2,22.1,9.2S339.2,351.4,345.3,345.3z"/>
	<path d="M500,312.4c-50.1,0-97.2,19.5-132.6,54.9c-35.4,35.4-54.9,82.5-54.9,132.6c0,50.1,19.5,97.2,54.9,132.6l17.1,17.1
		c13.8,13.9,21.7,33,21.7,52.5v16.6c0,51.7,42.1,93.8,93.8,93.8s93.8-42.1,93.7-93.8v-16.6c0-19.5,8-38.6,21.8-52.5l17.1-17.1
		c35.4-35.4,54.9-82.5,54.9-132.6c0-50.1-19.5-97.2-54.9-132.6C597.2,331.9,550.1,312.4,500,312.4z M531.2,702.1v16.6
		c0,17.2-14,31.2-31.2,31.2s-31.2-14-31.2-31.2v-16.6c0-4.9-0.3-9.8-0.8-14.6h64C531.4,692.3,531.2,697.2,531.2,702.1z M588.3,588.4
		l-17.1,17.1c-6,6-11.4,12.6-16.2,19.5H444.9c-4.7-6.9-10.1-13.4-16.2-19.5l-17.1-17.1C388,564.8,375,533.4,375,500
		s13-64.8,36.6-88.4c47.2-47.2,129.6-47.2,176.8,0c23.6,23.6,36.6,55,36.6,88.4C625,533.4,612,564.7,588.3,588.4z"/>
	<path d="M500,281.2c17.3,0,31.2-13.9,31.2-31.2v-31.2c0-17.2-14-31.2-31.2-31.2s-31.2,13.9-31.2,31.2V250
		C468.8,267.2,482.7,281.2,500,281.2z"/>
	<path d="M250,468.8h-31.2c-17.2,0-31.2,14-31.2,31.2s13.9,31.2,31.2,31.2H250c17.3,0,31.2-14,31.2-31.2S267.3,468.8,250,468.8z"/>
	<path d="M781.2,468.8H750c-17.2,0-31.2,14-31.2,31.2s13.9,31.2,31.2,31.2h31.2c17.3,0,31.2-14,31.2-31.2S798.5,468.8,781.2,468.8z"
		/>
	<path d="M721,279.1c-12.2-12.2-32-12.2-44.2,0l-22.1,22.1c-12.2,12.2-12.2,32,0,44.2c6.1,6,14.1,9.1,22.1,9.1s16-3.1,22.1-9.1
		l22.1-22.1C733.2,311.1,733.2,291.3,721,279.1z"/>
</g>
</svg>
