<?xml version="1.0" encoding="utf-8"?>
<!-- Generator: Adobe Illustrator 25.0.1, SVG Export Plug-In . SVG Version: 6.00 Build 0)  -->
<svg version="1.1" id="Layer_1" xmlns="http://www.w3.org/2000/svg" xmlns:xlink="http://www.w3.org/1999/xlink" x="0px" y="0px"
	 viewBox="0 0 40 40" style="enable-background:new 0 0 40 40;" xml:space="preserve">
<style type="text/css">
	.st0{fill:none;}
	.st1{fill:#E8E9F3;}
</style>
<rect class="st0" width="40" height="40"/>
<path class="st1" d="M19,30c-0.1,0-0.2,0-0.3-0.1C18.3,29.8,18,29.4,18,29v-6h-6c-0.4,0-0.7-0.2-0.9-0.6c-0.2-0.3-0.1-0.8,0.1-1.1
	l9-11c0.3-0.3,0.7-0.5,1.1-0.3c0.4,0.1,0.7,0.5,0.7,0.9v6h6c0.4,0,0.7,0.2,0.9,0.6c0.2,0.3,0.1,0.8-0.1,1.1l-9,11
	C19.6,29.9,19.3,30,19,30z M14.1,21H19c0.6,0,1,0.4,1,1v4.2l5.9-7.2H21c-0.6,0-1-0.4-1-1v-4.2L14.1,21z"/>
</svg>
