<?xml version="1.0" encoding="utf-8"?>
<!-- Generator: Adobe Illustrator 25.0.1, SVG Export Plug-In . SVG Version: 6.00 Build 0)  -->
<svg version="1.1" id="Layer_1" xmlns="http://www.w3.org/2000/svg" xmlns:xlink="http://www.w3.org/1999/xlink" x="0px" y="0px"
	 viewBox="0 0 40 40" style="enable-background:new 0 0 40 40;" xml:space="preserve">
<style type="text/css">
	.st0{fill:none;}
	.st1{fill:#E8E9F3;}
</style>
<rect class="st0" width="40" height="40"/>
<path class="st1" d="M15,30c-1.3,0-2.6-0.5-3.5-1.5C10.5,27.6,10,26.3,10,25s0.5-2.6,1.5-3.5l4-4c1.9-1.9,5.1-1.9,7.1,0
	c0.4,0.4,0.4,1,0,1.4s-1,0.4-1.4,0c-1.2-1.2-3.1-1.2-4.2,0l-4,4C12.3,23.4,12,24.2,12,25s0.3,1.6,0.9,2.1c1.2,1.2,3.1,1.2,4.2,0
	l1.1-1.1c0.4-0.4,1-0.4,1.4,0s0.4,1,0,1.4l-1.1,1.1C17.6,29.5,16.3,30,15,30z M21,24c-1.3,0-2.6-0.5-3.5-1.5c-0.4-0.4-0.4-1,0-1.4
	s1-0.4,1.4,0c1.1,1.1,3.1,1.1,4.2,0l4-4c1.2-1.2,1.2-3.1,0-4.2c-1.1-1.1-3.1-1.1-4.2,0L21.8,14c-0.4,0.4-1,0.4-1.4,0s-0.4-1,0-1.4
	l1.1-1.1c0.9-0.9,2.2-1.5,3.5-1.5s2.6,0.5,3.5,1.5c1.9,1.9,1.9,5.1,0,7.1l-4,4C23.6,23.5,22.3,24,21,24z"/>
</svg>
