<?xml version="1.0" encoding="utf-8"?>
<!-- Generator: Adobe Illustrator 25.1.0, SVG Export Plug-In . SVG Version: 6.00 Build 0)  -->
<svg version="1.1" id="Layer_1" xmlns="http://www.w3.org/2000/svg" xmlns:xlink="http://www.w3.org/1999/xlink" x="0px" y="0px"
	 viewBox="0 0 1000 1000" style="enable-background:new 0 0 1000 1000;" xml:space="preserve">
<g>
	<path d="M766.7,233.2c-29.5-29.5-68.7-45.8-110.5-45.8s-81,16.3-110.5,45.8l-34.4,34.4c-12.2,12.2-12.2,32,0,44.2s32,12.2,44.2,0
		l34.4-34.4c35.4-35.4,97.2-35.4,132.6,0c17.7,17.7,27.5,41.2,27.5,66.3c0,25.1-9.8,48.6-27.5,66.3l-125,125
		c-35.4,35.4-97.2,35.4-132.6,0c-12.2-12.2-32-12.2-44.2,0s-12.2,32,0,44.2c29.5,29.5,68.8,45.8,110.5,45.8
		c41.8,0,81-16.2,110.5-45.8l125-125c29.5-29.5,45.8-68.8,45.8-110.5C812.5,301.9,796.2,262.7,766.7,233.2z"/>
	<path d="M444.5,688.2l-34.4,34.4c-36.6,36.6-96.1,36.6-132.6,0c-17.7-17.7-27.5-41.2-27.5-66.3s9.8-48.6,27.5-66.3l125-125
		c36.5-36.5,96-36.6,132.6,0c12.2,12.2,32,12.2,44.2,0s12.2-32,0-44.2c-60.9-60.9-160.1-60.9-221,0l-125,125
		c-29.5,29.5-45.8,68.7-45.8,110.5s16.3,81,45.8,110.5c30.5,30.5,70.5,45.7,110.5,45.7s80-15.3,110.5-45.7l34.4-34.4
		c12.2-12.2,12.2-32,0-44.2S456.7,676,444.5,688.2z"/>
</g>
</svg>
