<?xml version="1.0" encoding="utf-8"?>
<!-- Generator: Adobe Illustrator 25.1.0, SVG Export Plug-In . SVG Version: 6.00 Build 0)  -->
<svg version="1.1" id="Layer_1" xmlns="http://www.w3.org/2000/svg" xmlns:xlink="http://www.w3.org/1999/xlink" x="0px" y="0px"
	 viewBox="0 0 1000 1000" style="enable-background:new 0 0 1000 1000;" xml:space="preserve">
<g>
	<path d="M699,262.3c-53.1-53.1-123.8-82.4-198.9-82.4c-75.2,0-145.8,29.3-198.9,82.4c-53.1,53.1-82.4,123.8-82.4,198.9
		s29.3,145.8,82.4,198.9l132.5,132.6C452,811,476,820.1,500,820.1c24.1,0,48.1-9.2,66.3-27.5L699,660.1
		C808.6,550.4,808.6,371.9,699,262.3z M654.8,615.9L522.2,748.5c-12.2,12.2-32,12.1-44.2,0L345.4,615.9
		c-41.3-41.3-64.1-96.3-64.1-154.7s22.8-113.4,64.1-154.7c41.3-41.3,96.3-64.1,154.7-64.1c58.4,0,113.3,22.8,154.7,64.1
		C740.1,391.8,740.1,530.6,654.8,615.9z"/>
	<path d="M500.1,336.2c-68.9,0-125,56.1-125,125s56.1,125,125,125s125-56.1,125-125S569,336.2,500.1,336.2z M500.1,523.7
		c-34.5,0-62.5-28-62.5-62.5s28-62.5,62.5-62.5c34.4,0,62.5,28,62.5,62.5S534.6,523.7,500.1,523.7z"/>
</g>
</svg>
