<?xml version="1.0" encoding="utf-8"?>
<!-- Generator: Adobe Illustrator 25.1.0, SVG Export Plug-In . SVG Version: 6.00 Build 0)  -->
<svg version="1.1" id="Layer_1" xmlns="http://www.w3.org/2000/svg" xmlns:xlink="http://www.w3.org/1999/xlink" x="0px" y="0px"
	 viewBox="0 0 1000 1000" style="enable-background:new 0 0 1000 1000;" xml:space="preserve">
<g>
	<path d="M687.3,437.4h-31.2v-93.8c0-86.1-70.1-156.2-156.2-156.2s-156.2,70-156.2,156.2v93.8h-31.2c-51.7,0-93.8,42.1-93.8,93.8
		v187.5c0,51.7,42.1,93.8,93.8,93.8h375c51.7,0,93.7-42.1,93.6-93.8V531.2C781.1,479.5,739,437.4,687.3,437.4z M406.1,343.7
		c0-51.7,42.1-93.8,93.8-93.8s93.8,42.1,93.8,93.8v93.8H406.2h-0.1V343.7z M718.7,718.7c0,17.2-14,31.2-31.2,31.2h-375
		c-17.2,0-31.2-14-31.2-31.2V531.2c0-17.2,14-31.2,31.2-31.2h375c17.2,0,31.2,14,31.2,31.2V718.7z"/>
	<path d="M500,562.6c-17.2,0-31.2,13.9-31.2,31.2v62.5c0,17.2,13.9,31.2,31.2,31.2s31.2-14,31.2-31.2v-62.5
		C531.2,576.6,517.2,562.6,500,562.6z"/>
</g>
</svg>
