<?xml version="1.0" encoding="utf-8"?>
<!-- Generator: Adobe Illustrator 25.0.1, SVG Export Plug-In . SVG Version: 6.00 Build 0)  -->
<svg version="1.1" id="Layer_1" xmlns="http://www.w3.org/2000/svg" xmlns:xlink="http://www.w3.org/1999/xlink" x="0px" y="0px"
	 viewBox="0 0 40 40" style="enable-background:new 0 0 40 40;" xml:space="preserve">
<style type="text/css">
	.st0{fill:none;}
	.st1{fill:#E8E9F3;}
</style>
<rect class="st0" width="40" height="40"/>
<path class="st1" d="M21,29h-7c-2.2,0-4-1.8-4-4V15c0-2.2,1.8-4,4-4h7c2.2,0,4,1.8,4,4v1c0,0.6-0.4,1-1,1s-1-0.4-1-1v-1
	c0-1.1-0.9-2-2-2h-7c-1.1,0-2,0.9-2,2v10c0,1.1,0.9,2,2,2h7c1.1,0,2-0.9,2-2v-1c0-0.6,0.4-1,1-1s1,0.4,1,1v1C25,27.2,23.2,29,21,29z
	 M19,25c-0.3,0-0.5-0.1-0.7-0.3l-4-4c-0.1-0.1-0.2-0.2-0.2-0.3c0-0.1-0.1-0.2-0.1-0.4l0,0c0,0,0,0,0,0l0,0c0-0.1,0-0.3,0.1-0.4
	c0-0.1,0.1-0.2,0.2-0.3l4-4c0.4-0.4,1-0.4,1.4,0s0.4,1,0,1.4L17.4,19H29c0.6,0,1,0.4,1,1s-0.4,1-1,1H17.4l2.3,2.3
	c0.4,0.4,0.4,1,0,1.4C19.5,24.9,19.3,25,19,25z"/>
</svg>
