<?xml version="1.0" encoding="utf-8"?>
<!-- Generator: Adobe Illustrator 25.1.0, SVG Export Plug-In . SVG Version: 6.00 Build 0)  -->
<svg version="1.1" id="Layer_1" xmlns="http://www.w3.org/2000/svg" xmlns:xlink="http://www.w3.org/1999/xlink" x="0px" y="0px"
	 viewBox="0 0 1000 1000" style="enable-background:new 0 0 1000 1000;" xml:space="preserve">
<g>
	<path d="M531.3,593.8c-17.2,0-31.2,13.9-31.2,31.2v31.3c0,34.5-28,62.5-62.5,62.5h-125c-34.5,0-62.5-28-62.5-62.5V343.8
		c0-34.5,28-62.5,62.5-62.5h125c34.5,0,62.5,28,62.5,62.5V375c0,17.2,13.9,31.2,31.2,31.2c17.2,0,31.2-13.9,31.2-31.2v-31.2
		c0-68.9-56.1-125-125-125h-125c-68.9,0-125,56.1-125,125v312.4c0,68.9,56.1,125,125,125h125c68.9,0,125-56,125-125V625
		C562.5,607.8,548.6,593.8,531.3,593.8z"/>
	<path d="M810.2,488c-1.5-3.7-3.8-7.2-6.8-10.2l-125-125c-12.2-12.2-32-12.2-44.2,0s-12.2,32,0,44.2l71.7,71.7H343.8
		c-17.2,0-31.2,14-31.2,31.2s13.9,31.2,31.2,31.2h362l-71.7,71.7c-12.2,12.2-12.2,32,0,44.2c6.1,6.1,14.1,9.2,22.1,9.2
		s16-3,22.2-9.2l125-125c3-3,5.3-6.5,6.8-10.2c1.4-3.6,2.3-7.6,2.3-11.8c0-0.1,0-0.1,0-0.2C812.5,495.6,811.7,491.6,810.2,488z"/>
</g>
</svg>
