<?xml version="1.0" encoding="utf-8"?>
<!-- Generator: Adobe Illustrator 25.1.0, SVG Export Plug-In . SVG Version: 6.00 Build 0)  -->
<svg version="1.1" id="Layer_1" xmlns="http://www.w3.org/2000/svg" xmlns:xlink="http://www.w3.org/1999/xlink" x="0px" y="0px"
	 viewBox="0 0 1000 1000" style="enable-background:new 0 0 1000 1000;" xml:space="preserve">
<path d="M812.4,428.1c-1.7-29.4-16.9-56.3-41.6-72.7L552,209.6c-31.6-21.1-72.4-21.1-104,0L229.1,355.4
	c-24.7,16.4-40,43.3-41.6,72.7c-0.1,1.4-0.1,2.7-0.1,4c0,0.4,0,0.9,0,1.3v278.7c0,0.3,0,0.6,0,1c0.4,51.4,42.3,93.1,93.8,93.1h437.5
	c51.5,0,93.5-41.7,93.9-93.2c0-0.3,0-0.7,0-1V433.4c0-0.4,0-0.8,0-1.3C812.6,430.7,812.5,429.4,812.4,428.1z M263.9,407.4
	l218.7-145.8c10.6-7,24.2-7,34.7,0L736,407.4c3.9,2.6,7.2,6,9.5,10l-192,128c-0.4,0.3-0.8,0.5-1.2,0.8l-35,23.4
	c-10.5,7-24.2,7-34.7,0l-35-23.4c-0.4-0.2-0.8-0.5-1.2-0.8l-192-128C256.7,413.5,259.9,410,263.9,407.4z M250,489.6l123.4,82.3
	L250,654.1V489.6z M718.7,743.7H281.2c-12,0-22.5-6.9-27.7-16.9l176.2-117.4l18.3,12.2c31.6,21,72.4,21.1,104,0l18.3-12.2
	l176.1,117.4C741.2,736.8,730.8,743.7,718.7,743.7z M750,654.1l-123.4-82.3L750,489.6V654.1z"/>
</svg>
