<?xml version="1.0" encoding="utf-8"?>
<!-- Generator: Adobe Illustrator 25.0.1, SVG Export Plug-In . SVG Version: 6.00 Build 0)  -->
<svg version="1.1" id="Layer_1" xmlns="http://www.w3.org/2000/svg" xmlns:xlink="http://www.w3.org/1999/xlink" x="0px" y="0px"
	 viewBox="0 0 40 40" style="enable-background:new 0 0 40 40;" xml:space="preserve">
<style type="text/css">
	.st0{fill:none;}
	.st1{fill:#E8E9F3;}
</style>
<rect class="st0" width="40" height="40"/>
<path class="st1" d="M27,28H13c-1.6,0-3-1.3-3-3l0,0v-8.9l0,0V16c0.1-0.9,0.5-1.8,1.3-2.3l7-4.7c1-0.7,2.3-0.7,3.3,0l7,4.7
	c0.8,0.5,1.3,1.4,1.3,2.3v0.1l0,0V25l0,0C30,26.7,28.6,28,27,28z M12.1,25.5c0.2,0.3,0.5,0.5,0.9,0.5h14c0.4,0,0.7-0.2,0.9-0.5
	l-5.6-3.8l-0.6,0.4c-1,0.7-2.3,0.7-3.3,0l-0.6-0.4L12.1,25.5z M24.1,20.5l3.9,2.6v-5.3L24.1,20.5z M12,17.9v5.3l3.9-2.6L12,17.9z
	 M18.3,19.7l1.1,0.7c0.3,0.2,0.8,0.2,1.1,0l1.1-0.7l0,0l6.1-4.1c-0.1-0.1-0.2-0.2-0.3-0.3l-7-4.7c-0.3-0.2-0.8-0.2-1.1,0l-7,4.7
	c-0.1,0.1-0.2,0.2-0.3,0.3L18.3,19.7L18.3,19.7z"/>
</svg>
