<?xml version="1.0" encoding="utf-8"?>
<!-- Generator: Adobe Illustrator 25.1.0, SVG Export Plug-In . SVG Version: 6.00 Build 0)  -->
<svg version="1.1" id="Layer_1" xmlns="http://www.w3.org/2000/svg" xmlns:xlink="http://www.w3.org/1999/xlink" x="0px" y="0px"
	 viewBox="0 0 1000 1000" style="enable-background:new 0 0 1000 1000;" xml:space="preserve">
<path d="M718.7,249.9H281.2c-51.7,0-93.8,42.1-93.8,93.8v30.8c0,0.3,0,0.6,0,0.9v280.8c0,51.7,42.1,93.8,93.8,93.8h437.6
	c51.6,0,93.7-42.1,93.7-93.8V375.4c0-0.3,0-0.6,0-0.9v-30.8C812.5,292,770.4,249.9,718.7,249.9z M749.9,656.3
	c0,17.2-14,31.2-31.2,31.2H281.2c-17.2,0-31.2-14-31.2-31.2V433.4l197.9,132c31.6,21.1,72.4,21.1,104,0l198-132V656.3z M750,358.3
	L517.4,513.4c-10.5,7-24.2,7-34.7,0L250,358.3v-14.5c0-17.2,14-31.2,31.2-31.2h437.6c17.2,0,31.2,14,31.2,31.2V358.3z"/>
</svg>
