<?xml version="1.0" encoding="utf-8"?>
<!-- Generator: Adobe Illustrator 25.0.1, SVG Export Plug-In . SVG Version: 6.00 Build 0)  -->
<svg version="1.1" id="Layer_1" xmlns="http://www.w3.org/2000/svg" xmlns:xlink="http://www.w3.org/1999/xlink" x="0px" y="0px"
	 viewBox="0 0 40 40" style="enable-background:new 0 0 40 40;" xml:space="preserve">
<style type="text/css">
	.st0{fill:none;}
	.st1{fill:#E8E9F3;}
</style>
<rect class="st0" width="40" height="40"/>
<path class="st1" d="M17,29C17,29,17,29,17,29c-0.1,0-0.2,0-0.2,0c-0.1,0-0.2,0-0.2-0.1l-5.4-2.7c-0.7-0.3-1.1-1-1.1-1.8V13.6
	c0-0.7,0.4-1.3,0.9-1.7c0.6-0.4,1.3-0.4,1.9-0.1l4.1,2.1l5.5-2.8c0.1,0,0.2-0.1,0.2-0.1c0.1,0,0.2,0,0.2,0h0h0c0.1,0,0.2,0,0.2,0
	c0.1,0,0.2,0,0.2,0.1l5.4,2.7c0.7,0.3,1.1,1,1.1,1.8v10.8c0,0.7-0.4,1.3-0.9,1.7c-0.6,0.4-1.3,0.4-1.9,0.1L23,26.1l-5.5,2.8
	c-0.1,0-0.2,0.1-0.2,0.1C17.2,29,17.1,29,17,29z M18,15.6v10.8l4-2V13.6L18,15.6z M24,24.4l4,2V15.6l-4-2V24.4z M12,13.6v10.8l4,2
	V15.6L12,13.6z"/>
</svg>
