<?xml version="1.0" encoding="utf-8"?>
<!-- Generator: Adobe Illustrator 25.1.0, SVG Export Plug-In . SVG Version: 6.00 Build 0)  -->
<svg version="1.1" id="Layer_1" xmlns="http://www.w3.org/2000/svg" xmlns:xlink="http://www.w3.org/1999/xlink" x="0px" y="0px"
	 viewBox="0 0 1000 1000" style="enable-background:new 0 0 1000 1000;" xml:space="preserve">
<path d="M778,307.2l-169.8-84.9c-2.3-1.2-4.7-2.1-7.3-2.7c-2.4-0.6-4.8-0.9-7.2-0.9c-2.3,0-4.7,0.2-7.1,0.8
	c-2.6,0.6-5.1,1.6-7.4,2.8l-173,86.5l-128.3-64.1c-19.5-9.8-42.2-8.8-60.8,2.7c-18.5,11.5-29.6,31.4-29.6,53.2v336.3
	c0,23.8,13.2,45.2,34.5,55.9l169.7,84.8c2.3,1.2,4.7,2.1,7.3,2.7c2.4,0.6,4.8,0.9,7.3,0.9c2.3,0,4.7-0.2,7.1-0.7
	c2.6-0.6,5.1-1.5,7.4-2.7l173-86.5l128.3,64.1c19.5,9.8,42.2,8.7,60.8-2.7c18.5-11.5,29.6-31.4,29.6-53.2V363.1
	C812.5,339.3,799.3,317.9,778,307.2z M375,699.5L250,637V300.6l125,62.5V699.5z M562.5,637l-125,62.5V363.1l125-62.5V637z
	 M750,699.4l-125-62.5V300.6l125,62.5V699.4z"/>
</svg>
