<?xml version="1.0" encoding="utf-8"?>
<!-- Generator: Adobe Illustrator 25.0.1, SVG Export Plug-In . SVG Version: 6.00 Build 0)  -->
<svg version="1.1" id="Layer_1" xmlns="http://www.w3.org/2000/svg" xmlns:xlink="http://www.w3.org/1999/xlink" x="0px" y="0px"
	 viewBox="0 0 40 40" style="enable-background:new 0 0 40 40;" xml:space="preserve">
<style type="text/css">
	.st0{fill:none;}
	.st1{fill:#E8E9F3;}
</style>
<rect class="st0" width="40" height="40"/>
<path class="st1" d="M20,31c-0.8,0-1.5-0.3-2.1-0.9l-4.2-4.2c-1.7-1.7-2.6-4-2.6-6.4s0.9-4.7,2.6-6.4c3.5-3.5,9.2-3.5,12.7,0
	s3.5,9.2,0,12.7l0,0L22.2,30C21.5,30.7,20.8,31,20,31z M20,12.5c-1.8,0-3.6,0.7-4.9,2s-2.1,3.1-2.1,5s0.7,3.6,2.1,4.9l4.2,4.2
	c0.4,0.4,1,0.4,1.4,0l4.2-4.2c2.7-2.7,2.7-7.2,0-9.9C23.6,13.2,21.8,12.5,20,12.5z M25.7,25.2L25.7,25.2L25.7,25.2z"/>
<path class="st1" d="M20,24.8c-2.2,0-4-1.8-4-4s1.8-4,4-4s4,1.8,4,4S22.2,24.8,20,24.8z M20,18.8c-1.1,0-2,0.9-2,2s0.9,2,2,2
	s2-0.9,2-2C22,19.7,21.1,18.8,20,18.8z"/>
</svg>
