<?xml version="1.0" encoding="utf-8"?>
<!-- Generator: Adobe Illustrator 25.1.0, SVG Export Plug-In . SVG Version: 6.00 Build 0)  -->
<svg version="1.1" id="Layer_1" xmlns="http://www.w3.org/2000/svg" xmlns:xlink="http://www.w3.org/1999/xlink" x="0px" y="0px"
	 viewBox="0 0 1000 1000" style="enable-background:new 0 0 1000 1000;" xml:space="preserve">
<g>
	<path d="M750,468.8H250c-17.2,0-31.2,14-31.2,31.2s13.9,31.2,31.2,31.2h500c17.3,0,31.2-14,31.2-31.2S767.3,468.8,750,468.8z"/>
	<path d="M250,343.8h500c17.3,0,31.2-14,31.2-31.2s-13.9-31.2-31.2-31.2H250c-17.2,0-31.2,14-31.2,31.2S232.7,343.8,250,343.8z"/>
	<path d="M750,656.4H250c-17.2,0-31.2,14-31.2,31.2s13.9,31.2,31.2,31.2h500c17.3,0,31.2-14,31.2-31.2S767.3,656.4,750,656.4z"/>
</g>
</svg>
