<?xml version="1.0" encoding="utf-8"?>
<!-- Generator: Adobe Illustrator 25.1.0, SVG Export Plug-In . SVG Version: 6.00 Build 0)  -->
<svg version="1.1" id="Layer_1" xmlns="http://www.w3.org/2000/svg" xmlns:xlink="http://www.w3.org/1999/xlink" x="0px" y="0px"
	 viewBox="0 0 1000 1000" style="enable-background:new 0 0 1000 1000;" xml:space="preserve">
<g>
	<path d="M749.8,468.8c0-17.2-14-31.2-31.2-31.2s-31.2,13.9-31.2,31.2c0,103.4-84.1,187.5-187.5,187.5s-187.5-84.1-187.5-187.5
		c0-17.2-14-31.2-31.2-31.2S250,451.5,250,468.8c0,127.2,95.6,232.6,218.8,248.1v64.5H375c-17.2,0-31.2,14-31.2,31.2
		s13.9,31.2,31.2,31.2h250c17.3,0,31.2-14.1,31.2-31.3s-13.9-31.2-31.2-31.2h-94v-64.5C654.2,701.4,749.8,596.1,749.8,468.8z"/>
	<path d="M500,593.8c68.9,0,125-56.1,125-125.1V281.2c0-68.9-56.1-125-125-125s-125,56.1-125,125v187.6
		C375,537.7,431.1,593.8,500,593.8z M437.5,281.3c0-34.5,28-62.5,62.5-62.5s62.5,28,62.5,62.4v187.6c0,34.5-28,62.5-62.5,62.5
		s-62.5-28-62.5-62.5V281.3z"/>
</g>
</svg>
