<?xml version="1.0" encoding="utf-8"?>
<!-- Generator: Adobe Illustrator 25.0.1, SVG Export Plug-In . SVG Version: 6.00 Build 0)  -->
<svg version="1.1" id="Layer_1" xmlns="http://www.w3.org/2000/svg" xmlns:xlink="http://www.w3.org/1999/xlink" x="0px" y="0px"
	 viewBox="0 0 40 40" style="enable-background:new 0 0 40 40;" xml:space="preserve">
<style type="text/css">
	.st0{fill:none;}
	.st1{fill:#E8E9F3;}
</style>
<rect class="st0" width="40" height="40"/>
<path class="st1" d="M24,31h-8c-0.6,0-1-0.4-1-1s0.4-1,1-1h3v-2.1c-3.9-0.5-7-3.9-7-7.9c0-0.6,0.4-1,1-1s1,0.4,1,1c0,3.3,2.7,6,6,6
	s6-2.7,6-6c0-0.6,0.4-1,1-1s1,0.4,1,1c0,4.1-3.1,7.4-7,7.9V29h3c0.6,0,1,0.4,1,1S24.6,31,24,31z M20,23c-2.2,0-4-1.8-4-4v-6
	c0-2.2,1.8-4,4-4c2.2,0,4,1.8,4,4v6C24,21.2,22.2,23,20,23z M20,11c-1.1,0-2,0.9-2,2v6c0,1.1,0.9,2,2,2c1.1,0,2-0.9,2-2v-6
	C22,11.9,21.1,11,20,11z"/>
</svg>
