<?xml version="1.0" encoding="utf-8"?>
<!-- Generator: Adobe Illustrator 25.0.1, SVG Export Plug-In . SVG Version: 6.00 Build 0)  -->
<svg version="1.1" id="Layer_1" xmlns="http://www.w3.org/2000/svg" xmlns:xlink="http://www.w3.org/1999/xlink" x="0px" y="0px"
	 viewBox="0 0 40 40" style="enable-background:new 0 0 40 40;" xml:space="preserve">
<style type="text/css">
	.st0{fill:none;}
	.st1{fill:#E8E9F3;}
</style>
<rect class="st0" width="40" height="40"/>
<path class="st1" d="M20,30c-5.5,0-10-4.5-10-10c0-4.1,2.5-7.8,6.3-9.3c0.4-0.2,0.8-0.1,1.1,0.2c0.3,0.3,0.4,0.7,0.2,1.1
	C17.2,13,17,14,17,15c0,4.4,3.6,8,8,8c1,0,2-0.2,3-0.6c0.4-0.2,0.8-0.1,1.1,0.2c0.3,0.3,0.4,0.7,0.2,1.1C27.8,27.5,24.1,30,20,30z
	 M15.1,13.7C13.2,15.2,12,17.5,12,20c0,4.4,3.6,8,8,8c2.5,0,4.8-1.2,6.3-3.1C25.9,25,25.4,25,25,25c-5.5,0-10-4.5-10-10
	C15,14.6,15,14.1,15.1,13.7z"/>
</svg>
