<?xml version="1.0" encoding="utf-8"?>
<!-- Generator: Adobe Illustrator 25.1.0, SVG Export Plug-In . SVG Version: 6.00 Build 0)  -->
<svg version="1.1" id="Layer_1" xmlns="http://www.w3.org/2000/svg" xmlns:xlink="http://www.w3.org/1999/xlink" x="0px" y="0px"
	 viewBox="0 0 1000 1000" style="enable-background:new 0 0 1000 1000;" xml:space="preserve">
<path d="M793.3,572.7c-8.8-8.9-22.1-11.6-33.7-6.9c-29.7,11.9-61,17.9-93.2,17.9c-137.8,0-250-112.2-250-250
	c0-32.3,6-63.6,17.9-93.2c4.7-11.7,2-24.9-6.9-33.8c-8.9-8.9-22.2-11.6-33.8-6.9c-119,47.9-196,161.7-196,290.1
	c0,172.3,140.2,312.5,312.5,312.5c128.3,0,242.2-76.9,290.1-195.9C804.9,594.8,802.2,581.6,793.3,572.7z M510.1,739.9
	c-137.8,0-250-112.2-250-250c0-78.9,36.3-151,96.4-197.5c-1.8,13.6-2.7,27.4-2.7,41.3c0,172.3,140.2,312.5,312.5,312.5
	c13.9,0,27.7-0.9,41.3-2.7C661.1,703.5,589,739.9,510.1,739.9z"/>
</svg>
