<?xml version="1.0" encoding="utf-8"?>
<!-- Generator: Adobe Illustrator 25.1.0, SVG Export Plug-In . SVG Version: 6.00 Build 0)  -->
<svg version="1.1" id="Layer_1" xmlns="http://www.w3.org/2000/svg" xmlns:xlink="http://www.w3.org/1999/xlink" x="0px" y="0px"
	 viewBox="0 0 1000 1000" style="enable-background:new 0 0 1000 1000;" xml:space="preserve">
<path d="M800.5,194.1c-7.6-6-17.5-8-26.8-5.7l-375,93.8c-13.9,3.5-23.7,16-23.7,30.3v124.2c0,0.5,0,0.9,0,1.4v199
	c-18.3-7.8-39.6-12.2-62.5-12.2c-70.1,0-125,41.2-125,93.8s54.9,93.8,125,93.8s125-41.2,125-93.7V461.9L750,383.8v159.6
	c-18.3-7.8-39.6-12.2-62.5-12.2c-70.1,0-125,41.2-125,93.8s54.9,93.8,125,93.8s125-41.2,125-93.8V344.4c0-0.5,0-0.9,0-1.4V218.7
	C812.5,209.1,808.1,200,800.5,194.1z M312.5,749.9c-38.1,0-62.5-18.5-62.5-31.2s24.4-31.2,62.5-31.2c38.1,0,62.5,18.5,62.5,31.2
	S350.6,749.9,312.5,749.9z M687.5,656.2c-38.1,0-62.5-18.5-62.5-31.2s24.4-31.2,62.5-31.2S750,612.2,750,625
	S725.6,656.2,687.5,656.2z M750,319.4l-312.5,78.1v-60.6L750,258.8V319.4z"/>
</svg>
