<?xml version="1.0" encoding="utf-8"?>
<!-- Generator: Adobe Illustrator 25.1.0, SVG Export Plug-In . SVG Version: 6.00 Build 0)  -->
<svg version="1.1" id="Layer_1" xmlns="http://www.w3.org/2000/svg" xmlns:xlink="http://www.w3.org/1999/xlink" x="0px" y="0px"
	 viewBox="0 0 1000 1000" style="enable-background:new 0 0 1000 1000;" xml:space="preserve">
<g>
	<path d="M781.3,750h-31.2V281.2c0-51.7-42.1-93.8-93.8-93.8H343.8c-51.7,0-93.8,42.1-93.8,93.8v468.9h-31.2
		c-17.2,0-31.2,14-31.2,31.2s13.9,31.2,31.2,31.2h562.4c17.3,0,31.3-14.1,31.3-31.3S798.6,750,781.3,750z M531.3,750h-62.5V625h62.5
		V750z M687.6,750h-93.7V625c0-34.5-28-62.5-62.5-62.5h-62.5c-34.5,0-62.5,28-62.5,62.5v125h-93.8V281.2c0-17.2,14-31.2,31.2-31.2
		h312.6c17.2,0,31.2,14,31.2,31.2V750z"/>
	<path d="M437.5,437.6h-31.2c-17.2,0-31.2,14-31.2,31.2S389,500,406.3,500h31.2c17.3,0,31.2-14,31.2-31.2S454.8,437.6,437.5,437.6z"
		/>
	<path d="M593.8,437.6h-31.2c-17.2,0-31.2,14-31.2,31.2s13.9,31.2,31.2,31.2h31.2c17.2,0,31.2-14,31.2-31.2S611.1,437.6,593.8,437.6
		z"/>
	<path d="M437.5,312.6h-31.2c-17.2,0-31.2,14-31.2,31.2S389,375,406.3,375h31.2c17.3,0,31.2-14,31.2-31.2S454.8,312.6,437.5,312.6z"
		/>
	<path d="M593.8,312.6h-31.2c-17.2,0-31.2,14-31.2,31.2s13.9,31.2,31.2,31.2h31.2c17.2,0,31.2-14,31.2-31.2S611.1,312.6,593.8,312.6
		z"/>
</g>
</svg>
