<?xml version="1.0" encoding="utf-8"?>
<!-- Generator: Adobe Illustrator 25.1.0, SVG Export Plug-In . SVG Version: 6.00 Build 0)  -->
<svg version="1.1" id="Layer_1" xmlns="http://www.w3.org/2000/svg" xmlns:xlink="http://www.w3.org/1999/xlink" x="0px" y="0px"
	 viewBox="0 0 1000 1000" style="enable-background:new 0 0 1000 1000;" xml:space="preserve">
<path d="M780,509.2c-12.2-12.2-32-12.3-44.2-0.1L540.2,704.2c-29.5,29.5-68.8,45.8-110.5,45.8s-81-16.2-110.5-45.7
	s-45.8-68.8-45.8-110.5c0-41.8,16.3-81,46.1-110.8l200.1-205.5c35.4-35.4,97.2-35.4,132.6,0c17.7,17.7,27.5,41.2,27.5,66.3
	c0,25.1-9.8,48.6-27.8,66.6L451.8,615.9c-11.8,11.8-32.4,11.8-44.2,0c-5.9-5.9-9.2-13.8-9.2-22.1c0-8.4,3.3-16.2,9.2-22.1
	l205.8-205.9c12.2-12.2,12.2-32,0-44.2s-32-12.2-44.2,0L363.4,527.4c-17.7,17.7-27.5,41.2-27.5,66.3c0,25,9.8,48.6,27.5,66.3
	c35.5,35.4,96.9,35.7,132.9-0.3l200.1-205.5c29.5-29.5,45.8-68.8,45.8-110.5c0-41.8-16.3-81-45.8-110.5s-68.7-45.8-110.5-45.8
	s-81,16.3-110.8,46.1L275,439c-41.3,41.3-64.1,96.2-64.1,154.7s22.8,113.4,64.1,154.7c41.3,41.3,96.3,64.1,154.7,64.1
	c58.4,0,113.4-22.8,154.6-64.1l195.6-195C792.2,541.2,792.2,521.4,780,509.2z"/>
</svg>
