<?xml version="1.0" encoding="utf-8"?>
<!-- Generator: Adobe Illustrator 25.0.1, SVG Export Plug-In . SVG Version: 6.00 Build 0)  -->
<svg version="1.1" id="Layer_1" xmlns="http://www.w3.org/2000/svg" xmlns:xlink="http://www.w3.org/1999/xlink" x="0px" y="0px"
	 viewBox="0 0 40 40" style="enable-background:new 0 0 40 40;" xml:space="preserve">
<style type="text/css">
	.st0{fill:none;}
	.st1{fill:#E8E9F3;}
</style>
<rect class="st0" width="40" height="40"/>
<path class="st1" d="M14.5,30H11c-0.6,0-1-0.4-1-1v-3.6c0-0.3,0.1-0.5,0.3-0.7L24,11l0,0c1.4-1.4,3.6-1.4,4.9,0c0.7,0.7,1,1.5,1,2.5
	s-0.4,1.8-1,2.5l-1.5,1.5l0,0L15.2,29.7C15,29.9,14.8,30,14.5,30z M12,28h2.1l11.3-11.3l-2.1-2.1L12,25.9V28z M24.6,13.2l2.1,2.1
	l0.8-0.8c0.3-0.3,0.4-0.7,0.4-1.1c0-0.4-0.2-0.8-0.4-1.1c-0.6-0.6-1.5-0.6-2.1,0L24.6,13.2z"/>
</svg>
