<?xml version="1.0" encoding="utf-8"?>
<!-- Generator: Adobe Illustrator 25.1.0, SVG Export Plug-In . SVG Version: 6.00 Build 0)  -->
<svg version="1.1" id="Layer_1" xmlns="http://www.w3.org/2000/svg" xmlns:xlink="http://www.w3.org/1999/xlink" x="0px" y="0px"
	 viewBox="0 0 1000 1000" style="enable-background:new 0 0 1000 1000;" xml:space="preserve">
<g>
	<path d="M703.1,515.6c-17.2,0-31.2,13.9-31.2,31.2v156.1c0,17.2-14,31.2-31.2,31.2H296.9c-17.2,0-31.2-14-31.2-31.2V359.1
		c0-17.2,14-31.2,31.2-31.2h156.2c17.2,0,31.2-14,31.2-31.2s-13.9-31.2-31.2-31.2H296.9c-51.7,0-93.8,42.1-93.8,93.8V703
		c0,51.7,42.1,93.8,93.8,93.8h343.7c51.7,0,93.8-42,93.7-93.8V546.8C734.3,529.6,720.3,515.6,703.1,515.6z"/>
	<path d="M769.5,230.6c-36.6-36.5-96-36.5-132.6,0L368.6,498.9c-5.9,5.9-9.2,13.8-9.2,22.1v88.4c0,17.2,13.9,31.2,31.2,31.2H479
		c8.3,0,16.3-3.3,22.1-9.2l268.4-268.2C806.1,326.6,806.1,267.2,769.5,230.6z M725.2,318.9L466.1,578.1h-44.2v-44.2L681,274.7
		c12.2-12.2,32-12.2,44.2,0S737.4,306.7,725.2,318.9z"/>
</g>
</svg>
