<?xml version="1.0" encoding="utf-8"?>
<!-- Generator: Adobe Illustrator 25.1.0, SVG Export Plug-In . SVG Version: 6.00 Build 0)  -->
<svg version="1.1" id="Layer_1" xmlns="http://www.w3.org/2000/svg" xmlns:xlink="http://www.w3.org/1999/xlink" x="0px" y="0px"
	 viewBox="0 0 1000 1000" style="enable-background:new 0 0 1000 1000;" xml:space="preserve">
<g>
	<path d="M571.7,428.4c3,3,6.5,5.3,10.2,6.8c3.6,1.5,7.6,2.3,11.8,2.3h0.1H750c17.3,0,31.2-14.1,31.2-31.3S767.3,375,750,375h-80.8
		l134.2-134.2c12.2-12.2,12.2-32,0-44.2s-32-12.2-44.2,0L625,330.8V250c0-17.2-14-31.2-31.2-31.2s-31.2,13.9-31.2,31.2v156.3v0.1
		c0,4.2,0.8,8.2,2.3,11.8C566.4,421.9,568.7,425.4,571.7,428.4z"/>
	<path d="M769.8,557l-140.2-46.8c-29.3-9.8-61.9,3.7-75.7,31.3l-21.2,42.4C484.2,556.2,444,516,416.3,467.5l42.4-21.2
		c27.6-13.9,41.1-46.4,31.3-75.7l-46.8-140.4c-8.5-25.5-32.4-42.7-59.3-42.7H281.4c-51.7,0-93.8,42.1-93.8,93.8v31.2
		c0,275.7,224.3,500,500,500h31.2c51.6,0,93.7-42.1,93.7-93.7V616.3C812.5,589.3,795.3,565.5,769.8,557z M749.9,718.8
		c0,17.2-14,31.2-31.2,31.2h-31.2C446.3,750,250,553.7,250,312.4v-31.2c0-17.2,14-31.2,31.2-31.2h102.5l46.8,140.4L360,425.7
		c-15,7.5-21.4,25.5-14.5,40.8c37.7,83.6,104.4,150.3,188,188c15.3,7,33.3,0.5,40.8-14.5l35.2-70.5l140.4,46.8V718.8z"/>
</g>
</svg>
