<?xml version="1.0" encoding="utf-8"?>
<!-- Generator: Adobe Illustrator 25.1.0, SVG Export Plug-In . SVG Version: 6.00 Build 0)  -->
<svg version="1.1" id="Layer_1" xmlns="http://www.w3.org/2000/svg" xmlns:xlink="http://www.w3.org/1999/xlink" x="0px" y="0px"
	 viewBox="0 0 1000 1000" style="enable-background:new 0 0 1000 1000;" xml:space="preserve">
<g>
	<path d="M593.8,437.5c7.9,0,15.9-3.1,22-9.2L750,294.2V375c0,17.3,14,31.2,31.2,31.2s31.2-13.9,31.2-31.2V218.8v-0.1
		c0-4.2-0.8-8.2-2.3-11.8c-1.5-3.7-3.8-7.2-6.8-10.2s-6.5-5.3-10.2-6.8c-3.6-1.5-7.6-2.3-11.8-2.3h-0.1H625
		c-17.2,0-31.2,14-31.2,31.2S607.7,250,625,250h80.8L571.7,384.1c-12.2,12.2-12.2,32,0,44.2C577.8,434.4,585.8,437.5,593.8,437.5z"
		/>
	<path d="M769.8,557l-140.2-46.8c-29.3-9.8-61.9,3.7-75.7,31.3l-21.2,42.4C484.2,556.2,444,516,416.3,467.5l42.4-21.2
		c27.6-13.9,41.1-46.4,31.3-75.7l-46.8-140.4c-8.5-25.5-32.4-42.7-59.3-42.7H281.4c-51.7,0-93.8,42.1-93.8,93.8v31.2
		c0,275.7,224.3,500,500,500h31.2c51.6,0,93.7-42.1,93.7-93.7V616.3C812.5,589.3,795.3,565.5,769.8,557z M749.9,718.8
		c0,17.2-14,31.2-31.2,31.2h-31.2C446.3,750,250,553.7,250,312.4v-31.2c0-17.2,14-31.2,31.2-31.2h102.5l46.8,140.4L360,425.7
		c-15,7.5-21.4,25.5-14.5,40.8c37.7,83.6,104.4,150.3,188,188c15.3,7,33.3,0.5,40.8-14.5l35.2-70.5l140.4,46.8V718.8z"/>
</g>
</svg>
