<?xml version="1.0" encoding="utf-8"?>
<!-- Generator: Adobe Illustrator 25.1.0, SVG Export Plug-In . SVG Version: 6.00 Build 0)  -->
<svg version="1.1" id="Layer_1" xmlns="http://www.w3.org/2000/svg" xmlns:xlink="http://www.w3.org/1999/xlink" x="0px" y="0px"
	 viewBox="0 0 1000 1000" style="enable-background:new 0 0 1000 1000;" xml:space="preserve">
<g>
	<path d="M562.8,343.8h-0.3c-17.3,0-31.1,14-31.1,31.2s14.1,31.2,31.4,31.2s31.2-14,31.2-31.2S580.1,343.8,562.8,343.8z"/>
	<path d="M687.5,218.6h-375c-51.7,0-93.8,42.1-93.8,93.8v375c0,51.7,42.1,93.8,93.8,93.8h375c51.7,0,93.7-42,93.8-93.8v-375
		C781.3,260.7,739.2,218.6,687.5,218.6z M718.6,687.5c0,17.2-14,31.2-31.2,31.2h-375c-17.2,0-31.2-14-31.2-31.2v-49.6l134-134.2
		c12.2-12.2,32-12.2,44.2,0l80.8,80.8c0,0.1,0.1,0.1,0.1,0.1l62.5,62.5c12.2,12.2,32,12.2,44.2,0s12.2-32,0-44.2l-40.4-40.4
		l27.5-27.5c12.2-12.1,32-12.1,44.2,0l40.3,40.4V687.5z M718.9,487.1c-36.7-32.9-93.5-31.7-128.8,3.6l-27.5,27.5l-58.7-58.7
		c-35.4-35.4-97.2-35.4-132.6,0l-90,90V312.4c0-17.2,14-31.2,31.2-31.2v0.1h375.2c17.2,0,31.2,14,31.2,31.2V487.1z"/>
</g>
</svg>
