<?xml version="1.0" encoding="utf-8"?>
<!-- Generator: Adobe Illustrator 25.1.0, SVG Export Plug-In . SVG Version: 6.00 Build 0)  -->
<svg version="1.1" id="Layer_1" xmlns="http://www.w3.org/2000/svg" xmlns:xlink="http://www.w3.org/1999/xlink" x="0px" y="0px"
	 viewBox="0 0 1000 1000" style="enable-background:new 0 0 1000 1000;" xml:space="preserve">
<g>
	<path d="M603.4,448l-99.9-66.6c-19.2-12.8-43.8-14-64.2-3.1c-20.4,10.9-33,32-33,55.1v133.2c0,23.1,12.6,44.2,33,55.1
		c9.3,4.9,19.4,7.4,29.5,7.4c12.1,0,24.2-3.5,34.7-10.5l99.9-66.6c17.4-11.6,27.8-31,27.8-52S620.8,459.6,603.4,448z M468.8,566.6
		V433.4l99.9,66.6L468.8,566.6z"/>
	<path d="M500,187.5c-172.3,0-312.5,140.2-312.5,312.5S327.7,812.5,500,812.5S812.5,672.3,812.5,500S672.3,187.5,500,187.5z
		 M500,750c-137.8,0-250-112.2-250-250s112.2-250,250-250s250,112.2,250,250S637.8,750,500,750z"/>
</g>
</svg>
