<?xml version="1.0" encoding="utf-8"?>
<!-- Generator: Adobe Illustrator 25.1.0, SVG Export Plug-In . SVG Version: 6.00 Build 0)  -->
<svg version="1.1" id="Layer_1" xmlns="http://www.w3.org/2000/svg" xmlns:xlink="http://www.w3.org/1999/xlink" x="0px" y="0px"
	 viewBox="0 0 1000 1000" style="enable-background:new 0 0 1000 1000;" xml:space="preserve">
<path d="M639.9,468.8H531.1v0h-0.4V359.6c0-24.2-14-43.9-31.2-43.9s-31.2,19.6-31.2,43.9v109.2H359.2c-24.3,0-44,14-44,31.2
	c0,17.2,19.6,31.2,44,31.2h109.2v0h0.4v109.2c0,24.2,14,43.9,31.2,43.9s31.2-19.6,31.2-43.9V531.2h108.7c24.2,0,43.9-14,43.9-31.2
	C683.8,482.8,664.2,468.8,639.9,468.8z"/>
</svg>
