<?xml version="1.0" encoding="utf-8"?>
<!-- Generator: Adobe Illustrator 25.0.1, SVG Export Plug-In . SVG Version: 6.00 Build 0)  -->
<svg version="1.1" id="Layer_1" xmlns="http://www.w3.org/2000/svg" xmlns:xlink="http://www.w3.org/1999/xlink" x="0px" y="0px"
	 viewBox="0 0 40 40" style="enable-background:new 0 0 40 40;" xml:space="preserve">
<style type="text/css">
	.st0{fill:none;}
	.st1{fill:#E8E9F3;}
</style>
<rect class="st0" width="40" height="40"/>
<path class="st1" d="M24,30c-0.3,0-0.5-0.1-0.7-0.3L20,26.4l-3.3,3.3c-0.4,0.4-1,0.4-1.4,0s-0.4-1,0-1.4l2.3-2.3H13
	c-1.1,0-2-0.9-2-2V13c-0.6,0-1-0.4-1-1s0.4-1,1-1h18c0.6,0,1,0.4,1,1s-0.4,1-1,1v11c0,1.1-0.9,2-2,2h-4.6l2.3,2.3
	c0.4,0.4,0.4,1,0,1.4C24.5,29.9,24.3,30,24,30z M13,13v11h14V13H13z M24,22c-0.6,0-1-0.4-1-1v-5c0-0.6,0.4-1,1-1s1,0.4,1,1v5
	C25,21.6,24.6,22,24,22z M20,22c-0.6,0-1-0.4-1-1v-3c0-0.6,0.4-1,1-1s1,0.4,1,1v3C21,21.6,20.6,22,20,22z M16,22c-0.6,0-1-0.4-1-1
	v-1c0-0.6,0.4-1,1-1s1,0.4,1,1v1C17,21.6,16.6,22,16,22z"/>
</svg>
