<?xml version="1.0" encoding="utf-8"?>
<!-- Generator: Adobe Illustrator 25.1.0, SVG Export Plug-In . SVG Version: 6.00 Build 0)  -->
<svg version="1.1" id="Layer_1" xmlns="http://www.w3.org/2000/svg" xmlns:xlink="http://www.w3.org/1999/xlink" x="0px" y="0px"
	 viewBox="0 0 1000 1000" style="enable-background:new 0 0 1000 1000;" xml:space="preserve">
<g>
	<path d="M500,546.9c17.3,0,31.2-14,31.2-31.2v-93.8c0-17.2-14-31.2-31.2-31.2s-31.2,13.9-31.2,31.2v93.8
		C468.8,532.9,482.7,546.9,500,546.9z"/>
	<path d="M625,546.9c17.3,0,31.2-14,31.2-31.3V359.4c0-17.2-14-31.2-31.2-31.2s-31.2,13.9-31.2,31.2v156.3
		C593.8,532.9,607.7,546.9,625,546.9z"/>
	<path d="M781.2,203.2H218.7c-17.2,0-31.2,14-31.2,31.2c0,17.2,13.9,31.2,31.2,31.2v343.7c0,34.5,28,62.5,62.5,62.5h143.4
		l-71.7,71.7c-12.2,12.2-12.2,32,0,44.2s32,12.2,44.2,0L500,684.8l102.9,102.9c6.1,6.1,14.1,9.2,22.1,9.2s16-3.1,22.1-9.1
		c12.2-12.2,12.2-32,0-44.2l-71.7-71.7h143.3c34.5,0,62.5-28,62.5-62.5V265.6c17.2,0,31.2-14,31.2-31.2
		C812.4,217.2,798.5,203.2,781.2,203.2z M718.7,609.4H281.2V265.6h437.5V609.4z"/>
	<path d="M375,546.9c17.3,0,31.2-14,31.2-31.2v-31.2c0-17.2-14-31.2-31.2-31.2s-31.2,13.9-31.2,31.2v31.2
		C343.8,532.9,357.7,546.9,375,546.9z"/>
</g>
</svg>
