<?xml version="1.0" encoding="utf-8"?>
<!-- Generator: Adobe Illustrator 25.1.0, SVG Export Plug-In . SVG Version: 6.00 Build 0)  -->
<svg version="1.1" id="Layer_1" xmlns="http://www.w3.org/2000/svg" xmlns:xlink="http://www.w3.org/1999/xlink" x="0px" y="0px"
	 viewBox="0 0 1000 1000" style="enable-background:new 0 0 1000 1000;" xml:space="preserve">
<path d="M718.7,375h-31.2v-93.9c0-51.7-42.1-93.8-93.8-93.8H406.2c-51.7,0-93.8,42.1-93.8,93.8v93.8h-31.2
	c-51.7,0-93.8,42.1-93.8,93.8v125c0,51.7,42.1,93.8,93.8,93.8h31.2v31.2c0,51.7,42.1,93.8,93.8,93.8h187.6
	c51.6,0,93.7-42.1,93.7-93.7v-31.2h31.2c51.7,0,93.8-42.1,93.8-93.8v-125C812.5,417.1,770.4,375,718.7,375z M375,281.2
	c0-17.2,14-31.2,31.2-31.2h187.6c17.2,0,31.2,14,31.2,31.2V375H375V281.2z M624.9,718.7c0,17.2-14,31.2-31.2,31.2H406.2
	c-17.2,0-31.2-14-31.2-31.2v-62.5v-62.5c0-17.2,14-31.2,31.2-31.2h187.5c17.2,0,31.2,14,31.2,31.2V718.7z M749.9,593.8
	c0,17.2-14,31.2-31.2,31.2h-31.2v-31.2c0-51.7-42.1-93.8-93.8-93.8H406.2c-51.7,0-93.8,42.1-93.8,93.8V625h-31.2
	c-17.2,0-31.2-14-31.2-31.2v-125c0-17.2,14-31.2,31.2-31.2h437.5c17.2,0,31.2,14,31.2,31.2V593.8z"/>
</svg>
