<?xml version="1.0" encoding="utf-8"?>
<!-- Generator: Adobe Illustrator 25.0.1, SVG Export Plug-In . SVG Version: 6.00 Build 0)  -->
<svg version="1.1" id="Layer_1" xmlns="http://www.w3.org/2000/svg" xmlns:xlink="http://www.w3.org/1999/xlink" x="0px" y="0px"
	 viewBox="0 0 40 40" style="enable-background:new 0 0 40 40;" xml:space="preserve">
<style type="text/css">
	.st0{fill:none;}
	.st1{fill:#E8E9F3;}
</style>
<rect class="st0" width="40" height="40"/>
<path class="st1" d="M23,30h-6c-1.7,0-3-1.3-3-3v-1h-1c-1.7,0-3-1.3-3-3v-4c0-1.7,1.3-3,3-3h1v-3c0-1.7,1.3-3,3-3h6c1.7,0,3,1.3,3,3
	v3h1c1.7,0,3,1.3,3,3v4c0,1.7-1.3,3-3,3h-1v1C26,28.7,24.7,30,23,30z M16,25v2c0,0.6,0.4,1,1,1h6c0.6,0,1-0.4,1-1v-4
	c0-0.6-0.4-1-1-1h-6c-0.6,0-1,0.4-1,1V25z M26,24h1c0.6,0,1-0.4,1-1v-4c0-0.6-0.4-1-1-1H13c-0.6,0-1,0.4-1,1v4c0,0.6,0.4,1,1,1h1v-1
	c0-1.7,1.3-3,3-3h6c1.7,0,3,1.3,3,3V24z M16,16h8v-3c0-0.6-0.4-1-1-1h-6c-0.6,0-1,0.4-1,1V16z"/>
</svg>
