<?xml version="1.0" encoding="utf-8"?>
<!-- Generator: Adobe Illustrator 25.0.1, SVG Export Plug-In . SVG Version: 6.00 Build 0)  -->
<svg version="1.1" id="Layer_1" xmlns="http://www.w3.org/2000/svg" xmlns:xlink="http://www.w3.org/1999/xlink" x="0px" y="0px"
	 viewBox="0 0 40 40" style="enable-background:new 0 0 40 40;" xml:space="preserve">
<style type="text/css">
	.st0{fill:none;}
	.st1{fill:#E8E9F3;}
</style>
<rect class="st0" width="40" height="40"/>
<path class="st1" d="M27,29h-3c-1.1,0-2-0.9-2-2v-1c0-0.6-0.4-1-1-1c-0.6,0-1,0.4-1,1v1c0,1.1-0.9,2-2,2h-3c-1.1,0-2-0.9-2-2v-3h-1
	c-1.7,0-3-1.3-3-3s1.3-3,3-3h1v-3c0-1.1,0.9-2,2-2h3v-1c0-1.7,1.3-3,3-3s3,1.3,3,3v1h3c1.1,0,2,0.9,2,2v3c0,1.1-0.9,2-2,2h-1
	c-0.6,0-1,0.4-1,1c0,0.6,0.4,1,1,1h1c1.1,0,2,0.9,2,2v3C29,28.1,28.1,29,27,29z M21,23c1.7,0,3,1.3,3,3v1h3v-3h-1c-1.7,0-3-1.3-3-3
	s1.3-3,3-3h1v-3h-3c-1.1,0-2-0.9-2-2v-1c0-0.6-0.4-1-1-1c-0.6,0-1,0.4-1,1v1c0,1.1-0.9,2-2,2h-3v3c0,1.1-0.9,2-2,2h-1
	c-0.6,0-1,0.4-1,1c0,0.6,0.4,1,1,1h1c1.1,0,2,0.9,2,2v3h3v-1C18,24.3,19.3,23,21,23z"/>
</svg>
