<?xml version="1.0" encoding="utf-8"?>
<!-- Generator: Adobe Illustrator 25.1.0, SVG Export Plug-In . SVG Version: 6.00 Build 0)  -->
<svg version="1.1" id="Layer_1" xmlns="http://www.w3.org/2000/svg" xmlns:xlink="http://www.w3.org/1999/xlink" x="0px" y="0px"
	 viewBox="0 0 1000 1000" style="enable-background:new 0 0 1000 1000;" xml:space="preserve">
<path d="M718.8,531.3H750c34.5,0,62.5-28,62.5-62.5V375c0-34.5-28-62.5-62.5-62.5h-93.6v-31.2c0-51.7-42.1-93.8-93.8-93.8
	s-93.8,42.1-93.8,93.8v31.2H375c-34.5,0-62.5,28-62.5,62.5v93.6h-31.2c-51.7,0-93.8,42.1-93.8,93.8s42.1,93.8,93.8,93.8h31.2V750
	c0,34.5,28,62.5,62.5,62.5h93.8c34.5,0,62.5-28,62.5-62.5v-31.2c0-17.2,14-31.2,31.2-31.2s31.2,14,31.2,31.2V750
	c0,34.5,28,62.5,62.5,62.5H750c34.5,0,62.5-28,62.5-62.5v-93.8c0-34.5-28-62.5-62.5-62.5h-31.2c-17.2,0-31.2-14-31.2-31.2
	S701.6,531.3,718.8,531.3z M718.8,656.2H750V750h-93.7v-31.2c0-51.7-42.1-93.8-93.8-93.8s-93.7,42.1-93.7,93.8V750H375v-93.8
	c0-34.5-28-62.5-62.5-62.5h-31.2c-17.2,0-31.2-14-31.2-31.2s14-31.2,31.2-31.2h31.2c34.5,0,62.5-28,62.5-62.5V375h93.8
	c34.5,0,62.5-28,62.5-62.5v-31.2c0-17.2,14-31.2,31.2-31.2s31.2,14,31.2,31.2v31.2c0,34.5,28,62.5,62.5,62.5H750v93.6h-31.2
	c-51.7,0-93.8,42.1-93.8,93.8S667.1,656.2,718.8,656.2z"/>
</svg>
