<?xml version="1.0" encoding="utf-8"?>
<!-- Generator: Adobe Illustrator 25.1.0, SVG Export Plug-In . SVG Version: 6.00 Build 0)  -->
<svg version="1.1" id="Layer_1" xmlns="http://www.w3.org/2000/svg" xmlns:xlink="http://www.w3.org/1999/xlink" x="0px" y="0px"
	 viewBox="0 0 1000 1000" style="enable-background:new 0 0 1000 1000;" xml:space="preserve">
<g>
	<path d="M499.8,312.5c17.3,0,31.3-14,31.2-31.3V250c0-17.2-14-31.2-31.2-31.2s-31.2,13.9-31.2,31.2v31.3
		C468.6,298.5,482.5,312.5,499.8,312.5z"/>
	<path d="M656.1,406.2h62.5c34.5,0,62.5-28,62.5-62.5v-62.5c0-34.5-28-62.5-62.5-62.5h-62.5c-34.5,0-62.5,28-62.5,62.5v62.5
		C593.6,378.2,621.6,406.2,656.1,406.2z M656.1,281.2h62.5v62.5h-62.5V281.2z"/>
	<path d="M499.8,531.2h125.4c17.2,0,31.1-14.1,31.1-31.3s-13.9-31.2-31.2-31.2H531v-62.5c0-17.2-14-31.2-31.2-31.2
		s-31.2,13.9-31.2,31.2V500C468.6,517.2,482.5,531.2,499.8,531.2z"/>
	<path d="M750.2,468.8h-0.3c-17.3,0-31.1,14-31.1,31.2s14.1,31.2,31.4,31.2c17.2,0,31.2-14,31.2-31.2S767.5,468.8,750.2,468.8z"/>
	<path d="M749.8,593.8h-62.5c-17.2,0-31.2,14-31.2,31.2s13.9,31.2,31.2,31.2h62.5c17.3,0,31.2-14,31.2-31.2S767.1,593.8,749.8,593.8
		z"/>
	<path d="M749.8,718.8h-125c-17.2,0-31.2,14-31.2,31.2s13.9,31.2,31.2,31.2h125c17.3,0,31.2-14,31.2-31.2S767.1,718.8,749.8,718.8z"
		/>
	<path d="M562.3,593.8h-62.5c-17.2,0-31.2,13.9-31.2,31.2v125c0,17.2,13.9,31.2,31.2,31.2s31.3-13.9,31.3-31.2v-93.8h31.2
		c17.2,0,31.2-14,31.2-31.2S579.6,593.8,562.3,593.8z"/>
	<path d="M343.6,593.7h-62.5c-34.5,0-62.5,28-62.5,62.5v62.5c0,34.5,28,62.5,62.5,62.5h62.5c34.5,0,62.5-28,62.5-62.5v-62.5
		C406.1,621.7,378.1,593.7,343.6,593.7z M343.6,718.7h-62.5v-62.5h62.5V718.7z"/>
	<path d="M249.8,531.2h125c17.3,0,31.2-14,31.2-31.2s-13.9-31.2-31.2-31.2h-125c-17.2,0-31.2,14-31.2,31.2S232.5,531.2,249.8,531.2z
		"/>
	<path d="M343.6,218.7h-62.5c-34.5,0-62.5,28-62.5,62.5v62.5c0,34.5,28,62.5,62.5,62.5h62.5c34.5,0,62.5-28,62.5-62.5v-62.5
		C406.1,246.7,378.1,218.7,343.6,218.7z M343.6,343.7h-62.5v-62.5h62.5V343.7z"/>
</g>
</svg>
