<?xml version="1.0" encoding="utf-8"?>
<!-- Generator: Adobe Illustrator 25.0.1, SVG Export Plug-In . SVG Version: 6.00 Build 0)  -->
<svg version="1.1" id="Layer_1" xmlns="http://www.w3.org/2000/svg" xmlns:xlink="http://www.w3.org/1999/xlink" x="0px" y="0px"
	 viewBox="0 0 40 40" style="enable-background:new 0 0 40 40;" xml:space="preserve">
<style type="text/css">
	.st0{fill:none;}
	.st1{fill:#E8E9F3;}
</style>
<rect class="st0" width="40" height="40"/>
<path class="st1" d="M28,29h-4c-0.6,0-1-0.4-1-1s0.4-1,1-1h4c0.6,0,1,0.4,1,1S28.6,29,28,29z M20,29c-0.6,0-1-0.4-1-1v-4
	c0-0.6,0.4-1,1-1h2c0.6,0,1,0.4,1,1s-0.4,1-1,1h-1v3C21,28.6,20.6,29,20,29z M15,29h-2c-1.1,0-2-0.9-2-2v-2c0-1.1,0.9-2,2-2h2
	c1.1,0,2,0.9,2,2v2C17,28.1,16.1,29,15,29z M13,25v2h2v-2H13z M28,25h-2c-0.6,0-1-0.4-1-1s0.4-1,1-1h2c0.6,0,1,0.4,1,1
	S28.6,25,28,25z M28,21c-0.6,0-1-0.4-1-1s0.4-1,1-1h0c0.6,0,1,0.4,1,1S28.6,21,28,21z M24,21h-4c-0.6,0-1-0.4-1-1v-3
	c0-0.6,0.4-1,1-1s1,0.4,1,1v2h3c0.6,0,1,0.4,1,1S24.6,21,24,21z M16,21h-4c-0.6,0-1-0.4-1-1s0.4-1,1-1h4c0.6,0,1,0.4,1,1
	S16.6,21,16,21z M27,17h-2c-1.1,0-2-0.9-2-2v-2c0-1.1,0.9-2,2-2h2c1.1,0,2,0.9,2,2v2C29,16.1,28.1,17,27,17z M25,13v2h2v-2H25z
	 M15,17h-2c-1.1,0-2-0.9-2-2v-2c0-1.1,0.9-2,2-2h2c1.1,0,2,0.9,2,2v2C17,16.1,16.1,17,15,17z M13,13v2h2v-2H13z M20,14
	c-0.6,0-1-0.4-1-1v-1c0-0.6,0.4-1,1-1s1,0.4,1,1v1C21,13.6,20.6,14,20,14z"/>
</svg>
