<?xml version="1.0" encoding="utf-8"?>
<!-- Generator: Adobe Illustrator 25.1.0, SVG Export Plug-In . SVG Version: 6.00 Build 0)  -->
<svg version="1.1" id="Layer_1" xmlns="http://www.w3.org/2000/svg" xmlns:xlink="http://www.w3.org/1999/xlink" x="0px" y="0px"
	 viewBox="0 0 1000 1000" style="enable-background:new 0 0 1000 1000;" xml:space="preserve">
<g>
	<path d="M615.8,352.8c-12.2-12.2-32-12.2-44.2,0L384.1,540.3c-12.2,12.2-12.2,32,0,44.2c6.1,6.1,14.1,9.2,22.1,9.2s16-3,22.1-9.1
		L615.8,397C628,384.8,628,365,615.8,352.8z"/>
	<ellipse transform="matrix(0.7071 -0.7071 0.7071 0.7071 -152.6243 412.7325)" cx="421.9" cy="390.6" rx="46.9" ry="46.9"/>
	<circle cx="578.1" cy="546.8" r="46.9"/>
	<path d="M656.2,187.6H343.7c-51.7,0-93.8,42-93.8,93.7v500c0,11.1,6,21.4,15.6,27c9.6,5.6,21.5,5.6,31.2,0.1l93.9-53.6l93.9,53.6
		c4.8,2.7,10.1,4.1,15.5,4.1c5.4,0,10.7-1.4,15.4-4.1l93.9-53.6l93.9,53.6c9.7,5.5,21.6,5.5,31.2-0.1c9.7-5.6,15.6-15.9,15.6-27
		v-500C750,229.7,707.9,187.6,656.2,187.6z M687.5,727.4l-62.6-35.8c-9.6-5.5-21.4-5.5-31,0L500,745.2l-93.9-53.6
		c-4.8-2.7-10.1-4.1-15.5-4.1c-5.3,0-10.7,1.4-15.4,4l-62.6,35.8V281.2c0-17.2,14-31.2,31.2-31.2h312.5c17.2,0,31.2,14,31.2,31.2
		V727.4z"/>
</g>
</svg>
