<?xml version="1.0" encoding="utf-8"?>
<!-- Generator: Adobe Illustrator 25.0.1, SVG Export Plug-In . SVG Version: 6.00 Build 0)  -->
<svg version="1.1" id="Layer_1" xmlns="http://www.w3.org/2000/svg" xmlns:xlink="http://www.w3.org/1999/xlink" x="0px" y="0px"
	 viewBox="0 0 40 40" style="enable-background:new 0 0 40 40;" xml:space="preserve">
<style type="text/css">
	.st0{fill:none;}
	.st1{fill:#E8E9F3;}
</style>
<rect class="st0" width="40" height="40"/>
<path class="st1" d="M20,30c-0.2,0-0.3,0-0.5-0.1l-3-1.7l-3,1.7c-0.3,0.2-0.7,0.2-1,0C12.2,29.7,12,29.4,12,29V13c0-1.7,1.3-3,3-3
	h10c1.7,0,3,1.3,3,3v16c0,0.4-0.2,0.7-0.5,0.9c-0.3,0.2-0.7,0.2-1,0l-3-1.7l-3,1.7C20.3,30,20.2,30,20,30z M16.5,26
	c0.2,0,0.3,0,0.5,0.1l3,1.7l3-1.7c0.3-0.2,0.7-0.2,1,0l2,1.1V13c0-0.6-0.4-1-1-1H15c-0.6,0-1,0.4-1,1v14.3l2-1.1
	C16.2,26,16.3,26,16.5,26z M22.5,23c-0.8,0-1.5-0.7-1.5-1.5s0.7-1.5,1.5-1.5s1.5,0.7,1.5,1.5S23.3,23,22.5,23z M17,23
	c-0.3,0-0.5-0.1-0.7-0.3c-0.4-0.4-0.4-1,0-1.4l6-6c0.4-0.4,1-0.4,1.4,0s0.4,1,0,1.4l-6,6C17.5,22.9,17.3,23,17,23z M17.5,18
	c-0.8,0-1.5-0.7-1.5-1.5s0.7-1.5,1.5-1.5s1.5,0.7,1.5,1.5S18.3,18,17.5,18z"/>
</svg>
