<?xml version="1.0" encoding="utf-8"?>
<!-- Generator: Adobe Illustrator 25.1.0, SVG Export Plug-In . SVG Version: 6.00 Build 0)  -->
<svg version="1.1" id="Layer_1" xmlns="http://www.w3.org/2000/svg" xmlns:xlink="http://www.w3.org/1999/xlink" x="0px" y="0px"
	 viewBox="0 0 1000 1000" style="enable-background:new 0 0 1000 1000;" xml:space="preserve">
<g>
	<path d="M687.6,187.5h-375c-51.7,0-93.8,42-93.8,93.7v500c0,10.9,5.6,20.9,14.8,26.6c9.2,5.8,20.7,6.2,30.4,1.4l111-55.5l111,55.5
		c8.8,4.4,19.2,4.4,28,0l111-55.5l111,55.5c4.4,2.2,9.2,3.3,14,3.3c5.7,0,11.4-1.6,16.6-4.7c9.2-5.7,14.8-15.8,14.8-26.6v-500
		C781.4,229.6,739.3,187.5,687.6,187.5z M718.8,730.7L639,690.8c-8.8-4.4-19.2-4.4-28,0l-111,55.5l-111-55.5
		c-4.4-2.2-9.2-3.3-14-3.3s-9.6,1.1-13.8,3.2l-79.8,39.9V281.2c0-17.2,14-31.2,31.2-31.2h375c17.2,0,31.2,14,31.2,31.2V730.7z"/>
	<path d="M500,406.2h-49.6l40.4-40.4c12.2-12.2,12.2-32,0-44.2s-32-12.2-44.2,0l-93.8,93.8c-3,3-5.3,6.5-6.8,10.2
		c-1.5,3.6-2.3,7.6-2.3,11.8c0,0.1,0,0.1,0,0.2c0,4.2,0.8,8.2,2.3,11.8c1.5,3.7,3.8,7.2,6.8,10.2l93.8,93.8
		c12.2,12.2,32,12.2,44.2,0s12.2-32,0-44.2l-40.4-40.4H500c51.7,0,93.8,42.1,93.8,93.8v31.2c0,17.2,13.9,31.2,31.2,31.2
		s31.2-14,31.2-31.3v-31.2C656.2,476.3,586.2,406.2,500,406.2z"/>
</g>
</svg>
