<?xml version="1.0" encoding="utf-8"?>
<!-- Generator: Adobe Illustrator 25.0.1, SVG Export Plug-In . SVG Version: 6.00 Build 0)  -->
<svg version="1.1" id="Layer_1" xmlns="http://www.w3.org/2000/svg" xmlns:xlink="http://www.w3.org/1999/xlink" x="0px" y="0px"
	 viewBox="0 0 40 40" style="enable-background:new 0 0 40 40;" xml:space="preserve">
<style type="text/css">
	.st0{fill:none;}
	.st1{fill:#E8E9F3;}
</style>
<rect class="st0" width="40" height="40"/>
<path class="st1" d="M28,29c-0.6,0-1-0.4-1-1v-2.3c-1.7,2.1-4.2,3.3-7,3.3c-4.5,0-8.4-3.4-8.9-7.9c-0.1-0.5,0.3-1,0.9-1.1
	c0.5-0.1,1,0.3,1.1,0.9c0.4,3.5,3.4,6.1,6.9,6.1c2.3,0,4.5-1.1,5.8-3H23c-0.6,0-1-0.4-1-1s0.4-1,1-1h4.4c0,0,0,0,0,0H28
	c0.6,0,1,0.4,1,1v5C29,28.6,28.6,29,28,29z M27.9,20c-0.5,0-0.9-0.4-1-0.9C26.5,15.6,23.5,13,20,13c-2.3,0-4.5,1.1-5.7,3H17
	c0.6,0,1,0.4,1,1s-0.4,1-1,1h-4.4c0,0,0,0,0,0H12c-0.6,0-1-0.4-1-1v-5c0-0.6,0.4-1,1-1s1,0.4,1,1v2.3c1.7-2.1,4.2-3.3,7-3.3
	c4.5,0,8.4,3.4,8.9,7.9c0.1,0.5-0.3,1-0.9,1.1C28,20,28,20,27.9,20z"/>
</svg>
