<?xml version="1.0" encoding="utf-8"?>
<!-- Generator: Adobe Illustrator 25.1.0, SVG Export Plug-In . SVG Version: 6.00 Build 0)  -->
<svg version="1.1" id="Layer_1" xmlns="http://www.w3.org/2000/svg" xmlns:xlink="http://www.w3.org/1999/xlink" x="0px" y="0px"
	 viewBox="0 0 1000 1000" style="enable-background:new 0 0 1000 1000;" xml:space="preserve">
<g>
	<path d="M250,437.4h17.5c0.5,0,1,0,1.4,0h137.3c17.2,0,31.2-14,31.2-31.2S423.5,375,406.2,375h-85.9
		c40.3-58.2,106.7-93.8,179.7-93.8c110.1,0,203.5,82.3,217,191.4c2,15.8,15.5,27.4,31,27.4c1.3,0,2.6-0.1,4-0.3
		c17.1-2.2,29.2-17.8,27.1-34.9C761.6,324.5,641.6,218.7,500,218.7c-86.9,0-166.4,39.2-218.8,104.2V250c0-17.2-14-31.2-31.2-31.2
		s-31.2,13.9-31.2,31.2v156.2C218.8,423.4,232.7,437.4,250,437.4z"/>
	<path d="M750,562.6h-17.4c-0.5,0-0.9,0-1.4,0H593.8c-17.2,0-31.2,14-31.2,31.2s13.9,31.2,31.2,31.2h85.9
		C639.4,683.2,573,718.8,500,718.8c-110.1,0-203.4-82.3-217.1-191.4c-2.2-17.1-17.9-29.3-34.9-27.1c-17.1,2.2-29.2,17.8-27.1,34.9
		C238.4,675.5,358.4,781.3,500,781.3c86.8,0,166.4-39.2,218.8-104.2V750c0,17.2,13.9,31.2,31.2,31.2s31.2-13.9,31.2-31.2V593.8
		C781.2,576.6,767.3,562.6,750,562.6z"/>
</g>
</svg>
