<?xml version="1.0" encoding="utf-8"?>
<!-- Generator: Adobe Illustrator 25.0.1, SVG Export Plug-In . SVG Version: 6.00 Build 0)  -->
<svg version="1.1" id="Layer_1" xmlns="http://www.w3.org/2000/svg" xmlns:xlink="http://www.w3.org/1999/xlink" x="0px" y="0px"
	 viewBox="0 0 40 40" style="enable-background:new 0 0 40 40;" xml:space="preserve">
<style type="text/css">
	.st0{fill:none;}
	.st1{fill:#E8E9F3;}
</style>
<rect class="st0" width="40" height="40"/>
<path class="st1" d="M29,29c-0.6,0-1-0.4-1-1v-2c0-3.9-3.1-7-7-7h-7.6l4.3,4.3c0.4,0.4,0.4,1,0,1.4s-1,0.4-1.4,0l-6-6
	c-0.1-0.1-0.2-0.2-0.2-0.3c0-0.1-0.1-0.2-0.1-0.4l0,0c0,0,0,0,0,0l0,0c0-0.1,0-0.3,0.1-0.4c0-0.1,0.1-0.2,0.2-0.3l6-6
	c0.4-0.4,1-0.4,1.4,0s0.4,1,0,1.4L13.4,17H21c5,0,9,4,9,9v2C30,28.6,29.6,29,29,29z"/>
</svg>
