<?xml version="1.0" encoding="utf-8"?>
<!-- Generator: Adobe Illustrator 25.1.0, SVG Export Plug-In . SVG Version: 6.00 Build 0)  -->
<svg version="1.1" id="Layer_1" xmlns="http://www.w3.org/2000/svg" xmlns:xlink="http://www.w3.org/1999/xlink" x="0px" y="0px"
	 viewBox="0 0 1000 1000" style="enable-background:new 0 0 1000 1000;" xml:space="preserve">
<path d="M531.3,406.2H294.2l134.2-134.1c12.2-12.2,12.2-32,0-44.2c-12.2-12.2-32-12.2-44.2,0L196.7,415.4c-3,3-5.3,6.5-6.8,10.2
	c-1.5,3.6-2.3,7.6-2.3,11.8c0,0.1,0,0.1,0,0.2c0,4.2,0.8,8.2,2.3,11.8c1.5,3.7,3.8,7.2,6.8,10.2l187.5,187.5
	c12.2,12.2,32,12.2,44.2,0s12.2-32,0-44.2L294.2,468.7h237c120.7,0,218.8,98.2,218.8,218.8V750c0,17.2,13.9,31.2,31.2,31.2
	s31.3-13.9,31.3-31.2v-62.6C812.5,532.4,686.4,406.2,531.3,406.2z"/>
</svg>
