<?xml version="1.0" encoding="utf-8"?>
<!-- Generator: Adobe Illustrator 25.1.0, SVG Export Plug-In . SVG Version: 6.00 Build 0)  -->
<svg version="1.1" id="Layer_1" xmlns="http://www.w3.org/2000/svg" xmlns:xlink="http://www.w3.org/1999/xlink" x="0px" y="0px"
	 viewBox="0 0 1000 1000" style="enable-background:new 0 0 1000 1000;" xml:space="preserve">
<path d="M736.4,319.1c-21.4-10.7-46.4-8.4-65.5,5.9l-150,112.5V375c0-23.8-13.2-45.2-34.5-55.9c-21.4-10.7-46.4-8.4-65.5,5.9
	L254.2,450c-15.9,11.9-25,30.1-25,50s9.1,38.1,25,50l166.7,125c11,8.4,24.2,12.6,37.4,12.6c9.5,0,19.1-2.2,28.1-6.7
	c21.3-10.7,34.5-32.1,34.5-55.9v-62.5l150,112.6c11.1,8.3,24.2,12.5,37.4,12.5c9.5,0,19.1-2.3,28.1-6.7
	c21.3-10.7,34.5-32.1,34.5-55.9V375C770.9,351.2,757.7,329.8,736.4,319.1z M458.4,625L291.7,500l166.7-125V625z M708.3,625
	L541.7,500l166.6-125V625z"/>
</svg>
