<?xml version="1.0" encoding="utf-8"?>
<!-- Generator: Adobe Illustrator 25.0.1, SVG Export Plug-In . SVG Version: 6.00 Build 0)  -->
<svg version="1.1" id="Layer_1" xmlns="http://www.w3.org/2000/svg" xmlns:xlink="http://www.w3.org/1999/xlink" x="0px" y="0px"
	 viewBox="0 0 40 40" style="enable-background:new 0 0 40 40;" xml:space="preserve">
<style type="text/css">
	.st0{fill:none;}
	.st1{fill:#E8E9F3;}
</style>
<rect class="st0" width="40" height="40"/>
<path class="st1" d="M14,28c-1.1,0-2-0.9-2-2s0.9-2,2-2s2,0.9,2,2S15.1,28,14,28z M14,26L14,26L14,26z M27,27c-0.6,0-1-0.4-1-1
	c0-6.6-5.4-12-12-12c-0.6,0-1-0.4-1-1s0.4-1,1-1c7.7,0,14,6.3,14,14C28,26.6,27.6,27,27,27z M21,27c-0.6,0-1-0.4-1-1
	c0-3.3-2.7-6-6-6c-0.6,0-1-0.4-1-1s0.4-1,1-1c4.4,0,8,3.6,8,8C22,26.6,21.6,27,21,27z"/>
</svg>
