<?xml version="1.0" encoding="utf-8"?>
<!-- Generator: Adobe Illustrator 25.1.0, SVG Export Plug-In . SVG Version: 6.00 Build 0)  -->
<svg version="1.1" id="Layer_1" xmlns="http://www.w3.org/2000/svg" xmlns:xlink="http://www.w3.org/1999/xlink" x="0px" y="0px"
	 viewBox="0 0 1000 1000" style="enable-background:new 0 0 1000 1000;" xml:space="preserve">
<g>
	<circle cx="312.5" cy="687.5" r="62.5"/>
	<path d="M312.5,437.6c-17.2,0-31.2,14-31.2,31.2s13.9,31.2,31.2,31.2C415.9,500,500,584.1,500,687.6c0,17.2,13.9,31.2,31.2,31.2
		s31.3-14,31.3-31.2C562.5,549.8,450.3,437.6,312.5,437.6z"/>
	<path d="M312.6,250.2c-17.2,0-31.2,14-31.2,31.2s13.9,31.2,31.2,31.2c206.8,0,375,168.2,375,375c0,17.2,13.9,31.2,31.2,31.2
		c17.2,0,31.2-14,31.2-31.3C750,446.3,553.7,250,312.6,250.2z"/>
</g>
</svg>
