<?xml version="1.0" encoding="utf-8"?>
<!-- Generator: Adobe Illustrator 25.1.0, SVG Export Plug-In . SVG Version: 6.00 Build 0)  -->
<svg version="1.1" id="Layer_1" xmlns="http://www.w3.org/2000/svg" xmlns:xlink="http://www.w3.org/1999/xlink" x="0px" y="0px"
	 viewBox="0 0 1000 1000" style="enable-background:new 0 0 1000 1000;" xml:space="preserve">
<g>
	<path d="M446.7,444l93.7,93.8c3,3,6.5,5.3,10.2,6.8c3.6,1.4,7.6,2.3,11.9,2.3s8.3-0.9,11.8-2.3c3.7-1.5,7.2-3.8,10.2-6.8l93.8-93.8
		c12.2-12.2,12.2-32,0-44.2s-32-12.2-44.2,0l-40.4,40.4V234.4c0-17.2-14-31.2-31.2-31.2s-31.2,13.9-31.2,31.2v205.8l-40.4-40.4
		c-12.2-12.2-32-12.2-44.2,0S434.5,431.8,446.7,444z"/>
	<path d="M718.7,265.8h-31.2c-17.2,0-31.2,14-31.2,31.2s13.9,31.2,31.2,31.2h31.2c17.2,0,31.2,14,31.2,31.2V578
		c0,17.2-14,31.2-31.2,31.2H406.2c-17.2,0-31.2-14-31.2-31.2V359.2c0-17.2,14-31.2,31.2-31.2h31.2c17.2,0,31.2-14,31.2-31.2
		s-13.9-31.2-31.2-31.2h-31.2c-51.7,0-93.8,42.1-93.8,93.8v31.2h-31.2c-51.7,0-93.8,42.1-93.8,93.8v218.7
		c0,51.7,42.1,93.8,93.8,93.8h312.6c51.6,0,93.7-42.1,93.7-93.5v-31.2h31.2c51.7,0,93.8-42.1,93.8-93.8V359.6
		C812.5,307.9,770.4,265.8,718.7,265.8z M624.9,703.1c0,17.2-14,31.2-31.2,31.2H281.2c-17.2,0-31.2-14-31.2-31.2V484.3
		c0-17.2,14-31.2,31.2-31.2v0h31.2v125c0,51.7,42.1,93.8,93.8,93.8h218.7V703.1z"/>
</g>
</svg>
