<?xml version="1.0" encoding="utf-8"?>
<!-- Generator: Adobe Illustrator 25.1.0, SVG Export Plug-In . SVG Version: 6.00 Build 0)  -->
<svg version="1.1" id="Layer_1" xmlns="http://www.w3.org/2000/svg" xmlns:xlink="http://www.w3.org/1999/xlink" x="0px" y="0px"
	 viewBox="0 0 1000 1000" style="enable-background:new 0 0 1000 1000;" xml:space="preserve">
<g>
	<path d="M384.1,446.7c-12.2,12.2-12.2,32,0,44.2l93.8,93.8c3,3,6.5,5.3,10.2,6.8c3.6,1.4,7.6,2.3,11.9,2.3s8.3-0.9,11.7-2.3
		c3.7-1.5,7.2-3.8,10.2-6.8l93.8-93.8c12.2-12.2,12.2-32,0-44.2s-32-12.2-44.2,0l-40.4,40.4V250c0-17.2-14-31.2-31.2-31.2
		c-17.2,0-31.2,13.9-31.2,31.2v237.1l-40.4-40.4C416.1,434.5,396.3,434.5,384.1,446.7z"/>
	<path d="M718.8,312.6H625c-17.2,0-31.2,14-31.2,31.2S607.7,375,625,375h93.7c17.2,0,31.2,14,31.2,31.2v281.2
		c0,17.2-14,31.2-31.2,31.2H281.2c-17.2,0-31.2-14-31.2-31.2V406.2c0-17.2,14-31.2,31.2-31.2H375c17.3,0,31.2-14.2,31.2-31.4
		s-13.9-31.2-31.2-31.2h-93.8c-51.7,0-93.8,42.1-93.8,93.8v281.2c0,51.7,42.1,93.8,93.8,93.8h437.6c51.6,0,93.7-42,93.8-93.6V406.4
		C812.6,354.7,770.5,312.6,718.8,312.6z"/>
</g>
</svg>
