<?xml version="1.0" encoding="utf-8"?>
<!-- Generator: Adobe Illustrator 25.1.0, SVG Export Plug-In . SVG Version: 6.00 Build 0)  -->
<svg version="1.1" id="Layer_1" xmlns="http://www.w3.org/2000/svg" xmlns:xlink="http://www.w3.org/1999/xlink" x="0px" y="0px"
	 viewBox="0 0 1000 1000" style="enable-background:new 0 0 1000 1000;" xml:space="preserve">
<path d="M810.4,613.7L727,363.5l64.1-21.4c16.3-5.4,25.2-23.1,19.7-39.5c-5.4-16.4-23-25.3-39.5-19.8l-83.9,28l-156.2-52.1v-40
	c0-17.2-14-31.2-31.3-31.2c-17.2,0-31.2,13.9-31.2,31.2v40l-156.2,52.1l-83.9-28c-16.4-5.5-34.1,3.4-39.5,19.8
	c-5.4,16.3,3.4,34,19.8,39.5l64.1,21.4l-84,251.6c-4.2,12.8,0.2,26.8,10.9,34.9c66.3,49.9,158.8,49.9,225.1,0
	c11.5-8.6,15.3-23.6,10.4-36.3L352,363.5l116.7-38.9v425.5h-62.5c-17.2,0-31.2,14-31.2,31.2s13.9,31.2,31.2,31.2h187.5
	c17.3,0,31.3-14.1,31.3-31.3S611.1,750,593.8,750h-62.5V324.6L648,363.5l-84,251.6c-4.2,12.8,0.2,26.8,10.9,34.9
	c66.3,49.9,158.9,49.9,225.1,0C811.5,641.4,815.3,626.4,810.4,613.7z M368.9,611.6c-35.3,17.8-77.4,17.8-112.7,0l56.3-169
	L368.9,611.6z M631.2,611.6l56.4-169l56.3,169C708.7,629.4,666.5,629.4,631.2,611.6z"/>
</svg>
