<?xml version="1.0" encoding="utf-8"?>
<!-- Generator: Adobe Illustrator 25.0.1, SVG Export Plug-In . SVG Version: 6.00 Build 0)  -->
<svg version="1.1" id="Layer_1" xmlns="http://www.w3.org/2000/svg" xmlns:xlink="http://www.w3.org/1999/xlink" x="0px" y="0px"
	 viewBox="0 0 40 40" style="enable-background:new 0 0 40 40;" xml:space="preserve">
<style type="text/css">
	.st0{fill:none;}
	.st1{fill:#E8E9F3;}
</style>
<rect class="st0" width="40" height="40"/>
<path class="st1" d="M15,29c-2.2,0-4-1.8-4-4s1.8-4,4-4c0.7,0,1.4,0.2,2,0.6l1.6-1.6L17,18.4c-0.6,0.4-1.3,0.6-2,0.6
	c-2.2,0-4-1.8-4-4s1.8-4,4-4s4,1.8,4,4c0,0.7-0.2,1.4-0.6,2l1.6,1.6l6.3-6.3c0.4-0.4,1-0.4,1.4,0s0.4,1,0,1.4L18.4,23
	c0.4,0.6,0.6,1.3,0.6,2C19,27.2,17.2,29,15,29z M15,23c-1.1,0-2,0.9-2,2s0.9,2,2,2s2-0.9,2-2c0-0.5-0.2-1-0.6-1.4h0
	C16,23.2,15.5,23,15,23z M15,13c-1.1,0-2,0.9-2,2s0.9,2,2,2c0.5,0,1-0.2,1.4-0.6c0,0,0,0,0,0C16.8,16,17,15.5,17,15
	C17,13.9,16.1,13,15,13z M27,28c-0.3,0-0.5-0.1-0.7-0.3l-4.9-4.9c-0.4-0.4-0.4-1,0-1.4s1-0.4,1.4,0l4.9,4.9c0.4,0.4,0.4,1,0,1.4
	C27.5,27.9,27.3,28,27,28z"/>
</svg>
