<?xml version="1.0" encoding="utf-8"?>
<!-- Generator: Adobe Illustrator 25.0.1, SVG Export Plug-In . SVG Version: 6.00 Build 0)  -->
<svg version="1.1" id="Layer_1" xmlns="http://www.w3.org/2000/svg" xmlns:xlink="http://www.w3.org/1999/xlink" x="0px" y="0px"
	 viewBox="0 0 40 40" style="enable-background:new 0 0 40 40;" xml:space="preserve">
<style type="text/css">
	.st0{fill:none;}
	.st1{fill:#E8E9F3;}
</style>
<rect class="st0" width="40" height="40"/>
<path class="st1" d="M20,28c-0.3,0-0.5-0.1-0.7-0.3l-4-4c-0.4-0.4-0.4-1,0-1.4s1-0.4,1.4,0l3.3,3.3l3.3-3.3c0.4-0.4,1-0.4,1.4,0
	s0.4,1,0,1.4l-4,4C20.5,27.9,20.3,28,20,28z M24,18c-0.3,0-0.5-0.1-0.7-0.3L20,14.4l-3.3,3.3c-0.4,0.4-1,0.4-1.4,0s-0.4-1,0-1.4l4-4
	c0.4-0.4,1-0.4,1.4,0l4,4c0.4,0.4,0.4,1,0,1.4C24.5,17.9,24.3,18,24,18z"/>
</svg>
