<?xml version="1.0" encoding="utf-8"?>
<!-- Generator: Adobe Illustrator 25.1.0, SVG Export Plug-In . SVG Version: 6.00 Build 0)  -->
<svg version="1.1" id="Layer_1" xmlns="http://www.w3.org/2000/svg" xmlns:xlink="http://www.w3.org/1999/xlink" x="0px" y="0px"
	 viewBox="0 0 1000 1000" style="enable-background:new 0 0 1000 1000;" xml:space="preserve">
<path d="M687.6,562.5c-36.9,0-70.9,15.9-94.3,42.9l-158.4-79.2c1.8-8.5,2.7-17.3,2.7-26.2s-0.9-17.7-2.7-26.2l158.4-79.2
	c23.3,27,57.4,42.9,94.3,42.9c68.9,0,125-56.1,125-125s-56.1-125-125-125s-125,56.1-125,125c0,8.9,0.9,17.7,2.7,26.2l-158.4,79.2
	c-23.3-27-57.4-42.9-94.3-42.9c-68.9,0-125,56.1-125,125s56.1,125,125,125c36.9,0,70.9-15.9,94.3-42.9l158.4,79.2
	c-1.9,8.6-2.8,17.4-2.8,26.2c0,68.9,56.1,125,125,125s125.1-56.1,125.1-125S756.5,562.5,687.6,562.5z M687.5,250
	c34.5,0,62.5,28,62.5,62.5S722,375,687.5,375c-23.8,0-45.2-13.3-55.9-34.6c-4.4-8.7-6.6-18.1-6.6-27.9C625,278,653,250,687.5,250z
	 M368.4,528c-10.7,21.3-32.1,34.5-55.9,34.5c-34.5,0-62.5-28-62.5-62.5s28-62.5,62.5-62.5c23.8,0,45.3,13.2,55.9,34.6
	c4.4,8.7,6.6,18,6.6,27.9C375,509.9,372.8,519.3,368.4,528z M687.5,749.9c-34.5,0-62.5-28-62.5-62.5c0-9.8,2.2-19.2,6.6-27.9
	c10.6-21.3,32.1-34.5,55.9-34.5c34.5,0,62.5,27.9,62.5,62.4S722,749.9,687.5,749.9z"/>
</svg>
