<?xml version="1.0" encoding="utf-8"?>
<!-- Generator: Adobe Illustrator 25.1.0, SVG Export Plug-In . SVG Version: 6.00 Build 0)  -->
<svg version="1.1" id="Layer_1" xmlns="http://www.w3.org/2000/svg" xmlns:xlink="http://www.w3.org/1999/xlink" x="0px" y="0px"
	 viewBox="0 0 1000 1000" style="enable-background:new 0 0 1000 1000;" xml:space="preserve">
<g>
	<path d="M799.5,310.9c-3.7-14.4-16.8-24.1-31.8-23.4c-89.7,4.6-179.4-26.7-246.9-87.1c-11.9-10.6-29.8-10.6-41.7,0
		c-67.4,60.4-157.3,91.8-246.8,87.1c-15-1.1-28.2,9-31.9,23.4c-8.6,33.2-12.9,67.5-12.9,102.1c0,185.5,125.3,347.3,304.7,393.5
		c2.6,0.7,5.2,1,7.8,1c2.6,0,5.2-0.4,7.7-1c179.4-46.2,304.7-208,304.7-393.5C812.4,378.4,808.1,344.1,799.5,310.9z M500,743.8
		C352.4,702.2,250,567.3,250,413c0-21,1.9-42,5.7-62.5c89-1.3,174.6-31.5,244.3-86c69.7,54.5,155.3,84.8,244.3,86
		C748.1,371,750,392,750,413C750,567.3,647.6,702.2,500,743.8z"/>
	<path d="M500.3,569.4H500c-17.3,0-31.1,14-31.1,31.2s14.1,31.2,31.4,31.2s31.2-14,31.2-31.2S517.6,569.4,500.3,569.4z"/>
	<path d="M500,506.8c17.3,0,31.2-14,31.2-31.3V413c0-17.2-14-31.2-31.2-31.2s-31.2,13.9-31.2,31.2v62.6
		C468.8,492.8,482.7,506.8,500,506.8z"/>
</g>
</svg>
