<?xml version="1.0" encoding="utf-8"?>
<!-- Generator: Adobe Illustrator 25.0.1, SVG Export Plug-In . SVG Version: 6.00 Build 0)  -->
<svg version="1.1" id="Layer_1" xmlns="http://www.w3.org/2000/svg" xmlns:xlink="http://www.w3.org/1999/xlink" x="0px" y="0px"
	 viewBox="0 0 40 40" style="enable-background:new 0 0 40 40;" xml:space="preserve">
<style type="text/css">
	.st0{fill:none;}
	.st1{fill:#E8E9F3;}
</style>
<rect class="st0" width="40" height="40"/>
<g>
	<path class="st1" d="M29.6,13.7c-0.1-0.5-0.5-0.8-1-0.7c-2.9,0.1-5.7-0.9-7.9-2.8c-0.4-0.3-1-0.3-1.3,0c-2.2,1.9-5,2.9-7.9,2.8
		c-0.5,0-0.9,0.3-1,0.7C10.1,14.8,10,15.9,10,17c0,5.9,4,11.1,9.8,12.6c0.1,0,0.2,0,0.2,0s0.2,0,0.2,0C26,28.1,30,22.9,30,17
		C30,15.9,29.9,14.8,29.6,13.7z M20,27.6c-4.7-1.3-8-5.6-8-10.6c0-0.7,0.1-1.3,0.2-2c2.8,0,5.6-1,7.8-2.8c2.2,1.7,5,2.7,7.8,2.8
		c0.1,0.7,0.2,1.3,0.2,2C28,21.9,24.7,26.3,20,27.6z"/>
	<path class="st1" d="M20,20c0.6,0,1-0.4,1-1v-2c0-0.6-0.4-1-1-1s-1,0.4-1,1v2C19,19.6,19.4,20,20,20z"/>
	<path class="st1" d="M20,22L20,22c-0.6,0-1,0.4-1,1s0.5,1,1,1s1-0.4,1-1S20.6,22,20,22z"/>
</g>
</svg>
