<?xml version="1.0" encoding="utf-8"?>
<!-- Generator: Adobe Illustrator 25.1.0, SVG Export Plug-In . SVG Version: 6.00 Build 0)  -->
<svg version="1.1" id="Layer_1" xmlns="http://www.w3.org/2000/svg" xmlns:xlink="http://www.w3.org/1999/xlink" x="0px" y="0px"
	 viewBox="0 0 1000 1000" style="enable-background:new 0 0 1000 1000;" xml:space="preserve">
<path d="M656.1,562.6c11.9,0,22.7-6.7,28-17.3l125-250c4.8-9.7,4.3-21.2-1.4-30.4c-5.7-9.2-15.8-14.8-26.6-14.8H319.2l-7.5-37.4
	c-2.9-14.6-15.7-25.1-30.6-25.1h-62.5c-17.2,0-31.2,14-31.2,31.2s13.9,31.2,31.2,31.2h36.9l7.4,36.8c0,0.4,0.1,0.8,0.2,1.2l46.6,233
	l-59.8,59.8c-17.9,17.9-23.2,44.7-13.5,68.1c4.9,11.9,13.1,21.6,23.3,28.3c-6.2,12.6-9.7,26.7-9.7,41.6c0,51.6,42,93.7,93.7,93.7
	c51.7,0,93.8-42.1,93.8-93.8c0-10.9-1.9-21.4-5.4-31.2h135.6c-3.4,9.7-5.3,20.2-5.3,31.2c0,51.7,42.1,93.8,93.8,93.8
	s93.8-42.1,93.9-93.7c0-51.7-42-93.8-93.7-93.8c-0.1,0-0.1,0-0.1,0H344.4c-0.4,0-0.9,0-1.3,0h-48.9l62.5-62.4H656.1z M656.2,687.5
	c17.3,0,31.2,14,31.2,31.2s-14,31.2-31.2,31.2s-31.2-14-31.2-31.2S639,687.5,656.2,687.5z M343.7,687.5c17.3,0,31.2,14,31.2,31.2
	s-14,31.2-31.2,31.2s-31.2-14-31.2-31.2S326.5,687.5,343.7,687.5z M730.8,312.5L637,500H369.4l-37.5-187.5H730.8z"/>
</svg>
