<?xml version="1.0" encoding="utf-8"?>
<!-- Generator: Adobe Illustrator 25.1.0, SVG Export Plug-In . SVG Version: 6.00 Build 0)  -->
<svg version="1.1" id="Layer_1" xmlns="http://www.w3.org/2000/svg" xmlns:xlink="http://www.w3.org/1999/xlink" x="0px" y="0px"
	 viewBox="0 0 1000 1000" style="enable-background:new 0 0 1000 1000;" xml:space="preserve">
<path d="M780.9,778.7l-31.2-375c-1.3-16.2-14.8-28.7-31.1-28.7h-62.5v-31.2c0-86.1-70.1-156.2-156.2-156.2s-156.2,70-156.2,156.2
	V375h-62.5c-16.2,0-29.7,12.5-31.1,28.7l-31.2,375c-0.8,8.7,2.2,17.3,8.1,23.7c5.9,6.4,14.3,10.1,23,10.1h500
	c8.7,0,17.1-3.7,22.8-10.1C778.7,796,781.6,787.4,780.9,778.7z M406.3,343.8c0-51.7,42.2-93.8,93.8-93.8s93.7,42.1,93.7,93.8V375
	H406.3V343.8z M284,750l26-312.5h33.9v31.2c0,17.2,14,31.2,31.2,31.2s31.2-13.9,31.2-31.2v-31.2h187.5v31.2
	c0,17.2,14,31.2,31.2,31.2s31.2-13.9,31.2-31.2v-31.2H690L716,750H284z"/>
</svg>
