<?xml version="1.0" encoding="utf-8"?>
<!-- Generator: Adobe Illustrator 25.1.0, SVG Export Plug-In . SVG Version: 6.00 Build 0)  -->
<svg version="1.1" id="Layer_1" xmlns="http://www.w3.org/2000/svg" xmlns:xlink="http://www.w3.org/1999/xlink" x="0px" y="0px"
	 viewBox="0 0 1000 1000" style="enable-background:new 0 0 1000 1000;" xml:space="preserve">
<g>
	<path d="M218.8,406.2H500c17.3,0,31.2-14,31.2-31.2s-13.9-31.2-31.2-31.2H218.8c-17.2,0-31.2,14-31.2,31.2S201.5,406.2,218.8,406.2
		z"/>
	<path d="M218.8,281.2H625c17.3,0,31.2-14,31.2-31.2s-13.9-31.2-31.2-31.2H218.8c-17.2,0-31.2,14-31.2,31.2S201.5,281.2,218.8,281.2
		z"/>
	<path d="M531.2,500c0-17.2-13.9-31.2-31.2-31.2H218.8c-17.2,0-31.2,14-31.2,31.2s13.9,31.2,31.2,31.2H500
		C517.3,531.2,531.2,517.2,531.2,500z"/>
	<path d="M803.3,602.9c-12.2-12.2-32-12.2-44.2,0l-71.7,71.7V375c0-17.2-14-31.2-31.2-31.2S625,357.7,625,375v299.6l-71.7-71.7
		c-12.2-12.2-32-12.2-44.2,0s-12.2,32,0,44.2l125,125c3,3,6.5,5.3,10.2,6.8c3.6,1.4,7.6,2.3,11.9,2.3s8.3-0.8,11.9-2.3
		c3.7-1.5,7.2-3.8,10.2-6.8l125-125C815.5,634.9,815.5,615.1,803.3,602.9z"/>
</g>
</svg>
