<?xml version="1.0" encoding="utf-8"?>
<!-- Generator: Adobe Illustrator 25.1.0, SVG Export Plug-In . SVG Version: 6.00 Build 0)  -->
<svg version="1.1" id="Layer_1" xmlns="http://www.w3.org/2000/svg" xmlns:xlink="http://www.w3.org/1999/xlink" x="0px" y="0px"
	 viewBox="0 0 1000 1000" style="enable-background:new 0 0 1000 1000;" xml:space="preserve">
<g>
	<path d="M218.8,281.2H625c17.3,0,31.2-14,31.2-31.2s-13.9-31.2-31.2-31.2H218.8c-17.2,0-31.2,14-31.2,31.2S201.5,281.2,218.8,281.2
		z"/>
	<path d="M218.8,406.2H500c17.3,0,31.2-14,31.2-31.2s-13.9-31.2-31.2-31.2H218.8c-17.2,0-31.2,14-31.2,31.2S201.5,406.2,218.8,406.2
		z"/>
	<path d="M803.3,477.9l-125-125c-3-3-6.5-5.3-10.2-6.8c-3.6-1.5-7.6-2.3-11.8-2.3c-0.1,0-0.1,0-0.2,0c-4.2,0-8.2,0.8-11.8,2.3
		c-3.7,1.5-7.2,3.8-10.2,6.8l-125,125c-12.2,12.2-12.2,32,0,44.2s32,12.2,44.2,0l71.7-71.7V750c0,17.2,13.9,31.2,31.2,31.2
		s31.3-13.9,31.2-31.2V450.4l71.7,71.7c12.2,12.2,32,12.2,44.2,0S815.5,490.1,803.3,477.9z"/>
	<path d="M406.3,468.8H218.8c-17.2,0-31.2,14-31.2,31.2s13.9,31.2,31.2,31.2h187.4c17.3,0,31.3-14,31.3-31.2
		S423.6,468.8,406.3,468.8z"/>
</g>
</svg>
