<?xml version="1.0" encoding="utf-8"?>
<!-- Generator: Adobe Illustrator 25.1.0, SVG Export Plug-In . SVG Version: 6.00 Build 0)  -->
<svg version="1.1" id="Layer_1" xmlns="http://www.w3.org/2000/svg" xmlns:xlink="http://www.w3.org/1999/xlink" x="0px" y="0px"
	 viewBox="0 0 1000 1000" style="enable-background:new 0 0 1000 1000;" xml:space="preserve">
<g>
	<path d="M250,312.6v31.2c0,17.2,13.9,31.2,31.2,31.2s31.3-14,31.2-31.4v-31.2h31.2c17.2,0,31.2-14,31.2-31.2S360.9,250,343.6,250
		h-31.2v-31c0-17.2-14-31.2-31.2-31.2S250,201.7,250,219v31.2h-31.2c-17.2,0-31.2,14-31.2,31.2s13.9,31.2,31.2,31.2H250z"/>
	<path d="M792.2,470.7L627.6,409l-66.8-200.1c-4.2-12.8-16.2-21.4-29.6-21.4s-25.3,8.6-29.6,21.4L434.9,409l-164.6,61.7
		C258.1,475.3,250,487,250,500s8.1,24.7,20.3,29.3L434.9,591l66.7,200.1c4.2,12.8,16.1,21.4,29.6,21.4s25.4-8.6,29.7-21.3L627.6,591
		l164.6-61.7c12.2-4.6,20.3-16.2,20.3-29.3S804.4,475.3,792.2,470.7z M591.7,537.7c-8.8,3.3-15.6,10.5-18.6,19.4l-41.8,125.4
		l-41.8-125.4c-3-9-9.9-16.1-18.7-19.4L370.3,500l100.5-37.7c8.9-3.3,15.7-10.5,18.7-19.4l41.8-125.4l41.8,125.4
		c2.9,9,9.8,16.1,18.6,19.4L692.3,500L591.7,537.7z"/>
	<path d="M375,687.6h-31.4v-31.2c0-17.2-14-31.2-31.2-31.2s-31.2,13.9-31.2,31.2v31.2H250c-17.2,0-31.2,14-31.2,31.2
		S232.7,750,250,750h31.3v31.3c0,17.2,13.9,31.2,31.2,31.2s31.3-14,31.3-31.3V750H375c17.3,0,31.2-14,31.2-31.2
		S392.3,687.6,375,687.6z"/>
</g>
</svg>
