<?xml version="1.0" encoding="utf-8"?>
<!-- Generator: Adobe Illustrator 25.0.1, SVG Export Plug-In . SVG Version: 6.00 Build 0)  -->
<svg version="1.1" id="Layer_1" xmlns="http://www.w3.org/2000/svg" xmlns:xlink="http://www.w3.org/1999/xlink" x="0px" y="0px"
	 viewBox="0 0 40 40" style="enable-background:new 0 0 40 40;" xml:space="preserve">
<style type="text/css">
	.st0{fill:none;}
	.st1{fill:#E8E9F3;}
</style>
<rect class="st0" width="40" height="40"/>
<path class="st1" d="M17.2,30c-1.2,0-2.2-0.7-2.6-1.8l-2-5.8C11,21.5,10,19.9,10,18c0-2.8,2.2-5,5-5h1.8c3.6,0,7-1.1,8.4-2.7
	c0.3-0.3,0.7-0.4,1.1-0.3c0.4,0.1,0.6,0.5,0.6,0.9V14c1.7,0.4,3,2,3,3.9s-1.3,3.4-3,3.9V25c0,0.4-0.3,0.8-0.6,0.9
	c-0.4,0.1-0.8,0-1.1-0.3c-1-1.1-2.9-2-5.2-2.4v4C20,28.8,18.8,30,17.2,30z M15,23l1.6,4.5c0.1,0.3,0.4,0.5,0.7,0.5
	c0.4,0,0.8-0.3,0.8-0.8V23c-0.4,0-0.8,0-1.2,0H15L15,23z M20,21.2c1.9,0.3,3.7,0.9,5,1.7v-9.8c-1.3,0.8-3.1,1.4-5,1.7V21.2z
	 M13.8,20.8C14.2,21,14.6,21,15,21h1.8c0.4,0,0.8,0,1.2,0v-6c-0.4,0-0.8,0-1.2,0H15c-1.7,0-3,1.3-3,3C12,19.2,12.7,20.3,13.8,20.8
	L13.8,20.8z M27,16.3v3.5c0.6-0.3,1-1,1-1.7S27.6,16.6,27,16.3z"/>
</svg>
