<?xml version="1.0" encoding="utf-8"?>
<!-- Generator: Adobe Illustrator 25.1.0, SVG Export Plug-In . SVG Version: 6.00 Build 0)  -->
<svg version="1.1" id="Layer_1" xmlns="http://www.w3.org/2000/svg" xmlns:xlink="http://www.w3.org/1999/xlink" x="0px" y="0px"
	 viewBox="0 0 1000 1000" style="enable-background:new 0 0 1000 1000;" xml:space="preserve">
<path d="M718.8,316.5v-97.7c0-13.1-8.1-24.7-20.3-29.3c-12.1-4.5-25.9-1.1-34.5,8.7c-43.5,49.7-149.1,83.1-263,83.1h-57.3
	c-86.1,0-156.2,70-156.2,156.2c0,58,31.9,110.5,82.2,137.6l62.9,180.1c12.2,34.3,44.8,57.3,81.2,57.3c47.5,0,86.2-38.7,86.2-86.3
	V602.3c72.8,13,133.6,39.7,164,74.5c8.6,9.8,22.4,13.3,34.5,8.7c12.2-4.6,20.3-16.3,20.3-29.3v-97.7c53.9-13.9,93.8-62.9,93.8-121
	C812.6,379.4,772.7,330.4,718.8,316.5z M437.5,726.2c0,13-10.6,23.7-23.7,23.7c-10,0-19-6.3-22.3-15.5l-49.1-140.7
	c0.4,0,0.9,0,1.3,0.1H401c12.3,0,24.5,0.4,36.5,1.1V726.2z M437.5,532.3c-12-0.7-24.2-1-36.5-1h-57.2c-12.7,0-24.9-2.5-36.5-7.4
	c-0.2-0.1-0.2-0.1-0.5-0.1c-34.6-14.7-56.9-48.6-56.9-86.2c0-51.7,42.1-93.8,93.8-93.8H401c12.3,0,24.5-0.3,36.5-1V532.3z
	 M656.2,591.3c-41.7-24.9-95.6-43-156.2-52.5V336.2c60.6-9.5,114.5-27.6,156.2-52.5V591.3z M718.8,491.6V383.4
	c18.6,10.8,31.2,31,31.2,54.1C750,460.6,737.5,480.8,718.8,491.6z"/>
</svg>
