<?xml version="1.0" encoding="utf-8"?>
<!-- Generator: Adobe Illustrator 25.1.0, SVG Export Plug-In . SVG Version: 6.00 Build 0)  -->
<svg version="1.1" id="Layer_1" xmlns="http://www.w3.org/2000/svg" xmlns:xlink="http://www.w3.org/1999/xlink" x="0px" y="0px"
	 viewBox="0 0 1000 1000" style="enable-background:new 0 0 1000 1000;" xml:space="preserve">
<path d="M819.9,422.1c-8.5-26.2-31.8-43.2-59.4-43.2H606.9l-47.5-146.1c-8.5-26.3-31.9-43.2-59.4-43.2s-50.9,17-59.4,43.2
	l-47.5,146.1H239.5c-27.5,0-50.9,17-59.4,43.2c-8.5,26.3,0.4,53.7,22.7,69.9L327,582.2l-47.5,146c-8.5,26.3,0.4,53.7,22.7,69.9
	c11.2,8.1,24,12.2,36.8,12.2s25.6-4,36.8-12.1L500,707.9l124.3,90.3c22.4,16.2,51.2,16.2,73.5,0c22.3-16.3,31.2-43.7,22.7-69.9
	L673,582.2L797.2,492C819.5,475.8,828.4,448.3,819.9,422.1z M636.2,531.6c-22,16-31.1,44.1-22.7,69.9L661,747.6l-124.3-90.2
	c-10.9-8-23.8-12-36.7-12c-12.9,0-25.8,4-36.8,12L339,747.6l47.4-146c8.4-25.8-0.7-53.9-22.7-69.9l-124.2-90.3h153.6
	c27.1,0,51-17.4,59.4-43.2L500,252.1l47.5,146c8.3,25.8,32.2,43.2,59.4,43.2h153.5L636.2,531.6z"/>
</svg>
