<?xml version="1.0" encoding="utf-8"?>
<!-- Generator: Adobe Illustrator 25.0.1, SVG Export Plug-In . SVG Version: 6.00 Build 0)  -->
<svg version="1.1" id="Layer_1" xmlns="http://www.w3.org/2000/svg" xmlns:xlink="http://www.w3.org/1999/xlink" x="0px" y="0px"
	 viewBox="0 0 40 40" style="enable-background:new 0 0 40 40;" xml:space="preserve">
<style type="text/css">
	.st0{fill:none;}
	.st1{fill:#E8E9F3;}
</style>
<rect class="st0" width="40" height="40"/>
<path class="st1" d="M14.8,29.9c-0.4,0-0.8-0.1-1.2-0.4c-0.7-0.5-1-1.4-0.7-2.2l1.5-4.7l-4-2.9c-0.7-0.5-1-1.4-0.7-2.2
	c0.3-0.8,1-1.4,1.9-1.4h4.9l1.5-4.7c0.3-0.8,1-1.4,1.9-1.4s1.6,0.5,1.9,1.4l1.5,4.7h4.9c0.9,0,1.6,0.5,1.9,1.4
	c0.3,0.8,0,1.7-0.7,2.2l-4,2.9l1.5,4.7c0.3,0.8,0,1.7-0.7,2.2s-1.6,0.5-2.4,0l-4-2.9l-4,2.9C15.7,29.8,15.3,29.9,14.8,29.9z
	 M11.7,18.1l4,2.9c0.7,0.5,1,1.4,0.7,2.2l-1.5,4.7l4-2.9c0.7-0.5,1.6-0.5,2.4,0l4,2.9l-1.5-4.7c-0.3-0.8,0-1.7,0.7-2.2l4-2.9h-4.9
	c-0.9,0-1.6-0.6-1.9-1.4L20,12.1l0,0l0,0l0,0l-1.5,4.7c-0.3,0.8-1,1.4-1.9,1.4h-4.9V18.1z M19,11.8L19,11.8L19,11.8z"/>
</svg>
