<?xml version="1.0" encoding="utf-8"?>
<!-- Generator: Adobe Illustrator 25.1.0, SVG Export Plug-In . SVG Version: 6.00 Build 0)  -->
<svg version="1.1" id="Layer_1" xmlns="http://www.w3.org/2000/svg" xmlns:xlink="http://www.w3.org/1999/xlink" x="0px" y="0px"
	 viewBox="0 0 1000 1000" style="enable-background:new 0 0 1000 1000;" xml:space="preserve">
<g>
	<path d="M411.7,367.3c-12.2-12.2-32-12.2-44.2,0c-35.4,35.4-54.9,82.5-54.9,132.6c0,50.1,19.5,97.2,54.9,132.6
		c6.1,6.1,14.1,9.2,22.1,9.2s16-3,22.1-9.2c12.2-12.2,12.2-32,0-44.2c-23.6-23.6-36.6-55-36.6-88.4c0-33.4,13-64.8,36.6-88.4
		C423.9,399.3,423.9,379.5,411.7,367.3z"/>
	<path d="M250.1,499.9c0-66.8,26-129.6,73.2-176.8c12.2-12.2,12.2-32,0-44.2s-32-12.2-44.2,0c-59,59.1-91.5,137.5-91.5,221
		s32.5,162,91.5,221c6.1,6.1,14.1,9.2,22.1,9.2s16-3,22.1-9.2c12.2-12.2,12.2-32,0-44.2C276.1,629.5,250.1,566.7,250.1,499.9z"/>
	<ellipse transform="matrix(0.7071 -0.7071 0.7071 0.7071 -207.0775 500.0707)" cx="500.1" cy="500" rx="62.5" ry="62.5"/>
	<path d="M721.1,278.9c-12.2-12.2-32-12.2-44.2,0s-12.2,32,0,44.2c97.5,97.5,97.5,256.1,0,353.6c-12.2,12.2-12.2,32,0,44.2
		c6.1,6.1,14.1,9.2,22.1,9.2s16-3,22.1-9.2C842.9,599,842.9,400.7,721.1,278.9z"/>
	<path d="M632.6,367.3c-12.2-12.2-32-12.2-44.2,0s-12.2,32,0,44.2c23.6,23.6,36.6,55,36.6,88.4c0,33.4-13,64.8-36.6,88.4
		c-12.2,12.2-12.2,32,0,44.2c6.1,6.1,14.1,9.2,22.1,9.2s16-3,22.1-9.2c35.4-35.4,54.9-82.5,54.9-132.6
		C687.5,449.8,668,402.7,632.6,367.3z"/>
</g>
</svg>
