<?xml version="1.0" encoding="utf-8"?>
<!-- Generator: Adobe Illustrator 25.1.0, SVG Export Plug-In . SVG Version: 6.00 Build 0)  -->
<svg version="1.1" id="Layer_1" xmlns="http://www.w3.org/2000/svg" xmlns:xlink="http://www.w3.org/1999/xlink" x="0px" y="0px"
	 viewBox="0 0 1000 1000" style="enable-background:new 0 0 1000 1000;" xml:space="preserve">
<g>
	<path d="M263.3,420.1c5.5-16.4-3.3-34.1-19.7-39.6c-16.4-5.4-34.1,3.4-39.6,19.7c-38.1,113.3-9.3,236.2,75.2,320.7
		c6.1,6.1,14.1,9.2,22.1,9.2c7.9,0,15.9-3,22.2-9.1c12.2-12.2,12.2-32,0-44.2C255.9,609.1,232.8,510.8,263.3,420.1z"/>
	<path d="M376.3,517.7c-2.4-17.1-18.2-29-35.3-26.6c-17.1,2.4-29,18.2-26.6,35.3c5.8,40.5,24.1,77.1,53.1,106.1
		c6.1,6.1,14.1,9.2,22.1,9.2s16-3,22.1-9.1c12.2-12.2,12.2-32,0-44.2C392.4,569.1,380.1,544.6,376.3,517.7z"/>
	<path d="M803.6,759.2l-61.4-61.4c100.4-122.7,93.4-304.4-21-418.8c-12.2-12.2-32-12.2-44.2,0s-12.2,32,0,44.2
		c90,90,96.9,232.1,20.7,330.1l-44.6-44.7c22.5-31.5,34.6-69.1,34.6-108.6c0-50.1-19.5-97.2-54.9-132.6c-12.2-12.2-32-12.2-44.2,0
		s-12.2,32,0,44.2c23.6,23.6,36.6,55,36.6,88.4c0,22.7-6,44.5-17.3,63.5l-47.3-47.3c1.4-5.2,2.1-10.7,2.1-16.2
		c0-34.5-28-62.5-62.5-62.5c-5.5,0-11,0.7-16.2,2.1l-243-243c-12.2-12.2-32-12.2-44.2,0c-12.2,12.2-12.2,32,0,44.2L455.9,500
		l132.5,132.5c0.1,0.1,0.1,0.1,0.2,0.2l170.7,170.6c6.1,6.1,14.1,9.2,22.1,9.2s16-3.1,22.2-9.1C815.8,791.2,815.8,771.4,803.6,759.2
		z"/>
</g>
</svg>
