<?xml version="1.0" encoding="utf-8"?>
<!-- Generator: Adobe Illustrator 25.1.0, SVG Export Plug-In . SVG Version: 6.00 Build 0)  -->
<svg version="1.1" id="Layer_1" xmlns="http://www.w3.org/2000/svg" xmlns:xlink="http://www.w3.org/1999/xlink" x="0px" y="0px"
	 viewBox="0 0 1000 1000" style="enable-background:new 0 0 1000 1000;" xml:space="preserve">
<g>
	<path d="M301.1,345.3c6.1,6.1,14.1,9.2,22.1,9.2s16-3.1,22.1-9.2c12.2-12.2,12.2-32,0-44.2L323.2,279c-12.2-12.2-32-12.2-44.2,0
		s-12.2,32,0,44.2L301.1,345.3z"/>
	<path d="M281.2,500c0-17.2-13.9-31.2-31.2-31.2h-31.2c-17.2,0-31.2,14-31.2,31.2s13.9,31.2,31.2,31.2H250
		C267.3,531.2,281.2,517.2,281.2,500z"/>
	<path d="M500,281.2c17.3,0,31.2-13.9,31.2-31.2v-31.2c0-17.2-14-31.2-31.2-31.2s-31.2,13.9-31.2,31.2V250
		C468.8,267.2,482.7,281.2,500,281.2z"/>
	<path d="M676.8,354.5c8,0,16-3.1,22.1-9.1l22.1-22.1c12.2-12.2,12.2-32,0-44.2s-32-12.2-44.2,0l-22.1,22.1
		c-12.2,12.2-12.2,32,0,44.2C660.8,351.4,668.8,354.5,676.8,354.5z"/>
	<path d="M301.1,654.6L279,676.7c-12.2,12.2-12.2,32,0,44.2c6.1,6.1,14.1,9.2,22.1,9.2s16-3,22.1-9.1l22.1-22.2
		c12.2-12.2,12.2-32,0-44.2S313.3,642.4,301.1,654.6z"/>
	<path d="M500,343.8c-86.2,0-156.2,70.1-156.2,156.2s70,156.2,156.2,156.2s156.2-70,156.2-156.2S586.2,343.8,500,343.8z M500,593.8
		c-51.7,0-93.8-42.1-93.8-93.8c0-51.7,42.1-93.8,93.8-93.8s93.8,42.1,93.8,93.8S551.7,593.8,500,593.8z"/>
	<path d="M698.9,654.6c-12.2-12.2-32-12.2-44.2,0s-12.2,32,0,44.2l22.1,22.1c6.1,6.1,14.1,9.2,22.1,9.2s16-3,22.1-9.2
		c12.2-12.2,12.2-32,0-44.2L698.9,654.6z"/>
	<path d="M781.2,468.8H750c-17.2,0-31.2,14-31.2,31.2s13.9,31.2,31.2,31.2h31.2c17.3,0,31.2-14,31.2-31.2S798.5,468.8,781.2,468.8z"
		/>
	<path d="M500,718.8c-17.2,0-31.2,13.9-31.2,31.2v31.3c0,17.2,13.9,31.2,31.2,31.2s31.2-14,31.2-31.3V750
		C531.2,732.8,517.2,718.8,500,718.8z"/>
</g>
</svg>
