<?xml version="1.0" encoding="utf-8"?>
<!-- Generator: Adobe Illustrator 25.0.1, SVG Export Plug-In . SVG Version: 6.00 Build 0)  -->
<svg version="1.1" id="Layer_1" xmlns="http://www.w3.org/2000/svg" xmlns:xlink="http://www.w3.org/1999/xlink" x="0px" y="0px"
	 viewBox="0 0 40 40" style="enable-background:new 0 0 40 40;" xml:space="preserve">
<style type="text/css">
	.st0{fill:none;}
	.st1{fill:#E8E9F3;}
</style>
<rect class="st0" width="40" height="40"/>
<path class="st1" d="M20,30c-0.6,0-1-0.4-1-1v-1c0-0.6,0.4-1,1-1s1,0.4,1,1v1C21,29.6,20.6,30,20,30z M26.4,27.4
	c-0.3,0-0.5-0.1-0.7-0.3L25,26.4c-0.4-0.4-0.4-1,0-1.4s1-0.4,1.4,0l0.7,0.7c0.4,0.4,0.4,1,0,1.4C26.9,27.3,26.6,27.4,26.4,27.4z
	 M13.6,27.4c-0.3,0-0.5-0.1-0.7-0.3c-0.4-0.4-0.4-1,0-1.4l0.7-0.7c0.4-0.4,1-0.4,1.4,0s0.4,1,0,1.4l-0.7,0.7
	C14.1,27.3,13.9,27.4,13.6,27.4z M20,25c-2.8,0-5-2.2-5-5s2.2-5,5-5s5,2.2,5,5S22.8,25,20,25z M20,17c-1.7,0-3,1.3-3,3s1.3,3,3,3
	s3-1.3,3-3S21.7,17,20,17z M29,21h-1c-0.6,0-1-0.4-1-1s0.4-1,1-1h1c0.6,0,1,0.4,1,1S29.6,21,29,21z M12,21h-1c-0.6,0-1-0.4-1-1
	s0.4-1,1-1h1c0.6,0,1,0.4,1,1S12.6,21,12,21z M25.7,15.3c-0.3,0-0.5-0.1-0.7-0.3c-0.4-0.4-0.4-1,0-1.4l0.7-0.7c0.4-0.4,1-0.4,1.4,0
	s0.4,1,0,1.4L26.4,15C26.2,15.2,25.9,15.3,25.7,15.3z M14.3,15.3c-0.3,0-0.5-0.1-0.7-0.3l-0.7-0.7c-0.4-0.4-0.4-1,0-1.4s1-0.4,1.4,0
	l0.7,0.7c0.4,0.4,0.4,1,0,1.4C14.9,15.2,14.6,15.3,14.3,15.3z M20,13c-0.6,0-1-0.4-1-1v-1c0-0.6,0.4-1,1-1s1,0.4,1,1v1
	C21,12.6,20.6,13,20,13z"/>
</svg>
