<?xml version="1.0" encoding="utf-8"?>
<!-- Generator: Adobe Illustrator 25.1.0, SVG Export Plug-In . SVG Version: 6.00 Build 0)  -->
<svg version="1.1" id="Layer_1" xmlns="http://www.w3.org/2000/svg" xmlns:xlink="http://www.w3.org/1999/xlink" x="0px" y="0px"
	 viewBox="0 0 1000 1000" style="enable-background:new 0 0 1000 1000;" xml:space="preserve">
<path d="M723.4,281.4c-0.7-0.9-1.5-1.7-2.3-2.5c-0.8-0.8-1.6-1.5-2.5-2.2c-56.4-55.2-133.5-89.3-218.5-89.3s-162.2,34.1-218.6,89.4
	c-0.8,0.7-1.6,1.4-2.4,2.2c-0.8,0.8-1.5,1.6-2.2,2.4C221.6,337.8,187.5,415,187.5,500s34.1,162.2,89.3,218.5
	c0.7,0.8,1.4,1.6,2.2,2.4s1.6,1.5,2.4,2.2c56.4,55.3,133.6,89.4,218.6,89.4s162.1-34.1,218.7-89.4c0.9-0.6,1.7-1.4,2.5-2.2
	s1.5-1.6,2.2-2.5c55.2-56.4,89.3-133.5,89.3-218.5S778.6,337.8,723.4,281.4z M500,250c57.7,0,110.9,19.6,153.2,52.6l-67.1,67.1
	c-24.7-16.3-54.3-25.9-86.1-25.9c-31.8,0-61.4,9.5-86.1,25.9l-67.1-67.1C389.1,269.6,442.3,250,500,250z M593.8,500
	c0,51.7-42.1,93.8-93.8,93.8s-93.8-42.1-93.8-93.8c0-51.7,42.1-93.8,93.8-93.8S593.8,448.3,593.8,500z M250,500
	c0-57.7,19.6-110.9,52.6-153.2l67.1,67.1c-16.3,24.7-25.9,54.3-25.9,86.1c0,31.8,9.5,61.4,25.9,86.1l-67.1,67.1
	C269.6,610.9,250,557.7,250,500z M500,750c-57.7,0-110.9-19.6-153.2-52.6l67.1-67.1c24.7,16.3,54.3,25.9,86.1,25.9
	c31.8,0,61.4-9.5,86.1-25.9l67.1,67.1C610.9,730.3,557.7,750,500,750z M697.4,653.2l-67.1-67.1c16.4-24.7,25.9-54.3,25.9-86.1
	s-9.5-61.4-25.9-86.1l67.1-67.1C730.3,389.1,750,442.3,750,500S730.3,610.9,697.4,653.2z"/>
</svg>
