<?xml version="1.0" encoding="utf-8"?>
<!-- Generator: Adobe Illustrator 25.0.1, SVG Export Plug-In . SVG Version: 6.00 Build 0)  -->
<svg version="1.1" id="Layer_1" xmlns="http://www.w3.org/2000/svg" xmlns:xlink="http://www.w3.org/1999/xlink" x="0px" y="0px"
	 viewBox="0 0 40 40" style="enable-background:new 0 0 40 40;" xml:space="preserve">
<style type="text/css">
	.st0{fill:none;}
	.st1{fill:#E8E9F3;}
</style>
<rect class="st0" width="40" height="40"/>
<path class="st1" d="M16,30c-0.3,0-0.5-0.1-0.7-0.3l-4-4c-0.1-0.1-0.2-0.2-0.2-0.3c0-0.1-0.1-0.2-0.1-0.4l0,0l0,0l0,0
	c0-0.1,0-0.3,0.1-0.4c0-0.1,0.1-0.2,0.2-0.3l4-4c0.4-0.4,1-0.4,1.4,0s0.4,1,0,1.4L14.4,24H24c0.6,0,1,0.4,1,1s-0.4,1-1,1h-9.6
	l2.3,2.3c0.4,0.4,0.4,1,0,1.4C16.5,29.9,16.3,30,16,30z M24,20c-0.3,0-0.5-0.1-0.7-0.3c-0.4-0.4-0.4-1,0-1.4l2.3-2.3H16
	c-0.6,0-1-0.4-1-1s0.4-1,1-1h9.6l-2.3-2.3c-0.4-0.4-0.4-1,0-1.4s1-0.4,1.4,0l4,4c0.1,0.1,0.2,0.2,0.2,0.3S29,14.8,29,15l0,0l0,0l0,0
	c0,0.1,0,0.3-0.1,0.4c0,0.1-0.1,0.2-0.2,0.3l-4,4C24.5,19.9,24.3,20,24,20z"/>
</svg>
