<?xml version="1.0" encoding="utf-8"?>
<!-- Generator: Adobe Illustrator 25.1.0, SVG Export Plug-In . SVG Version: 6.00 Build 0)  -->
<svg version="1.1" id="Layer_1" xmlns="http://www.w3.org/2000/svg" xmlns:xlink="http://www.w3.org/1999/xlink" x="0px" y="0px"
	 viewBox="0 0 1000 1000" style="enable-background:new 0 0 1000 1000;" xml:space="preserve">
<g>
	<path d="M778.9,331.8c-1.5-3.7-3.8-7.2-6.8-10.2l-125-125c-12.2-12.2-32-12.2-44.2,0c-12.2,12.2-12.2,32,0,44.2l71.7,71.7H375
		c-17.2,0-31.2,14-31.2,31.2s13.9,31.2,31.2,31.2h299.6l-71.7,71.7c-12.2,12.2-12.2,32,0,44.2c6.1,6.1,14.1,9.2,22.1,9.2
		s16-3.1,22.1-9.2l125-125c3-3,5.3-6.5,6.8-10.2c1.4-3.6,2.3-7.6,2.3-11.8c0-0.1,0-0.1,0-0.2C781.2,339.4,780.4,335.4,778.9,331.8z"
		/>
	<path d="M625,625H325.4l71.7-71.7c12.2-12.2,12.2-32,0-44.2s-32-12.2-44.2,0l-125,125c-3,3-5.3,6.5-6.8,10.2
		c-1.5,3.6-2.3,7.6-2.3,11.8c0,0.1,0,0.1,0,0.2c0,4.2,0.8,8.2,2.3,11.8c1.5,3.7,3.8,7.2,6.8,10.2l125,125c6.1,6.1,14.1,9.2,22.1,9.2
		s16-3.1,22.1-9.2c12.2-12.2,12.2-32,0-44.2l-71.7-71.7H625c17.2,0,31.2-14,31.2-31.2S642.3,625,625,625z"/>
</g>
</svg>
