<?xml version="1.0" encoding="utf-8"?>
<!-- Generator: Adobe Illustrator 25.1.0, SVG Export Plug-In . SVG Version: 6.00 Build 0)  -->
<svg version="1.1" id="Layer_1" xmlns="http://www.w3.org/2000/svg" xmlns:xlink="http://www.w3.org/1999/xlink" x="0px" y="0px"
	 viewBox="0 0 1000 1000" style="enable-background:new 0 0 1000 1000;" xml:space="preserve">
<g>
	<path d="M803.3,602.9c-12.2-12.2-32-12.2-44.2,0l-71.7,71.7V375c0-17.2-14-31.2-31.2-31.2S625,357.7,625,375v299.6l-71.7-71.7
		c-12.2-12.2-32-12.2-44.2,0s-12.2,32,0,44.2l125,125c3,3,6.5,5.3,10.2,6.8c3.6,1.4,7.6,2.3,11.9,2.3s8.3-0.8,11.9-2.3
		c3.7-1.5,7.2-3.8,10.2-6.8l125-125C815.5,634.9,815.5,615.1,803.3,602.9z"/>
	<path d="M490.9,352.9l-125-125c-3-3-6.5-5.3-10.2-6.8c-3.6-1.5-7.6-2.3-11.8-2.3c-0.1,0-0.1,0-0.2,0c-4.2,0-8.2,0.8-11.8,2.3
		c-3.7,1.5-7.2,3.8-10.2,6.8l-125,125c-12.2,12.2-12.2,32,0,44.2c12.2,12.2,32,12.2,44.2,0l71.7-71.7V625
		c0,17.2,13.9,31.2,31.2,31.2c17.2,0,31.2-13.9,31.2-31.2V325.4l71.7,71.7c12.2,12.2,32,12.2,44.2,0S503.1,365.1,490.9,352.9z"/>
</g>
</svg>
