<?xml version="1.0" encoding="utf-8"?>
<!-- Generator: Adobe Illustrator 25.1.0, SVG Export Plug-In . SVG Version: 6.00 Build 0)  -->
<svg version="1.1" id="Layer_1" xmlns="http://www.w3.org/2000/svg" xmlns:xlink="http://www.w3.org/1999/xlink" x="0px" y="0px"
	 viewBox="0 0 1000 1000" style="enable-background:new 0 0 1000 1000;" xml:space="preserve">
<path d="M718.7,281.2H281.2c-51.7,0-93.8,42.1-93.8,93.8v250c0,51.7,42.1,93.8,93.8,93.8h437.6c51.6,0,93.7-42.1,93.7-93.8V375
	C812.5,323.3,770.4,281.2,718.7,281.2z M468.7,656.2H281.2c-17.2,0-31.2-14-31.2-31.2v-31.2v-0.1h218.7V656.2z M468.8,531.2H250
	v-62.5h218.8V531.2z M749.9,625c0,17.2-14,31.2-31.2,31.2H531.2v-62.4h218.7V625z M750,531.2H531.2v-62.5H750V531.2z M750,406.2H500
	H250V375c0-17.2,14-31.2,31.2-31.2h437.6c17.2,0,31.2,14,31.2,31.2V406.2z"/>
</svg>
