<?xml version="1.0" encoding="utf-8"?>
<!-- Generator: Adobe Illustrator 25.1.0, SVG Export Plug-In . SVG Version: 6.00 Build 0)  -->
<svg version="1.1" id="Layer_1" xmlns="http://www.w3.org/2000/svg" xmlns:xlink="http://www.w3.org/1999/xlink" x="0px" y="0px"
	 viewBox="0 0 1000 1000" style="enable-background:new 0 0 1000 1000;" xml:space="preserve">
<g>
	<path d="M344.1,312.6h-0.3c-17.3,0-31.1,14-31.1,31.2s14.1,31.2,31.4,31.2c17.2,0,31.2-14,31.2-31.2S361.4,312.6,344.1,312.6z"/>
	<path d="M785,433.7L566.3,215c-17.7-17.6-41.3-27.4-66.3-27.4H343.7c-86.1,0-156.2,70-156.2,156.2V500c0,25.1,9.8,48.6,27.5,66.3
		L433.7,785c17.7,17.7,41.3,27.5,66.3,27.5s48.6-9.8,66.3-27.5L785,566.3c17.7-17.7,27.5-41.3,27.5-66.3S802.7,451.4,785,433.7z
		 M741,522.1L522.2,740.9c-11.8,11.8-32.4,11.8-44.2,0L259.2,522.1c-5.9-5.9-9.2-13.8-9.2-22.1V343.8c0-51.7,42.1-93.8,93.8-93.8
		H500c8.4,0,16.2,3.2,22.1,9.1L741,477.9c5.9,5.9,9.2,13.7,9.2,22.1C750.2,508.4,746.9,516.2,741,522.1z"/>
</g>
</svg>
