<?xml version="1.0" encoding="utf-8"?>
<!-- Generator: Adobe Illustrator 25.1.0, SVG Export Plug-In . SVG Version: 6.00 Build 0)  -->
<svg version="1.1" id="Layer_1" xmlns="http://www.w3.org/2000/svg" xmlns:xlink="http://www.w3.org/1999/xlink" x="0px" y="0px"
	 viewBox="0 0 1000 1000" style="enable-background:new 0 0 1000 1000;" xml:space="preserve">
<g>
	<path d="M281.2,406.2h437.6c34.4,0,62.4-28,62.4-62.5v-62.5c0-34.5-28-62.5-62.5-62.5H281.2c-34.5,0-62.5,28-62.5,62.5v62.5
		C218.7,378.2,246.7,406.2,281.2,406.2z M281.2,281.2h437.5v62.5H281.2V281.2z"/>
	<path d="M468.7,468.7H281.2c-34.5,0-62.5,28-62.5,62.5v187.5c0,34.5,28,62.5,62.5,62.5h187.6c34.4,0,62.4-28,62.4-62.5V531.2
		C531.2,496.7,503.2,468.7,468.7,468.7z M468.7,718.7H281.2V531.2h187.5V718.7z"/>
	<path d="M718.8,468.7h-62.5c-34.5,0-62.5,28-62.5,62.5v187.5c0,34.5,28,62.5,62.5,62.5h62.5c34.4,0,62.4-28,62.5-62.5V531.2
		C781.3,496.7,753.3,468.7,718.8,468.7z M718.7,718.7h-62.5V531.2h62.5V718.7z"/>
</g>
</svg>
