<?xml version="1.0" encoding="utf-8"?>
<!-- Generator: Adobe Illustrator 25.1.0, SVG Export Plug-In . SVG Version: 6.00 Build 0)  -->
<svg version="1.1" id="Layer_1" xmlns="http://www.w3.org/2000/svg" xmlns:xlink="http://www.w3.org/1999/xlink" x="0px" y="0px"
	 viewBox="0 0 1000 1000" style="enable-background:new 0 0 1000 1000;" xml:space="preserve">
<g>
	<path d="M490.9,477.8L397.1,384c-12.2-12.2-32-12.2-44.2,0s-12.2,32,0,44.2l71.7,71.7l-71.7,71.7c-12.2,12.2-12.2,32,0,44.2
		c6.1,6.1,14.1,9.2,22.1,9.2s16-3.1,22.1-9.2l93.8-93.8C503.1,509.8,503.1,490,490.9,477.8z"/>
	<path d="M718.7,218.6H281.2c-51.7,0-93.8,42.1-93.8,93.8v375c0,51.7,42.1,93.8,93.8,93.8h437.6c51.6,0,93.7-42,93.7-93.8v-375
		C812.5,260.7,770.4,218.6,718.7,218.6z M749.9,687.4c0,17.2-14,31.2-31.2,31.2H281.2c-17.2,0-31.2-14-31.2-31.2v-375
		c0-17.2,14-31.2,31.2-31.2h437.5c17.2,0,31.2,14,31.2,31.2V687.4z"/>
	<path d="M625,562.6h-93.8c-17.2,0-31.2,14-31.2,31.2s13.9,31.2,31.2,31.2H625c17.3,0,31.2-14,31.2-31.2S642.3,562.6,625,562.6z"/>
</g>
</svg>
