<?xml version="1.0" encoding="utf-8"?>
<!-- Generator: Adobe Illustrator 25.0.1, SVG Export Plug-In . SVG Version: 6.00 Build 0)  -->
<svg version="1.1" id="Layer_1" xmlns="http://www.w3.org/2000/svg" xmlns:xlink="http://www.w3.org/1999/xlink" x="0px" y="0px"
	 viewBox="0 0 40 40" style="enable-background:new 0 0 40 40;" xml:space="preserve">
<style type="text/css">
	.st0{fill:none;}
	.st1{fill:#E8E9F3;}
</style>
<rect class="st0" width="40" height="40"/>
<path class="st1" d="M27,29H13c-1.7,0-3-1.3-3-3V14c0-1.7,1.3-3,3-3h14c1.7,0,3,1.3,3,3v12C30,27.7,28.7,29,27,29z M13,13
	c-0.6,0-1,0.4-1,1v12c0,0.6,0.4,1,1,1h14c0.6,0,1-0.4,1-1V14c0-0.6-0.4-1-1-1H13z M24,24h-3c-0.6,0-1-0.4-1-1s0.4-1,1-1h3
	c0.6,0,1,0.4,1,1S24.6,24,24,24z M16,24c-0.3,0-0.5-0.1-0.7-0.3c-0.4-0.4-0.4-1,0-1.4l2.3-2.3l-2.3-2.3c-0.4-0.4-0.4-1,0-1.4
	c0.4-0.4,1-0.4,1.4,0l3,3c0.4,0.4,0.4,1,0,1.4l-3,3C16.5,23.9,16.3,24,16,24z"/>
</svg>
