<?xml version="1.0" encoding="utf-8"?>
<!-- Generator: Adobe Illustrator 25.1.0, SVG Export Plug-In . SVG Version: 6.00 Build 0)  -->
<svg version="1.1" id="Layer_1" xmlns="http://www.w3.org/2000/svg" xmlns:xlink="http://www.w3.org/1999/xlink" x="0px" y="0px"
	 viewBox="0 0 1000 1000" style="enable-background:new 0 0 1000 1000;" xml:space="preserve">
<path d="M794.8,450.7c-17.2-27.9-47.1-44.5-79.8-44.5H597.3v-125c0-51.7-42-93.8-96.7-93.8c-32.8,0-59.5,26.7-59.5,59.5
	c0,16.2-4.7,31.9-13.7,45.4l-75.9,113.9h-66.6c-51.7,0-93.8,42.1-93.8,93.8v187.4c0,51.7,42.1,93.8,93.8,93.8h58.7l113.9,28.5
	c7.4,1.9,15,2.8,22.6,2.8h125.5c35.8,0,67.9-19.9,83.9-51.8l109.4-218.8C813.5,512.6,812,478.5,794.8,450.7z M316.1,718.7h-31.2
	c-17.2,0-31.2-14-31.2-31.2V500c0-17.2,14-31.2,31.2-31.2v-0.1h31.2V718.7z M743,514L633.6,732.7c-5.4,10.7-16.1,17.3-28,17.3H480.1
	c-2.5,0-5.1-0.3-7.6-0.9l-93.9-23.5V478.2l100.8-150.9c15.3-23,23.6-49.6,24.2-77.1c17.2,0,31.2,14,31.2,31.2v125h-31.2
	c-17.2,0-31.2,14-31.2,31.2s13.9,31.2,31.2,31.2H715c15.8,0,23.9,10.3,26.6,14.8C744.4,488,750,499.9,743,514z"/>
</svg>
