<?xml version="1.0" encoding="utf-8"?>
<!-- Generator: Adobe Illustrator 25.1.0, SVG Export Plug-In . SVG Version: 6.00 Build 0)  -->
<svg version="1.1" id="Layer_1" xmlns="http://www.w3.org/2000/svg" xmlns:xlink="http://www.w3.org/1999/xlink" x="0px" y="0px"
	 viewBox="0 0 1000 1000" style="enable-background:new 0 0 1000 1000;" xml:space="preserve">
<path d="M715.2,218.7h-58.7l-113.8-28.5c-7.4-1.9-15.1-2.8-22.7-2.8H394.4c-35.7,0-67.8,19.8-83.8,51.8L201.2,458
	c-14.6,29.2-13.1,63.4,4.1,91.2c17.2,27.9,47,44.5,79.7,44.5h117.6v125c0,51.7,42,93.8,96.7,93.8c32.9,0,59.6-26.7,59.7-59.5
	c0-16.2,4.7-31.9,13.7-45.4l75.9-113.8h66.6c51.7,0,93.8-42.1,93.8-93.8V312.5C809,260.8,766.9,218.7,715.2,218.7z M621.3,521.8
	L520.5,672.9c-15.3,23-23.6,49.5-24.2,77.1c-17.2,0-31.2-14-31.2-31.2v-125v-0.2h31.3c17.2,0,31.2-14,31.2-31.2
	s-13.9-31.2-31.2-31.2H285c-15.7,0-23.8-10.3-26.6-14.8c-2.8-4.4-8.4-16.3-1.4-30.4l109.4-218.7c5.3-10.7,16-17.3,27.9-17.3h125.5
	c2.6,0,5.1,0.3,7.6,0.9l93.9,23.5V521.8z M746.3,500c0,17.2-14,31.2-31.2,31.2h-31.2V281.3h31.2c17.2,0,31.2,14,31.2,31.2V500z"/>
</svg>
