<?xml version="1.0" encoding="utf-8"?>
<!-- Generator: Adobe Illustrator 25.1.0, SVG Export Plug-In . SVG Version: 6.00 Build 0)  -->
<svg version="1.1" id="Layer_1" xmlns="http://www.w3.org/2000/svg" xmlns:xlink="http://www.w3.org/1999/xlink" x="0px" y="0px"
	 viewBox="0 0 1000 1000" style="enable-background:new 0 0 1000 1000;" xml:space="preserve">
<g>
	<path d="M781.3,468.8c17.2,0,31.2-13.9,31.2-31.2v-93.8c0-51.7-42.1-93.8-93.8-93.8H281.2c-51.7,0-93.8,42.1-93.8,93.8v93.8
		c0,17.2,13.9,31.2,31.2,31.2c17.2,0,31.2,14,31.2,31.2s-14,31.2-31.2,31.2c-17.2,0-31.2,13.9-31.2,31.2v93.8
		c0,51.7,42.1,93.8,93.8,93.8h437.6c51.6,0,93.7-42.1,93.7-93.8v-93.8c0-17.2-13.9-31.2-31.2-31.2c-17.2,0-31.2-14-31.2-31.2
		S764.1,468.8,781.3,468.8z M750,411.7c-36.4,12.9-62.5,47.7-62.5,88.4c0,40.7,26.1,75.5,62.5,88.4v67.8c0,17.2-14,31.2-31.2,31.2
		H625h-0.2v-31.2c0-17.2-14-31.2-31.2-31.2s-31.2,13.9-31.2,31.2v31.2H281.2c-17.2,0-31.2-14-31.2-31.2v-67.8
		c36.4-12.9,62.5-47.7,62.5-88.4c0-40.7-26.1-75.5-62.5-88.4v-67.9c0-17.2,14-31.2,31.2-31.2h281.4v31.2c0,17.2,14,31.2,31.2,31.2
		s31.2-13.9,31.2-31.2v-31.2h93.8c17.2,0,31.2,14,31.2,31.2V411.7z"/>
	<path d="M593.8,437.6c-17.2,0-31.2,13.9-31.2,31.2v62.5c0,17.2,13.9,31.2,31.2,31.2c17.2,0,31.2-14,31.2-31.2v-62.5
		C625,451.6,611,437.6,593.8,437.6z"/>
</g>
</svg>
