<?xml version="1.0" encoding="utf-8"?>
<!-- Generator: Adobe Illustrator 25.0.1, SVG Export Plug-In . SVG Version: 6.00 Build 0)  -->
<svg version="1.1" id="Layer_1" xmlns="http://www.w3.org/2000/svg" xmlns:xlink="http://www.w3.org/1999/xlink" x="0px" y="0px"
	 viewBox="0 0 40 40" style="enable-background:new 0 0 40 40;" xml:space="preserve">
<style type="text/css">
	.st0{fill:none;}
	.st1{fill:#E8E9F3;}
</style>
<rect class="st0" width="40" height="40"/>
<path class="st1" d="M27,28H13c-1.7,0-3-1.3-3-3v-3c0-0.6,0.4-1,1-1s1-0.4,1-1s-0.4-1-1-1s-1-0.4-1-1v-3c0-1.7,1.3-3,3-3h14
	c1.7,0,3,1.3,3,3v3c0,0.6-0.4,1-1,1s-1,0.4-1,1s0.4,1,1,1s1,0.4,1,1v3C30,26.7,28.7,28,27,28z M24,26h3c0.6,0,1-0.4,1-1v-2.2
	c-1.2-0.4-2-1.5-2-2.8s0.8-2.4,2-2.8V15c0-0.6-0.4-1-1-1h-3v1c0,0.6-0.4,1-1,1s-1-0.4-1-1v-1h-9c-0.6,0-1,0.4-1,1v2.2
	c1.2,0.4,2,1.5,2,2.8s-0.8,2.4-2,2.8V25c0,0.6,0.4,1,1,1h9v-1c0-0.6,0.4-1,1-1s1,0.4,1,1V26z M23,22c-0.6,0-1-0.4-1-1v-2
	c0-0.6,0.4-1,1-1s1,0.4,1,1v2C24,21.6,23.6,22,23,22z"/>
</svg>
