<?xml version="1.0" encoding="utf-8"?>
<!-- Generator: Adobe Illustrator 25.1.0, SVG Export Plug-In . SVG Version: 6.00 Build 0)  -->
<svg version="1.1" id="Layer_1" xmlns="http://www.w3.org/2000/svg" xmlns:xlink="http://www.w3.org/1999/xlink" x="0px" y="0px"
	 viewBox="0 0 1000 1000" style="enable-background:new 0 0 1000 1000;" xml:space="preserve">
<g>
	<path d="M460.7,600.5c12.4-12,12.8-31.8,0.8-44.2c-5.2-5.3-10.2-10.8-15.1-16.3c49.6-67.1,85.1-144.6,102.9-227.6h44.4
		c17.2,0,31.2-14,31.2-31.2S611,250,593.7,250h-69.8c-0.4,0-0.7,0-1.1,0h-85.4v-31.1c0-17.2-14-31.2-31.2-31.2S375,201.6,375,218.9
		v31.2H218.7c-17.2,0-31.2,14-31.2,31.2s13.9,31.2,31.2,31.2h266.5c-15.3,63.6-42.4,123.3-79,176.4c-20.5-29.6-37.9-61.3-52-94.8
		c-6.8-15.9-25.1-23.3-41-16.6c-15.9,6.8-23.3,25.1-16.6,41c18.3,43.3,41.6,84.1,69.4,121.7c-44.7,50.5-99.2,92.6-161.1,123.4
		c-15.5,7.7-21.8,26.4-14.1,41.9c5.4,11,16.5,17.3,28,17.3c4.6,0,9.4-1.1,13.8-3.5c66.2-32.8,124.8-77.4,173.6-130.6
		c3.4,3.7,6.8,7.4,10.3,11C428.5,612.2,448.3,612.5,460.7,600.5z"/>
	<path d="M809.3,767.3l-46.6-93.1c-0.2-0.4-0.4-0.8-0.6-1.2L652.9,454.8c-10.6-21.2-45.3-21.2-55.9,0L488,673
		c-0.2,0.4-0.4,0.8-0.6,1.2l-46.6,93.1c-7.7,15.4-1.4,34.2,14,41.9c15.4,7.6,34.2,1.4,41.9-14l38.2-76.5h180.2l38.2,76.5
		c5.5,11,16.5,17.3,28,17.3c4.7,0,9.4-1.1,14-3.3C810.8,801.5,817,782.7,809.3,767.3z M566.2,656.2L625,538.6l58.8,117.6H566.2z"/>
</g>
</svg>
