<?xml version="1.0" encoding="utf-8"?>
<!-- Generator: Adobe Illustrator 25.0.1, SVG Export Plug-In . SVG Version: 6.00 Build 0)  -->
<svg version="1.1" id="Layer_1" xmlns="http://www.w3.org/2000/svg" xmlns:xlink="http://www.w3.org/1999/xlink" x="0px" y="0px"
	 viewBox="0 0 40 40" style="enable-background:new 0 0 40 40;" xml:space="preserve">
<style type="text/css">
	.st0{fill:none;}
	.st1{fill:#E8E9F3;}
</style>
<rect class="st0" width="40" height="40"/>
<path class="st1" d="M29,30c-0.4,0-0.7-0.2-0.9-0.6L26.9,27h-5.8l-1.2,2.4c-0.2,0.5-0.8,0.7-1.3,0.4c-0.5-0.2-0.7-0.8-0.4-1.3l1.5-3
	l0,0l3.5-7c0.3-0.7,1.4-0.7,1.8,0l3.5,7l0,0l1.5,3c0.2,0.5,0,1.1-0.4,1.3C29.3,30,29.2,30,29,30z M22.1,25h3.8L24,21.2L22.1,25z
	 M11,27.1c-0.4,0-0.7-0.2-0.9-0.6c-0.2-0.5,0-1.1,0.5-1.3c2-1,3.7-2.3,5.2-3.9c-0.9-1.2-1.6-2.5-2.2-3.9c-0.2-0.5,0-1.1,0.5-1.3
	c0.5-0.2,1.1,0,1.3,0.5c0.5,1.1,1,2.1,1.7,3c1.2-1.7,2-3.6,2.5-5.6H11c-0.6,0-1-0.4-1-1s0.4-1,1-1h5v-1c0-0.6,0.4-1,1-1s1,0.4,1,1v1
	h2.7l0,0H23c0.6,0,1,0.4,1,1s-0.4,1-1,1h-1.4c-0.6,2.7-1.7,5.1-3.3,7.3c0.2,0.2,0.3,0.4,0.5,0.5c0.4,0.4,0.4,1,0,1.4s-1,0.4-1.4,0
	c-0.1-0.1-0.2-0.2-0.3-0.4c-1.6,1.7-3.4,3.1-5.6,4.2C11.3,27.1,11.2,27.1,11,27.1z"/>
</svg>
