<?xml version="1.0" encoding="utf-8"?>
<!-- Generator: Adobe Illustrator 25.1.0, SVG Export Plug-In . SVG Version: 6.00 Build 0)  -->
<svg version="1.1" id="Layer_1" xmlns="http://www.w3.org/2000/svg" xmlns:xlink="http://www.w3.org/1999/xlink" x="0px" y="0px"
	 viewBox="0 0 1000 1000" style="enable-background:new 0 0 1000 1000;" xml:space="preserve">
<g>
	<path d="M562.5,687.5c17.3,0,31.3-14,31.2-31.2V468.8c0-17.2-14-31.2-31.2-31.2s-31.2,13.9-31.2,31.2v187.5
		C531.3,673.5,545.2,687.5,562.5,687.5z"/>
	<path d="M437.5,687.5c17.3,0,31.3-14,31.2-31.2V468.8c0-17.2-14-31.2-31.2-31.2s-31.2,13.9-31.2,31.2v187.5
		C406.3,673.5,420.2,687.5,437.5,687.5z"/>
	<path d="M750,312.5h-31c-0.2,0-0.4,0-0.6,0H625V250c0-34.5-28-62.5-62.5-62.5h-125c-34.5,0-62.5,28-62.5,62.5v62.6h-93.4
		c-0.2,0-0.4,0-0.6,0h-31c-17.2,0-31.2,14-31.2,31.2S232.7,375,250,375h2.2l25,350.4c3.5,48.9,44.5,87.1,93.5,87.1h258.6
		c48.9,0,90-38.2,93.5-87.1l25-350.4h2.2c17.3,0,31.2-14.1,31.2-31.3S767.3,312.5,750,312.5z M437.5,250h125v62.5h-125V250z
		 M660.5,721c-1.2,16.2-14.9,29-31.2,29H370.7c-16.4,0-30-12.7-31.2-29l-24.7-346h370.4L660.5,721z"/>
</g>
</svg>
