<?xml version="1.0" encoding="utf-8"?>
<!-- Generator: Adobe Illustrator 25.1.0, SVG Export Plug-In . SVG Version: 6.00 Build 0)  -->
<svg version="1.1" id="Layer_1" xmlns="http://www.w3.org/2000/svg" xmlns:xlink="http://www.w3.org/1999/xlink" x="0px" y="0px"
	 viewBox="0 0 1000 1000" style="enable-background:new 0 0 1000 1000;" xml:space="preserve">
<path d="M781.2,375c-17.2,0-31.2,13.9-31.2,31.2v174.6L553.4,384.1c-12.2-12.2-32-12.2-44.2,0L406.3,487L240.9,321.6
	c-12.2-12.2-32-12.2-44.2,0s-12.2,32,0,44.2l187.4,187.5c12.2,12.2,32,12.2,44.2,0l102.9-102.9l174.6,174.7H531.2
	c-17.2,0-31.2,14-31.2,31.2s13.9,31.2,31.2,31.2h250c4.3,0,8.3-0.9,11.9-2.4c3.7-1.5,7.2-3.8,10.2-6.8s5.3-6.5,6.8-10.2
	c1.4-3.6,2.3-7.6,2.3-11.8v-0.1v-250C812.4,389,798.4,375,781.2,375z"/>
</svg>
