<?xml version="1.0" encoding="utf-8"?>
<!-- Generator: Adobe Illustrator 25.1.0, SVG Export Plug-In . SVG Version: 6.00 Build 0)  -->
<svg version="1.1" id="Layer_1" xmlns="http://www.w3.org/2000/svg" xmlns:xlink="http://www.w3.org/1999/xlink" x="0px" y="0px"
	 viewBox="0 0 1000 1000" style="enable-background:new 0 0 1000 1000;" xml:space="preserve">
<path d="M810.1,331.9c-1.5-3.7-3.8-7.2-6.8-10.2s-6.5-5.3-10.2-6.8c-3.6-1.5-7.6-2.3-11.8-2.3h-0.1h-250c-17.2,0-31.2,14-31.2,31.2
	s13.9,31.2,31.2,31.2h174.6L531.3,549.5L428.4,446.6c-12.2-12.2-32-12.2-44.2,0L196.7,634.1c-12.2,12.2-12.2,32,0,44.2
	c6.1,6.1,14.1,9.2,22.1,9.2c7.9,0,15.9-3.1,22-9.2l165.4-165.4l102.9,102.9c12.2,12.2,32,12.2,44.2,0L750,419.2v174.6
	c0,17.2,14,31.2,31.2,31.2s31.2-13.9,31.2-31.2v-250v-0.1C812.4,339.5,811.6,335.5,810.1,331.9z"/>
</svg>
