<?xml version="1.0" encoding="utf-8"?>
<!-- Generator: Adobe Illustrator 25.0.1, SVG Export Plug-In . SVG Version: 6.00 Build 0)  -->
<svg version="1.1" id="Layer_1" xmlns="http://www.w3.org/2000/svg" xmlns:xlink="http://www.w3.org/1999/xlink" x="0px" y="0px"
	 viewBox="0 0 40 40" style="enable-background:new 0 0 40 40;" xml:space="preserve">
<style type="text/css">
	.st0{fill:none;}
	.st1{fill:#E8E9F3;}
</style>
<rect class="st0" width="40" height="40"/>
<path class="st1" d="M11,26c-0.3,0-0.5-0.1-0.7-0.3c-0.4-0.4-0.4-1,0-1.4l6-6c0.4-0.4,1-0.4,1.4,0l3.3,3.3l5.6-5.6H21
	c-0.6,0-1-0.4-1-1s0.4-1,1-1h8l0,0l0,0c0.1,0,0.3,0,0.4,0.1c0.1,0,0.2,0.1,0.3,0.2s0.2,0.2,0.2,0.3S30,14.8,30,15l0,0l0,0v8
	c0,0.6-0.4,1-1,1s-1-0.4-1-1v-5.6l-6.3,6.3c-0.4,0.4-1,0.4-1.4,0L17,20.4l-5.3,5.3C11.5,25.9,11.3,26,11,26z"/>
</svg>
