<?xml version="1.0" encoding="utf-8"?>
<!-- Generator: Adobe Illustrator 25.1.0, SVG Export Plug-In . SVG Version: 6.00 Build 0)  -->
<svg version="1.1" id="Layer_1" xmlns="http://www.w3.org/2000/svg" xmlns:xlink="http://www.w3.org/1999/xlink" x="0px" y="0px"
	 viewBox="0 0 1000 1000" style="enable-background:new 0 0 1000 1000;" xml:space="preserve">
<path d="M794,437.3L687.6,331c-12.4-12.5-26.8-18.5-43.9-18.5h-81.2c0-36.2-26.3-62.5-62.5-62.5H250c-36.2,0-62.5,26.3-62.5,62.5
	V625c0,36.2,26.3,62.5,62.5,62.5h5.4c12.9,36.4,47.7,62.5,88.4,62.5c40.7,0,75.5-26.1,88.4-62.5h67.9c11.6,0,22.2-2.7,31.2-7.6
	c9,4.9,19.6,7.6,31.2,7.6h5.3c12.9,36.4,47.7,62.5,88.4,62.5c40.8,0,75.6-26.1,88.5-62.5h5.3c36.2,0,62.5-26.3,62.5-62.5V481.3
	C812.5,464.1,806.5,449.8,794,437.3z M343.7,687.4c-17.2,0-31.2-14-31.2-31.2s14.1-31.2,31.3-31.2s31.1,14,31.1,31.2
	S360.9,687.4,343.7,687.4z M500,625h-67.9c-12.8-36.4-47.6-62.5-88.3-62.5c-40.7,0-75.5,26.1-88.4,62.5H250V312.5h250V625z
	 M656.2,687.4c-17.2,0-31.2-14-31.2-31.2s14-31.2,31.2-31.2s31.2,14,31.2,31.2S673.4,687.4,656.2,687.4z M750,625.1h-5.3
	c-12.9-36.4-47.7-62.5-88.4-62.5c-41.3,0-76.4,26.7-88.9,63.8l-4.7,0.2c0,0-0.2-0.5-0.2-1.6h0V375l81,0.2l106.5,106V625.1z"/>
</svg>
