<?xml version="1.0" encoding="utf-8"?>
<!-- Generator: Adobe Illustrator 25.0.1, SVG Export Plug-In . SVG Version: 6.00 Build 0)  -->
<svg version="1.1" id="Layer_1" xmlns="http://www.w3.org/2000/svg" xmlns:xlink="http://www.w3.org/1999/xlink" x="0px" y="0px"
	 viewBox="0 0 40 40" style="enable-background:new 0 0 40 40;" xml:space="preserve">
<style type="text/css">
	.st0{fill:none;}
	.st1{fill:#E8E9F3;}
</style>
<rect class="st0" width="40" height="40"/>
<g>
	<path class="st1" d="M17,20c2.8,0,5-2.2,5-5s-2.2-5-5-5s-5,2.2-5,5S14.2,20,17,20z M17,12c1.7,0,3,1.3,3,3s-1.3,3-3,3s-3-1.3-3-3
		S15.3,12,17,12z"/>
	<path class="st1" d="M17,21c-3.9,0-7,3.1-7,7v1c0,0.6,0.4,1,1,1h12c0.6,0,1-0.4,1-1v-1C24,24.1,20.9,21,17,21z M12,28
		c0-2.8,2.2-5,5-5s5,2.2,5,5H12z"/>
	<path class="st1" d="M29,19h-6c-0.6,0-1,0.4-1,1s0.4,1,1,1h6c0.6,0,1-0.4,1-1S29.6,19,29,19z"/>
</g>
</svg>
