<?xml version="1.0" encoding="utf-8"?>
<!-- Generator: Adobe Illustrator 25.0.1, SVG Export Plug-In . SVG Version: 6.00 Build 0)  -->
<svg version="1.1" id="Layer_1" xmlns="http://www.w3.org/2000/svg" xmlns:xlink="http://www.w3.org/1999/xlink" x="0px" y="0px"
	 viewBox="0 0 40 40" style="enable-background:new 0 0 40 40;" xml:space="preserve">
<style type="text/css">
	.st0{fill:none;}
	.st1{fill:#E8E9F3;}
</style>
<rect class="st0" width="40" height="40"/>
<path class="st1" d="M23,30H11c-0.6,0-1-0.4-1-1v-1c0-3.9,3.1-7,7-7s7,3.1,7,7v1C24,29.6,23.6,30,23,30z M12,28h10c0-2.8-2.2-5-5-5
	S12,25.2,12,28z M26,24c-0.6,0-1-0.4-1-1v-2h-2c-0.6,0-1-0.4-1-1s0.4-1,1-1h2v-2c0-0.6,0.4-1,1-1s1,0.4,1,1v2h2c0.6,0,1,0.4,1,1
	s-0.4,1-1,1h-2v2C27,23.6,26.6,24,26,24z M17,20c-2.8,0-5-2.2-5-5s2.2-5,5-5s5,2.2,5,5S19.8,20,17,20z M17,12c-1.7,0-3,1.3-3,3
	s1.3,3,3,3s3-1.3,3-3S18.7,12,17,12z"/>
</svg>
