<?xml version="1.0" encoding="utf-8"?>
<!-- Generator: Adobe Illustrator 25.0.1, SVG Export Plug-In . SVG Version: 6.00 Build 0)  -->
<svg version="1.1" id="Layer_1" xmlns="http://www.w3.org/2000/svg" xmlns:xlink="http://www.w3.org/1999/xlink" x="0px" y="0px"
	 viewBox="0 0 40 40" style="enable-background:new 0 0 40 40;" xml:space="preserve">
<style type="text/css">
	.st0{fill:none;}
	.st1{fill:#E8E9F3;}
</style>
<rect class="st0" width="40" height="40"/>
<path class="st1" d="M29,30H11c-0.6,0-1-0.4-1-1v-1c0-3.9,3.1-7,7-7c1.1,0,2.1,0.2,3,0.7c0.9-0.4,2-0.7,3-0.7c3.9,0,7,3.1,7,7v1
	C30,29.6,29.6,30,29,30z M24,28h4c0-2.8-2.2-5-5-5c-0.3,0-0.7,0-1,0.1C23.2,24.4,24,26.1,24,28z M12,28h10c0-2.8-2.2-5-5-5
	S12,25.2,12,28z M23,20c-1.1,0-2.1-0.4-3-1c-0.8,0.6-1.9,1-3,1c-2.8,0-5-2.2-5-5s2.2-5,5-5c1.1,0,2.2,0.4,3,1c0.9-0.6,1.9-1,3-1
	c2.8,0,5,2.2,5,5S25.8,20,23,20z M21.3,17.5c0.5,0.3,1.1,0.5,1.7,0.5c1.7,0,3-1.3,3-3s-1.3-3-3-3c-0.6,0-1.2,0.2-1.7,0.5
	c0.4,0.7,0.7,1.6,0.7,2.5S21.8,16.8,21.3,17.5z M17,12c-1.7,0-3,1.3-3,3s1.3,3,3,3s3-1.3,3-3S18.7,12,17,12z"/>
</svg>
