<?xml version="1.0" encoding="utf-8"?>
<!-- Generator: Adobe Illustrator 25.1.0, SVG Export Plug-In . SVG Version: 6.00 Build 0)  -->
<svg version="1.1" id="Layer_1" xmlns="http://www.w3.org/2000/svg" xmlns:xlink="http://www.w3.org/1999/xlink" x="0px" y="0px"
	 viewBox="0 0 1000 1000" style="enable-background:new 0 0 1000 1000;" xml:space="preserve">
<g>
	<path d="M406.2,500c86.2,0,156.2-70.1,156.2-156.2s-70.1-156.2-156.2-156.2S250,257.7,250,343.8S320.1,500,406.2,500z M406.2,250
		c51.7,0,93.8,42.1,93.8,93.8c0,51.7-42.1,93.8-93.8,93.8c-51.7,0-93.8-42.1-93.8-93.8C312.4,292.1,354.5,250,406.2,250z"/>
	<path d="M406.4,531.2c-120.7,0-218.8,98.2-218.8,218.8v31.3c0,17.2,13.9,31.2,31.2,31.2h375c17.2,0,31.2-14,31.2-31.3V750
		C625,629.4,527.1,531.2,406.4,531.2z M250,750c0-86.2,70.2-156.2,156.3-156.2s156.2,70,156.2,156.2H250z"/>
	<path d="M781.2,468.9h-62.5v-62.5c0-17.2-14-31.2-31.2-31.2s-31.2,13.9-31.2,31.2v62.5h-62.5c-17.2,0-31.2,14-31.2,31.2
		s13.9,31.2,31.2,31.2h62.5v62.5c0,17.2,13.9,31.2,31.2,31.2s31.3-14,31.2-31.2v-62.5h62.5c17.2,0,31.2-14,31.2-31.2
		S798.5,468.9,781.2,468.9z"/>
</g>
</svg>
