<?xml version="1.0" encoding="utf-8"?>
<!-- Generator: Adobe Illustrator 25.1.0, SVG Export Plug-In . SVG Version: 6.00 Build 0)  -->
<svg version="1.1" id="Layer_1" xmlns="http://www.w3.org/2000/svg" xmlns:xlink="http://www.w3.org/1999/xlink" x="0px" y="0px"
	 viewBox="0 0 1000 1000" style="enable-background:new 0 0 1000 1000;" xml:space="preserve">
<g>
	<path d="M406.3,500c35.1,0,67.6-11.7,93.7-31.3c26.8,20.1,59.7,31.3,93.8,31.3c86.1,0,156.1-70.1,156.1-156.2
		s-70-156.2-156.2-156.2c-34.1,0-67,11.2-93.8,31.3c-26.1-19.6-58.6-31.3-93.7-31.3c-86.1,0-156.2,70.1-156.2,156.2
		S320.1,500,406.3,500z M541.7,265.8c15.3-10.2,33.4-15.8,52.1-15.8c51.6,0,93.8,42,93.8,93.7c0,51.7-42.1,93.8-93.8,93.8
		c-18.7,0-36.8-5.6-52.1-15.8c13.2-23,20.8-49.7,20.8-78S554.9,288.7,541.7,265.8z M406.2,250c51.7,0,93.8,42.1,93.8,93.8
		c0,51.7-42.1,93.8-93.8,93.8c-51.7,0-93.8-42.1-93.8-93.8C312.4,292.1,354.5,250,406.2,250z"/>
	<path d="M593.9,531.2c-32.6,0-64.6,7.3-93.8,21.1c-28.4-13.5-60.2-21.1-93.7-21.1c-120.7,0-218.8,98.2-218.8,218.8v31.3
		c0,17.2,13.9,31.2,31.2,31.2h562.4c17.3,0,31.3-14,31.5-31.3V750C812.7,629.3,714.5,531.2,593.9,531.2z M250,750
		c0-86.2,70.2-156.2,156.3-156.2s156.2,70,156.2,156.2H250z M625,750c0-59.5-23.9-113.6-62.6-153c10.3-2.1,20.8-3.2,31.4-3.2
		c86.1,0,156.2,70,156.2,156.2H625z"/>
</g>
</svg>
