<?xml version="1.0" encoding="utf-8"?>
<!-- Generator: Adobe Illustrator 25.1.0, SVG Export Plug-In . SVG Version: 6.00 Build 0)  -->
<svg version="1.1" id="Layer_1" xmlns="http://www.w3.org/2000/svg" xmlns:xlink="http://www.w3.org/1999/xlink" x="0px" y="0px"
	 viewBox="0 0 1000 1000" style="enable-background:new 0 0 1000 1000;" xml:space="preserve">
<g>
	<path d="M718.8,531.2c51.6,0,93.8-42.1,93.8-93.8c0-51.7-42.1-93.8-93.8-93.8S625,385.7,625,437.4
		C625,489.1,667.1,531.2,718.8,531.2z M718.8,406.2c17.2,0,31.2,14,31.2,31.2s-14,31.2-31.2,31.2s-31.2-14-31.2-31.2
		S701.6,406.2,718.8,406.2z"/>
	<path d="M718.8,562.5c-23.3,0-45.5,6.3-64.7,17.9C619.6,530.6,562.7,500,500,500s-119.6,30.6-154,80.4
		c-19.2-11.6-41.5-17.9-64.7-17.9c-68.9,0-125,56.1-125,125V750c0,17.2,13.9,31.2,31.2,31.2h625c17.3,0,31.3-13.9,31.3-31.2v-62.5
		C843.8,618.6,787.7,562.5,718.8,562.5z M312.6,687.6v31.2h-93.7v-31.2c0-34.5,28-62.5,62.5-62.5c13.9,0,27.1,4.6,37.9,12.8
		C314.8,654,312.6,670.6,312.6,687.6z M625,718.8H375v-31.2c0-15.8,2.9-31.3,8.7-45.9c0.2-0.3,0.3-0.6,0.4-0.9
		c19.2-47.5,64.6-78.1,115.9-78.1c51.3,0,96.7,30.6,115.9,78.1c0.1,0.3,0.3,0.6,0.4,0.9c5.8,14.5,8.7,30,8.7,45.9V718.8z
		 M781.3,718.8h-93.7v-31.2c0-17-2.3-33.6-6.7-49.7c10.8-8.3,24-12.8,37.9-12.8c34.5,0,62.5,28,62.5,62.5V718.8z"/>
	<path d="M500,468.8c68.9,0,125-56.1,125-125s-56.1-125-125-125s-125,56.1-125,125S431.1,468.8,500,468.8z M500,281.2
		c34.5,0,62.5,28,62.5,62.5s-28,62.5-62.5,62.5s-62.5-28-62.5-62.5S465.5,281.2,500,281.2z"/>
	<path d="M281.2,531.2c51.7,0,93.8-42.1,93.8-93.8c0-51.7-42.1-93.8-93.8-93.8s-93.8,42.1-93.8,93.8
		C187.4,489.1,229.5,531.2,281.2,531.2z M281.2,406.2c17.3,0,31.2,14,31.2,31.2s-14,31.2-31.2,31.2s-31.2-14-31.2-31.2
		S264,406.2,281.2,406.2z"/>
</g>
</svg>
