<?xml version="1.0" encoding="utf-8"?>
<!-- Generator: Adobe Illustrator 25.1.0, SVG Export Plug-In . SVG Version: 6.00 Build 0)  -->
<svg version="1.1" id="Layer_1" xmlns="http://www.w3.org/2000/svg" xmlns:xlink="http://www.w3.org/1999/xlink" x="0px" y="0px"
	 viewBox="0 0 1000 1000" style="enable-background:new 0 0 1000 1000;" xml:space="preserve">
<g>
	<path d="M624.5,375.3c-27.4,0-53.4,11.9-71.2,32.7l-37.2,43.4l-8.8-30.8c-7.6-26.7-32.3-45.3-60.1-45.3h-38.9
		c-17.2,0-31.2,14-31.2,31.2s13.9,31.2,31.2,31.2h38.9l20.2,70.5L403.3,583c-5.9,6.9-14.6,10.9-26.2,10.9c-17.3,0-30,14-30,31.2
		s15.2,31.2,32.5,31.2c27.4,0,53.4-11.9,71.2-32.7l37.2-43.4l8.8,30.8c7.6,26.7,32.3,45.3,60.1,45.3h38.9
		c17.2,0,31.2-13.9,31.2-31.1S613.1,594,595.8,594h-38.9l-20.2-70.6l64.1-74.8c5.9-6.9,14.5-10.9,23.7-10.9h2.5
		c17.3,0,30-14,30-31.2S641.8,375.3,624.5,375.3z"/>
	<path d="M293.2,222.1c-15.5-7.7-34.2-1.4-41.9,14.1c-40.9,82.4-61.7,171.2-61.7,263.9s20.7,181.5,61.7,263.9
		c5.4,11,16.5,17.3,28,17.3c4.6,0,9.4-1.1,13.8-3.3c15.5-7.7,21.8-26.4,14.1-41.9C270.6,662.4,252,582.9,252,500
		s18.6-162.4,55.3-236C314.9,248.5,308.6,229.8,293.2,222.1z"/>
	<path d="M748.8,236.1c-7.7-15.5-26.4-21.8-41.9-14.1s-21.8,26.4-14.1,41.9C729.4,337.6,748,417.1,748,500s-18.6,162.4-55.3,236.1
		c-7.7,15.5-1.3,34.2,14.1,41.9c4.5,2.3,9.2,3.3,13.9,3.3c11.5,0,22.6-6.4,28.1-17.4c40.9-82.5,61.7-171.2,61.7-263.9
		S789.8,318.5,748.8,236.1z"/>
</g>
</svg>
