<?xml version="1.0" encoding="utf-8"?>
<!-- Generator: Adobe Illustrator 25.0.1, SVG Export Plug-In . SVG Version: 6.00 Build 0)  -->
<svg version="1.1" id="Layer_1" xmlns="http://www.w3.org/2000/svg" xmlns:xlink="http://www.w3.org/1999/xlink" x="0px" y="0px"
	 viewBox="0 0 40 40" style="enable-background:new 0 0 40 40;" xml:space="preserve">
<style type="text/css">
	.st0{fill:none;}
	.st1{fill:#E8E9F3;}
</style>
<rect class="st0" width="40" height="40"/>
<path class="st1" d="M27,29c-0.1,0-0.3,0-0.4-0.1c-0.5-0.2-0.7-0.8-0.5-1.3c1.2-2.4,1.8-4.9,1.8-7.6s-0.6-5.2-1.8-7.6
	c-0.2-0.5,0-1.1,0.5-1.3s1.1,0,1.3,0.5c1.3,2.6,2,5.5,2,8.4s-0.7,5.8-2,8.4C27.7,28.8,27.4,29,27,29z M12.9,29
	c-0.4,0-0.7-0.2-0.9-0.6c-1.3-2.6-2-5.5-2-8.4s0.7-5.8,2-8.4c0.2-0.5,0.8-0.7,1.3-0.5s0.7,0.8,0.5,1.3C12.6,14.8,12,17.3,12,20
	s0.6,5.2,1.8,7.6c0.2,0.5,0,1.1-0.5,1.3C13.2,29,13,29,12.9,29z M23,25h-1.2c-0.9,0-1.7-0.6-1.9-1.5l-0.3-1L18.4,24
	c-0.6,0.7-1.4,1-2.3,1c-0.6,0-1-0.4-1-1s0.4-1,1-1c0.4,0,0.6-0.1,0.8-0.3l2.1-2.4L18.2,18H17c-0.6,0-1-0.4-1-1s0.4-1,1-1h1.2
	c0.9,0,1.7,0.6,1.9,1.5l0.3,1l1.2-1.4c0.6-0.7,1.4-1,2.3-1c0.6,0,1,0.4,1,1s-0.4,1-1,1h-0.1c-0.3,0-0.6,0.1-0.8,0.3l-2.1,2.4
	l0.6,2.3H23c0.6,0,1,0.4,1,1S23.6,25,23,25z"/>
</svg>
