<?xml version="1.0" encoding="utf-8"?>
<!-- Generator: Adobe Illustrator 25.0.1, SVG Export Plug-In . SVG Version: 6.00 Build 0)  -->
<svg version="1.1" id="Layer_1" xmlns="http://www.w3.org/2000/svg" xmlns:xlink="http://www.w3.org/1999/xlink" x="0px" y="0px"
	 viewBox="0 0 40 40" style="enable-background:new 0 0 40 40;" xml:space="preserve">
<style type="text/css">
	.st0{fill:none;}
	.st1{fill:#E8E9F3;}
</style>
<rect class="st0" width="40" height="40"/>
<path class="st1" d="M21,27h-8c-1.7,0-3-1.3-3-3v-8c0-1.7,1.3-3,3-3h8c1.7,0,3,1.3,3,3v0.4l3.1-1.6c0.6-0.3,1.4-0.3,1.9,0.1
	c0.6,0.4,0.9,1,0.9,1.7v6.8c0,0.7-0.4,1.3-0.9,1.7c-0.6,0.4-1.3,0.4-1.9,0.1L24,23.6V24C24,25.7,22.7,27,21,27z M13,15
	c-0.6,0-1,0.4-1,1v8c0,0.6,0.4,1,1,1h8c0.6,0,1-0.4,1-1v-2c0,0,0,0,0,0v-4c0,0,0,0,0,0v-2c0-0.6-0.4-1-1-1H13z M24,21.4l4,2v-6.8
	l-4,2V21.4z"/>
</svg>
