<?xml version="1.0" encoding="utf-8"?>
<!-- Generator: Adobe Illustrator 25.1.0, SVG Export Plug-In . SVG Version: 6.00 Build 0)  -->
<svg version="1.1" id="Layer_1" xmlns="http://www.w3.org/2000/svg" xmlns:xlink="http://www.w3.org/1999/xlink" x="0px" y="0px"
	 viewBox="0 0 1000 1000" style="enable-background:new 0 0 1000 1000;" xml:space="preserve">
<path d="M782.8,341.1c-18.5-11.5-41.3-12.5-60.8-2.7l-97,48.5V375c0-51.7-42.1-93.8-93.8-93.8h-250c-51.7,0-93.8,42.1-93.8,93.8v250
	c0,51.7,42.1,93.8,93.8,93.8h250c51.7,0,93.8-42.1,93.8-93.8v-11.9l97,48.5c19.5,9.8,42.2,8.7,60.8-2.7
	c18.5-11.5,29.6-31.4,29.6-53.2V394.3C812.4,372.4,801.4,352.6,782.8,341.1z M562.4,436.9c0,0.4,0,0.9,0,1.3v123.6
	c0,0.4,0,0.8,0,1.3V625c0,17.2-14,31.2-31.2,31.2h-250c-17.2,0-31.2-14-31.2-31.2V375c0-17.2,14-31.2,31.2-31.2h250
	c17.2,0,31.2,14,31.2,31.2V436.9z M750,605.7l-125-62.5v-86.4l125-62.5V605.7z"/>
</svg>
