<?xml version="1.0" encoding="utf-8"?>
<!-- Generator: Adobe Illustrator 25.0.1, SVG Export Plug-In . SVG Version: 6.00 Build 0)  -->
<svg version="1.1" id="Layer_1" xmlns="http://www.w3.org/2000/svg" xmlns:xlink="http://www.w3.org/1999/xlink" x="0px" y="0px"
	 viewBox="0 0 40 40" style="enable-background:new 0 0 40 40;" xml:space="preserve">
<style type="text/css">
	.st0{fill:none;}
	.st1{fill:#E8E9F3;}
</style>
<rect class="st0" width="40" height="40"/>
<path class="st1" d="M27,28h-2c-0.8,0-1.5-0.3-2-0.8c-0.5,0.5-1.2,0.8-2,0.8h-2c-0.8,0-1.5-0.3-2-0.8c-0.5,0.5-1.2,0.8-2,0.8h-2
	c-1.7,0-3-1.3-3-3V15c0-1.7,1.3-3,3-3h2c0.8,0,1.5,0.3,2,0.8c0.5-0.5,1.2-0.8,2-0.8h2c0.8,0,1.5,0.3,2,0.8c0.5-0.5,1.2-0.8,2-0.8h2
	c1.7,0,3,1.3,3,3v10C30,26.7,28.7,28,27,28z M24,25c0,0.6,0.4,1,1,1h2c0.6,0,1-0.4,1-1V15c0-0.6-0.4-1-1-1h-2c-0.6,0-1,0.4-1,1V25z
	 M18,25c0,0.6,0.4,1,1,1h2c0.6,0,1-0.4,1-1V15c0-0.6-0.4-1-1-1h-2c-0.6,0-1,0.4-1,1V25z M13,14c-0.6,0-1,0.4-1,1v10c0,0.6,0.4,1,1,1
	h2c0.6,0,1-0.4,1-1V15c0-0.6-0.4-1-1-1H13z"/>
</svg>
