<?xml version="1.0" encoding="utf-8"?>
<!-- Generator: Adobe Illustrator 25.1.0, SVG Export Plug-In . SVG Version: 6.00 Build 0)  -->
<svg version="1.1" id="Layer_1" xmlns="http://www.w3.org/2000/svg" xmlns:xlink="http://www.w3.org/1999/xlink" x="0px" y="0px"
	 viewBox="0 0 1000 1000" style="enable-background:new 0 0 1000 1000;" xml:space="preserve">
<g>
	<path d="M375,218.7h-62.5c-51.7,0-93.8,42.1-93.8,93.8V375c0,51.7,42.1,93.8,93.8,93.8H375c51.7,0,93.8-42.1,93.8-93.8v-62.5
		C468.8,260.8,426.7,218.7,375,218.7z M406.2,375c0,17.2-14,31.2-31.2,31.2h-62.5c-17.2,0-31.2-14-31.2-31.2v-62.6
		c0-17.2,14-31.2,31.2-31.2v0.1H375c17.2,0,31.2,14,31.2,31.2V375z"/>
	<path d="M687.5,218.7H625c-51.7,0-93.8,42.1-93.8,93.8V375c0,51.7,42.1,93.8,93.8,93.8h62.5c51.7,0,93.7-42.1,93.8-93.8v-62.5
		C781.3,260.8,739.2,218.7,687.5,218.7z M718.7,375c0,17.2-14,31.2-31.2,31.2H625c-17.2,0-31.2-14-31.2-31.2v-62.6
		c0-17.2,14-31.2,31.2-31.2v0.1h62.5c17.2,0,31.2,14,31.2,31.2V375z"/>
	<path d="M375,531.2h-62.5c-51.7,0-93.8,42.1-93.8,93.8v62.4c0,51.7,42.1,93.8,93.8,93.8H375c51.7,0,93.8-42,93.8-93.7V625
		C468.8,573.3,426.7,531.2,375,531.2z M406.2,687.5c0,17.2-14,31.2-31.2,31.2h-62.5c-17.2,0-31.2-14-31.2-31.2V625
		c0-17.2,14-31.2,31.2-31.2H375c17.2,0,31.2,14,31.2,31.2V687.5z"/>
	<path d="M687.5,531.2H625c-51.7,0-93.8,42.1-93.8,93.8v62.4c0,51.7,42.1,93.8,93.8,93.8h62.5c51.7,0,93.7-42,93.8-93.7V625
		C781.3,573.3,739.2,531.2,687.5,531.2z M718.7,687.5c0,17.2-14,31.2-31.2,31.2H625c-17.2,0-31.2-14-31.2-31.2V625
		c0-17.2,14-31.2,31.2-31.2h62.5c17.2,0,31.2,14,31.2,31.2V687.5z"/>
</g>
</svg>
