<?xml version="1.0" encoding="utf-8"?>
<!-- Generator: Adobe Illustrator 25.1.0, SVG Export Plug-In . SVG Version: 6.00 Build 0)  -->
<svg version="1.1" id="Layer_1" xmlns="http://www.w3.org/2000/svg" xmlns:xlink="http://www.w3.org/1999/xlink" x="0px" y="0px"
	 viewBox="0 0 1000 1000" style="enable-background:new 0 0 1000 1000;" xml:space="preserve">
<g>
	<path d="M492.7,223.5c-23.4-9.7-50.1-4.4-68.1,13.5l-138,138H250c-34.5,0-62.5,28-62.5,62.5v125c0,34.5,28,62.5,62.5,62.5h36.6
		l138,138c11.9,12,27.9,18.3,44.1,18.3c8,0,16.2-1.6,24-4.9c23.4-9.7,38.6-32.3,38.6-57.7V281.2
		C531.3,255.9,516.1,233.2,492.7,223.5z M468.8,718.8L321.7,571.7c-5.9-5.9-13.8-9.2-22.1-9.2H250v-125h49.6
		c8.3,0,16.2-3.3,22.1-9.2l147.1-147.1V718.8z"/>
	<path d="M762.9,500l40.4-40.5c12.2-12.2,12.2-32,0-44.2s-32-12.2-44.2,0l-40.4,40.4l-40.4-40.4c-12.2-12.2-32-12.2-44.2,0
		s-12.2,32,0,44.2l40.4,40.4l-40.4,40.4c-12.2,12.2-12.2,32,0,44.2s32,12.2,44.2,0l40.4-40.4l40.4,40.4c6.1,6.1,14.1,9.2,22.1,9.2
		s16-3,22.1-9.1c12.2-12.2,12.2-32,0-44.2L762.9,500z"/>
</g>
</svg>
