<?xml version="1.0" encoding="utf-8"?>
<!-- Generator: Adobe Illustrator 25.1.0, SVG Export Plug-In . SVG Version: 6.00 Build 0)  -->
<svg version="1.1" id="Layer_1" xmlns="http://www.w3.org/2000/svg" xmlns:xlink="http://www.w3.org/1999/xlink" x="0px" y="0px"
	 viewBox="0 0 1000 1000" style="enable-background:new 0 0 1000 1000;" xml:space="preserve">
<g>
	<path d="M492.7,223.5c-23.4-9.7-50.1-4.4-68.1,13.5L286.7,375h-36.6c-34.5,0-62.5,28-62.5,62.5v125c0,34.5,28,62.5,62.5,62.5h36.6
		l138,138c11.9,12,27.9,18.3,44.1,18.3c8,0,16.2-1.6,23.9-4.9c23.4-9.7,38.6-32.3,38.6-57.7V281.2
		C531.3,255.9,516.1,233.2,492.7,223.5z M468.9,718.8L321.8,571.7c-5.9-5.9-13.8-9.2-22.1-9.2h-49.6v-125h49.5
		c8.3,0,16.2-3.3,22.1-9.2l147.2-147.1V718.8z"/>
	<path d="M721.1,278.9c-12.2-12.2-32-12.2-44.2,0s-12.2,32,0,44.2c97.5,97.5,97.5,256.1,0,353.6c-12.2,12.2-12.2,32,0,44.2
		c6.1,6.1,14.1,9.2,22.1,9.2s16-3,22.1-9.2C842.9,599,842.9,400.7,721.1,278.9z"/>
	<path d="M632.6,367.3c-12.2-12.2-32-12.2-44.2,0s-12.2,32,0,44.2c23.6,23.6,36.6,55,36.6,88.4c0,33.4-13,64.8-36.6,88.4
		c-12.2,12.2-12.2,32,0,44.2c6.1,6.1,14.1,9.2,22.1,9.2s16-3,22.1-9.2c35.4-35.4,54.9-82.5,54.9-132.6
		C687.5,449.8,668,402.7,632.6,367.3z"/>
</g>
</svg>
