<?xml version="1.0" encoding="utf-8"?>
<!-- Generator: Adobe Illustrator 25.0.1, SVG Export Plug-In . SVG Version: 6.00 Build 0)  -->
<svg version="1.1" id="Layer_1" xmlns="http://www.w3.org/2000/svg" xmlns:xlink="http://www.w3.org/1999/xlink" x="0px" y="0px"
	 viewBox="0 0 40 40" style="enable-background:new 0 0 40 40;" xml:space="preserve">
<style type="text/css">
	.st0{fill:none;}
	.st1{fill:#E8E9F3;}
</style>
<rect class="st0" width="40" height="40"/>
<g>
	<path class="st1" d="M19.8,11.2c-0.7-0.3-1.6-0.1-2.2,0.4L13.2,16H12c-1.1,0-2,0.9-2,2v4c0,1.1,0.9,2,2,2h1.2l4.4,4.4
		C18,28.8,18.5,29,19,29c0.3,0,0.5,0,0.8-0.2c0.8-0.3,1.2-1,1.2-1.8V13C21,12.2,20.5,11.5,19.8,11.2z M19,27l-4.7-4.7
		c-0.2-0.2-0.4-0.3-0.7-0.3H12v-4h1.6c0.3,0,0.5-0.1,0.7-0.3L19,13V27z"/>
	<path class="st1" d="M28.4,20l1.3-1.3c0.4-0.4,0.4-1,0-1.4s-1-0.4-1.4,0L27,18.6l-1.3-1.3c-0.4-0.4-1-0.4-1.4,0s-0.4,1,0,1.4
		l1.3,1.3l-1.3,1.3c-0.4,0.4-0.4,1,0,1.4s1,0.4,1.4,0l1.3-1.3l1.3,1.3c0.2,0.2,0.5,0.3,0.7,0.3s0.5-0.1,0.7-0.3c0.4-0.4,0.4-1,0-1.4
		L28.4,20z"/>
</g>
</svg>
