<?xml version="1.0" encoding="utf-8"?>
<!-- Generator: Adobe Illustrator 25.0.1, SVG Export Plug-In . SVG Version: 6.00 Build 0)  -->
<svg version="1.1" id="Layer_1" xmlns="http://www.w3.org/2000/svg" xmlns:xlink="http://www.w3.org/1999/xlink" x="0px" y="0px"
	 viewBox="0 0 40 40" style="enable-background:new 0 0 40 40;" xml:space="preserve">
<style type="text/css">
	.st0{fill:none;}
	.st1{fill:#E8E9F3;}
</style>
<rect class="st0" width="40" height="40"/>
<path class="st1" d="M20,29c-0.6,0-1-0.4-1-1s0.4-1,1-1h0c0.6,0,1,0.4,1,1S20.6,29,20,29z M23.9,25.4c-0.3,0-0.5-0.1-0.7-0.3
	c-0.9-0.9-2-1.3-3.2-1.3s-2.3,0.5-3.2,1.3c-0.4,0.4-1,0.4-1.4,0s-0.4-1,0-1.4c1.2-1.2,2.9-1.9,4.6-1.9s3.4,0.7,4.6,1.9
	c0.4,0.4,0.4,1,0,1.4C24.4,25.3,24.1,25.4,23.9,25.4z M27.1,21.9c-0.3,0-0.5-0.1-0.7-0.3c-3.5-3.5-9.2-3.5-12.7,0
	c-0.4,0.4-1,0.4-1.4,0s-0.4-1,0-1.4c4.3-4.3,11.3-4.3,15.6,0c0.4,0.4,0.4,1,0,1.4C27.6,21.8,27.3,21.9,27.1,21.9z M9.4,18.4
	c-0.3,0-0.5-0.1-0.7-0.3c-0.4-0.4-0.4-1,0-1.4c3-3,7-4.7,11.3-4.7c4.3,0,8.3,1.7,11.3,4.7c0.4,0.4,0.4,1,0,1.4s-1,0.4-1.4,0
	C27.3,15.5,23.7,14,20,14s-7.3,1.5-9.9,4.1C9.9,18.3,9.6,18.4,9.4,18.4z"/>
</svg>
